<svg width="621" height="384" viewBox="0 0 621 384" fill="none" xmlns="http://www.w3.org/2000/svg">
<path d="M586.363 276.583C587.786 276.07 589.351 276.114 590.743 276.706L588.396 282.228C590.743 276.706 590.744 276.706 590.746 276.707L590.749 276.708L590.758 276.712L590.786 276.724L590.875 276.763C590.949 276.795 591.053 276.84 591.184 276.898C591.447 277.014 591.818 277.181 592.279 277.395C593.198 277.821 594.482 278.438 595.965 279.209C598.888 280.73 602.777 282.951 606.203 285.608C609.354 288.052 613.295 291.742 614.572 296.47C615.289 299.124 615.143 302.032 613.711 304.813C612.355 307.445 610.099 309.475 607.468 311.074C601.828 314.5 594.636 315.179 587.943 314.851C581.081 314.514 573.793 313.063 567.257 311.352C560.686 309.633 554.678 307.599 550.324 306.002C548.142 305.201 546.363 304.505 545.121 304.006C544.5 303.757 544.013 303.556 543.676 303.416C543.508 303.346 543.377 303.291 543.286 303.252L543.179 303.207L543.149 303.194L543.139 303.19L543.136 303.189C543.135 303.188 543.134 303.188 545.502 297.675L543.134 303.188C540.87 302.215 539.431 299.957 539.505 297.495C539.579 295.032 541.151 292.865 543.469 292.03L586.363 276.583Z" fill="black" stroke="white" stroke-width="12" stroke-linecap="round" stroke-linejoin="round"/>
<path d="M599.982 281.135C602.505 282.32 603.88 285.087 603.3 287.814C602.72 290.541 600.339 292.509 597.551 292.565L597.55 292.565L597.535 292.565L597.469 292.567C597.408 292.568 597.314 292.57 597.19 292.574C596.94 292.58 596.567 292.591 596.083 292.608C595.115 292.641 593.707 292.696 591.967 292.787C588.481 292.967 583.688 293.284 578.449 293.831C567.638 294.958 556.064 296.96 549.672 300.175C520.245 314.972 488.709 330.225 458.702 341.56C428.824 352.847 399.815 360.508 375.596 359.59C332.286 357.947 283.13 338.14 245.282 319.164C226.254 309.624 209.882 300.189 198.265 293.138C192.453 289.611 187.825 286.677 184.643 284.619C183.051 283.59 181.821 282.78 180.984 282.224C180.565 281.946 180.245 281.732 180.027 281.586L179.907 281.505L179.778 281.418L179.712 281.373L179.694 281.361L179.688 281.357C179.687 281.356 179.686 281.355 183.059 276.394L179.686 281.355C177.682 279.993 176.695 277.56 177.182 275.187C177.669 272.814 179.535 270.967 181.913 270.504L459.565 216.466C460.814 216.222 462.109 216.383 463.261 216.924L599.982 281.135Z" fill="black" stroke="white" stroke-width="12" stroke-linecap="round" stroke-linejoin="round"/>
<path d="M480.711 232.355L486.62 231.311C487.129 234.193 485.485 237.021 482.729 238.005L480.711 232.355ZM480.711 232.355C486.62 231.311 486.619 231.307 486.619 231.303L486.616 231.29L486.609 231.249C486.603 231.216 486.594 231.169 486.584 231.11C486.562 230.992 486.53 230.824 486.488 230.606C486.404 230.172 486.279 229.541 486.107 228.729C485.765 227.105 485.239 224.751 484.495 221.776C483.006 215.827 480.643 207.385 477.125 197.311C470.096 177.183 458.416 150.429 439.805 124.03C402.434 71.0215 337.166 19.6331 226.668 26.0656C116.311 32.49 60.9372 87.2047 33.4931 140.668C19.8565 167.233 13.1767 193.34 9.89787 212.773C8.2565 222.501 7.46183 230.59 7.07748 236.273C6.88522 239.115 6.79542 241.359 6.75382 242.908C6.73301 243.682 6.72423 244.283 6.72076 244.699C6.71903 244.907 6.71859 245.069 6.71864 245.183C6.71865 245.24 6.7188 245.285 6.71896 245.318L6.7192 245.358L6.71929 245.371C6.71934 245.376 6.71937 245.38 12.7191 245.326M480.711 232.355C482.729 238.005 482.728 238.005 482.728 238.006L482.725 238.007L482.713 238.011L482.671 238.026L482.507 238.084C482.363 238.135 482.15 238.211 481.871 238.31C481.313 238.507 480.49 238.797 479.428 239.168C477.302 239.912 474.215 240.983 470.358 242.297C462.645 244.925 451.848 248.53 439.506 252.435C414.883 260.226 383.881 269.289 358.93 274.145C334.034 278.991 295.101 283.548 262.586 286.884C246.288 288.556 231.532 289.928 220.852 290.882C215.511 291.359 211.187 291.732 208.198 291.985C206.703 292.112 205.541 292.209 204.753 292.274C204.359 292.307 204.058 292.332 203.855 292.348L203.625 292.367L203.566 292.372L203.551 292.373L203.547 292.374C203.546 292.374 203.545 292.374 203.06 286.393M12.7191 245.326C8.99147 250.027 8.99258 250.028 8.99382 250.029L8.9969 250.032L9.00525 250.038L9.03064 250.058L9.11585 250.125C9.18788 250.181 9.29025 250.261 9.4222 250.363C9.68612 250.566 10.0685 250.857 10.5633 251.227C11.5528 251.965 12.9932 253.016 14.8364 254.297C18.5205 256.857 23.8269 260.345 30.3709 264.099C43.4132 271.579 61.5904 280.239 81.7749 284.594C101.726 288.899 132.226 290.821 157.366 291.691C170.015 292.129 181.441 292.305 189.706 292.371C193.839 292.404 197.184 292.409 199.498 292.407C200.656 292.405 201.556 292.402 202.168 292.399C202.474 292.397 202.708 292.396 202.867 292.395L203.047 292.394L203.094 292.393L203.106 292.393L203.11 292.393C203.111 292.393 203.111 292.393 203.06 286.393M12.7191 245.326L8.99147 250.027C7.57081 248.901 6.73565 247.193 6.71937 245.38L12.7191 245.326ZM203.06 286.393L203.545 292.374C203.401 292.385 203.256 292.392 203.111 292.393L203.06 286.393Z" fill="black" stroke="white" stroke-width="12" stroke-linecap="round" stroke-linejoin="round"/>
<path d="M205.691 53.83C197.814 54.7972 190.181 54.0321 184.139 51.7259C178.381 49.5282 172.472 45.2025 171.606 38.1487C170.739 31.0948 175.427 25.468 180.482 21.9426C185.787 18.2432 193.008 15.6542 200.885 14.687C208.762 13.7199 216.395 14.485 222.437 16.7911C228.196 18.9888 234.105 23.3145 234.971 30.3684C235.837 37.4222 231.15 43.049 226.094 46.5744C220.789 50.2739 213.568 52.8628 205.691 53.83Z" fill="black" stroke="white" stroke-width="12" stroke-linecap="round" stroke-linejoin="round"/>
</svg>
