<svg width="642" height="395" viewBox="0 0 642 395" fill="none" xmlns="http://www.w3.org/2000/svg">
<path d="M586.364 285.584C587.787 285.071 589.352 285.115 590.744 285.707L588.397 291.229C590.744 285.707 590.745 285.707 590.747 285.708L590.75 285.709L590.759 285.713L590.787 285.725L590.876 285.763C590.95 285.796 591.054 285.841 591.185 285.899C591.448 286.015 591.819 286.182 592.28 286.396C593.199 286.822 594.483 287.439 595.966 288.21C598.889 289.731 602.778 291.952 606.204 294.609C609.355 297.053 613.296 300.743 614.573 305.471C615.29 308.125 615.144 311.033 613.712 313.814C612.356 316.446 610.1 318.476 607.469 320.075C601.829 323.501 594.637 324.18 587.944 323.852C581.082 323.515 573.794 322.064 567.258 320.353C560.687 318.634 554.679 316.6 550.325 315.003C548.143 314.202 546.364 313.506 545.122 313.007C544.501 312.758 544.014 312.557 543.677 312.417C543.509 312.347 543.378 312.292 543.287 312.253L543.18 312.208L543.15 312.195L543.14 312.191L543.137 312.19C543.136 312.189 543.135 312.189 545.503 306.676L543.135 312.189C540.871 311.216 539.432 308.958 539.506 306.495C539.58 304.033 541.152 301.866 543.47 301.031L586.364 285.584Z" fill="white" stroke="black" stroke-width="12" stroke-linecap="round" stroke-linejoin="round"/>
<path d="M599.983 290.136C602.506 291.321 603.881 294.088 603.301 296.815C602.721 299.542 600.34 301.51 597.552 301.566L597.551 301.566L597.536 301.566L597.47 301.568C597.409 301.569 597.315 301.571 597.191 301.575C596.941 301.581 596.568 301.592 596.084 301.609C595.116 301.642 593.708 301.697 591.968 301.787C588.482 301.968 583.689 302.285 578.45 302.832C567.639 303.959 556.065 305.961 549.673 309.176C520.246 323.973 488.71 339.226 458.703 350.561C428.825 361.848 399.816 369.509 375.597 368.591C332.287 366.948 283.131 347.141 245.283 328.165C226.255 318.625 209.883 309.19 198.266 302.139C192.454 298.612 187.826 295.678 184.644 293.62C183.052 292.591 181.822 291.781 180.985 291.225C180.566 290.947 180.246 290.733 180.028 290.587L179.908 290.506L179.779 290.419L179.713 290.374L179.695 290.362L179.689 290.358C179.688 290.357 179.686 290.356 183.06 285.395L179.686 290.356C177.683 288.994 176.696 286.561 177.183 284.188C177.67 281.815 179.536 279.968 181.914 279.505L459.566 225.467C460.815 225.223 462.11 225.384 463.262 225.925L599.983 290.136Z" fill="white" stroke="black" stroke-width="12" stroke-linecap="round" stroke-linejoin="round"/>
<path d="M480.712 241.356L486.621 240.312C487.13 243.194 485.486 246.022 482.73 247.006L480.712 241.356ZM480.712 241.356C486.621 240.312 486.62 240.309 486.619 240.304L486.617 240.291L486.61 240.25C486.604 240.217 486.595 240.17 486.584 240.111C486.562 239.993 486.531 239.825 486.489 239.607C486.405 239.173 486.279 238.542 486.108 237.73C485.765 236.106 485.239 233.752 484.495 230.777C483.007 224.828 480.644 216.386 477.126 206.312C470.097 186.184 458.417 159.43 439.806 133.031C402.434 80.0226 337.167 28.6341 226.669 35.0667C116.312 41.4911 60.9378 96.2058 33.4937 149.669C19.8571 176.234 13.1773 202.341 9.8985 221.774C8.25713 231.502 7.46246 239.591 7.07812 245.274C6.88585 248.116 6.79605 250.36 6.75445 251.909C6.73364 252.683 6.72487 253.284 6.7214 253.7C6.71966 253.908 6.71922 254.07 6.71928 254.184C6.71929 254.241 6.71944 254.286 6.7196 254.319L6.71984 254.359L6.71992 254.372C6.71997 254.377 6.72 254.381 12.7198 254.327M480.712 241.356C482.73 247.006 482.729 247.007 482.728 247.007L482.725 247.008L482.714 247.012L482.672 247.027L482.508 247.085C482.364 247.136 482.151 247.212 481.872 247.311C481.314 247.508 480.491 247.798 479.428 248.169C477.303 248.913 474.215 249.984 470.358 251.298C462.646 253.926 451.849 257.531 439.507 261.436C414.883 269.227 383.881 278.29 358.931 283.146C334.034 287.992 295.102 292.549 262.587 295.885C246.288 297.557 231.533 298.929 220.852 299.883C215.511 300.36 211.188 300.733 208.198 300.986C206.703 301.113 205.542 301.21 204.753 301.275C204.359 301.308 204.058 301.333 203.855 301.349L203.625 301.368L203.566 301.373L203.551 301.374L203.548 301.375C203.547 301.375 203.546 301.375 203.061 295.394M12.7198 254.327C8.9921 259.028 8.99321 259.029 8.99446 259.03L8.99753 259.033L9.00588 259.039L9.03127 259.059L9.11649 259.126C9.18851 259.182 9.29089 259.262 9.42283 259.364C9.68676 259.567 10.0691 259.858 10.564 260.228C11.5534 260.966 12.9938 262.017 14.837 263.298C18.5212 265.858 23.8275 269.346 30.3715 273.1C43.4138 280.58 61.5911 289.24 81.7755 293.595C101.727 297.9 132.227 299.822 157.367 300.692C170.015 301.13 181.442 301.306 189.706 301.372C193.839 301.405 197.184 301.41 199.499 301.408C200.656 301.406 201.556 301.403 202.168 301.4C202.475 301.398 202.709 301.397 202.867 301.396L203.048 301.395L203.095 301.394L203.107 301.394L203.11 301.394C203.111 301.394 203.112 301.394 203.061 295.394M12.7198 254.327L8.9921 259.028C7.57144 257.902 6.73628 256.194 6.72 254.381L12.7198 254.327ZM203.061 295.394L203.546 301.375C203.402 301.386 203.257 301.393 203.112 301.394L203.061 295.394Z" fill="white" stroke="black" stroke-width="12" stroke-linecap="round" stroke-linejoin="round"/>
<path d="M205.691 62.8309C197.814 63.7981 190.181 63.033 184.139 60.7269C178.381 58.5292 172.472 54.2035 171.606 47.1496C170.739 40.0958 175.427 34.469 180.482 30.9436C185.787 27.2441 193.008 24.6552 200.885 23.688C208.762 22.7208 216.395 23.4859 222.437 25.7921C228.196 27.9898 234.105 32.3155 234.971 39.3693C235.837 46.4232 231.15 52.05 226.094 55.5754C220.789 59.2748 213.568 61.8637 205.691 62.8309Z" fill="white" stroke="black" stroke-width="12" stroke-linecap="round" stroke-linejoin="round"/>
</svg>
