<svg width="1080" height="1080" viewBox="0 0 1080 1080" fill="none" xmlns="http://www.w3.org/2000/svg">
<g id="Festival/ 6">
<path id="Path" fill-rule="evenodd" clip-rule="evenodd" d="M722.514 256.121C722.514 256.121 669.028 179.45 640.923 152.906C564.427 80.6604 501.796 54.463 479.522 43.7162C433.833 21.6731 329.539 57.9045 311.887 79.3479C304.513 88.3068 260.79 136.761 214.754 243.491C187.332 307.069 99.2068 548.329 99.2068 548.329L141 565C141 565 170.544 518.479 182.434 503.043C195.498 486.082 209.018 476.276 213.706 470.754C219.598 463.813 220.521 446.373 221.99 426.656C222.753 416.409 225.236 395.815 225.236 395.815L722.514 256.121Z" fill="white" stroke="black" stroke-width="12" stroke-linecap="round" stroke-linejoin="round"/>
<path id="Path_2" fill-rule="evenodd" clip-rule="evenodd" d="M262.557 498C262.557 498 415.962 418.465 508.098 397.782C600.234 377.099 735.828 381.29 735.828 381.29C735.828 381.29 760 352.113 760 319.13C760 286.147 740.917 246.821 740.917 246.821C740.917 246.821 543.008 231.75 455.936 255.701C368.865 279.651 224.39 388.902 224.39 388.902C224.39 388.902 217.61 431.682 224.39 451.062C231.17 470.443 262.557 498 262.557 498Z" fill="white" stroke="black" stroke-width="12" stroke-linecap="round" stroke-linejoin="round"/>
<circle id="Oval" cx="112" cy="568" r="80" fill="white" stroke="black" stroke-width="12" stroke-linecap="round" stroke-linejoin="round"/>
<path id="Path_3" d="M222 408C222 408 227 353 248 324C269 295 283 288 283 288" stroke="black" stroke-width="12" stroke-linecap="round" stroke-linejoin="round"/>
</g>
</svg>
