<svg width="1080" height="1080" viewBox="0 0 1080 1080" fill="none" xmlns="http://www.w3.org/2000/svg">
<g id="Festival/ 7">
<path id="Path" fill-rule="evenodd" clip-rule="evenodd" d="M453 739C453 739 416 750 396 774C376 798 371 831.969 371 831.969H387.473C387.473 831.969 385.746 852.193 387.473 865.328C389.199 878.463 396.458 900.328 396.458 900.328L404.694 889.391C404.694 889.391 423.634 921.493 437.64 935.875C451.645 950.257 480.319 967.047 480.319 967.047V955.016C480.319 955.016 507.587 976.285 522.998 982.906C538.41 989.528 569.421 993.297 569.421 993.297V977.438C569.421 977.438 607.708 1001.79 627.076 1009.16C646.444 1016.52 678.741 1019 678.741 1019C678.741 1019 669.755 996.76 669.755 986.734C669.755 976.708 678.741 967.047 678.741 967.047C678.741 967.047 684.953 967.058 689.972 969.234C694.991 971.411 702.701 977.438 702.701 977.438C702.701 977.438 743.218 948.969 761.104 929.312C778.99 909.656 782.818 889.391 782.818 889.391L791.055 900.328C791.055 900.328 806.98 881.595 810.522 869.156C814.065 856.718 810.522 831.969 810.522 831.969H824C824 831.969 815.154 799.905 806.03 782.203C796.905 764.501 776.079 739 776.079 739H453Z" fill="white" stroke="black" stroke-width="12" stroke-linecap="round" stroke-linejoin="round"/>
<path id="Path_2" fill-rule="evenodd" clip-rule="evenodd" d="M646.556 767.173C631.868 788.307 603.816 800.661 592.401 804.233C565.963 812.505 508.864 801.501 494.122 794.944C479.38 788.387 455.903 771.994 453.173 734.838C451.353 710.067 463.911 689.121 490.846 672C490.942 691.27 503.135 703.837 527.428 709.703C547.563 714.564 575.671 693.31 617.516 693.31C632.651 693.31 642.435 698.666 646.867 709.377L647 709.703C651.368 698.774 661.196 693.31 676.484 693.31C718.329 693.31 746.437 714.564 766.572 709.703C790.865 703.837 803.058 691.27 803.154 672C830.089 689.121 842.647 710.067 840.827 734.838C838.097 771.994 814.62 788.387 799.878 794.944C785.136 801.501 744.047 809.645 711.599 804.233C689.967 800.625 661.767 788.057 647 766.53L646.556 767.173Z" fill="white" stroke="black" stroke-width="12" stroke-linecap="round" stroke-linejoin="round"/>
<g id="Group">
<path id="Path_3" fill-rule="evenodd" clip-rule="evenodd" d="M262.557 498C262.557 498 415.962 418.465 508.098 397.782C600.234 377.099 735.828 381.29 735.828 381.29C735.828 381.29 760 352.113 760 319.13C760 286.147 740.917 246.821 740.917 246.821C740.917 246.821 543.008 231.75 455.936 255.701C368.865 279.651 224.39 388.902 224.39 388.902C224.39 388.902 217.61 431.682 224.39 451.062C231.17 470.443 262.557 498 262.557 498Z" fill="white" stroke="black" stroke-width="12" stroke-linecap="round" stroke-linejoin="round"/>
<path id="Path_4" fill-rule="evenodd" clip-rule="evenodd" d="M262.057 361C262.057 361 264.869 335.114 274.771 309.018C284.674 282.921 311.643 246.892 311.643 246.892C311.643 246.892 269.686 268.446 234.086 278.589C198.486 288.732 140 278.589 140 278.589C140 278.589 211.439 231.207 234.086 210.124C259.37 186.586 283.079 157.694 292.571 142.927C324.357 93.4807 384.114 68.1234 426.071 63.0519C468.029 57.9805 489.44 70.535 551.943 116.302C614.446 162.069 674 239.285 674 239.285C674 239.285 520.883 233.374 447.686 255.767C374.488 278.16 262.057 361 262.057 361Z" fill="white" stroke="black" stroke-width="12" stroke-linecap="round" stroke-linejoin="round"/>
<path id="Path_5" d="M310 248C310 248 325.077 213.819 336.765 192.5C348.452 171.181 375 137 375 137" stroke="black" stroke-width="12" stroke-linecap="round" stroke-linejoin="round"/>
<path id="Path_6" d="M311 248C311 248 350.423 194.157 375.812 171.057C401.202 147.957 433 137 433 137" stroke="black" stroke-width="12" stroke-linecap="round" stroke-linejoin="round"/>
<ellipse id="Oval" cx="147" cy="278.5" rx="92" ry="91.5" fill="white" stroke="black" stroke-width="12" stroke-linecap="round" stroke-linejoin="round"/>
</g>
</g>
</svg>
