<svg width="1080" height="1080" viewBox="0 0 1080 1080" fill="none" xmlns="http://www.w3.org/2000/svg">
<g id="Festival/ 8">
<g id="Group">
<path id="Path" fill-rule="evenodd" clip-rule="evenodd" d="M363.207 399.461C363.207 399.461 451.359 339.762 539.51 339.762C627.662 339.762 715.814 399.461 715.814 399.461C715.814 399.461 627.662 305.391 539.51 305.391C451.359 305.391 363.207 399.461 363.207 399.461Z" fill="white" stroke="black" stroke-width="12" stroke-linecap="round" stroke-linejoin="round"/>
<path id="Path_2" fill-rule="evenodd" clip-rule="evenodd" d="M615.908 322.577L674.676 206.799C674.676 206.799 634.518 138.959 646.272 125.392C658.025 111.824 699.163 168.809 699.163 168.809C699.163 168.809 776.54 33.1302 798.089 40.3664C819.637 47.6026 746.177 159.763 746.177 159.763C746.177 159.763 852.938 117.251 849.021 140.768C845.103 164.286 719.732 185.995 711.896 206.799C704.06 227.603 793.191 208.608 793.191 223.984C793.191 239.361 706.998 247.502 706.998 247.502L635.498 332.527L615.908 322.577Z" fill="white" stroke="black" stroke-width="12" stroke-linecap="round" stroke-linejoin="round"/>
<path id="Path_3" fill-rule="evenodd" clip-rule="evenodd" d="M463.251 322.577L404.483 206.799C404.483 206.799 444.641 138.959 432.888 125.392C421.134 111.824 379.997 168.809 379.997 168.809C379.997 168.809 302.619 33.1302 281.071 40.3664C259.523 47.6026 332.982 159.763 332.982 159.763C332.982 159.763 226.221 117.251 230.139 140.768C234.057 164.286 359.428 185.995 367.264 206.799C375.099 227.603 285.968 208.608 285.968 223.984C285.968 239.361 372.161 247.502 372.161 247.502L443.662 332.527L463.251 322.577Z" fill="white" stroke="black" stroke-width="12" stroke-linecap="round" stroke-linejoin="round"/>
</g>
<g id="Group_2">
<circle id="Oval" cx="659" cy="659" r="72" fill="white" stroke="black" stroke-width="12" stroke-linecap="round" stroke-linejoin="round"/>
<path id="Path_4" d="M637 615C637 615 620.596 629.168 616 642C611.403 654.832 616 674 616 674" stroke="black" stroke-width="16" stroke-linecap="round" stroke-linejoin="round"/>
<circle id="Oval_2" cx="629" cy="695" r="8" fill="black"/>
</g>
</g>
</svg>
