<svg width="1080" height="1271" viewBox="0 0 1080 1271" fill="none" xmlns="http://www.w3.org/2000/svg">
<g id="Festival/ 10">
<g id="Group">
<path id="Path" fill-rule="evenodd" clip-rule="evenodd" d="M320.658 444.975C320.658 444.975 425.318 334.823 488.717 304.993C552.115 275.162 684.428 273.81 684.428 273.81C684.428 273.81 674.958 209.172 614.776 176.264C554.595 143.356 354.34 117.085 354.34 117.085C354.34 117.085 289.028 272.861 282.834 331.815C276.641 390.769 320.658 444.975 320.658 444.975Z" fill="white" stroke="black" stroke-width="12" stroke-linecap="round" stroke-linejoin="round"/>
<g id="Path + Path + Path + Path + Path Mask">
<path id="Mask" fill-rule="evenodd" clip-rule="evenodd" d="M295.083 410.613C293.509 359.974 327.54 279.939 422.571 226.109C517.601 172.279 607.595 165.907 667.893 207.18C686.394 219.844 691.592 278.838 691.592 278.838C691.592 278.838 566.829 277.549 497.772 310.915C428.716 344.282 320.084 453.555 320.084 453.555C320.084 453.555 295.584 426.755 295.083 410.613Z" fill="white"/>
<mask id="mask0_0_1407" style="mask-type:alpha" maskUnits="userSpaceOnUse" x="295" y="180" width="397" height="274">
<path id="Mask_2" fill-rule="evenodd" clip-rule="evenodd" d="M295.083 410.613C293.509 359.974 327.54 279.939 422.571 226.109C517.601 172.279 607.595 165.907 667.893 207.18C686.394 219.844 691.592 278.838 691.592 278.838C691.592 278.838 566.829 277.549 497.772 310.915C428.716 344.282 320.084 453.555 320.084 453.555C320.084 453.555 295.584 426.755 295.083 410.613Z" fill="white"/>
</mask>
<g mask="url(#mask0_0_1407)">
<path id="Path_2" fill-rule="evenodd" clip-rule="evenodd" d="M273 328.056L362.316 457L399 431.551L314.468 306L273 328.056Z" fill="black" stroke="black" stroke-linecap="round" stroke-linejoin="round"/>
<path id="Path_3" fill-rule="evenodd" clip-rule="evenodd" d="M329 277.056L418.316 406L455 380.551L370.468 255L329 277.056Z" fill="black" stroke="black" stroke-linecap="round" stroke-linejoin="round"/>
<path id="Path_4" fill-rule="evenodd" clip-rule="evenodd" d="M395 227.202L483.608 357L520 331.382L436.139 205L395 227.202Z" fill="black" stroke="black" stroke-linecap="round" stroke-linejoin="round"/>
<path id="Path_5" fill-rule="evenodd" clip-rule="evenodd" d="M467 189.202L556.316 319L593 293.382L508.468 167L467 189.202Z" fill="black" stroke="black" stroke-linecap="round" stroke-linejoin="round"/>
<path id="Path_6" fill-rule="evenodd" clip-rule="evenodd" d="M550 177.056L638.608 306L675 280.551L591.139 155L550 177.056Z" fill="black" stroke="black" stroke-linecap="round" stroke-linejoin="round"/>
</g>
</g>
<path id="Path_7" fill-rule="evenodd" clip-rule="evenodd" d="M290.083 411.613C288.509 360.974 322.54 280.939 417.571 227.109C512.601 173.279 602.595 166.907 662.893 208.18C681.394 220.844 686.592 279.838 686.592 279.838C686.592 279.838 561.829 278.549 492.772 311.915C423.716 345.282 315.084 454.555 315.084 454.555C315.084 454.555 290.584 427.755 290.083 411.613Z" stroke="black" stroke-width="12" stroke-linecap="round" stroke-linejoin="round"/>
<path id="Path_8" fill-rule="evenodd" clip-rule="evenodd" d="M314.648 73.7801C314.648 73.7801 314.592 51.1438 329.656 45.6917C344.72 40.2396 357.731 55.1575 357.731 55.1575C357.731 55.1575 380.455 27.833 402.923 38.8011C425.392 49.7692 421.271 84.8502 421.271 84.8502C421.271 84.8502 445.627 105.507 443.442 117.134C441.257 128.76 409.505 147.463 409.505 147.463C409.505 147.463 418.311 163.507 403.601 170.28C388.89 177.053 359.768 169.284 359.768 169.284C359.768 169.284 345.793 190.017 329.3 184.526C312.806 179.036 313.089 152.061 313.089 152.061C313.089 152.061 280.837 155.041 276.236 137.869C271.635 120.698 302.118 111.114 302.118 111.114C302.118 111.114 274.736 98.6314 280.315 85.811C285.893 72.9906 314.648 73.7801 314.648 73.7801Z" fill="white" stroke="black" stroke-width="12" stroke-linecap="round" stroke-linejoin="round"/>
</g>
<g id="Group_2">
<path id="Path_9" fill-rule="evenodd" clip-rule="evenodd" d="M651.526 578C651.526 578 617 594.755 617 632.872C617 670.988 651.526 685 651.526 685C651.526 685 863 657.564 863 638.359C863 619.154 651.526 578 651.526 578Z" fill="white" stroke="black" stroke-width="12" stroke-linecap="round" stroke-linejoin="round"/>
<path id="Path_10" d="M669 583C669 583 659.369 601.343 657.123 612.5C654.877 623.657 657.123 642 657.123 642" stroke="black" stroke-width="12" stroke-linecap="round" stroke-linejoin="round"/>
<path id="Path_11" d="M706 591C706 591 699.332 606.855 697.777 616.5C696.223 626.145 697.777 642 697.777 642" stroke="black" stroke-width="12" stroke-linecap="round" stroke-linejoin="round"/>
<path id="Path_12" d="M743 599C743 599 738.555 612.368 737.518 620.5C736.482 628.632 737.518 642 737.518 642" stroke="black" stroke-width="12" stroke-linecap="round" stroke-linejoin="round"/>
<path id="Path_13" d="M777 607C777 607 774.777 617.57 774.259 624C773.741 630.43 774.259 641 774.259 641" stroke="black" stroke-width="12" stroke-linecap="round" stroke-linejoin="round"/>
<path id="Path_14" d="M811 618C811 618 808.777 625.461 808.259 630C807.741 634.539 808.259 642 808.259 642" stroke="black" stroke-width="12" stroke-linecap="round" stroke-linejoin="round"/>
</g>
<g id="Group_3">
<g id="Path + Path + Path Mask">
<path id="Mask_3" fill-rule="evenodd" clip-rule="evenodd" d="M316.353 852.85C324.395 841.92 381.207 850.138 390.914 856.659C400.622 863.18 451.563 910.217 433.869 997.386C416.174 1084.55 322.782 1245.6 302.291 1260.96C281.8 1276.32 177.732 1240.99 169.433 1209.55C161.134 1178.12 270.504 1075.92 301.036 1001.8C331.567 927.671 308.31 863.779 316.353 852.85Z" fill="white"/>
<mask id="mask1_0_1407" style="mask-type:alpha" maskUnits="userSpaceOnUse" x="168" y="847" width="270" height="418">
<path id="Mask_4" fill-rule="evenodd" clip-rule="evenodd" d="M316.353 852.85C324.395 841.92 381.207 850.138 390.914 856.659C400.622 863.18 451.563 910.217 433.869 997.386C416.174 1084.55 322.782 1245.6 302.291 1260.96C281.8 1276.32 177.732 1240.99 169.433 1209.55C161.134 1178.12 270.504 1075.92 301.036 1001.8C331.567 927.671 308.31 863.779 316.353 852.85Z" fill="white"/>
</mask>
<g mask="url(#mask1_0_1407)">
<path id="Path_15" fill-rule="evenodd" clip-rule="evenodd" d="M459.433 1005.61L291.641 965.413L277.128 1012.63L438.369 1053.54L459.433 1005.61Z" fill="black" stroke="black" stroke-linecap="round" stroke-linejoin="round"/>
<path id="Path_16" fill-rule="evenodd" clip-rule="evenodd" d="M412.708 1091.1L244.916 1050.9L230.403 1098.12L391.644 1139.03L412.708 1091.1Z" fill="black" stroke="black" stroke-linecap="round" stroke-linejoin="round"/>
<path id="Path_17" fill-rule="evenodd" clip-rule="evenodd" d="M355.708 1177.1L187.916 1136.9L173.403 1184.12L334.644 1225.03L355.708 1177.1Z" fill="black" stroke="black" stroke-linecap="round" stroke-linejoin="round"/>
</g>
</g>
<path id="Path_18" fill-rule="evenodd" clip-rule="evenodd" d="M315.808 852.945C323.851 842.016 380.662 850.234 390.37 856.755C400.078 863.275 451.019 910.313 433.324 997.482C415.63 1084.65 322.238 1245.69 301.747 1261.05C281.256 1276.42 177.187 1241.08 168.888 1209.65C160.589 1178.22 269.96 1076.02 300.492 1001.89C331.023 927.767 307.766 863.875 315.808 852.945Z" stroke="black" stroke-width="12" stroke-linecap="round" stroke-linejoin="round"/>
<g id="Path + Path + Path + Path + Path Mask_2">
<path id="Mask_5" fill-rule="evenodd" clip-rule="evenodd" d="M758.017 838.374C772.672 842.503 779.647 891.508 775.056 901.07C770.466 910.633 731.886 963.788 628.301 969.365C524.715 974.941 315.966 934.922 292.738 921.503C269.51 908.083 279.653 813.603 312.804 799.422C345.955 785.242 492.767 852.176 585.287 860.27C677.807 868.364 743.361 834.245 758.017 838.374Z" fill="white"/>
<mask id="mask2_0_1407" style="mask-type:alpha" maskUnits="userSpaceOnUse" x="280" y="797" width="497" height="173">
<path id="Mask_6" fill-rule="evenodd" clip-rule="evenodd" d="M758.017 838.374C772.672 842.503 779.647 891.508 775.056 901.07C770.466 910.633 731.886 963.788 628.301 969.365C524.715 974.941 315.966 934.922 292.738 921.503C269.51 908.083 279.653 813.603 312.804 799.422C345.955 785.242 492.767 852.176 585.287 860.27C677.807 868.364 743.361 834.245 758.017 838.374Z" fill="white"/>
</mask>
<g mask="url(#mask2_0_1407)">
<path id="Path_19" fill-rule="evenodd" clip-rule="evenodd" d="M346 801L326 933L364 941L385 814L346 801Z" fill="black" stroke="black" stroke-linecap="round" stroke-linejoin="round"/>
<path id="Path_20" fill-rule="evenodd" clip-rule="evenodd" d="M438 825L418 957L456 965L477 838L438 825Z" fill="black" stroke="black" stroke-linecap="round" stroke-linejoin="round"/>
<path id="Path_21" fill-rule="evenodd" clip-rule="evenodd" d="M531 843L511 975L549 983L570 856L531 843Z" fill="black" stroke="black" stroke-linecap="round" stroke-linejoin="round"/>
<path id="Path_22" fill-rule="evenodd" clip-rule="evenodd" d="M623 847L603 979L641 987L662 860L623 847Z" fill="black" stroke="black" stroke-linecap="round" stroke-linejoin="round"/>
<path id="Path_23" fill-rule="evenodd" clip-rule="evenodd" d="M715 820L695 952L733 960L754 833L715 820Z" fill="black" stroke="black" stroke-linecap="round" stroke-linejoin="round"/>
</g>
</g>
<path id="Path_24" fill-rule="evenodd" clip-rule="evenodd" d="M758.228 836.19C772.883 840.319 779.858 889.325 775.267 898.887C770.677 908.449 732.097 961.604 628.512 967.181C524.926 972.758 316.177 932.738 292.949 919.319C269.721 905.9 279.864 811.419 313.015 797.239C346.166 783.058 492.978 849.992 585.498 858.086C678.018 866.181 743.572 832.061 758.228 836.19Z" stroke="black" stroke-width="12" stroke-linecap="round" stroke-linejoin="round"/>
</g>
</g>
</svg>
