<svg width="1080" height="1080" viewBox="0 0 1080 1080" fill="none" xmlns="http://www.w3.org/2000/svg">
<g id="Festival/ 9">
<g id="Group">
<path id="Path" fill-rule="evenodd" clip-rule="evenodd" d="M239.869 406.592C239.869 406.592 256.293 374.072 258.876 357.513C261.46 340.955 253.135 321.569 253.135 321.569C253.135 321.569 242.595 325.975 236.912 327.471C231.229 328.966 220.056 330.274 220.056 330.274C220.056 330.274 233.125 301.221 237.831 283.062C242.536 264.902 241.517 247.447 241.517 247.447C241.517 247.447 231.604 258.944 225.831 262.277C220.057 265.61 206.876 267.447 206.876 267.447C206.876 267.447 225.065 197.062 228.73 161.299C232.395 125.535 226.371 77.2129 226.371 77.2129C226.371 77.2129 282.43 111.88 316.636 125.557C350.843 139.234 409.526 150.447 409.526 150.447C409.526 150.447 406.253 158.11 399.036 162.277C391.819 166.444 375.751 169.947 375.751 169.947C375.751 169.947 393.045 181.901 411.036 183.062C429.026 184.222 457.311 185.212 457.311 185.212C457.311 185.212 452.366 196.189 447.588 202.372C442.81 208.556 431.536 218.569 431.536 218.569C431.536 218.569 461.897 237.411 476.418 242.308C490.94 247.204 516.131 247.092 516.131 247.092C516.131 247.092 471.699 328.171 402.433 368.162C333.167 408.152 239.869 406.592 239.869 406.592Z" fill="white" stroke="black" stroke-width="12" stroke-linecap="round" stroke-linejoin="round"/>
<path id="Path_2" fill-rule="evenodd" clip-rule="evenodd" d="M208.979 71.0886L206.237 40.3398L230.63 58.5886L252.28 46.0886L247.692 74.1411L267.352 88.1937L237.737 94.8994L220.587 115.194L216.515 92.1411L188.194 83.0886L208.979 71.0886Z" fill="white" stroke="black" stroke-width="12" stroke-linecap="round" stroke-linejoin="round"/>
<circle id="Oval" cx="256.113" cy="154.728" r="14" transform="rotate(-30 256.113 154.728)" fill="white" stroke="black" stroke-width="12" stroke-linecap="round" stroke-linejoin="round"/>
<circle id="Oval_2" cx="324.28" cy="170.796" r="14" transform="rotate(-30 324.28 170.796)" fill="white" stroke="black" stroke-width="12" stroke-linecap="round" stroke-linejoin="round"/>
<circle id="Oval_3" cx="276.534" cy="256.097" r="14" transform="rotate(-30 276.534 256.097)" fill="white" stroke="black" stroke-width="12" stroke-linecap="round" stroke-linejoin="round"/>
<circle id="Oval_4" cx="345.933" cy="270.3" r="14" transform="rotate(-30 345.933 270.3)" fill="white" stroke="black" stroke-width="12" stroke-linecap="round" stroke-linejoin="round"/>
<circle id="Oval_5" cx="306.383" cy="357.798" r="14" transform="rotate(-30 306.383 357.798)" fill="white" stroke="black" stroke-width="12" stroke-linecap="round" stroke-linejoin="round"/>
<circle id="Oval_6" cx="432.127" cy="295.593" r="14" transform="rotate(-30 432.127 295.593)" fill="white" stroke="black" stroke-width="12" stroke-linecap="round" stroke-linejoin="round"/>
<circle id="Oval_7" cx="404.751" cy="220.177" r="14" transform="rotate(-30 404.751 220.177)" fill="white" stroke="black" stroke-width="12" stroke-linecap="round" stroke-linejoin="round"/>
</g>
</g>
</svg>
