<svg width="1080" height="1080" viewBox="0 0 1080 1080" fill="none" xmlns="http://www.w3.org/2000/svg">
<g id="Accessories/ 13">
<g id="Group">
<path id="Path" d="M848.363 445.583C849.786 445.07 851.351 445.114 852.743 445.706L850.396 451.228C852.743 445.706 852.744 445.706 852.746 445.707L852.749 445.708L852.758 445.712L852.786 445.724L852.875 445.763C852.949 445.795 853.053 445.84 853.184 445.898C853.447 446.014 853.818 446.181 854.279 446.395C855.198 446.821 856.482 447.438 857.965 448.209C860.888 449.73 864.777 451.951 868.203 454.608C871.354 457.052 875.295 460.742 876.572 465.47C877.289 468.124 877.143 471.032 875.711 473.813C874.355 476.445 872.099 478.475 869.468 480.074C863.828 483.5 856.636 484.179 849.943 483.851C843.081 483.514 835.793 482.063 829.257 480.352C822.686 478.633 816.678 476.599 812.324 475.002C810.142 474.201 808.363 473.505 807.121 473.006C806.5 472.757 806.013 472.556 805.676 472.416C805.508 472.346 805.377 472.291 805.286 472.252L805.179 472.207L805.149 472.194L805.139 472.19L805.136 472.189C805.135 472.188 805.134 472.188 807.502 466.675L805.134 472.188C802.87 471.215 801.431 468.957 801.505 466.495C801.579 464.032 803.151 461.865 805.469 461.03L848.363 445.583Z" fill="black" stroke="white" stroke-width="12" stroke-linecap="round" stroke-linejoin="round"/>
<path id="Path_2" d="M861.982 450.135C864.505 451.32 865.88 454.087 865.3 456.814C864.72 459.541 862.339 461.509 859.551 461.565L859.55 461.565L859.535 461.565L859.469 461.567C859.408 461.568 859.314 461.57 859.19 461.574C858.94 461.58 858.567 461.591 858.083 461.608C857.115 461.641 855.707 461.696 853.967 461.787C850.481 461.967 845.688 462.284 840.449 462.831C829.638 463.958 818.064 465.96 811.672 469.175C782.245 483.972 750.709 499.225 720.702 510.56C690.824 521.847 661.815 529.508 637.596 528.59C594.286 526.947 545.13 507.14 507.282 488.164C488.254 478.624 471.882 469.189 460.265 462.138C454.453 458.611 449.825 455.677 446.643 453.619C445.051 452.59 443.821 451.78 442.984 451.224C442.565 450.946 442.245 450.732 442.027 450.586L441.907 450.505L441.778 450.418L441.712 450.373L441.694 450.361L441.688 450.357C441.687 450.356 441.686 450.355 445.059 445.394L441.686 450.355C439.682 448.993 438.695 446.56 439.182 444.187C439.669 441.814 441.535 439.967 443.913 439.504L721.565 385.466C722.814 385.222 724.109 385.383 725.261 385.924L861.982 450.135Z" fill="black" stroke="white" stroke-width="12" stroke-linecap="round" stroke-linejoin="round"/>
<path id="Path_3" d="M742.711 401.355L748.62 400.311C749.129 403.193 747.485 406.021 744.729 407.005L742.711 401.355ZM742.711 401.355C748.62 400.311 748.619 400.307 748.619 400.303L748.616 400.29L748.609 400.249C748.603 400.216 748.594 400.169 748.584 400.11C748.562 399.992 748.53 399.824 748.488 399.606C748.404 399.172 748.279 398.541 748.107 397.729C747.765 396.105 747.239 393.751 746.495 390.776C745.006 384.827 742.643 376.385 739.125 366.311C732.096 346.183 720.416 319.429 701.805 293.03C664.434 240.022 599.166 188.633 488.668 195.066C378.311 201.49 322.937 256.205 295.493 309.668C281.856 336.233 275.177 362.34 271.898 381.773C270.256 391.501 269.462 399.59 269.077 405.273C268.885 408.115 268.795 410.359 268.754 411.908C268.733 412.682 268.724 413.283 268.721 413.699C268.719 413.907 268.719 414.069 268.719 414.183C268.719 414.24 268.719 414.285 268.719 414.318L268.719 414.358L268.719 414.371C268.719 414.376 268.719 414.38 274.719 414.326M742.711 401.355C744.729 407.005 744.728 407.005 744.728 407.006L744.725 407.007L744.713 407.011L744.671 407.026L744.507 407.084C744.363 407.135 744.15 407.211 743.871 407.31C743.313 407.507 742.49 407.797 741.428 408.168C739.302 408.912 736.215 409.983 732.358 411.297C724.645 413.925 713.848 417.53 701.506 421.435C676.883 429.226 645.881 438.289 620.93 443.145C596.034 447.991 557.101 452.548 524.586 455.884C508.288 457.556 493.532 458.928 482.852 459.882C477.511 460.359 473.187 460.732 470.198 460.985C468.703 461.112 467.541 461.209 466.753 461.274C466.359 461.307 466.058 461.332 465.855 461.348L465.625 461.367L465.566 461.372L465.551 461.373L465.547 461.374C465.546 461.374 465.545 461.374 465.06 455.393M274.719 414.326C270.991 419.027 270.993 419.028 270.994 419.029L270.997 419.032L271.005 419.038L271.031 419.058L271.116 419.125C271.188 419.181 271.29 419.261 271.422 419.363C271.686 419.566 272.068 419.857 272.563 420.227C273.553 420.965 274.993 422.016 276.836 423.297C280.521 425.857 285.827 429.345 292.371 433.099C305.413 440.579 323.59 449.239 343.775 453.594C363.726 457.899 394.226 459.821 419.366 460.691C432.015 461.129 443.441 461.305 451.706 461.371C455.839 461.404 459.184 461.409 461.498 461.407C462.656 461.405 463.556 461.402 464.168 461.399C464.474 461.397 464.708 461.396 464.867 461.395L465.047 461.394L465.094 461.393L465.106 461.393L465.11 461.393C465.111 461.393 465.111 461.393 465.06 455.393M274.719 414.326L270.991 419.027C269.571 417.901 268.736 416.193 268.719 414.38L274.719 414.326ZM465.06 455.393L465.545 461.374C465.401 461.385 465.256 461.392 465.111 461.393L465.06 455.393Z" fill="black" stroke="white" stroke-width="12" stroke-linecap="round" stroke-linejoin="round"/>
<path id="Oval" d="M467.691 222.83C459.814 223.797 452.181 223.032 446.139 220.726C440.381 218.528 434.472 214.202 433.606 207.149C432.739 200.095 437.427 194.468 442.482 190.943C447.787 187.243 455.008 184.654 462.885 183.687C470.762 182.72 478.395 183.485 484.437 185.791C490.196 187.989 496.105 192.315 496.971 199.368C497.837 206.422 493.15 212.049 488.094 215.574C482.789 219.274 475.568 221.863 467.691 222.83Z" fill="black" stroke="white" stroke-width="12" stroke-linecap="round" stroke-linejoin="round"/>
</g>
</g>
</svg>
