<svg width="1080" height="1080" viewBox="0 0 1080 1080" fill="none" xmlns="http://www.w3.org/2000/svg">
<g id="Accessories/ 15">
<g id="Group">
<path id="Path" fill-rule="evenodd" clip-rule="evenodd" d="M300.966 701.382C298.663 691.492 286.914 693.188 282.539 696.987C267.506 710.039 262.961 729.955 274.478 744.242C285.994 758.528 306.725 755.231 314.787 746.44C322.848 737.648 324 728.856 324 728.856H305.573C305.573 728.856 300.966 736.549 292.905 733.252C288.382 731.403 287.479 722.218 290.601 715.669C293.752 709.06 302.123 706.35 300.966 701.382Z" fill="white" stroke="black" stroke-width="8" stroke-linecap="round" stroke-linejoin="round"/>
<ellipse id="Oval" cx="278" cy="739.5" rx="6" ry="7.5" transform="rotate(-30 278 739.5)" fill="black"/>
<ellipse id="Oval_2" cx="303" cy="748.5" rx="6" ry="7.5" transform="rotate(-105 303 748.5)" fill="black"/>
<ellipse id="Oval_3" cx="275" cy="712.5" rx="6" ry="7.5" transform="rotate(-150 275 712.5)" fill="black"/>
</g>
</g>
</svg>
