<svg width="1080" height="1080" viewBox="0 0 1080 1080" fill="none" xmlns="http://www.w3.org/2000/svg">
<g id="Mouth/ 16">
<g id="Group">
<path id="Path" fill-rule="evenodd" clip-rule="evenodd" d="M524 757.432C524 757.432 561.725 758.244 581 755.644C600.275 753.044 621.352 744.187 630 743.134C638.648 742.08 646 747.602 648 747.602C650 747.602 655 742.24 665 743.134C675 744.027 695 757.432 695 757.432C695 757.432 672 764.58 636 764.58C569 767.261 524 757.432 524 757.432Z" stroke="black" stroke-width="8" stroke-linecap="round" stroke-linejoin="round"/>
<path id="Path_2" fill-rule="evenodd" clip-rule="evenodd" d="M682 761.562C682 761.562 673.163 776.225 664.692 780.862C656.22 785.5 646.288 782.319 639 782.319C631.712 782.319 617.863 787.504 598.192 782.241C578.52 776.979 549 760.872 549 760.872C549 760.872 589.994 764.727 617.322 765.008C644.65 765.29 682 761.562 682 761.562Z" stroke="black" stroke-width="8" stroke-linecap="round" stroke-linejoin="round"/>
</g>
</g>
</svg>
