<svg width="1080" height="1080" viewBox="0 0 1080 1080" fill="none" xmlns="http://www.w3.org/2000/svg">
<g id="Mouth/ 18">
<g id="Group">
<path id="Path" fill-rule="evenodd" clip-rule="evenodd" d="M557 770.275C557 770.275 585.239 770.788 599.667 769.145C614.094 767.502 629.872 761.905 636.345 761.24C642.818 760.574 648.322 764.063 649.819 764.063C651.316 764.063 655.058 760.675 662.544 761.24C670.029 761.804 685 770.275 685 770.275C685 770.275 667.784 774.792 640.836 774.792C590.684 776.486 557 770.275 557 770.275Z" stroke="black" stroke-width="8" stroke-linecap="round" stroke-linejoin="round"/>
<path id="Path_2" d="M682 771C682 771 675.538 776.607 672 779C666.765 782.54 661.978 785.894 651 786C642.504 786.082 624.027 780.984 613 779C600.148 776.688 563 771 563 771" stroke="black" stroke-width="8" stroke-linecap="round" stroke-linejoin="round"/>
</g>
</g>
</svg>
