<?xml version="1.0" encoding="UTF-8"?>
<svg width="1080px" height="1080px" viewBox="0 0 1080 1080" version="1.1" xmlns="http://www.w3.org/2000/svg" xmlns:xlink="http://www.w3.org/1999/xlink">
    <title>Beard/ 10</title>
    <g id="Beard/-10" stroke="none" stroke-width="1" fill="none" fill-rule="evenodd" stroke-linecap="round" stroke-linejoin="round">
        <path d="M385,651 C400.949347,693.922506 417.682633,729.624512 435.19986,758.106018 L435.257961,757.93037 L435.257961,757.93037 L435.382991,757.590097 C436.332315,755.121854 438.453635,752.057725 441.746952,748.397709 C445.047182,758.655798 447.875609,766.669675 450.232233,772.43934 C452.097947,777.007122 454.998032,783.424708 458.932488,791.692099 C462.241449,795.708652 465.576333,799.483371 468.937098,803.019711 C468.747704,801.751066 468.712602,800.556378 468.831416,799.433013 C469.109564,796.803169 470.365547,793.29441 472.599365,788.906733 C478.442132,797.961124 483.248326,804.969884 487.017949,809.933013 C490.647638,814.711903 496.463455,821.737819 504.465401,831.01076 C508.572484,833.217447 512.714195,835.101048 516.89077,836.663537 C516.545049,836.110965 516.247867,835.5577 516,835 C514.925962,832.583415 514.259295,828.916748 514,824 C523.58718,828.919949 531.253846,832.586615 537,835 C541.622781,836.941568 548.351518,839.478546 557.186211,842.610933 C564.771431,840.895593 570.683251,839.438661 574.924158,838.240012 C580.921598,836.544896 588.977973,833.839892 599.093282,830.124999 C598.568821,833.09366 597.949892,835.578556 597.236495,837.579687 C601.020483,836.642061 604.801869,835.576414 608.580373,834.382534 C617.277979,828.42916 623.771313,823.79084 628.061261,820.465325 C632.986989,816.64696 639.443418,811.120953 647.430546,803.887303 C648.452634,808.703627 648.757686,812.417901 648.345704,815.030125 C648.225732,815.790817 648.028088,816.565012 647.752769,817.352712 C669.261883,805.436827 690.678134,789.318484 712,769 C710.645087,779.947888 705.645087,789.947888 697,799 C655.842569,842.095192 585,869 525,865 C455.659793,860.37732 402.32646,789.043986 365,651 L385,651 Z M500.454782,828.750915 C500.081029,828.529966 499.707569,828.306327 499.3344,828.08 Z" id="Combined-Shape" stroke="#000000" stroke-width="12" fill="#000000"></path>
    </g>
</svg>