<svg width="1080" height="1080" viewBox="0 0 1080 1080" fill="none" xmlns="http://www.w3.org/2000/svg">
<g id="Beard/ 11">
<g id="Shape">
<path fill-rule="evenodd" clip-rule="evenodd" d="M678.921 715.755C694.162 721.538 703.262 732.755 709.667 745.755C716.073 758.755 727.88 802.755 724.677 821.755C721.474 840.755 691.162 873 670 883C653.946 890.586 583.895 908.877 557.677 902.755C517.899 893.465 475.677 877.755 470.677 858.755C465.677 839.755 489.677 758.755 499.677 745.755C509.568 732.896 523.575 721.782 546.905 715.945L547.677 715.755C563.067 712.014 604.035 706.26 624.356 706.007C644.677 705.755 669.428 712.152 678.921 715.755ZM624 722C598.859 722.313 550.451 733.783 539.677 740.755C522.677 751.755 517.677 791.755 522.677 806.755C527.677 821.755 553.677 832.755 564.677 832.755C575.677 832.755 600.677 813.755 605.677 810.755C608.95 808.791 616.078 807.47 627.063 806.792L627.677 806.755C634.937 807.421 639.769 809.755 643 813C646.231 816.245 656 833 669 833C682 833 691.732 821.755 694.935 806.755C698.138 791.755 694.935 751.755 684.045 740.755C676.859 733.495 649.141 721.687 624 722Z" fill="black"/>
<path d="M678.921 715.755L676.792 721.364L678.921 715.755ZM670 883L667.436 877.575L670 883ZM557.677 902.755L556.313 908.597L557.677 902.755ZM499.677 745.755L504.433 749.413L499.677 745.755ZM546.905 715.945L545.468 710.12C545.461 710.121 545.455 710.123 545.448 710.124L546.905 715.945ZM547.677 715.755L546.26 709.924C546.254 709.926 546.247 709.927 546.241 709.929L547.677 715.755ZM539.677 740.755L536.418 735.717L539.677 740.755ZM605.677 810.755L608.764 815.9L605.677 810.755ZM627.063 806.792L626.702 800.802L626.693 800.803L627.063 806.792ZM627.677 806.755L628.226 800.78C627.923 800.752 627.619 800.747 627.316 800.765L627.677 806.755ZM669 833V827V833ZM684.045 740.755L679.781 744.976L684.045 740.755ZM676.792 721.364C690.138 726.428 698.286 736.231 704.285 748.406L715.05 743.103C708.238 729.278 698.186 716.647 681.05 710.145L676.792 721.364ZM704.285 748.406C707.17 754.262 711.6 767.96 714.92 782.813C716.562 790.162 717.893 797.62 718.619 804.337C719.355 811.148 719.425 816.817 718.761 820.757L730.594 822.752C731.531 817.192 731.326 810.236 730.549 803.047C729.762 795.765 728.341 787.848 726.631 780.196C723.246 765.049 718.57 750.247 715.05 743.103L704.285 748.406ZM718.761 820.757C718.146 824.404 716.1 829.214 712.657 834.775C709.268 840.249 704.756 846.082 699.633 851.716C689.291 863.093 677.037 873.038 667.436 877.575L672.564 888.425C684.125 882.962 697.608 871.784 708.513 859.788C714.014 853.737 719.003 847.32 722.86 841.092C726.663 834.951 729.607 828.605 730.594 822.752L718.761 820.757ZM667.436 877.575C660.081 881.051 639.133 887.407 616.425 892.145C605.167 894.493 593.687 896.398 583.478 897.343C573.121 898.302 564.62 898.215 559.042 896.912L556.313 908.597C563.843 910.356 573.93 910.278 584.583 909.292C595.384 908.293 607.336 906.299 618.875 903.892C641.76 899.118 663.865 892.535 672.564 888.425L667.436 877.575ZM559.042 896.912C539.359 892.315 519.292 886.176 503.652 878.949C495.824 875.332 489.321 871.54 484.569 867.681C479.74 863.76 477.266 860.215 476.48 857.228L464.875 860.282C466.589 866.794 471.267 872.338 477.004 876.997C482.817 881.717 490.294 885.996 498.619 889.843C515.284 897.543 536.217 903.904 556.313 908.597L559.042 896.912ZM476.48 857.228C476.091 855.75 475.882 853.138 476.07 849.268C476.253 845.51 476.785 840.976 477.615 835.874C479.274 825.678 482.063 813.582 485.34 801.586C488.615 789.598 492.345 777.828 495.855 768.296C497.61 763.527 499.29 759.376 500.809 756.065C502.376 752.648 503.616 750.475 504.433 749.413L494.921 742.096C493.238 744.284 491.541 747.486 489.901 751.062C488.213 754.743 486.416 759.2 484.593 764.15C480.946 774.056 477.114 786.161 473.764 798.423C470.417 810.677 467.518 823.206 465.771 833.947C464.897 839.315 464.296 844.327 464.085 848.686C463.878 852.933 464.014 857.009 464.875 860.282L476.48 857.228ZM504.433 749.413C513.547 737.565 526.417 727.256 548.361 721.766L545.448 710.124C520.734 716.308 505.59 728.227 494.921 742.096L504.433 749.413ZM548.341 721.771L549.114 721.58L546.241 709.929L545.468 710.12L548.341 721.771ZM549.094 721.585C564.089 717.94 604.606 712.253 624.431 712.007L624.281 700.008C603.464 700.267 562.045 706.088 546.26 709.924L549.094 721.585ZM624.431 712.007C643.804 711.766 667.794 717.95 676.792 721.364L681.05 710.145C671.062 706.355 645.55 699.743 624.281 700.008L624.431 712.007ZM623.925 716C610.726 716.165 591.856 719.219 575.118 723.03C566.699 724.948 558.681 727.088 552.035 729.212C545.585 731.274 539.849 733.497 536.418 735.717L542.937 745.792C544.892 744.527 549.247 742.702 555.689 740.642C561.935 738.646 569.611 736.592 577.783 734.731C594.228 730.986 612.133 728.148 624.075 728L623.925 716ZM536.418 735.717C530.94 739.261 526.831 744.846 523.785 750.903C520.711 757.018 518.504 764.043 517.052 771.035C514.207 784.744 514.003 799.706 516.985 808.652L528.369 804.857C526.351 798.803 526.147 786.265 528.802 773.474C530.101 767.216 532.019 761.241 534.506 756.294C537.024 751.288 539.914 747.748 542.937 745.792L536.418 735.717ZM516.985 808.652C520.232 818.392 529.717 825.839 538.559 830.65C547.517 835.524 557.785 838.755 564.677 838.755V826.755C560.57 826.755 552.338 824.485 544.295 820.109C536.137 815.67 530.123 810.117 528.369 804.857L516.985 808.652ZM564.677 838.755C568.81 838.755 573.442 837.072 577.531 835.189C581.823 833.212 586.373 830.598 590.593 827.976C594.833 825.342 598.858 822.626 602.097 820.409C605.487 818.089 607.719 816.527 608.764 815.9L602.59 805.61C601.135 806.482 598.367 808.421 595.319 810.506C592.121 812.695 588.271 815.292 584.261 817.783C580.231 820.286 576.157 822.61 572.511 824.289C568.662 826.062 566.044 826.755 564.677 826.755V838.755ZM608.764 815.9C609.457 815.484 611.195 814.816 614.571 814.191C617.808 813.591 622.073 813.111 627.433 812.78L626.693 800.803C621.069 801.15 616.277 801.67 612.385 802.392C608.633 803.087 605.17 804.062 602.59 805.61L608.764 815.9ZM627.424 812.781L628.038 812.744L627.316 800.765L626.702 800.802L627.424 812.781ZM627.128 812.729C633.319 813.298 636.721 815.197 638.748 817.233L647.252 808.767C642.817 804.312 636.554 801.545 628.226 800.78L627.128 812.729ZM638.748 817.233C639.208 817.696 640.021 818.807 641.857 821.173C643.473 823.255 645.565 825.862 648.037 828.402C652.76 833.256 659.951 839 669 839V827C665.049 827 660.855 824.367 656.636 820.032C654.637 817.977 652.868 815.788 651.337 813.815C650.027 812.127 648.407 809.927 647.252 808.767L638.748 817.233ZM669 839C686.058 839 697.31 824.365 700.803 808.007L689.067 805.502C686.154 819.144 677.942 827 669 827V839ZM700.803 808.007C702.61 799.54 702.523 785.012 700.722 771.464C699.81 764.604 698.426 757.731 696.502 751.759C694.632 745.952 692.037 740.299 688.31 736.533L679.781 744.976C681.499 746.71 683.387 750.182 685.08 755.438C686.72 760.528 687.978 766.656 688.827 773.045C690.549 785.998 690.462 798.969 689.067 805.502L700.803 808.007ZM688.31 736.533C685.881 734.081 682.178 731.645 677.979 729.417C673.674 727.133 668.465 724.869 662.729 722.871C651.304 718.893 637.38 715.833 623.925 716L624.075 728C635.761 727.854 648.266 730.541 658.782 734.204C664.016 736.026 668.656 738.055 672.355 740.018C676.16 742.036 678.616 743.799 679.781 744.976L688.31 736.533Z" fill="black"/>
</g>
</g>
</svg>
