<svg width="1080" height="1080" viewBox="0 0 1080 1080" fill="none" xmlns="http://www.w3.org/2000/svg">
<g id="Beard/ 12">
<g id="Group">
<g id="Group_2">
<path id="Path" d="M626.512 713.324L621 729.42" stroke="black" stroke-width="20" stroke-linecap="round" stroke-linejoin="round"/>
<path id="Path_2" d="M597 713.324L591.487 729.42" stroke="black" stroke-width="20" stroke-linecap="round" stroke-linejoin="round"/>
<path id="Path_3" d="M567.487 721.696L561.974 737.792" stroke="black" stroke-width="20" stroke-linecap="round" stroke-linejoin="round"/>
<path id="Path_4" d="M537.975 729.232L531.359 748.546" stroke="black" stroke-width="20" stroke-linecap="round" stroke-linejoin="round"/>
<path id="Path_5" d="M650.488 713.324L656 729.42" stroke="black" stroke-width="20" stroke-linecap="round" stroke-linejoin="round"/>
<path id="Path_6" d="M680 713.324L685.513 729.42" stroke="black" stroke-width="20" stroke-linecap="round" stroke-linejoin="round"/>
<path id="Path_7" d="M709.513 721.696L715.026 737.792" stroke="black" stroke-width="20" stroke-linecap="round" stroke-linejoin="round"/>
</g>
<path id="Path_8" fill-rule="evenodd" clip-rule="evenodd" d="M597 789C597 789 610.517 791.065 623.347 791.065C636.176 791.065 649 789 649 789C649 789 639 796 635.747 800.452C632.493 804.903 628.2 808 623 808C617.8 808 614.893 804.903 610.947 800.452C607 796 597 789 597 789Z" fill="black" stroke="black" stroke-width="12" stroke-linecap="round" stroke-linejoin="round"/>
<path id="Path_9" fill-rule="evenodd" clip-rule="evenodd" d="M462 827C462 827 472.313 841.31 476.869 846C487.838 857.293 495.366 861.334 497.047 863C496.846 861.731 486.815 824.294 489.188 819.907C489.188 819.907 500.714 836.238 504.501 840.933L505.267 841.876C509.154 846.618 515.075 853.33 523.031 862.011C527.393 864.217 531.791 866.101 536.227 867.664C535.86 867.111 535.544 866.558 535.281 866C534.14 863.583 533.432 859.917 533.157 855L535.593 856.172C544.38 860.379 551.543 863.589 557.085 865.802L558.423 866.329C563.294 868.225 570.161 870.653 579.023 873.611L581.311 873.12C588.277 871.616 593.793 870.323 597.861 869.24L598.913 868.956C605.162 867.25 613.368 864.639 623.53 861.125C622.973 864.094 622.315 866.579 621.558 868.58C625.576 867.642 629.593 866.576 633.605 865.383L636.88 863.263C644.49 858.317 650.294 854.385 654.295 851.465L655.158 850.831C660.272 847.045 666.842 841.73 674.866 834.887C675.952 839.704 676.825 853.212 676.533 854C699.376 842.084 730.355 819.318 753 799C752.027 806.405 733.708 864.71 674.409 896C646.032 910.973 609.175 913 558.646 913C464.285 913 462 827 462 827Z" fill="black" stroke="black" stroke-width="12" stroke-linecap="round" stroke-linejoin="round"/>
</g>
</g>
</svg>
