<svg width="1080" height="1080" viewBox="0 0 1080 1080" fill="none" xmlns="http://www.w3.org/2000/svg">
<g id="Beard/ 16">
<g id="Shape">
<path fill-rule="evenodd" clip-rule="evenodd" d="M679 848L692 872L690.233 873.596C661.493 899.412 638.416 913.214 621 915C603.584 916.786 577.305 911.7 542.163 899.741L540 899L547 872C571 880 595 882 619 878C642.7 874.05 662.499 864.249 678.398 848.597L679 848ZM645 789C639 793 634.916 796.484 632.747 799.452L632.158 800.248C629.316 804.036 627.875 805 623 805C618.464 805 617.195 804.165 614.325 800.997L612.947 799.452C610.316 796.484 606.333 793 601 789C607.114 790.333 614.447 791 623 791C631.553 791 638.886 790.333 645 789Z" fill="black"/>
<path d="M679 848L684.276 845.142C683.376 843.481 681.745 842.34 679.876 842.064C678.006 841.788 676.116 842.41 674.774 843.741L679 848ZM692 872L696.022 876.453C698.076 874.597 698.594 871.577 697.276 869.142L692 872ZM690.233 873.596L694.243 878.059C694.247 878.056 694.251 878.052 694.255 878.048L690.233 873.596ZM542.163 899.741L540.218 905.417L540.23 905.421L542.163 899.741ZM540 899L534.192 897.494C533.405 900.53 535.089 903.66 538.056 904.676L540 899ZM547 872L548.897 866.308C547.32 865.782 545.596 865.934 544.136 866.728C542.675 867.521 541.609 868.885 541.192 870.494L547 872ZM619 878L618.014 872.082L619 878ZM678.398 848.597L682.607 852.873C682.613 852.867 682.619 852.862 682.624 852.856L678.398 848.597ZM645 789L648.328 793.992C650.728 792.392 651.65 789.311 650.523 786.656C649.396 784.001 646.54 782.523 643.722 783.138L645 789ZM632.747 799.452L637.571 803.019C637.578 803.01 637.584 803.001 637.591 802.992L632.747 799.452ZM632.158 800.248L636.958 803.848C636.966 803.837 636.975 803.826 636.983 803.815L632.158 800.248ZM614.325 800.997L609.847 804.99C609.857 805.002 609.867 805.014 609.878 805.025L614.325 800.997ZM612.947 799.452L608.457 803.432C608.461 803.436 608.465 803.44 608.468 803.445L612.947 799.452ZM601 789L602.278 783.138C599.521 782.537 596.718 783.938 595.544 786.504C594.37 789.07 595.143 792.107 597.4 793.8L601 789ZM673.724 850.858L686.724 874.858L697.276 869.142L684.276 845.142L673.724 850.858ZM687.978 867.547L686.212 869.143L694.255 878.048L696.022 876.453L687.978 867.547ZM686.224 869.132C672.028 881.884 659.389 891.522 648.291 898.16C637.14 904.828 627.882 908.263 620.388 909.031L621.612 920.969C631.534 919.951 642.522 915.592 654.45 908.459C666.429 901.295 679.699 891.124 694.243 878.059L686.224 869.132ZM620.388 909.031C604.354 910.676 579.135 905.985 544.096 894.061L540.23 905.421C575.475 917.415 602.814 922.897 621.612 920.969L620.388 909.031ZM544.107 894.065L541.944 893.324L538.056 904.676L540.218 905.417L544.107 894.065ZM545.808 900.506L552.808 873.506L541.192 870.494L534.192 897.494L545.808 900.506ZM545.103 877.692C569.993 885.989 594.982 888.086 619.986 883.918L618.014 872.082C595.018 875.914 572.007 874.011 548.897 866.308L545.103 877.692ZM619.986 883.918C644.805 879.782 665.76 869.459 682.607 852.873L674.189 844.321C659.239 859.04 640.595 868.318 618.014 872.082L619.986 883.918ZM682.624 852.856L683.226 852.259L674.774 843.741L674.172 844.338L682.624 852.856ZM641.672 784.008C635.538 788.097 630.719 792.058 627.902 795.911L637.591 802.992C639.112 800.91 642.462 797.903 648.328 793.992L641.672 784.008ZM627.922 795.885L627.334 796.68L636.983 803.815L637.571 803.019L627.922 795.885ZM627.358 796.647C625.965 798.505 625.563 798.726 625.493 798.763C625.482 798.77 625.459 798.781 625.408 798.798C625.353 798.816 625.247 798.847 625.066 798.878C624.676 798.945 624.052 799 623 799V811C625.71 811 628.521 810.765 631.19 809.325C633.77 807.934 635.51 805.779 636.958 803.848L627.358 796.647ZM623 799C622.022 799 621.442 798.953 621.079 798.895C620.76 798.844 620.669 798.794 620.662 798.791C620.57 798.746 620.215 798.562 618.772 796.969L609.878 805.025C611.305 806.6 613.019 808.418 615.413 809.582C617.903 810.794 620.467 811 623 811V799ZM618.803 797.004L617.425 795.458L608.468 803.445L609.847 804.99L618.803 797.004ZM617.436 795.471C614.417 792.066 610.07 788.303 604.6 784.2L597.4 793.8C602.596 797.697 606.214 800.902 608.457 803.432L617.436 795.471ZM599.722 794.862C606.376 796.314 614.162 797 623 797V785C614.732 785 607.851 784.353 602.278 783.138L599.722 794.862ZM623 797C631.838 797 639.624 796.314 646.278 794.862L643.722 783.138C638.149 784.353 631.268 785 623 785V797Z" fill="black"/>
</g>
</g>
</svg>
