<?xml version="1.0" encoding="UTF-8"?>
<svg width="1080px" height="1080px" viewBox="0 0 1080 1080" version="1.1" xmlns="http://www.w3.org/2000/svg" xmlns:xlink="http://www.w3.org/1999/xlink">
    <title>Beard/ 3</title>
    <g id="Beard/-3" stroke="none" stroke-width="1" fill="none" fill-rule="evenodd" stroke-linecap="round" stroke-linejoin="round">
        <path d="M711,764 L707,764 L706.345455,762.706777 C700.563636,751.423471 694.781818,743.854545 689,740 C680,734 658,735 618,735 L615.604952,734.995328 C576.5692,734.8448 541.74,731.16 529,739 C520.333333,744.333333 514.333333,752.666667 511,764 L462,764 L366,655 L383,655 C388.047581,663.07807 393.047581,668.411404 398,671 C406.445576,675.414446 431.388408,682.267492 438,687 C450.42707,695.895166 463.760404,707.895166 478,723 L506,723 L532,713 C566.333333,708.333333 598.666667,706 629,706 C659.333333,706 688,709.333333 715,716 L734,739 L747,739 C762.333333,758.333333 758,790 734,834 C698,900 652.613614,901.016753 640,905 C621,911 543.350864,912.626406 512,903 L510.10195,902.41143 C478.827156,892.616328 434.373138,873.798208 408,829 C390.238499,798.829779 376.339484,741.682276 366.302955,657.557493 L366,655 L461,769 L512,769 C527.554629,792.760871 543.887962,808.760871 561,817 C577.940917,825.156738 592.158427,817.724205 603.652528,794.702402 L604,794 L629,794 C631.666667,809.333333 638.333333,817 649,817 C659.56,817 679.921,799.6849 710.083,765.0547 L711,764 Z" id="Path" stroke="#000000" stroke-width="12" fill="#000000"></path>
    </g>
</svg>