<?xml version="1.0" encoding="UTF-8"?>
<svg width="1080px" height="1080px" viewBox="0 0 1080 1080" version="1.1" xmlns="http://www.w3.org/2000/svg" xmlns:xlink="http://www.w3.org/1999/xlink">
    <title>Beard/ 4</title>
    <g id="Beard/-4" stroke="none" stroke-width="1" fill="none" fill-rule="evenodd" stroke-linecap="round" stroke-linejoin="round">
        <g id="Group" transform="translate(310.000000, 649.000000)" stroke="#000000">
            <path d="M439,0 C465.509668,0 487,21.490332 487,48 C487,66.0774761 477.006672,81.8208853 462.243021,90.0072235 C467.67121,95.7398064 471,103.481163 471,112 C471,123.537778 464.893812,133.64938 455.736752,139.279489 C459.723257,146.274585 462,154.371411 462,163 C462,182.053279 450.898696,198.51371 434.811365,206.266014 C432.654213,230.777481 412.071936,250 387,250 C381.557152,250 376.325892,249.094086 371.448776,247.424815 C363.777046,263.720272 347.205784,275 328,275 C312.237495,275 298.249539,267.402249 289.498577,255.669192 C280.750461,267.402249 266.762505,275 251,275 C228.649868,275 209.867514,259.724525 204.523624,239.044259 C196.229053,245.889003 185.594614,250 174,250 C147.490332,250 126,228.509668 126,202 C126,201.552587 126.006121,201.106603 126.018285,200.662128 C119.424643,204.073448 111.937306,206 104,206 C77.490332,206 56,184.509668 56,158 C56,152.709881 56.8557864,147.619642 58.4364702,142.860172 C55.0775751,143.607053 51.5846764,144 48,144 C21.490332,144 0,122.509668 0,96 C0,77.3084849 10.6837461,61.1122925 26.2777205,53.1849404 C26.0939273,51.4832293 26,49.7525836 26,48 C26,21.490332 47.490332,0 74,0 C91.5693965,0 106.934084,9.43948364 115.299183,23.5235732 C123.303336,17.5417319 133.23806,14 144,14 C169.822842,14 190.883066,34.3911923 191.95701,59.9499159 C199.231458,55.1929431 208.726028,52 222,52 C274,52 265,77 317,77 C336.814256,77 367.952814,65.4173484 391.885877,57.2213362 C391.304216,54.2371224 391,51.154088 391,48 C391,21.490332 412.490332,0 439,0 Z M304,95.351705 C256.835144,95.6137616 221.573326,73.2991479 212,98 C202.426674,122.700852 236.981237,145.31964 310.653458,145.351729 C384.325678,145.383517 394.627182,105.055353 379,90 C363.372818,74.9446471 351.164856,95.0896483 304,95.351705 Z M95.762784,100.784655 L95.6897417,101.487596 C95.3104146,104.820544 94.5897387,108.049893 93.5635298,111.139828 C95.9882152,110.600109 98.483472,110.245706 101.032472,110.090234 C99.2503539,107.05212 97.4947828,103.948121 95.762784,100.784655 Z" id="Combined-Shape" stroke-width="12" fill="#000000"></path>
            <path d="M239,110 C266.33038,116.666667 289.663714,120 309,120 C328.336286,120 345.002953,116.666667 359,110" id="Path" stroke-width="16"></path>
        </g>
    </g>
</svg>