<?xml version="1.0" encoding="UTF-8"?>
<svg width="1080px" height="1080px" viewBox="0 0 1080 1080" version="1.1" xmlns="http://www.w3.org/2000/svg" xmlns:xlink="http://www.w3.org/1999/xlink">
    <title>Beard/ 9</title>
    <g id="Beard/-9" stroke="none" stroke-width="1" fill="none" fill-rule="evenodd" stroke-linecap="round" stroke-linejoin="round">
        <path d="M591,787 L635,787 C630.333333,808.333333 633.666667,819 645,819 C656.333333,819 677.333333,803.333333 708,772 C706.096725,787.252619 703.763392,797.919286 701,804 C681.384138,847.163789 649,872 588,872 C571.270609,872 532,872 513,859 C503.782362,852.693195 484,841 474,812 C472.318666,807.124131 470.651999,796.457464 469,780 C500.392573,797.855208 521.392573,808.521874 532,812 C553.420148,819.023566 571.9567,819 580,819 C594.017959,819 597.684625,808.333333 591,787 Z" id="Path" stroke="#000000" stroke-width="12" fill="#000000"></path>
    </g>
</svg>