<svg width="1080" height="1080" viewBox="0 0 1080 1080" fill="none" xmlns="http://www.w3.org/2000/svg">
<g id="Details/ 13">
<path id="Combined Shape" d="M478 630C455.909 630 438 647.909 438 670H446C446 652.327 460.327 638 478 638V630ZM518 670C518 647.909 500.091 630 478 630V638C495.673 638 510 652.327 510 670H518ZM478 710C500.091 710 518 692.091 518 670H510C510 687.673 495.673 702 478 702V710ZM438 670C438 692.091 455.909 710 478 710V702C460.327 702 446 687.673 446 670H438ZM438 670C438 647.909 455.909 630 478 630V622C451.49 622 430 643.49 430 670H438ZM478 710C455.909 710 438 692.091 438 670H430C430 696.51 451.49 718 478 718V710ZM518 670C518 692.091 500.091 710 478 710V718C504.51 718 526 696.51 526 670H518ZM478 630C500.091 630 518 647.909 518 670H526C526 643.49 504.51 622 478 622V630ZM778 630C755.909 630 738 647.909 738 670H746C746 652.327 760.327 638 778 638V630ZM818 670C818 647.909 800.091 630 778 630V638C795.673 638 810 652.327 810 670H818ZM778 710C800.091 710 818 692.091 818 670H810C810 687.673 795.673 702 778 702V710ZM738 670C738 692.091 755.909 710 778 710V702C760.327 702 746 687.673 746 670H738ZM738 670C738 647.909 755.909 630 778 630V622C751.49 622 730 643.49 730 670H738ZM778 710C755.909 710 738 692.091 738 670H730C730 696.51 751.49 718 778 718V710ZM818 670C818 692.091 800.091 710 778 710V718C804.51 718 826 696.51 826 670H818ZM778 630C800.091 630 818 647.909 818 670H826C826 643.49 804.51 622 778 622V630Z" fill="black"/>
</g>
</svg>
