<?xml version="1.0" encoding="UTF-8"?>
<svg width="1080px" height="1080px" viewBox="0 0 1080 1080" version="1.1" xmlns="http://www.w3.org/2000/svg" xmlns:xlink="http://www.w3.org/1999/xlink">
    <title>Details/ 9</title>
    <g id="Details/-9" stroke="none" stroke-width="1" fill="none" fill-rule="evenodd" stroke-linecap="round" stroke-linejoin="round">
        <path d="M523.138691,666.607842 L451.314079,671.630308 C463.098831,668.13306 474.976591,665.965897 486.947359,665.128819 C498.918128,664.291741 510.981905,664.784749 523.138691,666.607842 Z M734.861309,666.607842 C749.483691,665.134021 760.412369,664.57364 767.647342,664.926697 L767.647342,664.926697 Z M522.022587,650.646817 L438.227207,656.506361 C452.007087,652.8696 465.879975,650.562924 479.845871,649.586333 C493.811768,648.609742 507.870673,648.963237 522.022587,650.646817 Z M735.977413,650.646817 C750.919604,649.423529 762.096932,648.92528 769.509399,649.15207 L769.509399,649.15207 Z M520.906484,634.685793 L425.140335,641.382414 C440.915342,637.60614 456.783359,635.159951 472.744383,634.043847 C488.705408,632.927744 504.759442,633.141725 520.906484,634.685793 Z M737.093516,634.685793 C752.493592,633.665689 764.019757,633.242297 771.672009,633.415616 L771.672009,633.415616 Z" id="Combined-Shape" stroke="#000000" stroke-width="4"></path>
    </g>
</svg>