<svg width="1080" height="1080" viewBox="0 0 1080 1080" fill="none" xmlns="http://www.w3.org/2000/svg">
<g id="Face/ 11">
<g id="Path">
<mask id="path-1-inside-1_0_1039" fill="white">
<path fill-rule="evenodd" clip-rule="evenodd" d="M310.946 562.941C335.92 464.119 425.436 391 532 391C657.921 391 760 493.079 760 619C760 629.46 762.06 640.268 763.86 649.706C764.292 651.973 764.709 654.16 765.079 656.245C767.13 667.808 768.036 677.319 765.823 686.022C759.49 710.927 734.305 756.885 701.951 799.708C685.937 820.903 668.534 840.835 651.405 856.582C634.066 872.522 617.906 883.332 604.421 887.546C562.641 900.602 508.106 882.567 455.424 846.498C403.318 810.823 356.354 759.698 330.718 712.827C328.401 708.592 323.773 706.157 318.971 706.647C316.685 706.88 314.359 707 312 707C274.445 707 244 676.555 244 639C244 605.126 268.78 577.017 301.2 571.851C305.938 571.096 309.771 567.592 310.946 562.941ZM532 367C416.833 367 319.736 444.245 289.647 549.737C249.637 559.728 220 595.893 220 639C220 689.81 261.19 731 312 731C312.471 731 312.942 730.996 313.412 730.989C341.666 779.573 389.407 830.385 441.866 866.301C496.147 903.465 558.873 926.924 611.579 910.454C630.094 904.668 649.382 891.042 667.648 874.25C686.124 857.265 704.484 836.168 721.1 814.175C754.005 770.623 781.547 721.57 789.083 691.937C792.651 677.905 790.831 664.007 788.71 652.053C788.218 649.28 787.717 646.632 787.235 644.08L787.235 644.079C785.499 634.899 784 626.971 784 619C784 479.824 671.176 367 532 367ZM307.45 621.439C305.735 615.038 299.155 611.239 292.753 612.954C286.351 614.669 282.552 621.249 284.268 627.651L292.55 658.561C294.265 664.962 300.845 668.761 307.247 667.046C313.649 665.331 317.448 658.751 315.732 652.349L307.45 621.439Z"/>
</mask>
<path d="M310.946 562.941L287.678 557.06L310.946 562.941ZM763.86 649.706L740.285 654.201L740.285 654.201L763.86 649.706ZM765.079 656.245L741.448 660.437L741.448 660.438L765.079 656.245ZM765.823 686.022L789.083 691.937L789.083 691.937L765.823 686.022ZM701.951 799.708L682.802 785.24V785.24L701.951 799.708ZM651.405 856.582L667.648 874.25L651.405 856.582ZM604.421 887.546L611.579 910.454H611.579L604.421 887.546ZM455.424 846.498L441.866 866.301H441.866L455.424 846.498ZM330.718 712.827L309.661 724.343L309.661 724.343L330.718 712.827ZM318.971 706.647L321.408 730.523H321.408L318.971 706.647ZM301.2 571.851L304.977 595.552L301.2 571.851ZM289.647 549.737L295.461 573.022C303.789 570.943 310.372 564.574 312.727 556.32L289.647 549.737ZM313.412 730.989L334.159 718.924C329.797 711.424 321.726 706.861 313.05 706.992L313.412 730.989ZM441.866 866.301L455.424 846.498L441.866 866.301ZM611.579 910.454L604.421 887.546L604.421 887.546L611.579 910.454ZM667.648 874.25L683.891 891.919H683.891L667.648 874.25ZM721.1 814.175L740.249 828.643V828.643L721.1 814.175ZM789.083 691.937L765.823 686.022V686.022L789.083 691.937ZM788.71 652.053L765.079 656.245L765.079 656.245L788.71 652.053ZM787.235 644.08L810.817 639.622C810.77 639.372 810.719 639.122 810.664 638.874L787.235 644.08ZM787.235 644.079L763.653 648.538C763.7 648.788 763.751 649.037 763.806 649.285L787.235 644.079ZM292.753 612.954L298.965 636.136H298.965L292.753 612.954ZM307.45 621.439L330.632 615.228V615.228L307.45 621.439ZM284.268 627.651L261.086 633.863L284.268 627.651ZM292.55 658.561L269.368 664.772H269.368L292.55 658.561ZM307.247 667.046L313.459 690.228H313.459L307.247 667.046ZM315.732 652.349L338.914 646.137L338.914 646.137L315.732 652.349ZM532 367C414.187 367 315.28 447.837 287.678 557.06L334.215 568.821C356.559 480.402 436.684 415 532 415V367ZM784 619C784 479.824 671.176 367 532 367V415C644.666 415 736 506.334 736 619H784ZM787.435 645.211C785.561 635.381 784 626.81 784 619H736C736 632.111 738.56 645.155 740.285 654.201L787.435 645.211ZM788.71 652.053C788.308 649.789 787.861 647.446 787.435 645.211L740.285 654.201C740.723 656.5 741.11 658.532 741.448 660.437L788.71 652.053ZM789.083 691.937C792.655 677.891 790.825 663.976 788.71 652.053L741.448 660.438C743.435 671.64 743.418 676.747 742.563 680.107L789.083 691.937ZM721.1 814.175C737.921 791.912 752.915 768.792 764.604 747.838C776.063 727.296 785.144 707.425 789.083 691.937L742.564 680.107C740.169 689.524 733.49 705.084 722.685 724.453C712.11 743.41 698.335 764.68 682.802 785.24L721.1 814.175ZM667.648 874.25C686.124 857.265 704.484 836.168 721.1 814.175L682.802 785.24C667.39 805.639 650.944 824.405 635.163 838.914L667.648 874.25ZM611.579 910.454C630.097 904.667 649.386 891.039 667.648 874.25L635.163 838.914C618.746 854.006 605.714 861.997 597.262 864.639L611.579 910.454ZM441.866 866.301C496.158 903.473 558.88 926.922 611.579 910.454L597.262 864.639C566.402 874.282 520.054 861.661 468.983 826.695L441.866 866.301ZM309.661 724.343C337.312 774.897 387.01 828.743 441.866 866.301L468.983 826.695C419.627 792.903 375.396 744.499 351.774 701.31L309.661 724.343ZM321.408 730.523C316.606 731.013 311.978 728.578 309.661 724.343L351.774 701.31C344.825 688.605 330.94 681.301 316.534 682.771L321.408 730.523ZM312 731C315.172 731 318.311 730.839 321.408 730.523L316.534 682.771C315.06 682.922 313.547 683 312 683V731ZM220 639C220 689.81 261.19 731 312 731V683C287.699 683 268 663.301 268 639H220ZM297.424 548.15C253.53 555.145 220 593.151 220 639H268C268 617.101 284.03 598.89 304.977 595.552L297.424 548.15ZM287.678 557.06C288.853 552.409 292.686 548.905 297.424 548.15L304.977 595.552C319.19 593.287 330.689 582.775 334.215 568.821L287.678 557.06ZM312.727 556.32C339.954 460.861 427.837 391 532 391V343C405.829 343 299.518 427.63 266.567 543.154L312.727 556.32ZM244 639C244 607.172 265.88 580.409 295.461 573.022L283.833 526.452C233.393 539.047 196 584.614 196 639H244ZM312 707C274.445 707 244 676.555 244 639H196C196 703.065 247.935 755 312 755V707ZM313.05 706.992C312.7 706.997 312.35 707 312 707V755C312.593 755 313.184 754.996 313.773 754.987L313.05 706.992ZM455.424 846.498C405.647 812.417 360.469 764.166 334.159 718.924L292.665 743.055C322.863 794.981 373.168 848.353 428.308 886.105L455.424 846.498ZM604.421 887.546C562.647 900.6 508.115 882.573 455.424 846.498L428.308 886.105C484.179 924.357 555.099 953.248 618.738 933.361L604.421 887.546ZM651.405 856.582C634.069 872.52 617.908 883.331 604.421 887.546L618.738 933.361C642.28 926.004 664.696 909.565 683.891 891.919L651.405 856.582ZM701.951 799.708C685.937 820.903 668.534 840.835 651.405 856.582L683.891 891.919C703.714 873.695 723.031 851.432 740.249 828.643L701.951 799.708ZM765.823 686.022C759.489 710.929 734.303 756.887 701.951 799.708L740.249 828.643C773.707 784.359 803.605 732.211 812.342 697.852L765.823 686.022ZM765.079 656.245C767.126 667.785 768.039 677.308 765.823 686.022L812.342 697.852C817.263 678.502 814.535 660.228 812.341 647.861L765.079 656.245ZM763.653 648.539C764.138 651.107 764.614 653.626 765.079 656.245L812.341 647.861C811.822 644.934 811.297 642.156 810.817 639.622L763.653 648.539ZM763.806 649.285L763.807 649.287L810.664 638.874L810.663 638.872L763.806 649.285ZM760 619C760 629.63 762.008 639.839 763.653 648.538L810.817 639.62C808.99 629.958 808 624.313 808 619H760ZM532 391C657.921 391 760 493.079 760 619H808C808 466.569 684.431 343 532 343V391ZM298.965 636.136C292.563 637.852 285.983 634.053 284.268 627.651L330.632 615.228C325.486 596.023 305.746 584.626 286.541 589.772L298.965 636.136ZM307.45 621.439C309.165 627.841 305.366 634.421 298.965 636.136L286.541 589.772C267.337 594.918 255.94 614.658 261.086 633.863L307.45 621.439ZM315.732 652.349L307.45 621.439L261.086 633.863L269.368 664.772L315.732 652.349ZM301.035 643.864C307.437 642.148 314.017 645.947 315.732 652.349L269.368 664.772C274.514 683.977 294.254 695.374 313.459 690.228L301.035 643.864ZM292.55 658.561C290.835 652.159 294.634 645.579 301.035 643.864L313.459 690.228C332.663 685.082 344.06 665.342 338.914 646.137L292.55 658.561ZM284.268 627.651L292.55 658.561L338.914 646.137L330.632 615.228L284.268 627.651Z" fill="black" mask="url(#path-1-inside-1_0_1039)"/>
</g>
</g>
</svg>
