<svg width="1080" height="1080" viewBox="0 0 1080 1080" fill="none" xmlns="http://www.w3.org/2000/svg">
<g id="Face/ 13">
<g id="Path">
<mask id="path-1-inside-1_0_1055" fill="white">
<path fill-rule="evenodd" clip-rule="evenodd" d="M310.946 562.941C335.92 464.119 425.436 391 532 391C657.921 391 760 493.079 760 619C760 631.704 765.103 644.455 769.138 654.538L769.144 654.552C769.693 655.923 770.221 657.244 770.715 658.51C775.415 670.56 777.649 678.842 775.823 686.022C773.948 693.393 772.332 702.585 770.654 712.524C770.382 714.136 770.107 715.775 769.828 717.438L769.817 717.506C768.35 726.253 766.768 735.691 764.843 745.652C760.25 769.416 753.836 795.431 743.068 819.55C732.317 843.63 717.433 865.355 696.147 881.076C675.001 896.694 646.718 907 608 907C531.219 907 475.292 882.301 432.009 846.12C388.399 809.666 357.158 761.169 330.718 712.827C328.401 708.592 323.773 706.157 318.971 706.647C316.685 706.88 314.359 707 312 707C274.445 707 244 676.555 244 639C244 605.126 268.78 577.017 301.2 571.851C305.938 571.096 309.771 567.592 310.946 562.941ZM532 367C416.833 367 319.736 444.245 289.647 549.737C249.637 559.728 220 595.893 220 639C220 689.81 261.19 731 312 731C312.443 731 312.885 730.997 313.327 730.991C339.507 778.06 371.609 826.912 416.617 864.534C464.075 904.205 525.41 931 608 931C651.282 931 684.697 919.37 710.406 900.381C735.976 881.495 753.104 855.941 764.983 829.334C776.845 802.765 783.677 774.683 788.407 750.205C790.393 739.927 792.031 730.156 793.498 721.409C793.777 719.741 794.051 718.109 794.319 716.519C796.023 706.423 797.49 698.2 799.083 691.937C803.038 676.382 797.546 661.254 793.074 649.789C792.513 648.35 791.965 646.959 791.433 645.61C787.181 634.823 784 626.753 784 619C784 479.824 671.176 367 532 367ZM307.45 621.439C305.735 615.038 299.155 611.239 292.753 612.954C286.351 614.669 282.552 621.249 284.268 627.651L292.55 658.561C294.265 664.962 300.845 668.761 307.247 667.046C313.649 665.331 317.448 658.751 315.732 652.349L307.45 621.439Z"/>
</mask>
<path d="M310.946 562.941L287.678 557.06L310.946 562.941ZM769.138 654.538L746.856 663.455C746.862 663.47 746.868 663.484 746.874 663.499L769.138 654.538ZM769.144 654.552L791.426 645.635C791.42 645.62 791.414 645.605 791.408 645.59L769.144 654.552ZM770.715 658.51L748.355 667.23L770.715 658.51ZM775.823 686.022L799.083 691.937V691.937L775.823 686.022ZM770.654 712.524L746.989 708.53L746.989 708.53L770.654 712.524ZM769.828 717.438L746.159 713.467C746.157 713.477 746.156 713.488 746.154 713.498L769.828 717.438ZM769.817 717.506L793.486 721.475C793.488 721.466 793.49 721.456 793.491 721.447L769.817 717.506ZM764.843 745.652L788.407 750.205V750.205L764.843 745.652ZM743.068 819.55L721.153 809.766L743.068 819.55ZM696.147 881.076L681.889 861.771L696.147 881.076ZM432.009 846.12L416.617 864.534L432.009 846.12ZM330.718 712.827L309.661 724.343L309.661 724.343L330.718 712.827ZM318.971 706.647L321.408 730.523H321.408L318.971 706.647ZM301.2 571.851L304.977 595.552L301.2 571.851ZM289.647 549.737L295.461 573.022C303.789 570.943 310.372 564.574 312.727 556.32L289.647 549.737ZM313.327 730.991L334.301 719.325C330.007 711.605 321.82 706.868 312.987 706.993L313.327 730.991ZM416.617 864.534L401.224 882.948H401.224L416.617 864.534ZM710.406 900.381L724.665 919.686L710.406 900.381ZM764.983 829.334L786.898 839.118L764.983 829.334ZM788.407 750.205L811.971 754.759V754.759L788.407 750.205ZM793.498 721.409L817.167 725.378L817.167 725.377L793.498 721.409ZM794.319 716.519L817.984 720.514L817.984 720.513L794.319 716.519ZM799.083 691.937L822.342 697.852L799.083 691.937ZM793.074 649.789L770.715 658.509L770.715 658.51L793.074 649.789ZM791.433 645.61L813.761 636.809L813.761 636.809L791.433 645.61ZM292.753 612.954L298.965 636.136H298.965L292.753 612.954ZM307.45 621.439L330.632 615.228V615.228L307.45 621.439ZM284.268 627.651L261.086 633.863L284.268 627.651ZM292.55 658.561L269.368 664.772H269.368L292.55 658.561ZM307.247 667.046L313.459 690.228H313.459L307.247 667.046ZM315.732 652.349L338.914 646.137L338.914 646.137L315.732 652.349ZM532 367C414.187 367 315.28 447.837 287.678 557.06L334.215 568.821C356.559 480.402 436.684 415 532 415V367ZM784 619C784 479.824 671.176 367 532 367V415C644.666 415 736 506.334 736 619H784ZM791.42 645.62C787.062 634.73 784 626.297 784 619H736C736 637.111 743.144 654.18 746.856 663.455L791.42 645.62ZM791.408 645.59L791.402 645.576L746.874 663.499L746.88 663.514L791.408 645.59ZM793.074 649.789C792.536 648.408 791.966 646.985 791.426 645.635L746.862 663.469C747.419 664.861 747.907 666.081 748.355 667.23L793.074 649.789ZM799.083 691.937C803.05 676.336 797.502 661.14 793.074 649.789L748.355 667.23C750.592 672.965 751.711 676.505 752.206 678.915C752.655 681.107 752.31 681.102 752.564 680.107L799.083 691.937ZM794.319 716.519C796.023 706.427 797.49 698.201 799.083 691.937L752.564 680.107C750.407 688.586 748.641 698.742 746.989 708.53L794.319 716.519ZM793.497 721.409C793.777 719.741 794.05 718.116 794.319 716.518L746.989 708.53C746.714 710.157 746.437 711.809 746.159 713.467L793.497 721.409ZM793.491 721.447L793.503 721.379L746.154 713.498L746.143 713.566L793.491 721.447ZM788.407 750.205C790.396 739.911 792.025 730.192 793.486 721.475L746.147 713.537C744.676 722.315 743.139 731.471 741.279 741.098L788.407 750.205ZM764.983 829.334C776.845 802.764 783.677 774.682 788.407 750.205L741.279 741.098C736.824 764.15 730.827 788.097 721.153 809.766L764.983 829.334ZM710.406 900.381C735.975 881.496 753.104 855.942 764.983 829.334L721.153 809.766C711.53 831.319 698.89 849.214 681.889 861.771L710.406 900.381ZM608 931C651.284 931 684.698 919.369 710.406 900.381L681.889 861.771C665.305 874.02 642.152 883 608 883V931ZM416.617 864.534C464.075 904.205 525.41 931 608 931V883C537.027 883 486.508 860.396 447.402 827.706L416.617 864.534ZM309.661 724.343C336.506 773.425 369.485 825.136 416.617 864.534L447.402 827.706C407.313 794.196 377.81 748.914 351.774 701.31L309.661 724.343ZM321.408 730.523C316.606 731.013 311.978 728.578 309.661 724.343L351.774 701.31C344.825 688.605 330.94 681.301 316.534 682.771L321.408 730.523ZM312 731C315.172 731 318.311 730.839 321.408 730.523L316.534 682.771C315.06 682.922 313.547 683 312 683V731ZM220 639C220 689.81 261.19 731 312 731V683C287.699 683 268 663.301 268 639H220ZM297.424 548.15C253.53 555.145 220 593.151 220 639H268C268 617.101 284.03 598.89 304.977 595.552L297.424 548.15ZM287.678 557.06C288.853 552.409 292.686 548.905 297.424 548.15L304.977 595.552C319.19 593.287 330.689 582.775 334.215 568.821L287.678 557.06ZM312.727 556.32C339.954 460.861 427.837 391 532 391V343C405.829 343 299.518 427.63 266.567 543.154L312.727 556.32ZM244 639C244 607.172 265.88 580.409 295.461 573.022L283.833 526.452C233.393 539.047 196 584.614 196 639H244ZM312 707C274.445 707 244 676.555 244 639H196C196 703.065 247.935 755 312 755V707ZM312.987 706.993C312.659 706.998 312.329 707 312 707V755C312.557 755 313.112 754.996 313.667 754.988L312.987 706.993ZM432.009 846.12C390.385 811.326 359.998 765.526 334.301 719.325L292.353 742.656C319.016 790.594 352.833 842.497 401.224 882.948L432.009 846.12ZM608 907C531.219 907 475.292 882.301 432.009 846.12L401.224 882.948C452.858 926.109 519.6 955 608 955V907ZM696.147 881.076C675.003 896.694 646.72 907 608 907V955C655.845 955 694.391 942.047 724.665 919.686L696.147 881.076ZM743.068 819.55C732.316 843.632 717.432 865.355 696.147 881.076L724.665 919.686C754.52 897.635 773.892 868.25 786.898 839.118L743.068 819.55ZM764.843 745.652C760.251 769.415 753.836 795.43 743.068 819.55L786.898 839.118C799.853 810.099 807.102 779.952 811.971 754.759L764.843 745.652ZM769.828 717.441C768.357 726.216 766.765 735.707 764.843 745.652L811.971 754.759C814.022 744.147 815.706 734.095 817.167 725.378L769.828 717.441ZM770.654 712.524C770.383 714.13 770.107 715.775 769.828 717.442L817.167 725.377C817.447 723.706 817.719 722.088 817.984 720.514L770.654 712.524ZM775.823 686.022C773.948 693.395 772.331 702.589 770.654 712.524L817.984 720.513C819.716 710.256 821.032 703.004 822.342 697.852L775.823 686.022ZM770.715 658.51C775.387 670.489 777.657 678.812 775.823 686.022L822.342 697.852C828.42 673.952 819.706 652.02 815.434 641.068L770.715 658.51ZM769.105 654.411C769.639 655.766 770.172 657.118 770.715 658.509L815.434 641.068C814.855 639.583 814.291 638.152 813.761 636.809L769.105 654.411ZM760 619C760 632.295 765.426 645.077 769.105 654.411L813.761 636.809C808.936 624.569 808 621.211 808 619H760ZM532 391C657.921 391 760 493.079 760 619H808C808 466.569 684.431 343 532 343V391ZM298.965 636.136C292.563 637.852 285.983 634.053 284.268 627.651L330.632 615.228C325.486 596.023 305.746 584.626 286.541 589.772L298.965 636.136ZM307.45 621.439C309.165 627.841 305.366 634.421 298.965 636.136L286.541 589.772C267.337 594.918 255.94 614.658 261.086 633.863L307.45 621.439ZM315.732 652.349L307.45 621.439L261.086 633.863L269.368 664.772L315.732 652.349ZM301.035 643.864C307.437 642.148 314.017 645.947 315.732 652.349L269.368 664.772C274.514 683.977 294.254 695.374 313.459 690.228L301.035 643.864ZM292.55 658.561C290.835 652.159 294.634 645.579 301.035 643.864L313.459 690.228C332.663 685.082 344.06 665.342 338.914 646.137L292.55 658.561ZM284.268 627.651L292.55 658.561L338.914 646.137L330.632 615.228L284.268 627.651Z" fill="black" mask="url(#path-1-inside-1_0_1055)"/>
</g>
</g>
</svg>
