<svg width="1080" height="1080" viewBox="0 0 1080 1080" fill="none" xmlns="http://www.w3.org/2000/svg">
<g id="Face/ 14">
<g id="Path">
<mask id="path-1-inside-1_0_1047" fill="white">
<path fill-rule="evenodd" clip-rule="evenodd" d="M310.946 562.941C335.92 464.119 425.436 391 532 391C657.921 391 760 493.079 760 619C760 630.105 762.303 639.693 764.161 647.424C764.528 648.952 764.877 650.407 765.188 651.787C767.115 660.341 768.026 667.358 765.823 676.022C763.939 683.432 762.268 693.168 760.509 703.909C760.176 705.942 759.839 708.021 759.494 710.143L759.493 710.149C757.984 719.446 756.339 729.58 754.36 740.298C749.495 766.658 742.748 795.74 731.729 821.914C720.685 848.145 705.763 870.459 685.149 884.443C664.918 898.167 637.861 904.782 600.368 897.236C571.208 891.367 537.334 884.19 507.344 875.789C476.71 867.206 452.292 857.897 440.414 848.564C427.573 838.475 405.598 814.617 383.659 787.556C361.837 760.64 341.18 731.956 330.718 712.827C328.401 708.592 323.773 706.157 318.971 706.647C316.685 706.88 314.359 707 312 707C274.445 707 244 676.555 244 639C244 605.126 268.78 577.017 301.2 571.851C305.938 571.096 309.771 567.592 310.946 562.941ZM532 367C416.833 367 319.736 444.245 289.647 549.737C249.637 559.728 220 595.893 220 639C220 689.81 261.19 731 312 731C312.486 731 312.971 730.996 313.456 730.989C325.577 751.44 345.159 778.178 365.016 802.67C386.987 829.77 410.427 855.525 425.586 867.436C441.708 880.103 470.599 890.419 500.87 898.899C531.785 907.56 566.411 914.883 595.632 920.764C638.49 929.39 672.307 922.155 698.622 904.304C724.554 886.713 741.85 859.727 753.848 831.227C765.871 802.67 772.989 771.591 777.962 744.655C779.992 733.656 781.687 723.212 783.198 713.904L783.199 713.901L783.212 713.819C783.548 711.75 783.874 709.737 784.194 707.787C785.984 696.85 787.5 688.161 789.083 681.937C792.661 667.866 790.846 656.473 788.601 646.512C788.177 644.63 787.752 642.839 787.341 641.107L787.338 641.095C785.534 633.491 784 627.028 784 619C784 479.824 671.176 367 532 367ZM307.45 621.439C305.735 615.038 299.155 611.239 292.753 612.954C286.351 614.669 282.552 621.249 284.268 627.651L292.55 658.561C294.265 664.962 300.845 668.761 307.247 667.046C313.649 665.331 317.448 658.751 315.732 652.349L307.45 621.439Z"/>
</mask>
<path d="M310.946 562.941L287.678 557.06L310.946 562.941ZM764.161 647.424L787.497 641.818V641.818L764.161 647.424ZM765.188 651.787L741.775 657.062L741.775 657.062L765.188 651.787ZM765.823 676.022L789.083 681.937V681.937L765.823 676.022ZM760.509 703.909L736.824 700.031V700.031L760.509 703.909ZM759.494 710.143L783.145 714.221C783.159 714.144 783.171 714.067 783.184 713.989L759.494 710.143ZM759.493 710.149L735.842 706.071C735.829 706.148 735.816 706.226 735.803 706.303L759.493 710.149ZM754.36 740.298L730.759 735.942V735.942L754.36 740.298ZM731.729 821.914L709.609 812.602V812.602L731.729 821.914ZM685.149 884.443L671.676 864.582L671.675 864.582L685.149 884.443ZM600.368 897.236L605.103 873.708L600.368 897.236ZM507.344 875.789L500.87 898.899L507.344 875.789ZM440.414 848.564L455.242 829.693L455.242 829.693L440.414 848.564ZM383.659 787.556L365.016 802.67V802.67L383.659 787.556ZM330.718 712.827L309.661 724.343L309.661 724.343L330.718 712.827ZM318.971 706.647L321.408 730.523H321.408L318.971 706.647ZM301.2 571.851L304.977 595.552L301.2 571.851ZM289.647 549.737L295.461 573.022C303.789 570.943 310.372 564.574 312.727 556.32L289.647 549.737ZM313.456 730.989L334.102 718.752C329.712 711.345 321.691 706.858 313.082 706.992L313.456 730.989ZM365.016 802.67L346.373 817.785H346.373L365.016 802.67ZM425.586 867.436L410.758 886.307H410.758L425.586 867.436ZM500.87 898.899L494.396 922.009L500.87 898.899ZM595.632 920.764L590.897 944.292L595.632 920.764ZM698.622 904.304L712.095 924.166H712.095L698.622 904.304ZM753.848 831.227L731.729 821.914L731.729 821.914L753.848 831.227ZM777.962 744.655L754.36 740.298L777.962 744.655ZM783.198 713.904L806.888 717.749C806.912 717.599 806.935 717.448 806.957 717.298L783.198 713.904ZM783.199 713.901L759.508 710.058C759.484 710.207 759.461 710.357 759.44 710.507L783.199 713.901ZM783.212 713.819L759.522 709.973L759.522 709.975L783.212 713.819ZM784.194 707.787L760.509 703.909V703.909L784.194 707.787ZM789.083 681.937L765.823 676.022L765.823 676.022L789.083 681.937ZM788.601 646.512L812.014 641.236L812.014 641.236L788.601 646.512ZM787.341 641.107L810.693 635.567C810.69 635.555 810.688 635.544 810.685 635.533L787.341 641.107ZM787.338 641.095L763.987 646.637C763.989 646.647 763.992 646.658 763.995 646.669L787.338 641.095ZM292.753 612.954L298.965 636.136H298.965L292.753 612.954ZM307.45 621.439L330.632 615.228V615.228L307.45 621.439ZM284.268 627.651L261.086 633.863L284.268 627.651ZM292.55 658.561L269.368 664.772H269.368L292.55 658.561ZM307.247 667.046L313.459 690.228H313.459L307.247 667.046ZM315.732 652.349L338.914 646.137L338.914 646.137L315.732 652.349ZM532 367C414.187 367 315.28 447.837 287.678 557.06L334.215 568.821C356.559 480.402 436.684 415 532 415V367ZM784 619C784 479.824 671.176 367 532 367V415C644.666 415 736 506.334 736 619H784ZM787.497 641.818C785.619 634.002 784 626.936 784 619H736C736 633.274 738.988 645.385 740.824 653.03L787.497 641.818ZM788.601 646.512C788.246 644.935 787.855 643.309 787.497 641.818L740.824 653.03C741.2 654.595 741.508 655.878 741.775 657.062L788.601 646.512ZM789.083 681.937C792.663 667.86 790.843 656.464 788.601 646.512L741.775 657.062C743.387 664.219 743.39 666.856 742.564 670.107L789.083 681.937ZM784.194 707.787C785.984 696.855 787.499 688.163 789.083 681.937L742.564 670.107C740.378 678.7 738.552 689.481 736.824 700.031L784.194 707.787ZM783.184 713.989C783.529 711.863 783.864 709.801 784.194 707.787L736.824 700.031C736.489 702.083 736.148 704.178 735.804 706.298L783.184 713.989ZM783.144 714.227L783.145 714.221L735.843 706.066L735.842 706.071L783.144 714.227ZM777.962 744.655C779.994 733.645 781.678 723.266 783.183 713.994L735.803 706.303C734.29 715.626 732.684 725.515 730.759 735.942L777.962 744.655ZM753.848 831.227C765.871 802.669 772.99 771.59 777.962 744.655L730.759 735.942C725.999 761.726 719.625 788.812 709.609 812.602L753.848 831.227ZM698.622 904.304C724.553 886.714 741.849 859.728 753.848 831.227L709.609 812.602C699.522 836.562 686.974 854.204 671.676 864.582L698.622 904.304ZM595.632 920.764C638.497 929.391 672.312 922.152 698.622 904.304L671.675 864.582C657.523 874.182 637.225 880.173 605.103 873.708L595.632 920.764ZM500.87 898.899C531.785 907.56 566.411 914.883 595.632 920.764L605.103 873.708C576.005 867.851 542.883 860.821 513.819 852.678L500.87 898.899ZM425.586 867.436C434.23 874.227 445.822 879.898 457.933 884.742C470.413 889.733 485.055 894.468 500.87 898.899L513.819 852.678C499 848.527 486.115 844.316 475.758 840.174C465.032 835.884 458.476 832.234 455.242 829.693L425.586 867.436ZM365.016 802.67C386.984 829.766 410.425 855.524 425.586 867.436L455.242 829.693C444.722 821.427 424.212 799.467 402.302 772.441L365.016 802.67ZM309.661 724.343C321.18 745.403 342.928 775.426 365.016 802.67L402.302 772.441C380.747 745.854 361.181 718.509 351.774 701.31L309.661 724.343ZM321.408 730.523C316.606 731.013 311.978 728.578 309.661 724.343L351.774 701.31C344.825 688.605 330.94 681.301 316.534 682.771L321.408 730.523ZM312 731C315.172 731 318.311 730.839 321.408 730.523L316.534 682.771C315.06 682.922 313.547 683 312 683V731ZM220 639C220 689.81 261.19 731 312 731V683C287.699 683 268 663.301 268 639H220ZM297.424 548.15C253.53 555.145 220 593.151 220 639H268C268 617.101 284.03 598.89 304.977 595.552L297.424 548.15ZM287.678 557.06C288.853 552.409 292.686 548.905 297.424 548.15L304.977 595.552C319.19 593.287 330.689 582.775 334.215 568.821L287.678 557.06ZM312.727 556.32C339.954 460.861 427.837 391 532 391V343C405.829 343 299.518 427.63 266.567 543.154L312.727 556.32ZM244 639C244 607.172 265.88 580.409 295.461 573.022L283.833 526.452C233.393 539.047 196 584.614 196 639H244ZM312 707C274.445 707 244 676.555 244 639H196C196 703.065 247.935 755 312 755V707ZM313.082 706.992C312.722 706.997 312.361 707 312 707V755C312.611 755 313.22 754.995 313.829 754.986L313.082 706.992ZM383.659 787.556C364.137 763.476 345.372 737.766 334.102 718.752L292.81 743.226C305.783 765.115 326.182 792.879 346.373 817.785L383.659 787.556ZM440.414 848.564C427.572 838.474 405.595 814.613 383.659 787.556L346.373 817.785C368.379 844.927 393.281 872.576 410.758 886.307L440.414 848.564ZM507.344 875.789C476.73 867.212 452.298 857.902 440.414 848.564L410.758 886.307C431.117 902.304 464.468 913.625 494.396 922.009L507.344 875.789ZM600.368 897.236C571.209 891.367 537.334 884.19 507.344 875.789L494.396 922.009C526.236 930.929 561.613 938.398 590.897 944.292L600.368 897.236ZM685.149 884.443C664.922 898.164 637.866 904.783 600.368 897.236L590.897 944.292C639.114 953.997 679.692 946.147 712.095 924.166L685.149 884.443ZM731.729 821.914C720.685 848.147 705.762 870.46 685.149 884.443L712.095 924.166C743.345 902.967 763.015 871.306 775.968 840.539L731.729 821.914ZM754.36 740.298C749.495 766.657 742.748 795.74 731.729 821.914L775.968 840.539C788.994 809.6 796.484 776.526 801.563 749.012L754.36 740.298ZM759.508 710.058C757.993 719.391 756.337 729.59 754.36 740.298L801.563 749.012C803.647 737.721 805.381 727.032 806.888 717.749L759.508 710.058ZM759.44 710.507L759.439 710.509L806.957 717.298L806.957 717.295L759.44 710.507ZM759.522 709.975L759.508 710.058L806.889 717.744L806.902 717.662L759.522 709.975ZM760.509 703.909C760.187 705.878 759.857 707.908 759.522 709.973L806.902 717.664C807.238 715.591 807.562 713.596 807.878 711.665L760.509 703.909ZM765.823 676.022C763.938 683.433 762.267 693.174 760.509 703.909L807.878 711.665C809.702 700.526 811.061 692.889 812.343 687.852L765.823 676.022ZM765.188 651.787C767.114 660.335 768.027 667.354 765.823 676.022L812.342 687.852C817.295 668.377 814.577 652.612 812.014 641.236L765.188 651.787ZM763.989 646.647C764.404 648.396 764.799 650.058 765.188 651.787L812.014 641.236C811.555 639.201 811.1 637.281 810.693 635.567L763.989 646.647ZM763.995 646.669L763.998 646.682L810.685 635.533L810.682 635.52L763.995 646.669ZM760 619C760 630.205 762.229 639.229 763.987 646.637L810.69 635.553C808.838 627.752 808 623.851 808 619H760ZM532 391C657.921 391 760 493.079 760 619H808C808 466.569 684.431 343 532 343V391ZM298.965 636.136C292.563 637.852 285.983 634.053 284.268 627.651L330.632 615.228C325.486 596.023 305.746 584.626 286.541 589.772L298.965 636.136ZM307.45 621.439C309.165 627.841 305.366 634.421 298.965 636.136L286.541 589.772C267.337 594.918 255.94 614.658 261.086 633.863L307.45 621.439ZM315.732 652.349L307.45 621.439L261.086 633.863L269.368 664.772L315.732 652.349ZM301.035 643.864C307.437 642.148 314.017 645.947 315.732 652.349L269.368 664.772C274.514 683.977 294.254 695.374 313.459 690.228L301.035 643.864ZM292.55 658.561C290.835 652.159 294.634 645.579 301.035 643.864L313.459 690.228C332.663 685.082 344.06 665.342 338.914 646.137L292.55 658.561ZM284.268 627.651L292.55 658.561L338.914 646.137L330.632 615.228L284.268 627.651Z" fill="black" mask="url(#path-1-inside-1_0_1047)"/>
</g>
</g>
</svg>
