<svg width="1080" height="1080" viewBox="0 0 1080 1080" fill="none" xmlns="http://www.w3.org/2000/svg">
<g id="Face/ 15">
<g id="Path">
<mask id="path-1-inside-1_0_1051" fill="white">
<path fill-rule="evenodd" clip-rule="evenodd" d="M310.946 562.941C335.92 464.119 425.436 391 532 391C657.921 391 760 493.079 760 619C760 631.704 765.103 644.455 769.138 654.538L769.144 654.552C769.693 655.923 770.221 657.244 770.715 658.51C775.415 670.56 777.649 678.842 775.823 686.022C773.939 693.432 772.268 703.168 770.509 713.909C770.176 715.942 769.839 718.021 769.494 720.143L769.493 720.149C767.984 729.446 766.339 739.58 764.36 750.298C759.495 776.658 752.748 805.74 741.729 831.914C730.685 858.145 715.763 880.459 695.149 894.443C674.918 908.167 647.861 914.782 610.368 907.236C597.18 904.582 583.483 902.156 570.007 899.769L570.007 899.769C568.396 899.484 566.789 899.199 565.186 898.915C550.095 896.237 535.371 893.577 521.638 890.614C493.472 884.536 471.958 877.635 460.414 868.564C447.53 858.441 420.564 829.573 393.525 797.393C366.551 765.291 341.07 731.755 330.718 712.827C328.401 708.592 323.773 706.157 318.971 706.647C316.685 706.88 314.359 707 312 707C274.445 707 244 676.555 244 639C244 605.126 268.78 577.017 301.2 571.851C305.938 571.096 309.771 567.592 310.946 562.941ZM532 367C416.833 367 319.736 444.245 289.647 549.737C249.637 559.728 220 595.893 220 639C220 689.81 261.19 731 312 731C312.505 731 313.009 730.996 313.512 730.988C326.573 752.476 350.857 783.92 375.15 812.833C402.021 844.813 430.47 875.559 445.586 887.436C462.042 900.365 488.837 908.089 516.576 914.074C530.796 917.142 545.923 919.872 560.993 922.546C562.596 922.83 564.199 923.114 565.799 923.398C579.32 925.792 592.733 928.168 605.632 930.764C648.49 939.39 682.307 932.155 708.622 914.304C734.554 896.713 751.85 869.727 763.848 841.227C775.871 812.67 782.989 781.591 787.962 754.655C789.992 743.656 791.687 733.212 793.198 723.904L793.199 723.901C793.539 721.803 793.87 719.763 794.194 717.787C795.984 706.85 797.5 698.161 799.083 691.937C803.038 676.382 797.546 661.254 793.074 649.789C792.513 648.35 791.965 646.959 791.433 645.61C787.181 634.823 784 626.753 784 619C784 479.824 671.176 367 532 367ZM307.45 621.439C305.735 615.038 299.155 611.239 292.753 612.954C286.351 614.669 282.552 621.249 284.268 627.651L292.55 658.561C294.265 664.962 300.845 668.761 307.247 667.046C313.649 665.331 317.448 658.751 315.732 652.349L307.45 621.439Z"/>
</mask>
<path d="M310.946 562.941L287.678 557.06L310.946 562.941ZM769.138 654.538L746.856 663.455C746.862 663.47 746.868 663.484 746.874 663.499L769.138 654.538ZM769.144 654.552L791.426 645.635C791.42 645.62 791.414 645.605 791.408 645.59L769.144 654.552ZM770.715 658.51L748.355 667.23L770.715 658.51ZM775.823 686.022L752.564 680.107V680.107L775.823 686.022ZM770.509 713.909L746.824 710.031V710.031L770.509 713.909ZM769.494 720.143L793.145 724.221C793.159 724.144 793.171 724.067 793.184 723.989L769.494 720.143ZM769.493 720.149L745.842 716.071C745.829 716.148 745.816 716.226 745.803 716.303L769.493 720.149ZM764.36 750.298L740.759 745.942V745.942L764.36 750.298ZM741.729 831.914L719.609 822.602V822.602L741.729 831.914ZM695.149 894.443L681.676 874.582L681.675 874.582L695.149 894.443ZM610.368 907.236L605.632 930.764H605.632L610.368 907.236ZM570.007 899.769L563.414 922.846C564.207 923.073 565.01 923.258 565.822 923.402L570.007 899.769ZM570.007 899.769L576.6 876.693C575.807 876.466 575.003 876.281 574.192 876.137L570.007 899.769ZM565.186 898.915L569.379 875.284H569.379L565.186 898.915ZM521.638 890.614L516.576 914.074H516.576L521.638 890.614ZM460.414 868.564L445.586 887.436H445.586L460.414 868.564ZM393.525 797.393L411.9 781.954V781.954L393.525 797.393ZM330.718 712.827L309.661 724.343L309.661 724.343L330.718 712.827ZM318.971 706.647L321.408 730.523H321.408L318.971 706.647ZM301.2 571.851L304.977 595.552L301.2 571.851ZM289.647 549.737L295.461 573.022C303.789 570.943 310.372 564.574 312.727 556.32L289.647 549.737ZM313.512 730.988L334.02 718.522C329.595 711.242 321.643 706.853 313.125 706.991L313.512 730.988ZM375.15 812.833L393.525 797.393H393.525L375.15 812.833ZM445.586 887.436L460.414 868.564L445.586 887.436ZM516.576 914.074L521.638 890.614L516.576 914.074ZM560.993 922.546L565.186 898.915H565.186L560.993 922.546ZM565.799 923.398L561.614 947.03L561.614 947.03L565.799 923.398ZM605.632 930.764L600.897 954.292H600.897L605.632 930.764ZM708.622 914.304L722.095 934.166L708.622 914.304ZM763.848 841.227L741.729 831.914L741.729 831.914L763.848 841.227ZM787.962 754.655L764.36 750.298L787.962 754.655ZM793.198 723.904L816.888 727.749C816.912 727.599 816.935 727.448 816.957 727.298L793.198 723.904ZM793.199 723.901L769.509 720.056C769.484 720.206 769.461 720.356 769.44 720.507L793.199 723.901ZM794.194 717.787L770.509 713.909L770.509 713.909L794.194 717.787ZM799.083 691.937L775.823 686.022L775.823 686.022L799.083 691.937ZM793.074 649.789L770.715 658.509L770.715 658.51L793.074 649.789ZM791.433 645.61L813.761 636.809L813.761 636.809L791.433 645.61ZM292.753 612.954L298.965 636.136H298.965L292.753 612.954ZM307.45 621.439L330.632 615.228V615.228L307.45 621.439ZM284.268 627.651L261.086 633.863L284.268 627.651ZM292.55 658.561L269.368 664.772H269.368L292.55 658.561ZM307.247 667.046L313.459 690.228H313.459L307.247 667.046ZM315.732 652.349L338.914 646.137L338.914 646.137L315.732 652.349ZM532 367C414.187 367 315.28 447.837 287.678 557.06L334.215 568.821C356.559 480.402 436.684 415 532 415V367ZM784 619C784 479.824 671.176 367 532 367V415C644.666 415 736 506.334 736 619H784ZM791.42 645.62C787.062 634.73 784 626.297 784 619H736C736 637.111 743.144 654.18 746.856 663.455L791.42 645.62ZM791.408 645.59L791.402 645.576L746.874 663.499L746.88 663.514L791.408 645.59ZM793.074 649.789C792.536 648.408 791.966 646.985 791.426 645.635L746.862 663.469C747.419 664.861 747.907 666.081 748.355 667.23L793.074 649.789ZM799.083 691.937C803.05 676.336 797.502 661.14 793.074 649.789L748.355 667.23C750.592 672.965 751.711 676.505 752.206 678.915C752.655 681.107 752.31 681.102 752.564 680.107L799.083 691.937ZM794.194 717.787C795.984 706.855 797.499 698.163 799.083 691.937L752.564 680.107C750.378 688.7 748.552 699.481 746.824 710.031L794.194 717.787ZM793.184 723.989C793.529 721.863 793.864 719.801 794.194 717.787L746.824 710.031C746.489 712.083 746.148 714.178 745.804 716.298L793.184 723.989ZM793.144 724.227L793.145 724.221L745.843 716.066L745.842 716.071L793.144 724.227ZM787.962 754.655C789.994 743.645 791.678 733.266 793.183 723.994L745.803 716.303C744.29 725.626 742.684 735.515 740.759 745.942L787.962 754.655ZM763.848 841.227C775.871 812.669 782.99 781.59 787.962 754.655L740.759 745.942C735.999 771.726 729.625 798.812 719.609 822.602L763.848 841.227ZM708.622 914.304C734.553 896.714 751.849 869.728 763.848 841.227L719.609 822.602C709.522 846.562 696.974 864.204 681.676 874.582L708.622 914.304ZM605.632 930.764C648.497 939.391 682.312 932.152 708.622 914.304L681.675 874.582C667.523 884.182 647.225 890.173 615.103 883.708L605.632 930.764ZM565.822 923.402C579.35 925.797 592.766 928.175 605.632 930.764L615.103 883.708C601.593 880.989 587.617 878.515 574.192 876.137L565.822 923.402ZM563.413 922.846L563.414 922.846L576.6 876.693L576.6 876.693L563.413 922.846ZM560.993 922.546C562.6 922.831 564.211 923.116 565.821 923.402L574.192 876.137C572.581 875.852 570.977 875.568 569.379 875.284L560.993 922.546ZM516.576 914.074C530.796 917.142 545.923 919.872 560.993 922.546L569.379 875.284C554.267 872.603 539.946 870.012 526.7 867.154L516.576 914.074ZM445.586 887.436C454.372 894.339 465.483 899.381 476.866 903.365C488.516 907.441 502.002 910.929 516.576 914.074L526.7 867.154C513.108 864.221 501.754 861.219 492.719 858.058C483.418 854.804 478 851.86 475.242 849.693L445.586 887.436ZM375.15 812.832C402.018 844.809 430.469 875.558 445.586 887.436L475.242 849.693C464.59 841.324 439.11 814.338 411.9 781.954L375.15 812.832ZM309.661 724.343C321.29 745.604 348.216 780.777 375.15 812.833L411.9 781.954C384.887 749.806 360.851 717.906 351.774 701.31L309.661 724.343ZM321.408 730.523C316.606 731.013 311.978 728.578 309.661 724.343L351.774 701.31C344.825 688.605 330.94 681.301 316.534 682.771L321.408 730.523ZM312 731C315.172 731 318.311 730.839 321.408 730.523L316.534 682.771C315.06 682.922 313.547 683 312 683V731ZM220 639C220 689.81 261.19 731 312 731V683C287.699 683 268 663.301 268 639H220ZM297.424 548.15C253.53 555.145 220 593.151 220 639H268C268 617.101 284.03 598.89 304.977 595.552L297.424 548.15ZM287.678 557.06C288.853 552.409 292.686 548.905 297.424 548.15L304.977 595.552C319.19 593.287 330.689 582.775 334.215 568.821L287.678 557.06ZM312.727 556.32C339.954 460.861 427.837 391 532 391V343C405.829 343 299.518 427.63 266.567 543.154L312.727 556.32ZM244 639C244 607.172 265.88 580.409 295.461 573.022L283.833 526.452C233.393 539.047 196 584.614 196 639H244ZM312 707C274.445 707 244 676.555 244 639H196C196 703.065 247.935 755 312 755V707ZM313.125 706.991C312.75 706.997 312.375 707 312 707V755C312.634 755 313.268 754.995 313.899 754.985L313.125 706.991ZM393.525 797.393C369.379 768.656 346.083 738.367 334.02 718.522L293.004 743.454C307.063 766.584 332.335 799.184 356.775 828.272L393.525 797.393ZM460.414 868.564C447.528 858.44 420.56 829.569 393.525 797.393L356.775 828.272C383.483 860.057 413.413 892.679 430.758 906.307L460.414 868.564ZM521.638 890.614C493.5 884.542 471.967 877.642 460.414 868.564L430.758 906.307C452.117 923.089 484.175 931.635 511.514 937.534L521.638 890.614ZM565.186 898.915C550.095 896.237 535.371 893.577 521.638 890.614L511.514 937.534C526.22 940.707 541.751 943.506 556.8 946.177L565.186 898.915ZM569.985 899.766C568.383 899.482 566.785 899.199 565.186 898.915L556.8 946.177C558.407 946.462 560.014 946.747 561.614 947.03L569.985 899.766ZM610.368 907.236C597.146 904.575 583.452 902.151 569.985 899.766L561.614 947.03C575.189 949.434 588.321 951.761 600.897 954.292L610.368 907.236ZM695.149 894.443C674.922 908.164 647.866 914.783 610.368 907.236L600.897 954.292C649.114 963.997 689.692 956.147 722.095 934.166L695.149 894.443ZM741.729 831.914C730.685 858.147 715.762 880.46 695.149 894.443L722.095 934.166C753.345 912.967 773.015 881.306 785.968 850.539L741.729 831.914ZM764.36 750.298C759.495 776.657 752.748 805.74 741.729 831.914L785.968 850.539C798.994 819.6 806.484 786.526 811.563 759.012L764.36 750.298ZM769.508 720.058C767.993 729.391 766.337 739.59 764.36 750.298L811.563 759.012C813.647 747.721 815.381 737.032 816.888 727.749L769.508 720.058ZM769.44 720.507L769.439 720.509L816.957 727.298L816.957 727.295L769.44 720.507ZM770.509 713.909C770.182 715.904 769.849 717.961 769.509 720.056L816.888 727.746C817.23 725.645 817.558 723.621 817.878 721.665L770.509 713.909ZM775.823 686.022C773.938 693.433 772.267 703.174 770.509 713.909L817.878 721.665C819.702 710.526 821.061 702.889 822.343 697.852L775.823 686.022ZM770.715 658.51C775.387 670.489 777.657 678.812 775.823 686.022L822.342 697.852C828.42 673.952 819.706 652.02 815.434 641.068L770.715 658.51ZM769.105 654.411C769.639 655.766 770.172 657.118 770.715 658.509L815.434 641.068C814.855 639.583 814.291 638.152 813.761 636.809L769.105 654.411ZM760 619C760 632.295 765.426 645.077 769.105 654.411L813.761 636.809C808.936 624.569 808 621.211 808 619H760ZM532 391C657.921 391 760 493.079 760 619H808C808 466.569 684.431 343 532 343V391ZM298.965 636.136C292.563 637.852 285.983 634.053 284.268 627.651L330.632 615.228C325.486 596.023 305.746 584.626 286.541 589.772L298.965 636.136ZM307.45 621.439C309.165 627.841 305.366 634.421 298.965 636.136L286.541 589.772C267.337 594.918 255.94 614.658 261.086 633.863L307.45 621.439ZM315.732 652.349L307.45 621.439L261.086 633.863L269.368 664.772L315.732 652.349ZM301.035 643.864C307.437 642.148 314.017 645.947 315.732 652.349L269.368 664.772C274.514 683.977 294.254 695.374 313.459 690.228L301.035 643.864ZM292.55 658.561C290.835 652.159 294.634 645.579 301.035 643.864L313.459 690.228C332.663 685.082 344.06 665.342 338.914 646.137L292.55 658.561ZM284.268 627.651L292.55 658.561L338.914 646.137L330.632 615.228L284.268 627.651Z" fill="black" mask="url(#path-1-inside-1_0_1051)"/>
</g>
</g>
</svg>
