<svg width="24" height="24" fill="none" xmlns="http://www.w3.org/2000/svg"><path d="m21 11.5.44-.94c.171-.367.467-.662.834-.834l.94-.44a.5.5 0 0 0 0-.905l-.94-.439a1.731 1.731 0 0 1-.835-.834L21 6.168a.5.5 0 0 0-.905 0l-.44.94a1.731 1.731 0 0 1-.834.834l-.94.44a.5.5 0 0 0 0 .905l.94.44c.367.17.663.466.834.834l.44.939a.5.5 0 0 0 .905 0ZM5.5 22l.879-1.879a3.415 3.415 0 0 1 1.657-1.657l1.879-.879c.765-.358.765-1.453 0-1.811l-1.879-.879a3.415 3.415 0 0 1-1.657-1.657L5.5 11.359c-.358-.765-1.453-.765-1.811 0l-.879 1.879a3.415 3.415 0 0 1-1.657 1.657l-1.879.879c-.765.358-.765 1.453 0 1.811l1.879.879A3.415 3.415 0 0 1 2.81 20.12L3.69 22c.358.765 1.453.765 1.811 0Zm10-16.5-.84-1.848a3.186 3.186 0 0 0-1.605-1.605l-1.849-.84c-.731-.333-.731-1.38 0-1.713l1.849-.84a3.186 3.186 0 0 0 1.605-1.606L15.5-4.8c.332-.731 1.38-.731 1.713 0l.84 1.848a3.186 3.186 0 0 0 1.605 1.605l1.848.84c.732.333.732 1.38 0 1.713l-1.848.84a3.186 3.186 0 0 0-1.605 1.606l-.84 1.848c-.333.731-1.38.731-1.713 0Z" fill="currentColor"/></svg>