<svg width="59" height="126" fill="none" xmlns="http://www.w3.org/2000/svg"><path d="M38.2 56.6c.3-.4.6-.6.7-.9 6.2-10.2 11.5-20.8 14.6-32.5 1.4-5.3 2-10.7 2.3-16.1.1-1.4.3-2.9.5-4.3.1-.5.3-1.1.6-1.5.2-.2.7-.4 1-.3.3.1.5.6.5.9-.4 13.3-2.6 26.3-8.4 38.4-3 6.2-6.1 12.3-9.8 18.1-.4.6-.9 1.5-.8 2.1 1.3 7.8 0 15.4-2.3 22.7-3.5 11.3-7.5 22.4-11.3 33.6-.2.7-.5 1.5-.4 2.5 6.2-4.8 12.3-9.7 18.6-14.6.8 1.1.6 1.9.1 2.7-.6.9-1.2 1.9-2 2.7-4.5 4.3-9 8.6-13.6 12.8-1 .9-2.2 1.6-3.4 2.2-2.4 1.1-4.3 0-4.7-2.6-.7-5.1-1.3-10.1-1.8-15.2-.2-1.5.4-2.4 1.5-2.6 1-.1 1.9.6 2.2 2.1.5 2.6.8 5.2 1.3 8.1.3-.5.5-.7.6-1 3.4-11.3 6.9-22.6 10.1-34 1-3.4 1.3-7.1 1.8-10.6.2-1.4 0-2.9 0-4.7-.7.6-1.2 1.1-1.6 1.5-3 3.4-6.4 6.5-10.3 8.9-3.5 2.1-7.2 3.4-11.4 3.3-1.4-.1-2.9-.2-4.3-.6C2.3 76-1 70.4.4 63.9c1.6-8.1 9.7-18 21.4-17.9 6.6 0 11.6 3.1 15.2 8.6.4.6.8 1.3 1.2 2ZM12.7 75.5c3.8-.1 7-1.1 9.9-2.9 4.7-2.7 8.5-6.5 11.9-10.6.8-.9.8-1.8.5-2.9-1.8-5.7-7.8-9.9-13.7-9.7-8 .3-16.2 7.1-17.9 15-1.2 5.3 1.4 9.4 6.6 10.7 1 .2 2.1.3 2.7.4Z" fill="#000"/></svg>