<svg width="48" height="42" fill="none" xmlns="http://www.w3.org/2000/svg"><path fill-rule="evenodd" clip-rule="evenodd" d="M38.714.949a4.961 4.961 0 0 1 2.716 1.286c.314.286.436.831.07 1.12-1.195.94-.933 2.23-.857 3.427.489 7.617 2.21 14.994 4.487 22.252.83 2.649 1.764 5.266 2.634 7.902.118.358.374.702-.068 1.112-.441.409-.737-.028-1.063-.007-2.475.16-3.029-1.762-3.846-3.413-4.131-8.352-6.15-17.23-6.585-26.498-.08-1.697.008-3.39.476-5.03.299-1.046.808-1.958 2.036-2.151ZM18.168 16.771c.3-.747.723-1.045 1.44-.797.703.243 1.06.596 1.097 1.433.08 1.79 1.06 3.281 1.93 4.772 3.056 5.25 6.494 10.257 9.857 15.312.265.398.561.79.294 1.348-.324.68-.794.059-1.174.187-1.25.421-1.902-.443-2.552-1.239-3.376-4.134-6.853-8.196-9.373-12.95-.827-1.559-1.609-3.136-2.23-4.794-.275-.733.218-1.558-.449-2.278-.272-.293-.152-1.013.214-1.472.19-.24.382-.55.711-.45.387.115.158.51.235.928ZM1.292 28.667c1.443.052 2.295.603 3.104 1.602 1.556 1.925 3.732 3.127 5.853 4.346a65.429 65.429 0 0 0 8.714 4.214c.763.3 1.477.74 2.186 1.161.27.16.584.39.338.823-.2.353-.47.323-.84.345-2.881.175-5.279-1.314-7.784-2.313-3.416-1.361-6.686-3.063-9.607-5.35a14.901 14.901 0 0 1-2.831-2.89c-.346-.47-.59-.96-.29-1.566.331-.664.843-.473 1.157-.372Z" fill="#000"/></svg>