<svg width="289" height="281" fill="none" xmlns="http://www.w3.org/2000/svg"><path d="M151.087 189.18c1.1.7 1.8 1.2 2.5 1.7 6.3 5.4 12.7 10.8 19 16.2 1.8 1.5 3.5 3 5.2 4.7 1 1 1.9 2.2 2.7 3.4 1.8 2.9 1.3 5.2-1.5 7.3-1 .7-2 1.3-3.1 1.8-5.9 3.1-12 5.6-18.3 7.7-.9.3-1.8.6-2.9 1 .4.6.7 1.1 1.1 1.6 12.1 12.6 23 26.2 34.4 39.4.5.6 1 1.2 1.5 1.9.6 1.1.6 2.2-.2 3.2-.7 1-1.8 1.4-3 1.2-.9-.2-1.8-.6-2.7-1-1.6-.8-3.3-1.7-4.9-2.6-.8-.4-1.6-.8-2.3-1.2-3.7-2.2-7.4-4.4-11.1-6.7-2.4-1.5-4.9-3.1-7.1-4.9-11.4-9.1-22.7-18.2-33.3-28.2-5.2-5-10.9-9.4-16.4-14-.5-.5-1.1-.9-1.6-1.4-1.5-1.8-.9-4 1.4-4.7.7-.2 1.4-.3 2.1-.3 4.7-.1 9.4-.2 14.1-.2h2.8c-2.3-2.8-4.2-5.3-6.3-7.7-2.7-3.1-5.4-6.1-8.1-9.2-.6-.7-1.3-.8-2.1-.8-15 .7-29.7-1.1-44.2-4.7-15-3.7-28.1-11.3-39.8-21.3-7-6-11.2-13.7-13.3-22.5-.6-2.5-.7-5.1-1-7.6-1.8-13.6.8-26.4 6.8-38.6 4.7-9.4 10.6-17.8 17.5-25.7 10.1-11.7 21.7-21.7 34.2-30.8 20.8-15.2 43-27.7 67.3-36.3 12.9-4.6 26-7.9 39.6-9.2 16.3-1.6 32.4-.5 48.1 4.6 15.6 5.1 27.4 14.9 35.5 29.1 4.8 8.3 8.1 17.2 9.5 26.7 1.8 13.1-.4 25.6-6.1 37.6-4.1 8.5-9.4 16.2-15.2 23.5-23.7 30.1-53.8 51.2-90.1 63.5-2.8.9-5.6 1.9-8.4 2.8-.5 0-1 .2-2.3.7Z" fill="#000"/><path d="M82.487 17.78c-.9 1.1-1.5 1.9-2.2 2.6-5 5-10 10.1-15.1 15.1-8.1 7.9-16.4 15.5-24.4 23.5-9.6 9.5-17.7 20.2-24.1 32.2-6.4 11.8-10.3 24.5-10.9 38.1-.5 10.2.7 20.3 4.2 30 .9 2.5 2.2 5 3.4 7.4.8 1.7 1.6 3.3 2.3 5 .6 1.4.2 2.4-.7 3-1 .6-2.1.3-3.1-.9-.4-.5-.8-1-1.1-1.6-5.3-7.6-8.1-16.1-9.6-25.1-3.5-21.3.9-41.2 11.1-59.9 6-11 13.4-20.9 22-29.8 11-11.4 22.9-21.9 35-32.1 2.8-2.3 5.8-4.2 8.8-6.2 1.1-.8 2.4-1.4 4.4-1.3Zm205.7 43.6c-.1 11.3-2.7 22.1-6.7 32.5-5 13.1-11.9 25.1-21 35.8-3.7 4.3-7.6 8.5-11.4 12.6-.6.7-1.4 1.4-2.1 1.9-1.3 1-2.4 1.1-3.2.4-.8-.8-.8-1.9.2-3.2.4-.6.9-1.1 1.4-1.6 4.1-4.8 8.3-9.6 12.2-14.5 11.3-14.3 19.1-30.4 23-48.3 2.3-10.7 2-21.5-.3-32.1-1.3-5.9-4.2-11.2-7.1-16.4-3.4-6.2-7.5-11.9-12.4-17a65.2 65.2 0 0 1-3.4-4c-.5-.6-.9-1.3-1.3-2-.4-.8-1-1.6-.2-2.4.7-.7 1.6-.3 2.2.1 1.6 1 3.1 1.9 4.5 3.1 7.4 6.1 13.1 13.6 17.3 22.1 2.8 5.6 5.8 11.3 6.7 17.6.6 5.1 1 10.2 1.6 15.4Z" fill="#000"/></svg>