<svg class="icon" viewBox="0 0 1024 1024" xmlns="http://www.w3.org/2000/svg" width="64" height="64"><path d="M509.2 980.8c-6 0-11.8-.4-17.8-1.2-5.8-.8-11.8-2-17.4-3.4-5.6-1.6-11.4-3.4-16.8-5.8-5.4-2.2-10.8-5-16-7.8L120.8 775.8c-3.8-2.2-7.4-4.6-11-7.4-3.4-2.6-6.8-5.6-9.8-8.8-3-3.2-6-6.4-8.6-10-2.6-3.4-5.2-7.2-7.4-11s-4.2-7.8-5.8-11.8c-1.6-4-3-8.2-4.2-12.4-1.2-4.2-2-8.6-2.6-13-.6-4.4-.8-8.8-.8-13.2v-360c0-4.4.2-8.8.8-13.2.6-4.4 1.4-8.8 2.6-13 1.2-4.2 2.6-8.4 4.2-12.4s3.6-8 5.8-11.8c2.2-3.8 4.6-7.4 7.2-11 2.6-3.4 5.6-6.8 8.6-10s6.4-6 9.8-8.8c3.4-2.6 7.2-5.2 11-7.4L441.2 54c5-3 10.4-5.6 16-8 5.4-2.2 11.2-4.2 16.8-5.8 5.6-1.6 11.6-2.8 17.4-3.4 11.8-1.6 23.8-1.6 35.4 0 5.8.8 11.8 2 17.4 3.4 5.8 1.6 11.4 3.4 16.8 5.8 5.4 2.2 10.8 5 16 8l320.6 186.6c3.8 2.2 7.4 4.6 11 7.4 3.4 2.6 6.8 5.6 9.8 8.8 3 3.2 6 6.4 8.6 10 2.6 3.4 5.2 7.2 7.2 11 2.2 3.8 4.2 7.8 5.8 11.8 1.6 4 3 8.2 4.2 12.4 1.2 4.2 2 8.6 2.6 13 .6 4.4.8 8.8.8 13.2v360.2c0 4.4-.2 8.8-.8 13.2-.6 4.4-1.4 8.6-2.6 13-1.2 4.2-2.6 8.4-4.2 12.4s-3.6 8-5.8 11.8c-2.2 3.8-4.6 7.4-7.2 11-2.6 3.4-5.6 6.8-8.6 10s-6.4 6-9.8 8.8c-3.4 2.6-7.2 5.2-11 7.4L577 962.6c-5.2 3-10.4 5.6-16 8-5.4 2.2-11.2 4.2-16.8 5.8-5.6 1.6-11.6 2.8-17.4 3.4-5.6.6-11.6 1-17.6 1zm0-877.4c-3 0-6 .2-8.8.6-3 .4-5.8 1-8.8 1.8-2.8.8-5.6 1.8-8.4 2.8-2.8 1.2-5.4 2.4-8 4L154.8 299.2l-3.6 2.4c-1.2.8-2.2 1.8-3.4 3-1 1-2 2.2-2.8 3.4-.8 1.2-1.8 2.4-2.4 3.6-.8 1.2-1.4 2.6-2 4-.6 1.4-1 2.8-1.4 4.2-.4 1.4-.6 2.8-.8 4.4-.2 1.4-.2 3-.2 4.4v360.2c0 1.4 0 3 .2 4.4.2 1.4.4 3 .8 4.4.4 1.4.8 2.8 1.4 4.2.6 1.4 1.2 2.6 2 4l2.4 3.6c.8 1.2 1.8 2.2 2.8 3.4 1 1 2.2 2 3.4 3 1.2.8 2.4 1.8 3.6 2.4l320.6 186.6c2.6 1.4 5.2 2.8 8 4 2.8 1.2 5.6 2.2 8.4 2.8 2.8.8 5.8 1.4 8.8 1.8 5.8.8 11.8.8 17.8 0 3-.4 5.8-1 8.8-1.8 2.8-.8 5.6-1.8 8.4-2.8 2.8-1.2 5.4-2.4 8-4l320.6-186.6 3.6-2.4c1.2-1 2.2-1.8 3.4-3 1-1 2-2.2 2.8-3.4l2.4-3.6c.8-1.2 1.4-2.6 2-4 .6-1.4 1-2.8 1.4-4.2.4-1.4.6-2.8.8-4.4.2-1.4.2-3 .2-4.4V328.2c0-1.4 0-2.8-.2-4.4-.2-1.4-.4-2.8-.8-4.4-.4-1.4-.8-2.8-1.4-4.2-.6-1.4-1.2-2.6-2-4l-2.4-3.6c-.8-1.2-1.8-2.2-2.8-3.4-1-1-2.2-2-3.2-3-1.2-.8-2.4-1.8-3.6-2.4L543.2 112.6c-2.6-1.4-5.2-2.8-8-4-2.8-1.2-5.6-2.2-8.4-2.8-2.8-.8-5.8-1.4-8.8-1.8-2.8-.4-5.8-.6-8.8-.6z" data-spm-anchor-id="a313x.7781069.0.i7" class="selected"/><path d="M509.2 980.8c-18.6 0-33.8-15.2-33.8-33.8V544.4L97.6 322.2c-16-9.4-21.4-30.2-12-46.2 9.4-16 30.2-21.4 46.2-12l377.4 222 377.4-222c16-9.4 36.8-4 46.2 12 9.4 16 4 36.8-12 46.2L543 544.4V947c0 18.8-15.2 33.8-33.8 33.8z" data-spm-anchor-id="a313x.7781069.0.i0" class="selected"/><path d="M559.8 289c0 1.2 0 2.2-.2 3.4s-.4 2.2-.8 3.2-.8 2.2-1.2 3.2c-.4 1-1 2-1.6 3.2-.6 1-1.4 2-2.2 3-.8 1-1.6 2-2.6 2.8-1 1-2 1.8-3 2.6s-2.2 1.6-3.4 2.4-2.4 1.6-3.6 2.2c-1.2.8-2.6 1.4-4 2l-4.2 1.8c-1.4.6-3 1-4.4 1.4-1.6.4-3 .8-4.6 1.2-1.6.4-3.2.6-4.8.8-1.6.2-3.2.4-5 .4-1.6.2-3.4.2-5 .2s-3.4 0-5-.2-3.2-.2-5-.4c-1.6-.2-3.2-.4-4.8-.8-1.6-.4-3.2-.6-4.6-1.2-1.6-.4-3-.8-4.4-1.4-1.4-.6-2.8-1-4.2-1.8-1.4-.6-2.8-1.2-4-2s-2.6-1.4-3.6-2.2c-1.2-.8-2.2-1.6-3.4-2.4s-2-1.8-3-2.6c-1-1-1.8-1.8-2.6-2.8-.8-1-1.4-2-2.2-3-.6-1-1.2-2-1.6-3.2-.4-1-.8-2.2-1.2-3.2-.4-1-.6-2.2-.8-3.2-.2-1.2-.2-2.2-.2-3.4 0-1.2 0-2.2.2-3.4.2-1.2.4-2.2.8-3.2s.8-2.2 1.2-3.2c.4-1 1-2 1.6-3.2.6-1 1.4-2 2.2-3 .8-1 1.6-2 2.6-2.8 1-1 2-1.8 3-2.6s2.2-1.6 3.4-2.4c1.2-.8 2.4-1.6 3.6-2.2s2.6-1.4 4-2l4.2-1.8c1.4-.6 3-1 4.4-1.4 1.6-.4 3-.8 4.6-1.2 1.6-.4 3.2-.6 4.8-.8 1.6-.2 3.2-.4 5-.4 1.6-.2 3.4-.2 5-.2s3.4 0 5 .2 3.2.2 5 .4c1.6.2 3.2.4 4.8.8 1.6.4 3.2.6 4.6 1.2 1.6.4 3 .8 4.4 1.4 1.4.6 2.8 1 4.2 1.8 1.4.6 2.8 1.2 4 2 1.2.8 2.6 1.4 3.6 2.2 1.2.8 2.2 1.6 3.4 2.4 1 .8 2 1.8 3 2.6 1 1 1.8 1.8 2.6 2.8.8 1 1.4 2 2.2 3 .6 1 1.2 2 1.6 3.2.4 1 .8 2.2 1.2 3.2.4 1 .6 2.2.8 3.2s.2 2.2.2 3.4zm-118 303.8c0 1.6 0 3.4-.2 5s-.2 3.2-.4 5c-.2 1.6-.4 3.2-.8 4.8-.4 1.6-.6 3.2-1.2 4.6-.4 1.6-.8 3-1.4 4.4-.6 1.4-1 2.8-1.8 4.2-.6 1.4-1.2 2.8-2 4s-1.4 2.6-2.2 3.6c-.8 1.2-1.6 2.2-2.4 3.4-.8 1-1.8 2-2.6 3-1 1-1.8 1.8-2.8 2.6-1 .8-2 1.4-3 2.2-1 .6-2 1.2-3.2 1.6-1 .4-2.2.8-3.2 1.2-1 .4-2.2.6-3.2.8s-2.2.2-3.4.2c-1.2 0-2.2 0-3.4-.2-1-.2-2.2-.4-3.2-.8s-2.2-.8-3.2-1.2c-1-.4-2-1-3.2-1.6-1-.6-2-1.4-3-2.2-1-.8-2-1.6-2.8-2.6-1-1-1.8-2-2.6-3s-1.6-2.2-2.4-3.4c-.8-1.2-1.6-2.4-2.2-3.6-.8-1.2-1.4-2.6-2-4l-1.8-4.2c-.6-1.4-1-3-1.4-4.4-.4-1.6-.8-3-1.2-4.6-.4-1.6-.6-3.2-.8-4.8-.2-1.6-.4-3.2-.4-5-.2-1.6-.2-3.4-.2-5s0-3.4.2-5 .2-3.2.4-5 .4-3.2.8-4.8.6-3.2 1.2-4.6c.4-1.6.8-3 1.4-4.4.6-1.4 1-2.8 1.8-4.2.6-1.4 1.2-2.8 2-4 .8-1.2 1.4-2.6 2.2-3.6.8-1.2 1.6-2.2 2.4-3.4.8-1 1.8-2 2.6-3 1-1 1.8-1.8 2.8-2.6 1-.8 2-1.4 3-2.2 1-.6 2-1.2 3.2-1.6 1-.4 2.2-.8 3.2-1.2 1-.4 2.2-.6 3.2-.8 1.2-.2 2.2-.2 3.4-.2 1.2 0 2.2 0 3.4.2 1.2.2 2.2.4 3.2.8s2.2.8 3.2 1.2c1 .4 2 1 3.2 1.6 1 .6 2 1.4 3 2.2 1 .8 2 1.6 2.8 2.6 1 1 1.8 2 2.6 3s1.6 2.2 2.4 3.4c.8 1.2 1.6 2.4 2.2 3.6.8 1.2 1.4 2.6 2 4l1.8 4.2c.6 1.4 1 3 1.4 4.4.4 1.6.8 3 1.2 4.6s.6 3.2.8 4.8c.2 1.6.4 3.2.4 5s.2 3.2.2 5zm-202.6 67.4c0 1.6 0 3.4-.2 5s-.2 3.2-.4 5c-.2 1.6-.4 3.2-.8 4.8-.4 1.6-.6 3.2-1.2 4.6-.4 1.6-.8 3-1.4 4.4-.6 1.4-1 2.8-1.8 4.2-.6 1.4-1.2 2.8-2 4-.8 1.2-1.4 2.6-2.2 3.6-.8 1.2-1.6 2.2-2.4 3.4-.8 1-1.8 2-2.6 3-1 1-1.8 1.8-2.8 2.6-1 .8-2 1.4-3 2.2-1 .6-2 1.2-3.2 1.6-1 .4-2.2.8-3.2 1.2-1 .4-2.2.6-3.2.8s-2.2.2-3.4.2c-1.2 0-2.2 0-3.4-.2s-2.2-.4-3.2-.8-2.2-.8-3.2-1.2c-1-.4-2-1-3.2-1.6-1-.6-2-1.4-3-2.2-1-.8-2-1.6-2.8-2.6-1-1-1.8-2-2.6-3s-1.6-2.2-2.4-3.4c-.8-1.2-1.6-2.4-2.2-3.6-.8-1.2-1.4-2.6-2-4l-1.8-4.2c-.6-1.4-1-3-1.4-4.4-.4-1.6-.8-3-1.2-4.6s-.6-3.2-.8-4.8c-.2-1.6-.4-3.2-.4-5-.2-1.6-.2-3.4-.2-5s0-3.4.2-5 .2-3.2.4-5c.2-1.6.4-3.2.8-4.8s.6-3.2 1.2-4.6c.4-1.6.8-3 1.4-4.4.6-1.4 1-2.8 1.8-4.2.6-1.4 1.2-2.8 2-4 .8-1.2 1.4-2.6 2.2-3.6.8-1.2 1.6-2.2 2.4-3.4.8-1 1.8-2 2.6-3 1-1 1.8-1.8 2.8-2.6 1-.8 2-1.4 3-2.2 1-.6 2-1.2 3.2-1.6 1-.4 2.2-.8 3.2-1.2 1-.4 2.2-.6 3.2-.8s2.2-.2 3.4-.2c1.2 0 2.2 0 3.4.2s2.2.4 3.2.8 2.2.8 3.2 1.2c1 .4 2 1 3.2 1.6 1 .6 2 1.4 3 2.2 1 .8 2 1.6 2.8 2.6 1 1 1.8 2 2.6 3s1.6 2.2 2.4 3.4c.8 1.2 1.6 2.4 2.2 3.6.8 1.2 1.4 2.6 2 4l1.8 4.2c.6 1.4 1 3 1.4 4.4.4 1.6.8 3 1.2 4.6.4 1.6.6 3.2.8 4.8.2 1.6.4 3.2.4 5 .2 1.6.2 3.4.2 5zm405-67.4c0 1.6 0 3.4-.2 5s-.2 3.2-.4 5c-.2 1.6-.4 3.2-.8 4.8-.4 1.6-.6 3.2-1.2 4.6-.4 1.6-.8 3-1.4 4.4-.6 1.4-1 2.8-1.8 4.2-.6 1.4-1.2 2.8-2 4-.8 1.2-1.4 2.6-2.2 3.6-.8 1.2-1.6 2.2-2.4 3.4-.8 1-1.8 2-2.6 3-1 1-1.8 1.8-2.8 2.6-1 .8-2 1.4-3 2.2-1 .6-2 1.2-3.2 1.6-1 .4-2.2.8-3.2 1.2-1 .4-2.2.6-3.2.8-1.2.2-2.2.2-3.4.2s-2.2 0-3.4-.2c-1.2-.2-2.2-.4-3.2-.8s-2.2-.8-3.2-1.2c-1-.4-2-1-3.2-1.6-1-.6-2-1.4-3-2.2-1-.8-2-1.6-2.8-2.6-1-1-1.8-2-2.6-3s-1.6-2.2-2.4-3.4c-.8-1.2-1.6-2.4-2.2-3.6-.8-1.2-1.4-2.6-2-4l-1.8-4.2c-.6-1.4-1-3-1.4-4.4-.4-1.6-.8-3-1.2-4.6s-.6-3.2-.8-4.8c-.2-1.6-.4-3.2-.4-5-.2-1.6-.2-3.4-.2-5s0-3.4.2-5 .2-3.2.4-5 .4-3.2.8-4.8.6-3.2 1.2-4.6c.4-1.6.8-3 1.4-4.4.6-1.4 1-2.8 1.8-4.2.6-1.4 1.2-2.8 2-4s1.4-2.6 2.2-3.6c.8-1.2 1.6-2.2 2.4-3.4.8-1 1.8-2 2.6-3 1-1 1.8-1.8 2.8-2.6 1-.8 2-1.4 3-2.2 1-.6 2-1.2 3.2-1.6 1-.4 2.2-.8 3.2-1.2 1-.4 2.2-.6 3.2-.8 1-.2 2.2-.2 3.4-.2 1.2 0 2.2 0 3.4.2 1.2.2 2.2.4 3.2.8s2.2.8 3.2 1.2c1 .4 2 1 3.2 1.6 1 .6 2 1.4 3 2.2 1 .8 2 1.6 2.8 2.6 1 1 1.8 2 2.6 3s1.6 2.2 2.4 3.4c.8 1.2 1.6 2.4 2.2 3.6.8 1.2 1.4 2.6 2 4l1.8 4.2c.6 1.4 1 3 1.4 4.4.4 1.6.8 3 1.2 4.6.4 1.6.6 3.2.8 4.8.2 1.6.4 3.2.4 5 .2 1.6.2 3.2.2 5zm202.6-118.2c0 1.6 0 3.4-.2 5s-.2 3.2-.4 5-.4 3.2-.8 4.8c-.4 1.6-.6 3.2-1.2 4.6-.4 1.6-.8 3-1.4 4.4-.6 1.4-1 2.8-1.8 4.2-.6 1.4-1.2 2.8-2 4s-1.4 2.6-2.2 3.6c-.8 1.2-1.6 2.2-2.4 3.4-.8 1-1.8 2-2.6 3s-1.8 1.8-2.8 2.6c-1 .8-2 1.4-3 2.2-1 .6-2 1.2-3.2 1.6s-2.2.8-3.2 1.2c-1 .4-2.2.6-3.2.8s-2.2.2-3.4.2-2.2 0-3.4-.2c-1-.2-2.2-.4-3.2-.8s-2.2-.8-3.2-1.2c-1-.4-2-1-3.2-1.6-1-.6-2-1.4-3-2.2-1-.8-2-1.6-2.8-2.6-1-1-1.8-2-2.6-3s-1.6-2.2-2.4-3.4c-.8-1.2-1.6-2.4-2.2-3.6-.8-1.2-1.4-2.6-2-4l-1.8-4.2c-.6-1.4-1-3-1.4-4.4-.4-1.6-.8-3-1.2-4.6-.4-1.6-.6-3.2-.8-4.8-.2-1.6-.4-3.2-.4-5-.2-1.6-.2-3.4-.2-5s0-3.4.2-5 .2-3.2.4-5c.2-1.6.4-3.2.8-4.8.4-1.6.6-3.2 1.2-4.6.4-1.6.8-3 1.4-4.4.6-1.4 1-2.8 1.8-4.2.6-1.4 1.2-2.8 2-4 .8-1.2 1.4-2.6 2.2-3.6.8-1.2 1.6-2.2 2.4-3.4.8-1 1.8-2 2.6-3 1-1 1.8-1.8 2.8-2.6 1-.8 2-1.4 3-2.2 1-.6 2-1.2 3.2-1.6 1-.4 2.2-.8 3.2-1.2 1-.4 2.2-.6 3.2-.8 1.2-.2 2.2-.2 3.4-.2s2.2 0 3.4.2c1.2.2 2.2.4 3.2.8s2.2.8 3.2 1.2c1 .4 2 1 3.2 1.6 1 .6 2 1.4 3 2.2 1 .8 2 1.6 2.8 2.6 1 1 1.8 2 2.6 3s1.6 2.2 2.4 3.4c.8 1.2 1.6 2.4 2.2 3.6.8 1.2 1.4 2.6 2 4l1.8 4.2c.6 1.4 1 3 1.4 4.4.4 1.6.8 3 1.2 4.6.4 1.6.6 3.2.8 4.8.2 1.6.4 3.2.4 5 0 1.6.2 3.4.2 5zM644.2 778.4c0 1.6 0 3.4-.2 5s-.2 3.2-.4 5c-.2 1.6-.4 3.2-.8 4.8-.4 1.6-.6 3.2-1.2 4.6-.4 1.6-.8 3-1.4 4.4-.6 1.4-1 2.8-1.8 4.2-.6 1.4-1.2 2.8-2 4-.8 1.2-1.4 2.6-2.2 3.6-.8 1.2-1.6 2.2-2.4 3.4-.8 1-1.8 2-2.6 3s-1.8 1.8-2.8 2.6c-1 .8-2 1.4-3 2.2-1 .6-2 1.2-3.2 1.6-1 .4-2.2.8-3.2 1.2-1 .4-2.2.6-3.2.8-1.2.2-2.2.2-3.4.2s-2.2 0-3.4-.2c-1.2-.2-2.2-.4-3.2-.8s-2.2-.8-3.2-1.2c-1-.4-2-1-3.2-1.6-1-.6-2-1.4-3-2.2-1-.8-2-1.6-2.8-2.6-1-1-1.8-2-2.6-3s-1.6-2.2-2.4-3.4c-.8-1.2-1.6-2.4-2.2-3.6-.8-1.2-1.4-2.6-2-4l-1.8-4.2c-.6-1.4-1-3-1.4-4.4-.4-1.6-.8-3-1.2-4.6-.4-1.6-.6-3.2-.8-4.8-.2-1.6-.4-3.2-.4-5-.2-1.6-.2-3.4-.2-5s0-3.4.2-5 .2-3.2.4-5c.2-1.6.4-3.2.8-4.8.4-1.6.6-3.2 1.2-4.6.4-1.6.8-3 1.4-4.4.6-1.4 1-2.8 1.8-4.2.6-1.4 1.2-2.8 2-4 .8-1.2 1.4-2.6 2.2-3.6.8-1.2 1.6-2.2 2.4-3.4.8-1 1.8-2 2.6-3 1-1 1.8-1.8 2.8-2.6 1-.8 2-1.4 3-2.2 1-.6 2-1.2 3.2-1.6 1-.4 2.2-.8 3.2-1.2 1-.4 2.2-.6 3.2-.8 1-.2 2.2-.2 3.4-.2s2.2 0 3.4.2c1.2.2 2.2.4 3.2.8s2.2.8 3.2 1.2c1 .4 2 1 3.2 1.6 1 .6 2 1.4 3 2.2 1 .8 2 1.6 2.8 2.6 1 1 1.8 2 2.6 3s1.6 2.2 2.4 3.4c.8 1.2 1.6 2.4 2.2 3.6.8 1.2 1.4 2.6 2 4l1.8 4.2c.6 1.4 1 3 1.4 4.4.4 1.6.8 3 1.2 4.6.4 1.6.6 3.2.8 4.8.2 1.6.4 3.2.4 5 .2 1.6.2 3.2.2 5zm202.6-118.2c0 1.6 0 3.4-.2 5s-.2 3.2-.4 5c-.2 1.6-.4 3.2-.8 4.8-.4 1.6-.6 3.2-1.2 4.6-.4 1.6-.8 3-1.4 4.4-.6 1.4-1 2.8-1.8 4.2-.6 1.4-1.2 2.8-2 4s-1.4 2.6-2.2 3.6c-.8 1.2-1.6 2.2-2.4 3.4-.8 1-1.8 2-2.6 3-1 1-1.8 1.8-2.8 2.6-1 .8-2 1.4-3 2.2-1 .6-2 1.2-3.2 1.6s-2.2.8-3.2 1.2c-1 .4-2.2.6-3.2.8s-2.2.2-3.4.2-2.2 0-3.4-.2c-1-.2-2.2-.4-3.2-.8s-2.2-.8-3.2-1.2c-1-.4-2-1-3.2-1.6-1-.6-2-1.4-3-2.2-1-.8-2-1.6-2.8-2.6-1-1-1.8-2-2.6-3s-1.6-2.2-2.4-3.4c-.8-1.2-1.6-2.4-2.2-3.6-.8-1.2-1.4-2.6-2-4l-1.8-4.2c-.6-1.4-1-3-1.4-4.4-.4-1.6-.8-3-1.2-4.6-.4-1.6-.6-3.2-.8-4.8-.2-1.6-.4-3.2-.4-5-.2-1.6-.2-3.4-.2-5s0-3.4.2-5 .2-3.2.4-5c.2-1.6.4-3.2.8-4.8s.6-3.2 1.2-4.6c.4-1.6.8-3 1.4-4.4.6-1.4 1-2.8 1.8-4.2.6-1.4 1.2-2.8 2-4 .8-1.2 1.4-2.6 2.2-3.6.8-1.2 1.6-2.2 2.4-3.4.8-1 1.8-2 2.6-3 1-1 1.8-1.8 2.8-2.6 1-.8 2-1.4 3-2.2 1-.6 2-1.2 3.2-1.6 1-.4 2.2-.8 3.2-1.2 1-.4 2.2-.6 3.2-.8 1.2-.2 2.2-.2 3.4-.2s2.2 0 3.4.2c1.2.2 2.2.4 3.2.8s2.2.8 3.2 1.2 2 1 3.2 1.6c1 .6 2 1.4 3 2.2 1 .8 2 1.6 2.8 2.6 1 1 1.8 2 2.6 3s1.6 2.2 2.4 3.4c.8 1.2 1.6 2.4 2.2 3.6.8 1.2 1.4 2.6 2 4l1.8 4.2c.6 1.4 1 3 1.4 4.4.4 1.6.8 3 1.2 4.6.4 1.6.6 3.2.8 4.8.2 1.6.4 3.2.4 5 0 1.6.2 3.4.2 5z" data-spm-anchor-id="a313x.7781069.0.i1" class="selected"/></svg>