<svg xmlns="http://www.w3.org/2000/svg" width="24" height="24" viewBox="0 0 24 24"><path fill="currentColor" d="m11.053 7.815l.751-3.536a2 2 0 0 1 2.372-1.54l3.196.68a2 2 0 1 1-.415 1.956l-3.197-.68l-.666 3.135c1.785.137 3.558.73 5.164 1.7A3.192 3.192 0 0 1 23 12.203v.021a3.2 3.2 0 0 1-1.207 2.55l-.008.123c0 3.998-4.45 7.03-9.799 7.03c-5.333 0-9.708-3.024-9.705-6.953l-.01-.181a3.193 3.193 0 0 1 3.454-5.35a11.45 11.45 0 0 1 5.329-1.628m9.285 5.526a1.19 1.19 0 0 0 .662-1.075a1.192 1.192 0 0 0-2.016-.806l-.585.56l-.67-.455c-1.615-1.098-3.452-1.725-5.23-1.764h-1.006c-1.875.028-3.652.6-5.237 1.675l-.664.45l-.583-.55a1.192 1.192 0 1 0-1.315 1.952l.633.29l-.053.695a4 4 0 0 0 .003.584c0 2.71 3.356 5.03 7.708 5.03c4.371 0 7.799-2.336 7.802-5.107a3 3 0 0 0 0-.507l-.052-.672zM6.951 13.5a1.5 1.5 0 1 1 3 0a1.5 1.5 0 0 1-3 0m7 0a1.5 1.5 0 1 1 3 0a1.5 1.5 0 0 1-3 0m-1.985 5.103c-1.397 0-2.766-.37-3.881-1.21a.424.424 0 0 1 .597-.597c.945.693 2.123.99 3.269.99s2.33-.275 3.284-.959a.44.44 0 0 1 .732.206a.47.47 0 0 1-.12.423c-.683.797-2.483 1.147-3.88 1.147"/></svg>