<svg xmlns="http://www.w3.org/2000/svg" width="24" height="24"><g fill="none"><path d="m12.594 23.258-.012.002-.071.035-.02.004-.014-.004-.071-.036q-.016-.004-.024.006l-.004.01-.017.428.005.02.01.013.104.074.015.004.012-.004.104-.074.012-.016.004-.017-.017-.427q-.004-.016-.016-.018m.264-.113-.014.002-.184.093-.01.01-.003.011.018.43.005.012.008.008.201.092q.019.005.029-.008l.004-.014-.034-.614q-.005-.019-.02-.022m-.715.002a.02.02 0 0 0-.027.006l-.006.014-.034.614q.001.018.017.024l.015-.002.201-.093.01-.008.003-.011.018-.43-.003-.012-.01-.01z"/><path fill="currentColor" d="M20.235 5.686c.432-1.195-.726-2.353-1.921-1.92L3.709 9.048c-1.199.434-1.344 2.07-.241 2.709l4.662 2.699 4.163-4.163a1 1 0 0 1 1.414 1.414L9.544 15.87l2.7 4.662c.638 1.103 2.274.957 2.708-.241z"/></g></svg>