<svg width="48" height="69" fill="none" xmlns="http://www.w3.org/2000/svg"><path d="M21.188 62.016c-.3-2.6-.4-5.3-.8-7.8-.7-4.2-2.7-7.5-6.5-9.6-3.2-1.7-6.4-3.2-9.7-4.8-1-.5-2.1-.9-3.1-1.4-.8-.4-1.3-1.1-1-2 .2-.6.9-1 1.4-1.5.1-.1.3-.1.5-.1 7.9-1.6 13.2-6.7 16.8-13.5 3.2-5.9 5.8-12.1 8.7-18.1.4-.9.8-1.8 1.3-2.5.3-.4 1.1-.8 1.6-.7.5.1 1.1.7 1.2 1.3.2.6.1 1.4 0 2.1-.2 1.4-.4 2.8-.7 4.3-1.2 5.9 0 11.6 1.2 17.3.6 2.5 2.1 4.3 4.3 5.5 2.8 1.5 5.7 2.5 8.8 3.2 1 .2 2.4.2 2.5 1.7.1 1.6-1.3 2-2.4 2.3-4.8 1.2-8.2 4.4-11.3 8.1-3.2 3.8-5.7 8.1-7.3 12.8-.9 2.6-1.7 5.2-2.6 7.7-.2.5-.2 1-.5 1.3-.4.5-1.1 1.2-1.5 1.1-.5-.1-.9-.9-1.2-1.5-.2-.4-.1-.9-.1-1.4v-3.8h.4Z" fill="#000"/></svg>