<svg width="521" height="147" viewBox="0 0 521 147" fill="none" xmlns="http://www.w3.org/2000/svg">
<path fill-rule="evenodd" clip-rule="evenodd" d="M194 27L6 60L2 69L194 40V27Z" fill="black" stroke="black" stroke-width="4" stroke-linecap="round" stroke-linejoin="round"/>
<path fill-rule="evenodd" clip-rule="evenodd" d="M187 25.6503L220.276 19.8347C220.276 19.8347 239.938 2 272.08 2C304.221 2 337.497 31.466 337.497 31.466H353H368.503C368.503 31.466 401.779 2 433.92 2C466.061 2 485.724 19.8347 485.724 19.8347L519 25.6503V44.2604L507.656 50.076C507.656 50.076 503.875 112.497 481.187 131.107C458.499 149.717 422.88 149.544 397.241 131.107C371.603 112.671 363.588 50.076 363.588 50.076H353H342.412C342.412 50.076 334.397 112.671 308.759 131.107C283.12 149.544 247.501 149.717 224.813 131.107C202.125 112.497 198.344 50.076 198.344 50.076L187 44.2604V25.6503ZM220.685 31.1167C217.389 33.9109 215.191 36.4865 214.219 38.3739C213.749 39.2851 213.131 41.4876 212.556 44.7072C211.986 47.903 211.468 52.0447 211.178 56.7914C210.598 66.2874 210.931 78.179 213.56 89.7445C216.189 101.313 221.107 112.517 229.669 120.686C238.217 128.843 250.443 134.018 267.787 133.459L267.791 133.459C284.028 133.086 296.045 127.636 304.886 119.564C313.736 111.483 319.431 100.748 322.964 89.7693C326.497 78.7921 327.859 67.5977 328.061 58.6326C328.162 54.1508 327.973 50.2332 327.622 47.1855C327.447 45.6614 327.232 44.3601 326.994 43.3175C326.754 42.2663 326.498 41.5083 326.253 41.0512C321.888 32.917 306.331 14.6839 274.12 13.5505C258.01 12.9837 244.02 17.2588 233.553 22.6561C228.319 25.3547 223.972 28.3311 220.685 31.1167ZM233.095 21.7673C243.688 16.3047 257.847 11.9774 274.155 12.5512C306.778 13.699 322.629 32.1831 327.134 40.5784C327.443 41.1545 327.723 42.0164 327.969 43.0952C328.217 44.1827 328.438 45.5216 328.616 47.0712C328.972 50.1709 329.163 54.1348 329.061 58.6552C328.857 67.6946 327.484 78.9878 323.916 90.0756C320.348 101.162 314.577 112.069 305.56 120.302C296.535 128.543 284.284 134.079 267.817 134.458C250.239 135.025 237.743 129.773 228.978 121.41C220.226 113.058 215.24 101.647 212.585 89.9662C209.929 78.2827 209.596 66.2913 210.18 56.7305C210.472 51.9487 210.994 47.7685 211.572 44.5315C212.145 41.3183 212.783 38.9769 213.33 37.9159C214.39 35.8587 216.701 33.1827 220.039 30.3539C223.386 27.5166 227.798 24.4987 233.095 21.7673ZM485.315 31.1167C488.611 33.9109 490.809 36.4865 491.781 38.3739C492.251 39.2851 492.869 41.4876 493.444 44.7072C494.014 47.903 494.532 52.0447 494.822 56.7914C495.402 66.2874 495.069 78.179 492.44 89.7445C489.811 101.313 484.893 112.517 476.331 120.686C467.783 128.843 455.557 134.018 438.213 133.459L438.209 133.459C421.972 133.086 409.955 127.636 401.114 119.564C392.264 111.483 386.569 100.748 383.036 89.7693C379.503 78.7921 378.141 67.5977 377.939 58.6326C377.838 54.1508 378.027 50.2332 378.378 47.1855C378.553 45.6614 378.768 44.3601 379.006 43.3175C379.246 42.2663 379.502 41.5083 379.747 41.0512C384.112 32.917 399.669 14.6839 431.88 13.5505C447.99 12.9837 461.98 17.2588 472.447 22.6561C477.681 25.3547 482.028 28.3311 485.315 31.1167ZM472.905 21.7673C462.312 16.3047 448.153 11.9774 431.845 12.5512C399.222 13.699 383.371 32.1831 378.866 40.5784C378.557 41.1545 378.277 42.0164 378.031 43.0952C377.783 44.1827 377.562 45.5216 377.384 47.0712C377.028 50.1709 376.837 54.1348 376.939 58.6552C377.143 67.6946 378.516 78.9878 382.084 90.0756C385.652 101.162 391.423 112.069 400.44 120.302C409.465 128.543 421.716 134.079 438.183 134.458C455.761 135.025 468.257 129.773 477.022 121.41C485.774 113.058 490.76 101.647 493.415 89.9662C496.071 78.2827 496.404 66.2913 495.82 56.7305C495.528 51.9487 495.006 47.7685 494.428 44.5315C493.855 41.3183 493.217 38.9769 492.67 37.9159C491.61 35.8587 489.299 33.1827 485.961 30.3539C482.614 27.5166 478.202 24.4987 472.905 21.7673Z" fill="black"/>
<path d="M220.276 19.8347L220.62 21.8048C220.993 21.7397 221.339 21.5702 221.619 21.3161L220.276 19.8347ZM187 25.6503L186.656 23.6802C185.698 23.8475 185 24.6786 185 25.6503H187ZM337.497 31.466L336.171 32.9633C336.536 33.2871 337.008 33.466 337.497 33.466V31.466ZM368.503 31.466V33.466C368.992 33.466 369.464 33.2871 369.829 32.9633L368.503 31.466ZM485.724 19.8347L484.381 21.3161C484.661 21.5702 485.007 21.7397 485.38 21.8048L485.724 19.8347ZM519 25.6503H521C521 24.6786 520.302 23.8475 519.344 23.6802L519 25.6503ZM519 44.2604L519.912 46.0401C520.58 45.6978 521 45.0107 521 44.2604H519ZM507.656 50.076L506.744 48.2963C506.115 48.6188 505.702 49.2494 505.66 49.9551L507.656 50.076ZM397.241 131.107L398.409 129.484L397.241 131.107ZM363.588 50.076L365.571 49.822C365.444 48.8238 364.594 48.076 363.588 48.076V50.076ZM342.412 50.076V48.076C341.406 48.076 340.556 48.8238 340.429 49.822L342.412 50.076ZM308.759 131.107L307.591 129.484L308.759 131.107ZM198.344 50.076L200.34 49.9551C200.298 49.2494 199.885 48.6188 199.256 48.2963L198.344 50.076ZM187 44.2604H185C185 45.0107 185.42 45.6978 186.088 46.0401L187 44.2604ZM214.219 38.3739L215.997 39.29L214.219 38.3739ZM220.685 31.1167L219.392 29.5911L220.685 31.1167ZM212.556 44.7072L214.525 45.0585L214.525 45.0585L212.556 44.7072ZM211.178 56.7914L213.175 56.9134L211.178 56.7914ZM213.56 89.7445L215.51 89.3012L213.56 89.7445ZM229.669 120.686L231.049 119.239H231.049L229.669 120.686ZM267.787 133.459L267.734 131.459L267.722 131.46L267.787 133.459ZM267.791 133.459L267.745 131.459L267.739 131.459L267.791 133.459ZM304.886 119.564L303.537 118.087L304.886 119.564ZM322.964 89.7693L324.868 90.3819L322.964 89.7693ZM328.061 58.6326L326.062 58.5876V58.5876L328.061 58.6326ZM327.622 47.1855L329.609 46.9569V46.9569L327.622 47.1855ZM326.994 43.3175L328.944 42.8728L326.994 43.3175ZM326.253 41.0512L324.491 41.9968V41.9968L326.253 41.0512ZM274.12 13.5505L274.19 11.5518L274.12 13.5505ZM233.553 22.6561L234.469 24.4337L233.553 22.6561ZM274.155 12.5512L274.085 14.5499L274.155 12.5512ZM233.095 21.7673L232.178 19.9897L233.095 21.7673ZM327.134 40.5784L325.372 41.524L325.372 41.5241L327.134 40.5784ZM327.969 43.0952L326.019 43.5399L326.019 43.5399L327.969 43.0952ZM328.616 47.0712L326.629 47.2998V47.2998L328.616 47.0712ZM329.061 58.6552L327.061 58.6101L329.061 58.6552ZM323.916 90.0756L322.012 89.4629L323.916 90.0756ZM305.56 120.302L304.212 118.825H304.212L305.56 120.302ZM267.817 134.458L267.771 132.459C267.764 132.459 267.758 132.459 267.752 132.459L267.817 134.458ZM228.978 121.41L230.359 119.963L228.978 121.41ZM212.585 89.9662L214.535 89.5229L212.585 89.9662ZM210.18 56.7305L208.184 56.6085V56.6085L210.18 56.7305ZM211.572 44.5315L209.603 44.1802L211.572 44.5315ZM213.33 37.9159L215.108 38.8319L213.33 37.9159ZM220.039 30.3539L218.746 28.8282L220.039 30.3539ZM491.781 38.3739L493.559 37.4578V37.4578L491.781 38.3739ZM485.315 31.1167L486.608 29.5911V29.5911L485.315 31.1167ZM493.444 44.7072L495.413 44.3559V44.3559L493.444 44.7072ZM494.822 56.7914L496.818 56.6695V56.6695L494.822 56.7914ZM492.44 89.7445L494.39 90.1878V90.1878L492.44 89.7445ZM476.331 120.686L474.951 119.239L476.331 120.686ZM438.213 133.459L438.278 131.46L438.266 131.459L438.213 133.459ZM438.209 133.459L438.261 131.459L438.255 131.459L438.209 133.459ZM401.114 119.564L402.463 118.087L401.114 119.564ZM383.036 89.7693L381.132 90.3819L383.036 89.7693ZM377.939 58.6326L379.938 58.5876V58.5876L377.939 58.6326ZM378.378 47.1855L376.391 46.9569V46.9569L378.378 47.1855ZM379.006 43.3175L377.056 42.8728L379.006 43.3175ZM379.747 41.0512L381.509 41.9968V41.9968L379.747 41.0512ZM431.88 13.5505L431.81 11.5518L431.88 13.5505ZM472.447 22.6561L471.531 24.4337V24.4337L472.447 22.6561ZM431.845 12.5512L431.915 14.5499L431.845 12.5512ZM472.905 21.7673L473.822 19.9897V19.9897L472.905 21.7673ZM378.866 40.5784L380.628 41.5241L380.628 41.524L378.866 40.5784ZM378.031 43.0952L379.981 43.5399L379.981 43.5399L378.031 43.0952ZM377.384 47.0712L379.371 47.2998V47.2998L377.384 47.0712ZM376.939 58.6552L378.939 58.6101L376.939 58.6552ZM382.084 90.0756L383.988 89.4629L382.084 90.0756ZM400.44 120.302L399.091 121.779L400.44 120.302ZM438.183 134.458L438.248 132.459C438.242 132.459 438.236 132.459 438.229 132.459L438.183 134.458ZM477.022 121.41L478.402 122.857L477.022 121.41ZM493.415 89.9662L491.465 89.5229L493.415 89.9662ZM495.82 56.7305L497.816 56.6085V56.6085L495.82 56.7305ZM494.428 44.5315L492.459 44.8829V44.8829L494.428 44.5315ZM492.67 37.9159L494.448 36.9998V36.9998L492.67 37.9159ZM485.961 30.3539L487.254 28.8282L487.254 28.8282L485.961 30.3539ZM219.931 17.8645L186.656 23.6802L187.344 27.6204L220.62 21.8048L219.931 17.8645ZM272.08 0C255.633 0 242.376 4.56359 233.232 9.12783C228.659 11.4102 225.107 13.6959 222.689 15.4194C221.48 16.2814 220.553 17.0037 219.922 17.5159C219.607 17.772 219.366 17.9756 219.2 18.1181C219.117 18.1893 219.053 18.2453 219.009 18.2848C218.986 18.3046 218.969 18.3203 218.956 18.3317C218.949 18.3375 218.944 18.3421 218.94 18.3457C218.938 18.3475 218.937 18.349 218.935 18.3503C218.935 18.3509 218.934 18.3517 218.933 18.352C218.933 18.3526 218.932 18.3532 220.276 19.8347C221.619 21.3161 221.619 21.3165 221.618 21.3169C221.618 21.317 221.618 21.3173 221.618 21.3174C221.618 21.3176 221.618 21.3175 221.618 21.3171C221.619 21.3164 221.621 21.3146 221.624 21.3117C221.631 21.306 221.642 21.2961 221.657 21.2821C221.689 21.2542 221.739 21.21 221.809 21.1506C221.947 21.0318 222.159 20.8523 222.444 20.6208C223.014 20.1576 223.875 19.4865 225.011 18.6766C227.284 17.0561 230.657 14.8831 235.018 12.7068C243.74 8.35374 256.385 4 272.08 4V0ZM337.497 31.466C338.822 29.9686 338.822 29.9682 338.821 29.9677C338.821 29.9673 338.82 29.9667 338.82 29.966C338.818 29.9647 338.816 29.963 338.814 29.9608C338.809 29.9564 338.802 29.9502 338.793 29.9423C338.775 29.9264 338.748 29.9036 338.715 29.874C338.647 29.8148 338.547 29.7286 338.417 29.6171C338.157 29.3941 337.775 29.0702 337.28 28.6596C336.289 27.8386 334.842 26.6708 333.008 25.2717C329.341 22.4749 324.114 18.7464 317.866 15.0158C305.431 7.59004 288.696 0 272.08 0V4C287.605 4 303.578 11.1429 315.816 18.4501C321.905 22.086 327.005 25.724 330.582 28.4521C332.37 29.8155 333.774 30.9496 334.728 31.74C335.205 32.1352 335.57 32.4443 335.813 32.653C335.934 32.7573 336.026 32.8366 336.086 32.8889C336.116 32.915 336.138 32.9345 336.152 32.9469C336.159 32.9532 336.164 32.9577 336.167 32.9604C336.169 32.9618 336.17 32.9627 336.171 32.9632C336.171 32.9634 336.171 32.9634 336.171 32.9636C336.171 32.9635 336.171 32.9633 337.497 31.466ZM353 29.466H337.497V33.466H353V29.466ZM353 33.466H368.503V29.466H353V33.466ZM368.503 31.466C369.829 32.9633 369.829 32.9635 369.829 32.9636C369.829 32.9634 369.829 32.9634 369.829 32.9632C369.83 32.9627 369.831 32.9618 369.833 32.9604C369.836 32.9577 369.841 32.9532 369.848 32.9469C369.862 32.9345 369.884 32.915 369.914 32.8889C369.974 32.8366 370.066 32.7573 370.187 32.653C370.43 32.4443 370.795 32.1352 371.272 31.74C372.226 30.9496 373.63 29.8155 375.418 28.4521C378.995 25.724 384.095 22.086 390.184 18.4501C402.422 11.1429 418.395 4 433.92 4V0C417.304 0 400.569 7.59004 388.134 15.0158C381.886 18.7464 376.659 22.4749 372.992 25.2717C371.158 26.6708 369.711 27.8386 368.72 28.6596C368.225 29.0702 367.843 29.3941 367.583 29.6171C367.453 29.7286 367.353 29.8148 367.285 29.874C367.252 29.9036 367.225 29.9264 367.207 29.9423C367.198 29.9502 367.191 29.9564 367.186 29.9608C367.184 29.963 367.182 29.9647 367.18 29.966C367.18 29.9667 367.179 29.9673 367.179 29.9677C367.178 29.9682 367.178 29.9686 368.503 31.466ZM433.92 4C449.615 4 462.26 8.35374 470.982 12.7068C475.343 14.8831 478.716 17.0561 480.989 18.6766C482.125 19.4865 482.986 20.1576 483.556 20.6208C483.841 20.8523 484.053 21.0318 484.191 21.1506C484.261 21.21 484.311 21.2542 484.343 21.2821C484.358 21.2961 484.369 21.306 484.376 21.3117C484.379 21.3146 484.381 21.3164 484.382 21.3171C484.382 21.3175 484.382 21.3176 484.382 21.3174C484.382 21.3173 484.382 21.317 484.382 21.3169C484.381 21.3165 484.381 21.3161 485.724 19.8347C487.068 18.3532 487.067 18.3526 487.067 18.352C487.066 18.3517 487.065 18.3509 487.065 18.3503C487.063 18.349 487.062 18.3475 487.06 18.3457C487.056 18.3421 487.051 18.3375 487.044 18.3317C487.031 18.3203 487.014 18.3046 486.991 18.2848C486.947 18.2453 486.883 18.1893 486.8 18.1181C486.634 17.9756 486.393 17.772 486.078 17.5159C485.447 17.0037 484.52 16.2814 483.311 15.4194C480.893 13.6959 477.341 11.4102 472.768 9.12783C463.624 4.56359 450.367 0 433.92 0V4ZM485.38 21.8048L518.656 27.6204L519.344 23.6802L486.069 17.8645L485.38 21.8048ZM517 25.6503V44.2604H521V25.6503H517ZM518.088 42.4806L506.744 48.2963L508.568 51.8558L519.912 46.0401L518.088 42.4806ZM507.656 50.076C505.66 49.9551 505.66 49.955 505.66 49.9551C505.66 49.9555 505.66 49.9559 505.66 49.9566C505.66 49.958 505.659 49.9604 505.659 49.9638C505.659 49.9704 505.658 49.9808 505.657 49.995C505.655 50.0232 505.653 50.0662 505.649 50.1237C505.641 50.2386 505.63 50.4111 505.613 50.638C505.581 51.0918 505.529 51.763 505.456 52.6257C505.31 54.3512 505.076 56.842 504.724 59.8908C504.02 65.9918 502.847 74.3118 500.972 83.2002C499.096 92.0972 496.528 101.512 493.049 109.823C489.556 118.168 485.222 125.21 479.918 129.561L482.455 132.654C488.495 127.699 493.142 119.96 496.739 111.367C500.35 102.74 502.981 93.0603 504.886 84.0256C506.793 74.9825 507.984 66.5341 508.698 60.3494C509.055 57.2555 509.293 54.7242 509.442 52.9634C509.517 52.0829 509.569 51.3948 509.603 50.9252C509.62 50.6903 509.632 50.5101 509.64 50.3876C509.644 50.3264 509.647 50.2796 509.649 50.2477C509.65 50.2318 509.651 50.2195 509.652 50.211C509.652 50.2068 509.652 50.2035 509.652 50.2012C509.652 50.2 509.652 50.1989 509.652 50.1983C509.652 50.1975 509.652 50.197 507.656 50.076ZM479.918 129.561C458.016 147.527 423.404 147.458 398.409 129.484L396.074 132.731C422.355 151.63 458.982 151.908 482.455 132.654L479.918 129.561ZM398.409 129.484C392.366 125.138 387.236 118.085 382.945 109.753C378.668 101.446 375.305 92.0258 372.721 83.1207C370.14 74.2232 368.35 65.8891 367.207 59.7766C366.635 56.722 366.225 54.2262 365.959 52.4971C365.826 51.6327 365.728 50.9601 365.665 50.5056C365.633 50.2783 365.609 50.1055 365.594 49.9905C365.586 49.933 365.58 49.8899 365.577 49.8617C365.575 49.8476 365.573 49.8372 365.573 49.8305C365.572 49.8272 365.572 49.8249 365.572 49.8234C365.572 49.8227 365.572 49.8224 365.571 49.822C365.571 49.8219 365.571 49.822 363.588 50.076C361.604 50.3301 361.604 50.3306 361.604 50.3315C361.604 50.3321 361.604 50.3331 361.604 50.3343C361.605 50.3367 361.605 50.34 361.606 50.3443C361.607 50.3529 361.608 50.3652 361.611 50.3812C361.615 50.4133 361.621 50.4603 361.629 50.5218C361.646 50.6448 361.67 50.8258 361.703 51.0614C361.77 51.5328 361.869 52.223 362.006 53.1062C362.278 54.8723 362.694 57.4107 363.275 60.5124C364.435 66.7126 366.252 75.1794 368.879 84.2352C371.504 93.2833 374.952 102.968 379.389 111.584C383.812 120.174 389.298 127.858 396.074 132.731L398.409 129.484ZM363.588 48.076H353V52.076H363.588V48.076ZM342.412 52.076H353V48.076H342.412V52.076ZM309.926 132.731C316.702 127.858 322.188 120.174 326.611 111.584C331.048 102.968 334.496 93.2833 337.121 84.2352C339.748 75.1794 341.565 66.7126 342.725 60.5124C343.306 57.4107 343.722 54.8723 343.994 53.1062C344.131 52.223 344.23 51.5328 344.297 51.0614C344.33 50.8258 344.354 50.6448 344.371 50.5218C344.379 50.4603 344.385 50.4133 344.389 50.3812C344.392 50.3652 344.393 50.3529 344.394 50.3443C344.395 50.34 344.395 50.3367 344.396 50.3343C344.396 50.3331 344.396 50.3321 344.396 50.3315C344.396 50.3306 344.396 50.3301 342.412 50.076C340.429 49.822 340.429 49.8219 340.429 49.822C340.428 49.8224 340.428 49.8227 340.428 49.8234C340.428 49.8249 340.428 49.8272 340.427 49.8305C340.427 49.8372 340.425 49.8476 340.423 49.8617C340.42 49.8899 340.414 49.933 340.406 49.9905C340.391 50.1055 340.367 50.2783 340.335 50.5056C340.272 50.9601 340.174 51.6327 340.041 52.4971C339.775 54.2262 339.365 56.722 338.793 59.7766C337.65 65.8891 335.86 74.2232 333.279 83.1207C330.695 92.0258 327.332 101.446 323.055 109.753C318.764 118.085 313.634 125.138 307.591 129.484L309.926 132.731ZM223.545 132.654C247.018 151.908 283.645 151.63 309.926 132.731L307.591 129.484C282.596 147.458 247.984 147.527 226.082 129.561L223.545 132.654ZM198.344 50.076C196.348 50.197 196.348 50.1975 196.348 50.1983C196.348 50.1989 196.348 50.2 196.348 50.2012C196.348 50.2035 196.348 50.2068 196.348 50.211C196.349 50.2195 196.35 50.2318 196.351 50.2477C196.353 50.2796 196.356 50.3264 196.36 50.3876C196.368 50.5101 196.38 50.6903 196.397 50.9252C196.431 51.3948 196.483 52.0829 196.558 52.9634C196.707 54.7242 196.945 57.2555 197.302 60.3494C198.016 66.5341 199.207 74.9825 201.114 84.0256C203.019 93.0603 205.65 102.74 209.261 111.367C212.858 119.96 217.505 127.699 223.545 132.654L226.082 129.561C220.778 125.21 216.444 118.168 212.951 109.823C209.472 101.512 206.904 92.0972 205.028 83.2002C203.153 74.3118 201.98 65.9918 201.276 59.8908C200.924 56.842 200.69 54.3512 200.544 52.6257C200.471 51.763 200.419 51.0918 200.387 50.638C200.37 50.4111 200.359 50.2386 200.351 50.1237C200.347 50.0662 200.345 50.0232 200.343 49.995C200.342 49.9808 200.341 49.9704 200.341 49.9638C200.341 49.9604 200.34 49.958 200.34 49.9566C200.34 49.9559 200.34 49.9555 200.34 49.9551C200.34 49.955 200.34 49.9551 198.344 50.076ZM186.088 46.0401L197.432 51.8558L199.256 48.2963L187.912 42.4806L186.088 46.0401ZM185 25.6503V44.2604H189V25.6503H185ZM215.997 39.29C216.794 37.7422 218.764 35.3673 221.979 32.6424L219.392 29.5911C216.014 32.4545 213.588 35.2308 212.441 37.4578L215.997 39.29ZM214.525 45.0585C215.102 41.8258 215.682 39.9014 215.997 39.29L212.441 37.4578C211.817 38.6689 211.159 41.1494 210.587 44.3559L214.525 45.0585ZM213.175 56.9134C213.46 52.2368 213.969 48.172 214.525 45.0585L210.587 44.3559C210.002 47.634 209.476 51.8527 209.182 56.6695L213.175 56.9134ZM215.51 89.3012C212.935 77.9716 212.603 66.2797 213.175 56.9134L209.182 56.6695C208.594 66.2952 208.927 78.3864 211.61 90.1878L215.51 89.3012ZM231.049 119.239C222.871 111.435 218.088 100.644 215.51 89.3012L211.61 90.1878C214.29 101.981 219.344 113.599 228.288 122.133L231.049 119.239ZM267.722 131.46C250.848 132.004 239.164 126.982 231.049 119.239L228.288 122.133C237.27 130.704 250.038 136.033 267.851 135.458L267.722 131.46ZM267.739 131.459L267.734 131.459L267.839 135.458L267.844 135.458L267.739 131.459ZM303.537 118.087C295.066 125.822 283.517 131.097 267.745 131.459L267.837 135.458C284.539 135.074 297.024 129.451 306.234 121.041L303.537 118.087ZM321.06 89.1566C317.597 99.9181 312.054 110.311 303.537 118.087L306.234 121.041C315.418 112.655 321.265 101.577 324.868 90.3819L321.06 89.1566ZM326.062 58.5876C325.863 67.4038 324.522 78.4007 321.06 89.1566L324.868 90.3819C328.472 79.1835 329.855 67.7916 330.061 58.6777L326.062 58.5876ZM325.635 47.4141C325.974 50.3578 326.161 54.1828 326.062 58.5876L330.061 58.6777C330.163 54.1188 329.972 50.1087 329.609 46.9569L325.635 47.4141ZM325.044 43.7623C325.261 44.715 325.466 45.941 325.635 47.4141L329.609 46.9569C329.428 45.3818 329.202 44.0052 328.944 42.8728L325.044 43.7623ZM324.491 41.9968C324.608 42.2156 324.817 42.7658 325.044 43.7623L328.944 42.8728C328.692 41.7668 328.388 40.8009 328.015 40.1056L324.491 41.9968ZM274.049 15.5493C305.438 16.6538 320.406 34.385 324.491 41.9968L328.015 40.1056C323.37 31.449 307.224 12.7141 274.19 11.5518L274.049 15.5493ZM234.469 24.4337C244.683 19.1672 258.335 14.9964 274.049 15.5493L274.19 11.5518C257.685 10.971 243.357 15.3505 232.636 20.8785L234.469 24.4337ZM221.979 32.6424C225.143 29.9602 229.363 27.0668 234.469 24.4337L232.636 20.8785C227.276 23.6426 222.801 26.702 219.392 29.5911L221.979 32.6424ZM274.225 10.5524C257.522 9.96468 243.025 14.3963 232.178 19.9897L234.011 23.5449C244.351 18.213 258.173 13.99 274.085 14.5499L274.225 10.5524ZM328.896 39.6328C324.112 30.7153 307.671 11.7292 274.225 10.5524L274.085 14.5499C305.885 15.6689 321.147 33.6508 325.372 41.524L328.896 39.6328ZM329.919 42.6505C329.66 41.5164 329.333 40.4469 328.896 39.6328L325.372 41.5241C325.553 41.8621 325.786 42.5164 326.019 43.5399L329.919 42.6505ZM330.603 46.8426C330.419 45.2421 330.187 43.8278 329.919 42.6505L326.019 43.5399C326.247 44.5376 326.456 45.8012 326.629 47.2998L330.603 46.8426ZM331.06 58.7003C331.164 54.1028 330.971 50.0464 330.603 46.8426L326.629 47.2998C326.974 50.2955 327.162 54.1668 327.061 58.6101L331.06 58.7003ZM325.82 90.6883C329.459 79.3792 330.853 67.8885 331.06 58.7003L327.061 58.6101C326.861 67.5007 325.509 78.5964 322.012 89.4629L325.82 90.6883ZM306.909 121.779C316.259 113.242 322.182 101.992 325.82 90.6883L322.012 89.4629C318.514 100.333 312.895 110.897 304.212 118.825L306.909 121.779ZM267.863 136.458C284.795 136.068 297.513 130.358 306.909 121.779L304.212 118.825C295.556 126.729 283.773 132.091 267.771 132.459L267.863 136.458ZM227.598 122.857C236.796 131.634 249.834 137.039 267.881 136.457L267.752 132.459C250.644 133.011 238.69 127.912 230.359 119.963L227.598 122.857ZM210.635 90.4095C213.341 102.316 218.463 114.14 227.598 122.857L230.359 119.963C221.989 111.976 217.139 100.978 214.535 89.5229L210.635 90.4095ZM208.184 56.6085C207.592 66.299 207.925 78.4901 210.635 90.4095L214.535 89.5229C211.933 78.0753 211.6 66.2836 212.177 56.8524L208.184 56.6085ZM209.603 44.1802C209.01 47.4996 208.48 51.7567 208.184 56.6085L212.177 56.8524C212.464 52.1408 212.978 48.0375 213.541 44.8829L209.603 44.1802ZM211.552 36.9998C210.851 38.3603 210.174 40.9791 209.603 44.1802L213.541 44.8829C214.116 41.6574 214.715 39.5935 215.108 38.8319L211.552 36.9998ZM218.746 28.8282C215.326 31.7264 212.787 34.6031 211.552 36.9998L215.108 38.8319C215.993 37.1143 218.076 34.639 221.332 31.8796L218.746 28.8282ZM232.178 19.9897C226.754 22.7865 222.215 25.8875 218.746 28.8282L221.332 31.8796C224.558 29.1456 228.841 26.2108 234.011 23.5449L232.178 19.9897ZM493.559 37.4578C492.412 35.2308 489.986 32.4545 486.608 29.5911L484.021 32.6424C487.236 35.3673 489.206 37.7422 490.003 39.29L493.559 37.4578ZM495.413 44.3559C494.841 41.1494 494.183 38.6689 493.559 37.4578L490.003 39.29C490.318 39.9014 490.898 41.8258 491.475 45.0585L495.413 44.3559ZM496.818 56.6695C496.524 51.8527 495.998 47.6341 495.413 44.3559L491.475 45.0585C492.031 48.172 492.54 52.2368 492.825 56.9134L496.818 56.6695ZM494.39 90.1878C497.073 78.3864 497.406 66.2952 496.818 56.6695L492.825 56.9134C493.397 66.2797 493.065 77.9716 490.49 89.3012L494.39 90.1878ZM477.712 122.133C486.656 113.599 491.71 101.981 494.39 90.1878L490.49 89.3012C487.912 100.644 483.129 111.435 474.951 119.239L477.712 122.133ZM438.149 135.458C455.962 136.033 468.73 130.704 477.712 122.133L474.951 119.239C466.836 126.982 455.152 132.004 438.278 131.46L438.149 135.458ZM438.156 135.458L438.161 135.458L438.266 131.459L438.261 131.459L438.156 135.458ZM399.766 121.041C408.976 129.451 421.461 135.074 438.163 135.458L438.255 131.459C422.483 131.097 410.934 125.822 402.463 118.087L399.766 121.041ZM381.132 90.3819C384.735 101.577 390.582 112.655 399.766 121.041L402.463 118.087C393.946 110.311 388.403 99.9181 384.94 89.1566L381.132 90.3819ZM375.939 58.6777C376.145 67.7916 377.528 79.1835 381.132 90.3819L384.94 89.1566C381.478 78.4007 380.137 67.4038 379.938 58.5876L375.939 58.6777ZM376.391 46.9569C376.028 50.1087 375.837 54.1188 375.939 58.6777L379.938 58.5876C379.839 54.1828 380.026 50.3578 380.365 47.4141L376.391 46.9569ZM377.056 42.8728C376.798 44.0052 376.572 45.3818 376.391 46.9569L380.365 47.4141C380.534 45.941 380.739 44.715 380.956 43.7623L377.056 42.8728ZM377.985 40.1056C377.612 40.8009 377.308 41.7668 377.056 42.8728L380.956 43.7623C381.183 42.7658 381.392 42.2156 381.509 41.9968L377.985 40.1056ZM431.81 11.5518C398.776 12.7141 382.63 31.449 377.985 40.1056L381.509 41.9968C385.594 34.385 400.562 16.6538 431.951 15.5493L431.81 11.5518ZM473.364 20.8785C462.643 15.3505 448.315 10.971 431.81 11.5518L431.951 15.5493C447.665 14.9964 461.317 19.1672 471.531 24.4337L473.364 20.8785ZM486.608 29.5911C483.199 26.702 478.724 23.6426 473.364 20.8785L471.531 24.4337C476.637 27.0668 480.857 29.9602 484.021 32.6424L486.608 29.5911ZM431.915 14.5499C447.827 13.99 461.649 18.213 471.989 23.5449L473.822 19.9897C462.975 14.3963 448.478 9.96468 431.775 10.5524L431.915 14.5499ZM380.628 41.524C384.853 33.6508 400.115 15.6689 431.915 14.5499L431.775 10.5524C398.329 11.7292 381.888 30.7153 377.104 39.6328L380.628 41.524ZM379.981 43.5399C380.214 42.5164 380.447 41.8621 380.628 41.5241L377.104 39.6328C376.667 40.4469 376.34 41.5164 376.081 42.6505L379.981 43.5399ZM379.371 47.2998C379.544 45.8012 379.753 44.5376 379.981 43.5399L376.081 42.6505C375.813 43.8278 375.581 45.2421 375.397 46.8426L379.371 47.2998ZM378.939 58.6101C378.838 54.1668 379.026 50.2955 379.371 47.2998L375.397 46.8426C375.029 50.0464 374.836 54.1028 374.94 58.7003L378.939 58.6101ZM383.988 89.4629C380.491 78.5964 379.139 67.5007 378.939 58.6101L374.94 58.7003C375.147 67.8885 376.541 79.3792 380.18 90.6883L383.988 89.4629ZM401.788 118.825C393.105 110.897 387.486 100.333 383.988 89.4629L380.18 90.6883C383.818 101.992 389.741 113.242 399.091 121.779L401.788 118.825ZM438.229 132.459C422.227 132.091 410.444 126.729 401.788 118.825L399.091 121.779C408.487 130.358 421.205 136.068 438.137 136.458L438.229 132.459ZM475.641 119.963C467.31 127.912 455.356 133.011 438.248 132.459L438.119 136.457C456.166 137.039 469.204 131.634 478.402 122.857L475.641 119.963ZM491.465 89.5229C488.861 100.978 484.011 111.976 475.641 119.963L478.402 122.857C487.537 114.14 492.659 102.316 495.365 90.4095L491.465 89.5229ZM493.823 56.8524C494.4 66.2836 494.067 78.0753 491.465 89.5229L495.365 90.4095C498.075 78.4901 498.408 66.299 497.816 56.6085L493.823 56.8524ZM492.459 44.8829C493.022 48.0375 493.536 52.1408 493.823 56.8524L497.816 56.6085C497.52 51.7567 496.99 47.4996 496.397 44.1802L492.459 44.8829ZM490.892 38.8319C491.285 39.5935 491.884 41.6574 492.459 44.8829L496.397 44.1802C495.826 40.9791 495.149 38.3604 494.448 36.9998L490.892 38.8319ZM484.668 31.8796C487.924 34.639 490.007 37.1143 490.892 38.8319L494.448 36.9998C493.213 34.6031 490.674 31.7264 487.254 28.8282L484.668 31.8796ZM471.989 23.5449C477.159 26.2108 481.442 29.1456 484.668 31.8796L487.254 28.8282C483.785 25.8875 479.246 22.7865 473.822 19.9897L471.989 23.5449Z" fill="black"/>
</svg>
