<svg width="1080" height="1080" viewBox="0 0 1080 1080" fill="none" xmlns="http://www.w3.org/2000/svg">
<g id="Glasses/ 14">
<g id="Group">
<g id="Combined Shape">
<path fill-rule="evenodd" clip-rule="evenodd" d="M712.472 491.158C747.209 486.19 789.963 490.537 796.198 496.746C802.433 502.956 802.214 540.353 783.712 560.845C772.077 573.732 708.381 574.538 681.986 566.918C673.397 564.438 666.052 553.396 659.199 543.093C652.566 533.122 646.394 523.843 640 523.69C633.575 523.537 627.416 532.89 620.768 542.986C613.965 553.317 606.65 564.425 598.014 566.918C571.62 574.538 509.918 575.725 498.289 562.845C479.787 542.353 477.568 502.956 483.803 496.746C490.038 490.537 532.791 486.19 567.528 491.158C602.266 496.125 617.492 499.934 624.533 502.029C628.93 503.338 639.435 503.892 639.435 503.892L640 503.905L640.566 503.912C646.104 503.965 651.071 503.338 655.468 502.029C662.509 499.934 677.735 496.125 712.472 491.158ZM498.054 502.71C478.459 512.404 494.273 546.047 502.977 555.74C511.682 565.434 588.217 563.153 598.905 558.021C609.594 552.889 624.642 527.651 616.626 513.395C608.61 499.14 526.556 492.446 498.054 502.71ZM777.023 555.74C785.728 546.047 801.542 512.404 781.947 502.71C753.444 492.446 671.391 499.14 663.375 513.395C655.358 527.651 670.407 552.889 681.095 558.021C691.784 563.153 768.319 565.434 777.023 555.74Z" fill="black"/>
<path d="M712.472 491.158L712.755 493.137L712.472 491.158ZM783.712 560.845L785.196 562.186L783.712 560.845ZM681.986 566.918L681.431 568.84L681.986 566.918ZM659.199 543.093L657.534 544.201L659.199 543.093ZM640 523.69L640.048 521.691L640 523.69ZM620.768 542.986L619.098 541.886L620.768 542.986ZM598.014 566.918L598.569 568.84L598.014 566.918ZM498.289 562.845L499.773 561.505L498.289 562.845ZM483.803 496.746L482.392 495.329L483.803 496.746ZM567.528 491.158L567.245 493.137L567.528 491.158ZM624.533 502.029L625.103 500.112V500.112L624.533 502.029ZM639.435 503.892L639.33 505.889C639.35 505.89 639.371 505.891 639.391 505.892L639.435 503.892ZM640 503.905L639.957 505.904C639.962 505.904 639.967 505.904 639.973 505.904L640 503.905ZM640.566 503.912L640.539 505.912L640.547 505.912L640.566 503.912ZM655.468 502.029L656.038 503.946L655.468 502.029ZM502.977 555.74L501.489 557.077H501.489L502.977 555.74ZM498.054 502.71L497.376 500.829C497.305 500.854 497.235 500.884 497.167 500.918L498.054 502.71ZM616.626 513.395L614.883 514.376V514.376L616.626 513.395ZM781.947 502.71L782.833 500.918C782.765 500.884 782.696 500.854 782.624 500.829L781.947 502.71ZM777.023 555.74L778.511 557.077L777.023 555.74ZM663.375 513.395L661.631 512.415L663.375 513.395ZM797.609 495.329C796.526 494.251 794.856 493.383 792.951 492.652C790.994 491.901 788.574 491.216 785.803 490.602C780.257 489.373 773.145 488.392 765.18 487.766C749.252 486.515 729.729 486.669 712.189 489.178L712.755 493.137C729.952 490.678 749.175 490.522 764.867 491.754C772.712 492.371 779.628 493.331 784.937 494.507C787.594 495.096 789.808 495.731 791.518 496.387C793.281 497.063 794.31 497.689 794.786 498.164L797.609 495.329ZM785.196 562.186C794.821 551.526 799.599 536.606 801.216 523.688C802.027 517.209 802.054 511.146 801.465 506.26C801.17 503.819 800.716 501.629 800.107 499.808C799.51 498.026 798.708 496.424 797.609 495.329L794.786 498.164C795.246 498.622 795.801 499.546 796.314 501.078C796.813 502.571 797.221 504.482 797.493 506.74C798.038 511.252 798.024 516.984 797.247 523.191C795.687 535.648 791.105 549.672 782.227 559.505L785.196 562.186ZM681.431 568.84C694.926 572.736 717.693 574.434 738.467 573.57C748.876 573.137 758.879 572.058 767.051 570.255C771.137 569.354 774.81 568.263 777.868 566.958C780.9 565.664 783.466 564.102 785.196 562.186L782.227 559.505C781.049 560.81 779.079 562.092 776.298 563.279C773.542 564.455 770.124 565.481 766.19 566.349C758.322 568.084 748.569 569.146 738.301 569.573C717.719 570.429 695.441 568.721 682.541 564.997L681.431 568.84ZM657.534 544.201C660.944 549.327 664.564 554.775 668.428 559.247C672.266 563.688 676.566 567.435 681.431 568.84L682.541 564.997C678.817 563.922 675.15 560.907 671.455 556.632C667.786 552.387 664.307 547.162 660.864 541.986L657.534 544.201ZM639.953 525.69C642.234 525.744 644.872 527.485 648.012 531.035C651.073 534.495 654.193 539.179 657.534 544.201L660.864 541.986C657.572 537.036 654.29 532.094 651.008 528.384C647.805 524.763 644.16 521.789 640.048 521.691L639.953 525.69ZM622.438 544.086C625.788 539 628.906 534.272 631.964 530.821C635.107 527.276 637.712 525.636 639.953 525.69L640.048 521.691C635.863 521.591 632.177 524.551 628.971 528.168C625.682 531.879 622.396 536.876 619.098 541.886L622.438 544.086ZM598.569 568.84C603.461 567.427 607.765 563.658 611.596 559.194C615.453 554.699 619.053 549.226 622.438 544.086L619.098 541.886C615.679 547.076 612.221 552.323 608.561 556.589C604.874 560.885 601.204 563.916 597.46 564.997L598.569 568.84ZM496.804 564.186C498.537 566.104 501.075 567.636 504.062 568.877C507.072 570.128 510.674 571.141 514.669 571.947C522.661 573.56 532.419 574.387 542.579 574.569C562.866 574.932 585.109 572.726 598.569 568.84L597.46 564.997C584.525 568.731 562.72 570.928 542.65 570.569C532.631 570.39 523.134 569.575 515.461 568.026C511.624 567.252 508.291 566.303 505.598 565.184C502.882 564.055 500.948 562.806 499.773 561.505L496.804 564.186ZM482.392 495.329C481.26 496.456 480.493 498.132 479.957 499.968C479.407 501.851 479.037 504.124 478.84 506.658C478.446 511.728 478.73 518.035 479.794 524.753C481.914 538.142 487.194 553.541 496.804 564.186L499.773 561.505C490.882 551.657 485.801 537.111 483.745 524.127C482.721 517.658 482.463 511.67 482.828 506.967C483.011 504.614 483.346 502.63 483.796 501.09C484.26 499.503 484.787 498.589 485.214 498.164L482.392 495.329ZM567.812 489.178C550.271 486.669 530.749 486.515 514.821 487.766C506.856 488.392 499.744 489.373 494.198 490.602C491.427 491.216 489.007 491.901 487.049 492.652C485.145 493.383 483.474 494.251 482.392 495.329L485.214 498.164C485.69 497.689 486.72 497.063 488.482 496.387C490.192 495.731 492.407 495.096 495.063 494.507C500.372 493.331 507.289 492.371 515.134 491.754C530.826 490.522 550.048 490.678 567.245 493.137L567.812 489.178ZM625.103 500.112C617.933 497.979 602.602 494.153 567.812 489.178L567.245 493.137C601.929 498.098 617.05 501.889 623.963 503.946L625.103 500.112ZM639.435 503.892C639.54 501.895 639.541 501.895 639.541 501.895C639.541 501.895 639.54 501.895 639.54 501.895C639.54 501.895 639.54 501.895 639.539 501.895C639.538 501.895 639.537 501.895 639.534 501.895C639.53 501.894 639.523 501.894 639.513 501.893C639.495 501.892 639.466 501.891 639.428 501.889C639.352 501.885 639.24 501.878 639.095 501.869C638.804 501.852 638.382 501.826 637.862 501.79C636.821 501.718 635.388 501.609 633.822 501.46C630.624 501.156 627.087 500.703 625.103 500.112L623.963 503.946C626.375 504.664 630.29 505.142 633.443 505.442C635.053 505.596 636.522 505.707 637.588 505.78C638.121 505.817 638.554 505.844 638.855 505.862C639.006 505.871 639.123 505.878 639.204 505.882C639.244 505.885 639.275 505.886 639.296 505.888C639.307 505.888 639.315 505.889 639.32 505.889C639.323 505.889 639.325 505.889 639.327 505.889C639.328 505.889 639.328 505.889 639.329 505.889C639.329 505.889 639.329 505.889 639.329 505.889C639.329 505.889 639.33 505.889 639.435 503.892ZM640.044 501.905L639.479 501.893L639.391 505.892L639.957 505.904L640.044 501.905ZM640.594 501.912L640.028 501.905L639.973 505.904L640.539 505.912L640.594 501.912ZM654.897 500.112C650.726 501.353 645.963 501.964 640.586 501.912L640.547 505.912C646.244 505.967 651.415 505.322 656.038 503.946L654.897 500.112ZM712.189 489.178C677.399 494.153 662.067 497.979 654.897 500.112L656.038 503.946C662.95 501.889 678.071 498.098 712.755 493.137L712.189 489.178ZM504.465 554.404C500.351 549.822 494.368 539.293 491.848 528.76C490.592 523.508 490.242 518.439 491.276 514.196C492.289 510.035 494.63 506.635 498.941 504.503L497.167 500.918C491.68 503.632 488.65 508.073 487.389 513.249C486.149 518.343 486.623 524.109 487.958 529.691C490.622 540.826 496.899 551.965 501.489 557.077L504.465 554.404ZM598.039 556.218C596.98 556.727 594.863 557.289 591.735 557.823C588.673 558.345 584.83 558.812 580.454 559.201C571.706 559.979 560.925 560.44 550.197 560.44C539.462 560.44 528.836 559.978 520.383 558.923C516.152 558.395 512.522 557.725 509.718 556.911C506.81 556.067 505.149 555.166 504.465 554.404L501.489 557.077C502.982 558.739 505.616 559.886 508.602 560.753C511.691 561.649 515.552 562.351 519.888 562.893C528.567 563.976 539.375 564.44 550.197 564.44C561.027 564.44 571.928 563.975 580.809 563.185C585.247 562.79 589.205 562.312 592.408 561.766C595.545 561.23 598.158 560.599 599.771 559.824L598.039 556.218ZM614.883 514.376C618.399 520.629 616.989 529.71 612.969 538.28C610.993 542.493 608.454 546.426 605.781 549.6C603.084 552.801 600.354 555.107 598.039 556.218L599.771 559.824C602.8 558.37 605.96 555.596 608.84 552.177C611.744 548.729 614.47 544.5 616.591 539.979C620.763 531.084 622.869 520.417 618.369 512.415L614.883 514.376ZM498.732 504.592C505.576 502.127 515.812 500.633 527.578 500.043C539.302 499.455 552.39 499.771 564.85 500.851C577.318 501.931 589.094 503.769 598.21 506.201C602.772 507.418 606.606 508.768 609.507 510.213C612.475 511.691 614.183 513.131 614.883 514.376L618.369 512.415C617.065 510.096 614.455 508.209 611.29 506.632C608.059 505.023 603.944 503.591 599.241 502.336C589.827 499.824 577.804 497.958 565.195 496.866C552.577 495.772 539.306 495.449 527.378 496.048C515.492 496.644 504.784 498.161 497.376 500.829L498.732 504.592ZM781.06 504.503C785.37 506.635 787.712 510.035 788.725 514.196C789.758 518.439 789.409 523.508 788.152 528.76C785.632 539.293 779.65 549.822 775.535 554.404L778.511 557.077C783.101 551.965 789.378 540.826 792.043 529.691C793.378 524.109 793.852 518.343 792.611 513.249C791.351 508.073 788.321 503.632 782.833 500.918L781.06 504.503ZM665.118 514.376C665.818 513.131 667.526 511.691 670.494 510.213C673.395 508.768 677.228 507.418 681.791 506.201C690.907 503.769 702.682 501.931 715.151 500.851C727.611 499.771 740.698 499.455 752.422 500.043C764.189 500.633 774.425 502.127 781.269 504.592L782.624 500.829C775.217 498.161 764.508 496.644 752.623 496.048C740.695 495.449 727.424 495.772 714.806 496.866C702.196 497.958 690.174 499.824 680.76 502.336C676.057 503.591 671.942 505.023 668.71 506.632C665.545 508.209 662.935 510.096 661.631 512.415L665.118 514.376ZM681.961 556.218C679.646 555.107 676.917 552.801 674.22 549.6C671.546 546.426 669.007 542.493 667.031 538.28C663.011 529.71 661.601 520.629 665.118 514.376L661.631 512.415C657.132 520.417 659.238 531.084 663.41 539.979C665.53 544.5 668.257 548.729 671.16 552.177C674.041 555.596 677.2 558.37 680.23 559.824L681.961 556.218ZM775.535 554.404C774.852 555.166 773.19 556.067 770.283 556.911C767.479 557.725 763.849 558.395 759.618 558.923C751.165 559.978 740.538 560.44 729.803 560.44C719.075 560.44 708.294 559.979 699.546 559.201C695.171 558.812 691.327 558.345 688.265 557.823C685.137 557.289 683.02 556.727 681.961 556.218L680.23 559.824C681.843 560.599 684.455 561.23 687.593 561.766C690.796 562.312 694.753 562.79 699.192 563.185C708.073 563.975 718.973 564.44 729.803 564.44C740.626 564.44 751.433 563.976 760.113 562.893C764.448 562.351 768.309 561.649 771.398 560.753C774.384 559.886 777.019 558.739 778.511 557.077L775.535 554.404Z" fill="black"/>
</g>
<path id="Path" fill-rule="evenodd" clip-rule="evenodd" d="M488 509L293 541L289 550L488 530V509Z" fill="black" stroke="black" stroke-width="4" stroke-linecap="round" stroke-linejoin="round"/>
</g>
</g>
</svg>
