<?xml version="1.0" encoding="UTF-8"?>
<svg width="206px" height="44px" viewBox="0 0 206 44" version="1.1" xmlns="http://www.w3.org/2000/svg" xmlns:xlink="http://www.w3.org/1999/xlink">
    <title>beard-7</title>
    <g id="All-customizable-items" stroke="none" stroke-width="1" fill="none" fill-rule="evenodd" stroke-linecap="round" stroke-linejoin="round">
        <g id="Beard/-7" transform="translate(-558.000000, -702.000000)" fill="#000000" stroke="#000000" stroke-width="12">
            <path d="M651.106921,708.217112 C643.242163,720.755018 634.814228,727.48805 625.823115,728.416207 C612.336446,729.808442 601.135926,726.699142 587.662471,729.083168 C578.680167,730.672519 571.053077,734.0505 564.7812,739.217112 C564.614336,727.262804 572.04428,718.587559 587.071034,713.191376 C596.791588,709.700676 608.026844,709.840979 623.035486,709.478749 C628.497372,709.346928 637.854517,708.926382 651.106921,708.217112 Z M671,708.217112 C684.252404,708.926382 693.609549,709.346928 699.071435,709.478749 C714.080077,709.840979 725.315333,709.700676 735.035887,713.191376 C750.062641,718.587559 757.492585,727.262804 757.325721,739.217112 C751.053844,734.0505 743.426754,730.672519 734.44445,729.083168 C720.970995,726.699142 709.770475,729.808442 696.283806,728.416207 C687.292693,727.48805 678.864757,720.755018 671,708.217112 Z" id="beard-7"></path>
        </g>
    </g>
</svg>