<svg width="403" height="293" viewBox="0 0 403 293" fill="none" xmlns="http://www.w3.org/2000/svg">
<path fill-rule="evenodd" clip-rule="evenodd" d="M19.7842 6C44.4509 105.333 68.1895 162 91 176L92.9079 177.167C123.534 195.823 128.186 194.826 156.716 178.95C161.244 186.656 167.339 194.429 175.238 202L176.909 203.597C203.91 229.317 216.658 237.363 238.156 239.871L250 212H278L291.871 239.739C321.383 235.576 329.896 221.137 347.53 197C353.248 189.173 357.743 180.58 360.871 171.933L365.567 172.369C380.175 173.765 390.28 175.107 393 176C406.082 180.293 373.784 231 357 249C340.216 267 310.216 287 265 287C219.784 287 132.098 276.714 61.7842 219C14.9086 180.524 -2.42477 109.524 9.78421 6H19.7842Z" fill="black" stroke="black" stroke-width="12" stroke-linecap="round" stroke-linejoin="round"/>
<path fill-rule="evenodd" clip-rule="evenodd" d="M258.276 83.0238C270.49 82.3882 263.298 94.6586 258.276 96.4956C256.833 97.0233 244.815 97.5536 235.174 98.945C211.252 102.398 177.346 107.779 175.914 106.906C173.905 105.681 174.91 103.232 181.94 97.7203C188.971 92.2091 246.062 83.6595 258.276 83.0238Z" fill="black" stroke="black" stroke-width="12" stroke-linecap="round" stroke-linejoin="round"/>
<path fill-rule="evenodd" clip-rule="evenodd" d="M293.724 83.0238C281.51 82.3882 288.702 94.6586 293.724 96.4956C295.167 97.0233 307.185 97.5536 316.826 98.945C340.748 102.398 374.654 107.779 376.086 106.906C378.095 105.681 377.09 103.232 370.06 97.7203C363.029 92.2091 305.938 83.6595 293.724 83.0238Z" fill="black" stroke="black" stroke-width="12" stroke-linecap="round" stroke-linejoin="round"/>
</svg>
