<svg width="303" height="216" viewBox="0 0 303 216" fill="none" xmlns="http://www.w3.org/2000/svg">
<path d="M170.512 10.3241L165 26.4196" stroke="black" stroke-width="20" stroke-linecap="round" stroke-linejoin="round"/>
<path d="M141 10.3241L135.487 26.4196" stroke="black" stroke-width="20" stroke-linecap="round" stroke-linejoin="round"/>
<path d="M111.487 18.6962L105.974 34.7917" stroke="black" stroke-width="20" stroke-linecap="round" stroke-linejoin="round"/>
<path d="M81.9746 26.2316L75.3593 45.5463" stroke="black" stroke-width="20" stroke-linecap="round" stroke-linejoin="round"/>
<path d="M194.488 10.3241L200 26.4196" stroke="black" stroke-width="20" stroke-linecap="round" stroke-linejoin="round"/>
<path d="M224 10.3241L229.513 26.4196" stroke="black" stroke-width="20" stroke-linecap="round" stroke-linejoin="round"/>
<path d="M253.513 18.6962L259.026 34.7917" stroke="black" stroke-width="20" stroke-linecap="round" stroke-linejoin="round"/>
<path fill-rule="evenodd" clip-rule="evenodd" d="M141 86C141 86 154.517 88.0645 167.347 88.0645C180.176 88.0645 193 86 193 86C193 86 183 93 179.747 97.4516C176.493 101.903 172.2 105 167 105C161.8 105 158.893 101.903 154.947 97.4516C151 93 141 86 141 86Z" fill="black" stroke="black" stroke-width="12" stroke-linecap="round" stroke-linejoin="round"/>
<path fill-rule="evenodd" clip-rule="evenodd" d="M6 124C6 124 16.3128 138.31 20.8686 143C31.8385 154.293 39.3662 158.334 41.0474 160C40.8463 158.731 30.8152 121.294 33.1876 116.907C33.1876 116.907 44.7137 133.238 48.5008 137.933L49.2674 138.876C53.1537 143.618 59.0748 150.33 67.0308 159.011C71.3927 161.217 75.7914 163.101 80.2271 164.664C79.8599 164.111 79.5443 163.558 79.281 163C78.1403 160.583 77.4323 156.917 77.1569 152L79.5934 153.172C88.3797 157.379 95.5434 160.589 101.085 162.802L102.423 163.329C107.294 165.225 114.161 167.653 123.023 170.611L125.311 170.12C132.277 168.616 137.793 167.323 141.861 166.24L142.913 165.956C149.162 164.25 157.368 161.639 167.53 158.125C166.973 161.094 166.315 163.579 165.558 165.58C169.576 164.642 173.593 163.576 177.605 162.383L180.88 160.263C188.49 155.317 194.294 151.385 198.295 148.465L199.158 147.831C204.272 144.045 210.842 138.73 218.866 131.887C219.952 136.704 220.825 150.212 220.533 151C243.376 139.084 274.355 116.318 297 96C296.027 103.405 277.708 161.71 218.409 193C190.032 207.973 153.175 210 102.646 210C8.28544 210 6 124 6 124Z" fill="black" stroke="black" stroke-width="12" stroke-linecap="round" stroke-linejoin="round"/>
</svg>
