<svg width="435" height="296" viewBox="0 0 435 296" fill="none" xmlns="http://www.w3.org/2000/svg">
<path fill-rule="evenodd" clip-rule="evenodd" d="M19.7842 6C43.1291 87.8164 69.7958 132.483 99.7842 140C144.767 151.275 148.784 93 182.784 74C216.784 55 273.784 77 309.784 77C345.784 77 408.703 62.7072 421.784 67C434.866 71.2928 433.106 199.47 374.784 261C343.941 288.615 331.399 288.571 273.784 289C216.17 289.429 132.098 276.714 61.7842 219C14.9086 180.524 -2.42476 109.524 9.78421 6H19.7842ZM200.784 86C183.514 98.4396 151.515 146.317 168.784 160C186.054 173.683 245.517 158 283.784 158C322.052 158 363.028 166.22 368.784 160C374.541 153.78 371.784 105 355.784 93C339.784 81 306.694 98 288.784 98C270.875 98 218.054 73.5604 200.784 86Z" fill="black"/>
<path d="M19.7842 6L25.5539 4.35371C24.8187 1.77689 22.4639 0 19.7842 0V6ZM99.7842 140L98.3254 145.82L99.7842 140ZM374.784 261L378.786 265.47C378.909 265.361 379.026 265.247 379.139 265.128L374.784 261ZM61.7842 219L57.9775 223.638L61.7842 219ZM9.78421 6V0C6.74234 0 4.18178 2.27633 3.82551 5.29727L9.78421 6ZM288.784 98V92V98ZM14.0145 7.64629C25.7517 48.7815 38.4259 80.9649 52.1412 103.938C65.7662 126.76 81.0137 141.481 98.3254 145.82L101.243 134.18C88.5662 131.002 75.4862 119.631 62.4446 97.7866C49.4932 76.0931 37.1616 45.0349 25.5539 4.35371L14.0145 7.64629ZM98.3254 145.82C110.941 148.982 121.245 147.335 129.948 142.313C138.362 137.457 144.762 129.729 150.318 121.795C153.115 117.8 155.824 113.561 158.477 109.469C161.16 105.33 163.814 101.294 166.629 97.4714C172.274 89.8056 178.294 83.3828 185.711 79.2377L179.857 68.7623C170.275 74.1172 163.043 82.1038 156.966 90.356C153.92 94.4926 151.096 98.7928 148.407 102.942C145.687 107.138 143.129 111.14 140.488 114.912C135.167 122.512 130.002 128.426 123.95 131.92C118.185 135.246 111.119 136.656 101.243 134.18L98.3254 145.82ZM185.711 79.2377C200.806 70.8023 221.717 71.1941 244.726 74.3204C256.139 75.871 267.434 77.9837 278.578 79.7827C289.54 81.5523 300.264 83 309.784 83V71C301.304 71 291.403 69.6977 280.49 67.9361C269.76 66.2038 257.929 64.004 246.342 62.4296C223.352 59.3059 198.762 58.1977 179.857 68.7623L185.711 79.2377ZM309.784 83C328.302 83 353.533 79.3428 375.204 76.3332C386.165 74.8109 396.231 73.4489 404.358 72.728C408.42 72.3677 411.88 72.1788 414.653 72.1971C417.563 72.2162 419.203 72.4676 419.913 72.7009L423.655 61.2991C421.096 60.4592 417.907 60.2182 414.732 60.1973C411.419 60.1755 407.536 60.399 403.298 60.7749C394.823 61.5267 384.457 62.9329 373.553 64.4472C351.495 67.5108 327.266 71 309.784 71V83ZM419.913 72.7009C418.666 72.2917 418.461 71.5293 418.866 72.2253C419.19 72.7839 419.647 73.8555 420.12 75.6091C421.058 79.0819 421.8 84.2219 422.17 90.8076C422.907 103.911 422.124 121.84 419.128 141.638C413.105 181.439 398.347 227.419 370.43 256.872L379.139 265.128C409.543 233.051 424.827 184.177 430.993 143.434C434.092 122.96 434.942 104.194 434.151 90.1342C433.758 83.1382 432.947 77.0793 431.705 72.4804C431.089 70.1982 430.299 68.0157 429.24 66.195C428.262 64.5117 426.537 62.2449 423.655 61.2991L419.913 72.7009ZM370.782 256.53C355.688 270.044 345.712 276.212 332.889 279.369C319.549 282.653 302.868 282.783 273.74 283L273.829 295C302.315 294.788 320.713 294.725 335.758 291.021C351.321 287.189 363.038 279.571 378.786 265.47L370.782 256.53ZM273.74 283C216.901 283.424 134.417 270.856 65.5909 214.362L57.9775 223.638C129.778 282.573 215.438 295.435 273.829 295L273.74 283ZM65.5909 214.362C21.1717 177.902 3.60048 109.662 15.7429 6.70273L3.82551 5.29727C-8.45001 109.385 8.64545 183.145 57.9775 223.638L65.5909 214.362ZM9.78421 12H19.7842V0H9.78421V12ZM197.277 81.1315C187.641 88.073 174.784 104.006 166.52 119.744C162.364 127.658 159.088 136.041 158.118 143.656C157.155 151.221 158.365 159.4 165.058 164.703L172.51 155.297C170.568 153.759 169.303 150.821 170.022 145.172C170.735 139.574 173.3 132.644 177.144 125.323C184.88 110.592 196.658 96.3666 204.291 90.8685L197.277 81.1315ZM165.058 164.703C170.925 169.351 179.516 170.986 188.341 171.452C197.422 171.931 208.047 171.212 219.015 170.101C241.4 167.832 265.046 164 283.784 164V152C264.255 152 239.035 156.01 217.805 158.162C206.965 159.26 197.094 159.897 188.973 159.468C180.596 159.026 175.278 157.49 172.51 155.297L165.058 164.703ZM283.784 164C302.602 164 322.053 166.02 337.991 167.313C345.846 167.95 352.985 168.421 358.575 168.31C361.362 168.255 364.013 168.053 366.294 167.569C368.37 167.129 371.171 166.255 373.188 164.076L364.381 155.924C364.959 155.3 365.22 155.53 363.803 155.83C362.592 156.088 360.798 156.264 358.337 156.313C353.429 156.41 346.852 155.992 338.961 155.352C323.405 154.09 303.234 152 283.784 152V164ZM373.188 164.076C375.045 162.068 375.902 159.28 376.385 157.159C376.93 154.763 377.262 151.937 377.423 148.915C377.747 142.849 377.416 135.411 376.388 127.858C375.361 120.314 373.609 112.426 370.983 105.523C368.417 98.7769 364.734 92.2121 359.384 88.2L352.184 97.8C354.835 99.7879 357.496 103.821 359.767 109.79C361.978 115.603 363.555 122.549 364.498 129.477C365.439 136.396 365.718 143.07 365.44 148.275C365.3 150.888 365.028 152.987 364.684 154.496C364.278 156.28 363.962 156.377 364.381 155.924L373.188 164.076ZM359.384 88.2C354.006 84.1663 347.527 82.8252 341.184 82.7196C334.849 82.6141 328.112 83.7331 321.712 85.1399C315.458 86.5146 308.677 88.3751 303.161 89.6963C297.301 91.0999 292.485 92 288.784 92V104C294.038 104 300.074 102.775 305.956 101.366C312.182 99.8749 318.031 98.2354 324.288 96.8601C330.399 95.5169 336.055 94.6359 340.984 94.7179C345.905 94.7998 349.563 95.8337 352.184 97.8L359.384 88.2ZM288.784 92C285.24 92 279.355 90.7189 271.476 88.5844C264.067 86.5773 254.792 83.7894 246.047 81.5265C237.16 79.2266 227.948 77.2238 219.725 76.642C211.755 76.0782 203.384 76.7328 197.277 81.1315L204.291 90.8685C206.819 89.0474 211.527 88.0921 218.878 88.6121C225.975 89.1142 234.326 90.8887 243.041 93.1438C251.899 95.4359 260.267 97.9804 268.338 100.167C275.94 102.226 283.374 104 288.784 104V92Z" fill="black"/>
</svg>
