<svg width="164" height="139" viewBox="0 0 164 139" fill="none" xmlns="http://www.w3.org/2000/svg">
<path fill-rule="evenodd" clip-rule="evenodd" d="M145 65L158 89L156.233 90.5956C127.493 116.412 104.416 130.214 87 132C69.5843 133.786 43.3052 128.7 8.16266 116.741L6 116L13 89C37 97 61 99 85 95C108.7 91.05 128.499 81.2491 144.398 65.5972L145 65ZM111 6C105 10 100.916 13.4839 98.7467 16.4516L98.1582 17.2475C95.3164 21.036 93.875 22 89 22C84.4638 22 83.1948 21.1654 80.3248 17.9972L78.9467 16.4516C76.3156 13.4839 72.3333 10 67 6C73.1137 7.33333 80.447 8 89 8C97.553 8 104.886 7.33333 111 6Z" fill="black"/>
<path d="M145 65L150.276 62.1423C149.376 60.4805 147.745 59.34 145.876 59.0642C144.006 58.7885 142.116 59.4097 140.774 60.7408L145 65ZM158 89L162.022 93.4527C164.076 91.5971 164.594 88.5766 163.276 86.1423L158 89ZM156.233 90.5956L160.243 95.0592C160.247 95.0556 160.251 95.052 160.255 95.0483L156.233 90.5956ZM8.16266 116.741L6.21838 122.417L6.22971 122.421L8.16266 116.741ZM6 116L0.192019 114.494C-0.595059 117.53 1.08871 120.66 4.05572 121.676L6 116ZM13 89L14.8974 83.3079C13.3205 82.7823 11.5962 82.9343 10.1356 83.7279C8.67509 84.5214 7.60917 85.8852 7.19202 87.4942L13 89ZM85 95L84.0136 89.0816L85 95ZM144.398 65.5972L148.607 69.8729C148.613 69.8674 148.619 69.8619 148.624 69.8564L144.398 65.5972ZM111 6L114.328 10.9923C116.728 9.39234 117.65 6.3111 116.523 3.65595C115.396 1.00079 112.54 -0.476815 109.722 0.137794L111 6ZM98.7467 16.4516L103.571 20.0187C103.578 20.0097 103.584 20.0008 103.591 19.9919L98.7467 16.4516ZM98.1582 17.2475L102.958 20.8479C102.966 20.8368 102.975 20.8257 102.983 20.8146L98.1582 17.2475ZM80.3248 17.9972L75.8465 21.9903C75.857 22.002 75.8675 22.0137 75.878 22.0254L80.3248 17.9972ZM78.9467 16.4516L74.457 20.432C74.4608 20.4362 74.4646 20.4405 74.4684 20.4447L78.9467 16.4516ZM67 6L68.2785 0.137794C65.5215 -0.463485 62.7181 0.937627 61.544 3.5036C60.3699 6.06958 61.1425 9.10691 63.4 10.8L67 6ZM139.724 67.8577L152.724 91.8577L163.276 86.1423L150.276 62.1423L139.724 67.8577ZM153.978 84.5473L152.212 86.1429L160.255 95.0483L162.022 93.4527L153.978 84.5473ZM152.224 86.1321C138.028 98.8839 125.389 108.522 114.291 115.16C103.14 121.828 93.8816 125.263 86.3878 126.031L87.6122 137.969C97.534 136.951 108.522 132.592 120.45 125.459C132.429 118.295 145.699 108.124 160.243 95.0592L152.224 86.1321ZM86.3878 126.031C70.3543 127.676 45.1354 122.985 10.0956 111.061L6.22971 122.421C41.475 134.415 68.8144 139.897 87.6122 137.969L86.3878 126.031ZM10.1069 111.065L7.94428 110.324L4.05572 121.676L6.21838 122.417L10.1069 111.065ZM11.808 117.506L18.808 90.5058L7.19202 87.4942L0.192019 114.494L11.808 117.506ZM11.1026 94.6921C35.9928 102.989 60.9821 105.086 85.9864 100.918L84.0136 89.0816C61.0179 92.9143 38.0072 91.0112 14.8974 83.3079L11.1026 94.6921ZM85.9864 100.918C110.805 96.7819 131.76 86.4585 148.607 69.8729L140.189 61.3215C125.239 76.0396 106.595 85.3181 84.0136 89.0816L85.9864 100.918ZM148.624 69.8564L149.226 69.2592L140.774 60.7408L140.172 61.338L148.624 69.8564ZM107.672 1.0077C101.538 5.09713 96.7188 9.0577 93.9024 12.9113L103.591 19.9919C105.112 17.91 108.462 14.9029 114.328 10.9923L107.672 1.0077ZM93.9221 12.8846L93.3337 13.6805L102.983 20.8146L103.571 20.0187L93.9221 12.8846ZM93.3585 13.6472C91.965 15.5048 91.563 15.726 91.4935 15.7635C91.4823 15.7695 91.4593 15.7813 91.4081 15.7982C91.3532 15.8164 91.2469 15.8466 91.0658 15.8779C90.6763 15.9452 90.0525 16 89 16V28C91.7099 28 94.5207 27.7648 97.1896 26.3254C99.77 24.9338 101.51 22.7787 102.958 20.8479L93.3585 13.6472ZM89 16C88.0219 16 87.442 15.9527 87.0786 15.8948C86.7598 15.844 86.6686 15.7943 86.6622 15.7912C86.57 15.7463 86.2149 15.5623 84.7715 13.969L75.878 22.0254C77.3047 23.6003 79.0191 25.4177 81.4129 26.5821C83.9031 27.7935 86.4665 28 89 28V16ZM84.8031 14.004L83.4249 12.4585L74.4684 20.4447L75.8465 21.9903L84.8031 14.004ZM83.4363 12.4712C80.4172 9.0659 76.0702 5.30268 70.6 1.2L63.4 10.8C68.5964 14.6973 72.2139 17.9018 74.457 20.432L83.4363 12.4712ZM65.7215 11.8622C72.3763 13.3136 80.1619 14 89 14V2C80.732 2 73.851 1.35311 68.2785 0.137794L65.7215 11.8622ZM89 14C97.8381 14 105.624 13.3136 112.278 11.8622L109.722 0.137794C104.149 1.35311 97.268 2 89 2V14Z" fill="black"/>
</svg>
