<svg width="268" height="210" viewBox="0 0 268 210" fill="none" xmlns="http://www.w3.org/2000/svg">
<path fill-rule="evenodd" clip-rule="evenodd" d="M214.921 15.7546C230.162 21.5377 239.262 32.7546 245.667 45.7546C252.073 58.7546 263.88 102.755 260.677 121.755C257.474 140.755 227.162 173 206 183C189.946 190.586 119.895 208.877 93.6771 202.755C53.8989 193.465 11.6771 177.755 6.67714 158.755C1.67714 139.755 25.6771 58.7546 35.6771 45.7546C45.5684 32.8959 59.5752 21.7818 82.9046 15.9451L83.6771 15.7546C99.0669 12.014 140.035 6.25998 160.356 6.00727C180.677 5.75455 205.428 12.1522 214.921 15.7546ZM160 22C134.859 22.3134 86.4506 33.7835 75.6771 40.7546C58.6771 51.7546 53.6771 91.7546 58.6771 106.755C63.6771 121.755 89.6771 132.755 100.677 132.755C111.677 132.755 136.677 113.755 141.677 110.755C144.95 108.791 152.078 107.47 163.063 106.792L163.677 106.755C170.937 107.421 175.769 109.755 179 113C182.231 116.245 192 133 205 133C218 133 227.732 121.755 230.935 106.755C234.138 91.7546 230.935 51.7546 220.045 40.7546C212.859 33.4946 185.141 21.6866 160 22Z" fill="black"/>
<path d="M214.921 15.7546L212.792 21.3643L214.921 15.7546ZM206 183L203.436 177.575L206 183ZM93.6771 202.755L92.3127 208.597L93.6771 202.755ZM35.6771 45.7546L40.4329 49.4128L35.6771 45.7546ZM82.9046 15.9451L81.468 10.1196C81.4615 10.1212 81.4549 10.1228 81.4484 10.1245L82.9046 15.9451ZM83.6771 15.7546L82.2601 9.9243C82.2535 9.92588 82.247 9.92748 82.2405 9.92908L83.6771 15.7546ZM75.6771 40.7546L72.4176 35.7171L75.6771 40.7546ZM141.677 110.755L144.764 115.9L141.677 110.755ZM163.063 106.792L162.702 100.802L162.693 100.803L163.063 106.792ZM163.677 106.755L164.226 100.78C163.923 100.752 163.619 100.747 163.316 100.765L163.677 106.755ZM205 133V127V133ZM220.045 40.7546L215.781 44.9757L220.045 40.7546ZM212.792 21.3643C226.138 26.4283 234.286 36.2309 240.285 48.4065L251.05 43.1026C244.238 29.2782 234.186 16.6472 217.05 10.1448L212.792 21.3643ZM240.285 48.4065C243.17 54.2617 247.6 67.9597 250.92 82.8131C252.562 90.1616 253.893 97.6195 254.619 104.337C255.355 111.148 255.425 116.817 254.761 120.757L266.594 122.752C267.531 117.192 267.326 110.236 266.549 103.047C265.762 95.7646 264.341 87.8475 262.631 80.196C259.246 65.0494 254.57 50.2474 251.05 43.1026L240.285 48.4065ZM254.761 120.757C254.146 124.404 252.1 129.214 248.657 134.775C245.268 140.249 240.756 146.082 235.633 151.716C225.291 163.093 213.037 173.038 203.436 177.575L208.564 188.425C220.125 182.962 233.608 171.784 244.513 159.788C250.014 153.737 255.003 147.32 258.86 141.092C262.663 134.951 265.607 128.605 266.594 122.752L254.761 120.757ZM203.436 177.575C196.081 181.051 175.133 187.407 152.425 192.145C141.167 194.493 129.687 196.398 119.478 197.343C109.121 198.302 100.62 198.215 95.0416 196.912L92.3127 208.597C99.8428 210.356 109.93 210.278 120.583 209.292C131.384 208.293 143.336 206.299 154.875 203.892C177.76 199.118 199.865 192.535 208.564 188.425L203.436 177.575ZM95.0416 196.912C75.3586 192.315 55.2921 186.176 39.6521 178.949C31.8238 175.332 25.3213 171.54 20.5687 167.681C15.7398 163.76 13.2658 160.215 12.4796 157.228L0.874692 160.282C2.58852 166.794 7.26722 172.338 13.0042 176.997C18.8175 181.717 26.2941 185.996 34.6185 189.843C51.284 197.543 72.2175 203.904 92.3127 208.597L95.0416 196.912ZM12.4796 157.228C12.0907 155.75 11.8824 153.138 12.0705 149.268C12.2531 145.51 12.785 140.976 13.6149 135.874C15.2737 125.678 18.0627 113.582 21.34 101.586C24.6149 89.5984 28.3453 77.8279 31.8545 68.2963C33.6103 63.5275 35.2899 59.3758 36.8086 56.0645C38.3758 52.6477 39.6158 50.475 40.4329 49.4128L30.9214 42.0963C29.2385 44.2841 27.541 47.4864 25.9012 51.0618C24.2129 54.7427 22.4159 59.2004 20.5935 64.1503C16.9465 74.0562 13.1143 86.1607 9.76425 98.4233C6.4166 110.677 3.51812 123.206 1.77062 133.947C0.897417 139.315 0.296478 144.327 0.0846043 148.686C-0.121832 152.933 0.0136108 157.009 0.874692 160.282L12.4796 157.228ZM40.4329 49.4128C49.5467 37.5649 62.4166 27.2558 84.3609 21.7657L81.4484 10.1245C56.7337 16.3078 41.5902 28.2268 30.9214 42.0963L40.4329 49.4128ZM84.3413 21.7705L85.1138 21.58L82.2405 9.92908L81.468 10.1196L84.3413 21.7705ZM85.0942 21.5848C100.089 17.9403 140.606 12.2533 160.431 12.0068L160.281 0.00773239C139.464 0.266617 98.0448 6.08773 82.2601 9.9243L85.0942 21.5848ZM160.431 12.0068C179.804 11.7659 203.794 17.9497 212.792 21.3643L217.05 10.1448C207.062 6.35483 181.55 -0.256763 160.281 0.00773239L160.431 12.0068ZM159.925 16.0005C146.726 16.165 127.856 19.2189 111.118 23.0304C102.699 24.9476 94.6815 27.0877 88.0353 29.2122C81.5853 31.2739 75.849 33.4968 72.4176 35.7171L78.9366 45.792C80.892 44.5267 85.2468 42.7017 91.689 40.6424C97.9351 38.6458 105.611 36.5917 113.783 34.7309C130.228 30.9862 148.133 28.1484 160.075 27.9995L159.925 16.0005ZM72.4176 35.7171C66.9401 39.2614 62.8308 44.8464 59.7854 50.9029C56.7106 57.0179 54.5035 64.0432 53.0523 71.0353C50.2071 84.7442 50.003 99.706 52.985 108.652L64.3692 104.857C62.3512 98.8032 62.1472 86.2649 64.8019 73.4739C66.1007 67.2159 68.0186 61.2412 70.5064 56.2937C73.0235 51.2877 75.9142 47.7477 78.9366 45.792L72.4176 35.7171ZM52.985 108.652C56.2318 118.392 65.7173 125.839 74.5595 130.65C83.5166 135.524 93.7845 138.755 100.677 138.755V126.755C96.5697 126.755 88.3377 124.485 80.2948 120.109C72.137 115.67 66.1225 110.117 64.3692 104.857L52.985 108.652ZM100.677 138.755C104.81 138.755 109.442 137.072 113.531 135.189C117.823 133.212 122.373 130.598 126.593 127.976C130.833 125.342 134.858 122.626 138.097 120.409C141.487 118.089 143.719 116.527 144.764 115.9L138.59 105.61C137.135 106.482 134.367 108.421 131.319 110.506C128.121 112.695 124.271 115.292 120.261 117.783C116.231 120.286 112.157 122.61 108.511 124.289C104.662 126.062 102.044 126.755 100.677 126.755V138.755ZM144.764 115.9C145.457 115.484 147.195 114.816 150.571 114.191C153.808 113.591 158.073 113.111 163.433 112.78L162.693 100.803C157.069 101.15 152.277 101.67 148.385 102.392C144.633 103.087 141.17 104.062 138.59 105.61L144.764 115.9ZM163.424 112.781L164.038 112.744L163.316 100.765L162.702 100.802L163.424 112.781ZM163.128 112.729C169.319 113.298 172.721 115.197 174.748 117.233L183.252 108.767C178.817 104.312 172.554 101.545 164.226 100.78L163.128 112.729ZM174.748 117.233C175.208 117.696 176.021 118.807 177.857 121.173C179.473 123.255 181.565 125.862 184.037 128.402C188.76 133.256 195.951 139 205 139V127C201.049 127 196.855 124.367 192.636 120.032C190.637 117.977 188.868 115.788 187.337 113.815C186.027 112.127 184.407 109.927 183.252 108.767L174.748 117.233ZM205 139C222.058 139 233.31 124.365 236.803 108.007L225.067 105.502C222.154 119.144 213.942 127 205 127V139ZM236.803 108.007C238.61 99.5405 238.523 85.0115 236.722 71.4638C235.81 64.6036 234.426 57.731 232.502 51.7589C230.632 45.9522 228.037 40.2988 224.31 36.5334L215.781 44.9757C217.499 46.7103 219.387 50.1819 221.08 55.4378C222.72 60.5281 223.978 66.6555 224.827 73.0453C226.549 85.9976 226.462 98.9687 225.067 105.502L236.803 108.007ZM224.31 36.5334C221.881 34.0806 218.178 31.6447 213.979 29.4169C209.674 27.1334 204.465 24.8686 198.729 22.871C187.304 18.8925 173.38 15.8328 159.925 16.0005L160.075 27.9995C171.761 27.8539 184.266 30.5414 194.782 34.2035C200.016 36.0262 204.656 38.0551 208.355 40.0176C212.16 42.0359 214.616 43.7985 215.781 44.9757L224.31 36.5334Z" fill="black"/>
</svg>
