<svg width="527" height="436" viewBox="0 0 527 436" fill="none" xmlns="http://www.w3.org/2000/svg">
<path fill-rule="evenodd" clip-rule="evenodd" d="M313.545 7.01249C313.545 7.01249 251.5 38.6394 242.545 45.0125C279.545 20.0125 365.545 33.0125 365.545 33.0125C365.545 33.0125 287.932 51.6298 279.205 59.5121C279.205 59.5121 291.545 45.0125 329.545 45.0125C367.545 45.0125 412.545 64.0125 412.545 64.0125C412.545 64.0125 302.892 88.6133 287.762 108.11C286.123 110.221 320 89.0004 366 89.0004C412 89.0004 464 64.0004 464 64.0004C464 64.0004 435.829 100.943 421 108C386.422 124.455 377.358 116.795 366 127C374.504 121.686 413.545 119.012 430 121C446.455 122.988 471 114 471 114C471 114 454.315 141.83 436 145C478.964 163.258 482 167 497 191C512 215 520.805 292 520.805 292C520.805 292 504.365 274.07 496.687 266.187C500.667 303.004 495.59 336.942 481.458 368C481.998 340.779 478.555 311.785 471.13 281.019C466.583 262.181 461 235 446.248 220.855C431.496 206.71 366 185 287 185C208 185 162.104 205.958 146 203C138.393 201.603 127.492 207.444 113.296 220.523L114.068 223.708C122.266 257.686 126.365 280.363 126.365 291.739C126.365 303.233 117.924 347.725 101.044 425.215L100 430L62.1167 339.825H21.1458C5.7805 282.748 2.10619 243.653 10.1229 222.543C18.1395 201.432 56.047 172.666 40 185C34 115 62 88.0004 126 45.0004C190 2.00035 313.545 7.01249 313.545 7.01249Z" fill="black" stroke="black" stroke-width="12" stroke-linecap="round" stroke-linejoin="round"/>
</svg>
