<svg width="502" height="414" viewBox="0 0 502 414" fill="none" xmlns="http://www.w3.org/2000/svg">
<path fill-rule="evenodd" clip-rule="evenodd" d="M278 6L262.944 24.1672C302.315 9.38905 335 16 377 44C440 86 435 114 454 139C466.667 155.667 480.667 168.333 496 177C496 177 442.001 171.452 428.769 168.145L428.288 168.024C414.115 164.421 397.105 154.882 377.257 139.407L381.113 143.676C392.226 155.896 401.201 165.043 408.038 171.118C415.648 177.88 447.55 191.841 461 199C461 199 405 195 379.285 180.18C353.571 165.36 328.198 145.866 308 141C304.218 140.089 299.105 139.179 293.065 138.407L294.454 140.861C304.848 159.356 317.419 184.126 339 198C357.667 210 376.667 217.333 396 220C354.448 214.431 323.115 196.765 302 167C294.977 157.101 287.193 147.101 278.647 137.002C251.805 135.135 216.078 136.605 192.704 148.632L189.959 150.071C156.61 167.405 122.806 177.43 113.296 198.522C98.0323 232.374 113 251.408 113 269L112.995 269.737L112.98 270.53L112.957 271.382C112.513 285.298 108.679 326.294 101.453 394.371L100 408L62.1167 317.825H21.1458C5.7805 260.747 2.10619 221.653 10.1229 200.542C14.0741 190.137 24.4847 173.339 41.2597 155.225C38.179 142.659 37.2817 131.973 38.5688 123.165C40.7974 107.915 51.5976 84.4549 70.9696 52.7838V79.0802C99.1503 51.5827 127.771 33.2783 156.832 24.1672C185.892 15.056 226.282 9.00026 278 6Z" fill="black" stroke="black" stroke-width="12" stroke-linecap="round" stroke-linejoin="round"/>
</svg>
