<svg width="547" height="451" viewBox="0 0 547 451" fill="none" xmlns="http://www.w3.org/2000/svg">
<path fill-rule="evenodd" clip-rule="evenodd" d="M229 6L231.761 7.99836C276.441 40.4009 300.685 61.1706 304.494 70.3074L304.616 70.617L304.655 70.2431C305.573 61.1123 306.022 53.6979 306 48L305.99 47.0596C305.902 41.6391 305.239 32.9526 304 21L305.194 21.9519C322.921 36.1806 332.523 48.1966 334 58C337.538 81.4854 330.321 102.617 324.186 110.757L324 111C322.362 113.111 342 94 347 71C350.333 55.6667 350.333 43 347 33C377.892 42.9708 394.892 56.9708 398 75C401.265 93.9388 401.332 112.238 398.2 129.897L398.002 130.988L398.143 130.303C402.934 107.434 416.22 96 438 96C460 96 482.667 105 506 123L504.544 123.641C489.175 130.441 478.994 135.894 474 140C468.85 144.234 464.517 150.901 461 160L463.929 159.684C476.819 158.257 485.751 156.726 490.728 155.091L491 155C506.61 149.704 525.035 159.638 524 160C504 167 497 191 504 200C508.667 206 521 210.333 541 213C510.125 239.791 487.791 248.458 474 239C453.313 224.813 453.135 207.865 433 206C408.26 203.709 418.554 239 375 239C337.396 239 302.495 222.453 266 215C226.629 206.96 187.054 207.523 177.544 206.09L177 206C169.393 204.603 152.492 222.444 138.296 235.522L139.068 238.707L140.032 242.731C147.587 274.482 151.365 295.818 151.365 306.739C151.365 318.233 142.924 362.725 126.044 440.214L125 445L87.1167 354.825H46.1458C31.1113 298.976 27.2698 260.345 34.6213 238.931C23.7655 228.546 14.2251 208.901 6 180C22.2855 188.391 39.4259 191.82 57.4215 190.286C48.5709 178.812 45.2808 159.929 47.5503 133.639C54.5647 141.119 62.4018 147.588 71.0616 153.045C85.3253 115.452 119.22 94.9531 134 75C147.333 57 149 39 139 21C195.667 29.6667 229 39.3333 239 50C240.333 36.6667 237 22 229 6ZM304.616 70.617L304.57 71.0779L304.331 73.3503C304.29 73.7346 304.248 74.1218 304.205 74.5117C305.092 73.711 305.261 72.502 304.713 70.8847L304.616 70.617Z" fill="black"/>
<path d="M229 6L232.518 1.13952C230.279 -0.48085 227.223 -0.362431 225.117 1.42632C223.01 3.21508 222.398 6.21142 223.633 8.68328L229 6ZM231.761 7.99836L235.284 3.14121L235.279 3.13788L231.761 7.99836ZM304.494 70.3074L310.079 68.1134C310.064 68.0749 310.048 68.0366 310.032 67.9984L304.494 70.3074ZM304.616 70.617L299.031 72.8109C300.043 75.3859 302.684 76.9354 305.425 76.5621C308.167 76.1889 310.297 73.9898 310.584 71.2381L304.616 70.617ZM304.655 70.2431L310.623 70.8642C310.623 70.8574 310.624 70.8505 310.625 70.8437L304.655 70.2431ZM306 48L312 47.977C312 47.9641 312 47.9512 312 47.9383L306 48ZM305.99 47.0596L311.99 46.9979C311.99 46.9859 311.99 46.9739 311.99 46.9619L305.99 47.0596ZM304 21L307.74 16.3086C305.851 14.8019 303.241 14.5762 301.121 15.7359C299 16.8956 297.783 19.2144 298.032 21.6184L304 21ZM305.194 21.9519L308.95 17.2727C308.944 17.2686 308.939 17.2645 308.934 17.2604L305.194 21.9519ZM334 58L339.933 57.1063L334 58ZM324.186 110.757L328.952 114.402C328.96 114.391 328.969 114.38 328.977 114.369L324.186 110.757ZM324 111L328.74 114.679C328.749 114.667 328.758 114.656 328.766 114.645L324 111ZM347 71L352.863 72.2746L347 71ZM347 33L348.843 27.2901C346.69 26.5952 344.329 27.1703 342.737 28.7776C341.145 30.385 340.592 32.7511 341.308 34.8974L347 33ZM398 75L392.087 76.0194L398 75ZM398.2 129.897L404.104 130.968C404.105 130.96 404.106 130.953 404.108 130.945L398.2 129.897ZM398.002 130.988L392.098 129.917C391.512 133.151 393.636 136.255 396.863 136.879C400.09 137.503 403.218 135.415 403.879 132.195L398.002 130.988ZM398.143 130.303L392.27 129.073C392.268 129.081 392.267 129.089 392.265 129.096L398.143 130.303ZM506 123L508.419 128.491C510.356 127.637 511.7 125.826 511.956 123.725C512.212 121.623 511.341 119.542 509.665 118.249L506 123ZM504.544 123.641L502.125 118.151L502.116 118.154L504.544 123.641ZM474 140L470.189 135.365L474 140ZM461 160L455.404 157.837C454.649 159.789 454.966 161.993 456.24 163.653C457.515 165.313 459.562 166.19 461.643 165.965L461 160ZM463.929 159.684L464.572 165.65C464.578 165.649 464.584 165.649 464.59 165.648L463.929 159.684ZM490.728 155.091L492.6 160.791C492.609 160.788 492.618 160.785 492.627 160.782L490.728 155.091ZM491 155L492.9 160.691C492.909 160.688 492.918 160.685 492.928 160.682L491 155ZM524 160L522.018 154.337L524 160ZM504 200L508.736 196.316L504 200ZM541 213L544.932 217.532C546.714 215.985 547.425 213.538 546.748 211.278C546.07 209.018 544.132 207.364 541.793 207.053L541 213ZM474 239L470.607 243.948L474 239ZM433 206L433.553 200.026L433 206ZM266 215L264.8 220.879L266 215ZM177.544 206.09L176.562 212.009C176.592 212.014 176.621 212.019 176.65 212.023L177.544 206.09ZM177 206L175.916 211.901C175.95 211.908 175.984 211.913 176.018 211.919L177 206ZM138.296 235.522L134.23 231.11C132.627 232.587 131.951 234.818 132.465 236.936L138.296 235.522ZM139.068 238.707L144.903 237.309C144.902 237.304 144.9 237.299 144.899 237.293L139.068 238.707ZM140.032 242.731L145.869 241.342L145.867 241.332L140.032 242.731ZM151.365 306.739H157.365H151.365ZM126.044 440.214L131.906 441.493L131.907 441.492L126.044 440.214ZM125 445L119.468 447.324C120.482 449.736 122.942 451.214 125.548 450.975C128.154 450.736 130.304 448.836 130.862 446.279L125 445ZM87.1167 354.825L92.6483 352.501C91.7127 350.274 89.5325 348.825 87.1167 348.825V354.825ZM46.1458 354.825L40.352 356.385C41.0573 359.004 43.4327 360.825 46.1458 360.825V354.825ZM34.6213 238.931L40.2962 240.879C41.056 238.666 40.4598 236.213 38.7689 234.595L34.6213 238.931ZM6 180L8.74812 174.666C6.62225 173.571 4.04891 173.843 2.19864 175.358C0.348379 176.873 -0.425451 179.342 0.229147 181.642L6 180ZM57.4215 190.286L57.931 196.264C60.1186 196.078 62.0297 194.711 62.9137 192.701C63.7976 190.692 63.5133 188.36 62.1723 186.621L57.4215 190.286ZM47.5503 133.639L51.927 129.535C50.3072 127.807 47.8231 127.194 45.5857 127.97C43.3483 128.745 41.7761 130.764 41.5725 133.123L47.5503 133.639ZM71.0616 153.045L67.8627 158.121C69.3855 159.081 71.2587 159.306 72.9656 158.735C74.6725 158.164 76.0329 156.857 76.6714 155.174L71.0616 153.045ZM134 75L138.821 78.5714L134 75ZM139 21L139.907 15.069C137.644 14.7229 135.382 15.6946 134.074 17.574C132.767 19.4533 132.643 21.9127 133.755 23.9139L139 21ZM239 50L234.623 54.1036C236.232 55.8205 238.697 56.4379 240.926 55.6826C243.155 54.9272 244.736 52.9387 244.97 50.597L239 50ZM304.616 70.617L310.256 68.5704C309.301 65.9374 306.651 64.3158 303.871 64.6634C301.092 65.0109 298.923 67.2352 298.646 70.0224L304.616 70.617ZM304.57 71.0779L310.537 71.705C310.538 71.6942 310.539 71.6834 310.541 71.6726L304.57 71.0779ZM304.331 73.3503L310.297 73.9919C310.297 73.9871 310.298 73.9822 310.298 73.9774L304.331 73.3503ZM304.205 74.5117L298.241 73.856C297.969 76.3321 299.255 78.7188 301.472 79.8533C303.69 80.9878 306.378 80.6341 308.227 78.9644L304.205 74.5117ZM304.713 70.8847L310.396 68.9598C310.382 68.9191 310.368 68.8785 310.353 68.8381L304.713 70.8847ZM225.482 10.8605L228.243 12.8588L235.279 3.13788L232.518 1.13952L225.482 10.8605ZM228.239 12.8555C250.527 29.0194 267.608 42.2033 279.55 52.4341C285.526 57.5534 290.13 61.8611 293.43 65.3785C296.857 69.0317 298.444 71.3863 298.956 72.6163L310.032 67.9984C308.64 64.66 305.768 60.9922 302.182 57.1687C298.468 53.2095 293.504 48.5865 287.358 43.3209C275.055 32.782 257.675 19.3799 235.284 3.14121L228.239 12.8555ZM298.91 72.5013L299.031 72.8109L310.201 68.423L310.079 68.1134L298.91 72.5013ZM310.584 71.2381L310.623 70.8642L298.687 69.622L298.648 69.9959L310.584 71.2381ZM310.625 70.8437C311.553 61.6141 312.023 53.9694 312 47.977L300 48.023C300.021 53.4265 299.594 60.6105 298.685 69.6426L310.625 70.8437ZM312 47.9383L311.99 46.9979L299.991 47.1213L300 48.0617L312 47.9383ZM311.99 46.9619C311.897 41.2606 311.208 32.3513 309.968 20.3816L298.032 21.6184C299.269 33.5539 299.907 42.0176 299.991 47.1573L311.99 46.9619ZM300.26 25.6914L301.453 26.6433L308.934 17.2604L307.74 16.3086L300.26 25.6914ZM301.438 26.631C310.105 33.5871 316.575 39.8386 321.004 45.381C325.478 50.98 327.55 55.459 328.067 58.8937L339.933 57.1063C338.974 50.7376 335.506 44.3069 330.378 37.8898C325.205 31.4162 318.01 24.5453 308.95 17.2727L301.438 26.631ZM328.067 58.8937C329.709 69.795 328.856 80.1841 326.874 88.7855C324.865 97.4979 321.8 103.955 319.394 107.146L328.977 114.369C332.707 109.42 336.317 101.241 338.567 91.4807C340.842 81.6099 341.829 69.6904 339.933 57.1063L328.067 58.8937ZM319.419 107.113L319.234 107.355L328.766 114.645L328.952 114.402L319.419 107.113ZM319.26 107.321C319.188 107.414 319.083 107.554 318.969 107.722C318.902 107.82 318.63 108.22 318.393 108.772C318.301 108.988 317.982 109.739 317.916 110.764C317.85 111.787 318.031 114.698 320.911 116.358C323.104 117.621 325.168 117.036 325.491 116.949C326.129 116.775 326.594 116.533 326.776 116.435C327.422 116.088 327.903 115.665 327.938 115.636C328.111 115.49 328.276 115.34 328.416 115.209C328.965 114.694 329.734 113.904 330.635 112.915C332.465 110.906 335.069 107.82 337.877 103.927C343.435 96.2214 350.115 84.9175 352.863 72.2746L341.137 69.7254C338.885 80.0825 333.246 89.8343 328.144 96.9067C325.623 100.402 323.311 103.136 321.764 104.835C320.975 105.7 320.441 106.237 320.21 106.453C320.155 106.504 320.157 106.5 320.204 106.461C320.226 106.442 320.292 106.386 320.391 106.313C320.447 106.27 320.71 106.072 321.091 105.867C321.259 105.777 321.712 105.54 322.342 105.369C322.655 105.284 324.713 104.699 326.901 105.96C329.777 107.617 329.956 110.523 329.891 111.539C329.825 112.556 329.509 113.297 329.422 113.501C329.196 114.028 328.944 114.392 328.908 114.445C328.825 114.568 328.761 114.652 328.74 114.679L319.26 107.321ZM352.863 72.2746C356.321 56.3669 356.494 42.5074 352.692 31.1026L341.308 34.8974C344.173 43.4926 344.345 54.9665 341.137 69.7254L352.863 72.2746ZM345.157 38.7099C375.611 48.5396 389.586 61.5097 392.087 76.0194L403.913 73.9806C400.197 52.4319 380.172 37.4019 348.843 27.2901L345.157 38.7099ZM392.087 76.0194C395.243 94.3232 395.294 111.921 392.292 128.849L404.108 130.945C407.369 112.555 407.288 93.5543 403.913 73.9806L392.087 76.0194ZM392.296 128.826L392.098 129.917L403.906 132.059L404.104 130.968L392.296 128.826ZM403.879 132.195L404.02 131.511L392.265 129.096L392.125 129.781L403.879 132.195ZM404.015 131.534C406.23 120.962 410.259 113.733 415.615 109.124C420.923 104.554 428.186 102 438 102V90C426.034 90 415.764 93.1628 407.787 100.028C399.857 106.853 394.847 116.776 392.27 129.073L404.015 131.534ZM438 102C458.287 102 479.697 110.287 502.335 127.751L509.665 118.249C485.636 99.7129 461.713 90 438 90V102ZM503.581 117.509L502.125 118.151L506.963 129.132L508.419 128.491L503.581 117.509ZM502.116 118.154C486.797 124.932 475.897 130.672 470.189 135.365L477.811 144.635C482.09 141.116 491.553 135.95 506.972 129.128L502.116 118.154ZM470.189 135.365C463.956 140.491 459.132 148.19 455.404 157.837L466.596 162.163C469.902 153.611 473.745 147.978 477.811 144.635L470.189 135.365ZM461.643 165.965L464.572 165.65L463.287 153.719L460.357 154.035L461.643 165.965ZM464.59 165.648C477.464 164.222 486.965 162.643 492.6 160.791L488.855 149.391C484.538 150.809 476.173 152.292 463.269 153.721L464.59 165.648ZM492.627 160.782L492.9 160.691L489.1 149.309L488.828 149.4L492.627 160.782ZM492.928 160.682C499.066 158.599 506.181 159.43 512.068 161.14C514.942 161.975 517.309 162.957 518.824 163.704C519.61 164.091 520.032 164.348 520.146 164.426C520.295 164.527 519.936 164.313 519.504 163.832C519.45 163.771 518.428 162.718 518.126 160.948C517.933 159.814 518.017 158.203 519.025 156.673C519.971 155.239 521.254 154.604 522.018 154.337L525.982 165.663C526.778 165.385 528.084 164.734 529.043 163.279C530.065 161.729 530.154 160.093 529.955 158.929C529.643 157.101 528.575 155.973 528.438 155.82C527.843 155.156 527.179 154.696 526.893 154.502C526.136 153.988 525.167 153.451 524.127 152.939C521.991 151.887 518.97 150.649 515.415 149.616C508.446 147.593 498.543 146.105 489.072 149.318L492.928 160.682ZM522.018 154.337C510.152 158.49 502.262 167.638 498.347 176.918C496.386 181.566 495.34 186.428 495.359 190.963C495.379 195.429 496.446 200.06 499.264 203.684L508.736 196.316C508.054 195.44 507.371 193.696 507.359 190.912C507.348 188.197 507.989 184.934 509.403 181.582C512.238 174.862 517.848 168.51 525.982 165.663L522.018 154.337ZM499.264 203.684C502.649 208.036 508.199 211.105 514.761 213.411C521.465 215.766 529.994 217.586 540.207 218.947L541.793 207.053C532.006 205.748 524.369 204.067 518.739 202.089C512.968 200.062 510.018 197.964 508.736 196.316L499.264 203.684ZM537.068 208.468C521.837 221.684 509.147 230.032 498.923 234C488.746 237.949 482.02 237.224 477.393 234.052L470.607 243.948C479.772 250.234 491.108 249.904 503.264 245.187C515.374 240.488 529.288 231.107 544.932 217.532L537.068 208.468ZM477.393 234.052C467.939 227.568 463.395 220.7 457.922 214.063C455.239 210.807 452.219 207.504 448.274 204.925C444.228 202.281 439.491 200.575 433.553 200.026L432.447 211.974C436.576 212.357 439.413 213.469 441.709 214.97C444.106 216.537 446.2 218.707 448.663 221.696C453.486 227.545 459.374 236.245 470.607 243.948L477.393 234.052ZM433.553 200.026C425.652 199.294 419.967 201.657 415.528 205.807C413.478 207.722 411.801 209.915 410.346 211.992C409.614 213.037 408.896 214.114 408.211 215.142C407.512 216.19 406.839 217.199 406.136 218.205C403.352 222.19 400.373 225.72 395.908 228.354C391.47 230.973 385.052 233 375 233V245C386.725 245 395.353 242.615 402.007 238.689C408.635 234.778 412.795 229.628 415.974 225.077C416.762 223.948 417.506 222.832 418.195 221.799C418.896 220.747 419.536 219.789 420.174 218.877C421.46 217.043 422.577 215.643 423.722 214.573C425.672 212.75 427.978 211.561 432.447 211.974L433.553 200.026ZM375 233C357.043 233 339.559 229.049 321.711 224.02C304.115 219.061 285.73 212.905 267.2 209.121L264.8 220.879C282.765 224.547 300.078 230.391 318.457 235.57C336.584 240.678 355.353 245 375 245V233ZM267.2 209.121C247.132 205.023 227.09 203.132 210.964 202.08C202.9 201.555 195.769 201.237 190.131 200.963C184.325 200.682 180.441 200.459 178.438 200.157L176.65 212.023C179.403 212.438 184.031 212.682 189.551 212.949C195.238 213.225 202.245 213.537 210.184 214.055C226.065 215.09 245.496 216.937 264.8 220.879L267.2 209.121ZM178.526 200.171L177.982 200.081L176.018 211.919L176.562 212.009L178.526 200.171ZM178.084 200.099C173.88 199.327 169.72 201.247 166.713 203.004C163.378 204.952 159.792 207.729 156.228 210.765C149.18 216.768 141.054 224.823 134.23 231.11L142.361 239.935C149.733 233.143 157.155 225.738 164.009 219.9C167.396 217.016 170.349 214.778 172.766 213.365C175.512 211.761 176.316 211.975 175.916 211.901L178.084 200.099ZM132.465 236.936L133.237 240.121L144.899 237.293L144.127 234.108L132.465 236.936ZM133.233 240.106L134.197 244.129L145.867 241.332L144.903 237.309L133.233 240.106ZM134.195 244.119C141.778 275.987 145.365 296.639 145.365 306.739H157.365C157.365 294.997 153.396 272.976 145.869 241.342L134.195 244.119ZM145.365 306.739C145.365 311.795 143.398 325.161 139.14 347.61C134.934 369.778 128.617 400.212 120.182 438.937L131.907 441.492C140.351 402.727 146.694 372.17 150.929 349.846C155.111 327.804 157.365 313.177 157.365 306.739H145.365ZM120.182 438.936L119.138 443.721L130.862 446.279L131.906 441.493L120.182 438.936ZM130.532 442.676L92.6483 352.501L81.585 357.149L119.468 447.324L130.532 442.676ZM87.1167 348.825H46.1458V360.825H87.1167V348.825ZM51.9395 353.265C44.4705 325.52 39.8361 302.244 37.9594 283.371C36.0714 264.385 37.0331 250.384 40.2962 240.879L28.9464 236.983C24.858 248.892 24.0647 264.913 26.0183 284.559C27.983 304.317 32.7866 328.281 40.352 356.385L51.9395 353.265ZM38.7689 234.595C29.1342 225.378 19.9425 207.071 11.7709 178.358L0.229147 181.642C8.50761 210.731 18.3967 231.713 30.4737 243.266L38.7689 234.595ZM3.25188 185.334C20.5257 194.234 38.7936 197.895 57.931 196.264L56.9119 184.307C40.0583 185.744 24.0452 182.548 8.74812 174.666L3.25188 185.334ZM62.1723 186.621C54.7454 176.993 51.2926 160.051 53.528 134.155L41.5725 133.123C39.2691 159.808 42.3964 180.631 52.6706 193.95L62.1723 186.621ZM43.1735 137.743C50.5369 145.595 58.7697 152.391 67.8627 158.121L74.2606 147.969C66.0339 142.785 58.5924 136.643 51.927 129.535L43.1735 137.743ZM76.6714 155.174C83.3713 137.516 94.7434 123.696 106.617 111.613C112.61 105.514 118.49 100.088 124.114 94.6323C129.616 89.2951 134.813 83.9832 138.821 78.5714L129.179 71.4286C125.797 75.9934 121.215 80.7263 115.759 86.0193C110.425 91.1937 104.168 96.9834 98.0575 103.202C85.7227 115.755 73.0157 130.982 65.4519 150.917L76.6714 155.174ZM138.821 78.5714C145.986 68.8995 150.268 58.8795 151.224 48.5532C152.184 38.1884 149.747 27.9902 144.245 18.0861L133.755 23.9139C138.253 32.0098 139.983 39.8116 139.276 47.4468C138.565 55.1205 135.348 63.1005 129.179 71.4286L138.821 78.5714ZM138.093 26.931C166.311 31.2467 188.521 35.7834 204.829 40.5126C212.983 42.8772 219.538 45.2552 224.576 47.6193C229.687 50.0174 232.869 52.2333 234.623 54.1036L243.377 45.8964C240.131 42.4334 235.396 39.4409 229.674 36.7558C223.879 34.0365 216.684 31.4562 208.171 28.9874C191.145 24.0499 168.356 19.4199 139.907 15.069L138.093 26.931ZM244.97 50.597C246.448 35.8161 242.708 20 234.367 3.31672L223.633 8.68328C231.292 24 234.218 37.5172 233.03 49.403L244.97 50.597ZM298.646 70.0224L298.6 70.4833L310.541 71.6726L310.586 71.2116L298.646 70.0224ZM298.603 70.4509L298.364 72.7232L310.298 73.9774L310.537 71.705L298.603 70.4509ZM298.366 72.7087C298.325 73.0883 298.283 73.4707 298.241 73.856L310.169 75.1674C310.212 74.7729 310.255 74.381 310.297 73.9919L298.366 72.7087ZM308.227 78.9644C311.637 75.8844 311.326 71.7059 310.396 68.9598L299.03 72.8096C299.117 73.0641 298.969 72.7883 299.055 72.1719C299.101 71.8418 299.211 71.4489 299.424 71.0438C299.638 70.6371 299.908 70.3074 300.183 70.059L308.227 78.9644ZM310.353 68.8381L310.256 68.5704L298.976 72.6636L299.073 72.9313L310.353 68.8381Z" fill="black"/>
</svg>
