<svg width="545" height="457" viewBox="0 0 545 457" fill="none" xmlns="http://www.w3.org/2000/svg">
<path fill-rule="evenodd" clip-rule="evenodd" d="M258 20C272 22.6667 281.667 26.6667 287 32C292.333 37.3333 296.667 46.6667 300 60C300 60 316 39 318 34C320 29 320 6 320 6C320 6 328.605 12.5183 330 23C331.395 33.4817 329.813 33.1386 328 45C338.667 50.3333 349.121 45.0134 355.788 39.0134C362.455 33.0134 366.788 25.6801 368.788 17.0134C375.017 20.8345 379.683 25.1678 382.788 30.0134C385.893 34.859 389.153 42.8961 392.567 54.1247C399.419 51.1411 403.949 48.2073 406.159 45.3232C408.368 42.4391 409.967 37.3715 410.956 30.1206C412.787 34.2106 413.853 37.4111 414.154 39.7222C414.455 42.0334 412.212 67.7837 411 77C416.536 75.1038 420.703 74.8975 426 71C433.333 65.6049 439 57 439 57C439 57 439.85 71.4282 439 81C438.15 90.5718 434.141 111.734 434.141 111.734C434.141 111.734 465.918 106.132 468.788 93.0134C470.702 84.2676 468.247 75.5875 457 71C471 71 479.471 73.2688 486.108 80.5292C496.064 91.4197 491.788 105.013 484.788 114.013C480.121 120.013 474.788 124.347 468.788 127.013C483.943 130.967 493.563 129.71 497.646 123.244L497.788 123.013C501.788 116.347 510.121 108.68 522.788 100.013L522.449 101.898C517.014 132.438 516.359 151.186 520.486 158.142C520.486 158.142 526.952 154.462 529 152C534.369 145.546 535.669 141.497 535 148C533.575 161.855 521.832 181.38 514.102 186.538C509.593 189.546 502.502 191.556 492.828 192.567C491.847 194.597 490.809 196.567 489.717 198.478C492.235 204.042 498.663 206.216 509 205C522.262 203.439 532.262 196.106 539 183C539 195.667 533.333 207 522 217L520.985 217.89C504.483 232.271 491.694 238.784 468 234C463.85 233.162 460.25 232.092 457.2 230.79C449.672 234.987 441.271 238.25 432 240.579L429.953 241.088C420.406 243.438 406.404 246.562 390.009 249.474C388.179 254.121 386.083 258.012 382 260C375.181 263.32 364.383 261.75 349.605 255.288C347.208 255.546 344.797 255.789 342.377 256.014L340.958 256.875C329.06 264.16 323.408 269.201 324 272C325.225 277.788 334.892 281.788 353 284L351.263 284.404C335.757 287.961 323.67 289.494 315 289C306.009 288.488 296.158 285.54 285.447 280.154L283.835 280.692C272.795 284.416 266.85 287.185 266 289C263.814 293.668 262.147 298.335 261 303L229.482 280.154C221.649 279.633 212.821 276.915 203 272C193.179 267.085 186.549 262.069 183.112 256.95C165.497 261.117 155.104 266.185 151.932 272.153C147.174 281.105 143.432 282.597 155 288C162.712 291.602 173.905 291.602 188.579 288L187.239 289.008C172.585 299.948 157.678 300.443 146 299C134.322 297.557 122.999 285.606 122.999 285.606L123.407 287.845C125.379 298.861 126.365 307.159 126.365 312.739C126.365 324.233 117.924 368.725 101.044 446.214L100 451L62.1167 360.825H21.1458C5.7805 303.747 2.10619 264.653 10.1229 243.542C17.9513 222.927 37.8837 207.158 69.9202 196.236L68 193C60.2314 179.602 73.5123 175.865 77.8428 153.79C82.1733 131.715 91.7881 139.013 106.788 119.013C106.788 119.013 127 91 167 71C207 51 238.651 61.5268 255.788 60.0134C272.926 58.5 277 68 277 49C277 36.3333 270.667 26.6667 258 20Z" fill="black" stroke="black" stroke-width="12" stroke-linecap="round" stroke-linejoin="round"/>
</svg>
