<svg width="484" height="412" viewBox="0 0 484 412" fill="none" xmlns="http://www.w3.org/2000/svg">
<path fill-rule="evenodd" clip-rule="evenodd" d="M233 6C264.508 18.4718 299.59 28.322 339.268 39.5531C378.946 50.7842 405.888 71.9695 434 99C486 149 480.942 235.288 473 244C471.601 245.535 455.325 214.054 434 195L432.615 193.77C409.806 173.637 378.02 151.454 376 153C353.677 170.084 361.675 171.273 329 178C295 185 283.626 175.652 237 167C184.977 161.003 151.977 167.003 138 185C114.296 215.522 126.365 250.147 126.365 267.739C126.365 279.233 117.924 323.725 101.044 401.214L100 406L62.1167 315.825H21.1458C5.7805 258.747 2.10619 219.653 10.1229 198.542L10.8704 196.586L11.655 194.563C13.5485 189.724 21.9969 183.536 37 176L36.9379 174.117C36.4124 156.678 37.3884 143.143 39.8658 133.512L40 133C43.0468 121.574 56.5168 80.262 122.884 53.9348L100.282 34.1253C99.8565 33.7516 99.429 33.3765 99 33L100.925 32.9415C126.744 32.2035 145.769 33.5564 158 37C161.172 37.8931 164.481 39.0941 167.927 40.6028C171.049 39.9404 174.248 39.3069 177.525 38.7048L149.064 11.6102L152.214 11.7767C181.35 13.3588 203.109 15.7288 217.49 18.8869L218 19C227.813 21.1947 240.255 25.1406 255.325 30.8378C259.184 30.7309 262.95 30.6788 266.631 30.6781L233 6Z" fill="black" stroke="black" stroke-width="12" stroke-linecap="round" stroke-linejoin="round"/>
</svg>
