<svg width="684" height="801" viewBox="0 0 684 801" fill="none" xmlns="http://www.w3.org/2000/svg">
<path fill-rule="evenodd" clip-rule="evenodd" d="M455.5 10C496.093 10 529 40.0264 529 82L528.997 82.645C531.603 82.2198 534.277 82 537 82C565.167 82 590 96 612 139C634 182 623 201 634 214C645 227 662 233 670 259C678 285 657.241 275.298 658 316C658.54 344.967 674 332 674 383C674 401.647 661.419 426.857 663 455C665.742 503.831 685 495 674 536C663 577 562 578 562 578C562 578 614.427 426.662 610 387C605.573 347.338 588 264 588 264C588 264 571 234 544 234C517 234 530.707 194 501 194C479 194 457 227 457 227C457 227 440 194 415 194C390 194 375 200 352 227C329 254 292.813 249.582 285 264C275.328 281.849 305 306 285 322C265 338 238 299 230 313C222 327 206 370 206 370C206 370 203 351 189 336C175 321 80 332 80 400C80 468 170 479 170 479C178.734 497.3 198.173 522.65 230 556C249.189 576.107 301 607 301 607C301 607 294.439 661.974 292 681C289.857 697.712 261.356 732.144 219 745C203.306 749.763 176.64 743.763 137 739C137 739 124 749 124 758C124 767 136.5 781.128 153 780C137.75 788.846 122.417 793.513 107 794C91.8739 794.478 75.5448 791.599 58.0128 785.363L57 785L56.9858 784.931C35.8395 780.342 20 761.521 20 739C20 719.068 32.4075 702.034 49.9202 695.2C51.1753 692.563 51.8684 689.83 52 687C52.1437 683.911 51.6232 680.604 50.4385 677.078C36.9773 668.812 28 653.954 28 637C28 620.808 36.1878 606.529 48.6489 598.076C48.9675 595.645 6 564 6 536C6 508 23.9271 502.836 24 491C24.1552 465.814 9.92272 462.541 13 441C16 420 35.6518 409.114 38 398C43.6151 371.424 36.4091 333.818 38 322C45 270 88.2253 243.707 87 243C63.5637 229.469 80 194 91 182C102 170 128.64 160.956 140 156C138.038 135.821 139 102 158 83C177 64 198.303 58.4537 230.365 63.8638C234.538 31.4343 274.419 6 323 6C354.538 6 382.41 16.719 399.226 33.1124C412.706 16.5348 432.913 10 455.5 10Z" fill="black" stroke="black" stroke-width="12" stroke-linecap="round" stroke-linejoin="round"/>
</svg>
