<svg width="774" height="846" viewBox="0 0 774 846" fill="none" xmlns="http://www.w3.org/2000/svg">
<path fill-rule="evenodd" clip-rule="evenodd" d="M403 11.9999C258 40.9999 187.651 169.553 157 243C126.349 316.447 126 470 126 596C126 722 6 840 6 840H296C296 840 395.049 626.694 364 596C332.951 565.306 256 479 256 479C256 479 176 465 176 399C176 333 230 326 255 326C280 326 324 207 431 159C538 111 631.325 199.865 652 221C697 267 708 328 708 399C708 435.67 702.252 482.763 685 564C680.416 585.585 587 840 587 840H725C725 840 721.56 808.95 725 798C737.31 758.814 757.378 733.044 763 705C777.588 632.231 751.322 515.18 751 498C749.177 400.781 776.688 393.08 763 300C757.343 261.531 752.535 197.476 702 134C651.465 70.5233 608 75.9999 608 75.9999C608 75.9999 548 -17.0001 403 11.9999Z" fill="black" stroke="black" stroke-width="12" stroke-linecap="round" stroke-linejoin="round"/>
</svg>
