<svg width="607" height="695" viewBox="0 0 607 695" fill="none" xmlns="http://www.w3.org/2000/svg">
<path fill-rule="evenodd" clip-rule="evenodd" d="M290 6.99596L293.414 6.99512C318.198 7.02638 401.9 8.55022 476 57.0002C554 108 601 239 601 377C601 515 574 574.334 524 689C524 689 567 478.714 567 455C567 384 556 323 511 277C498.022 263.734 478.35 249.069 451.985 233.006C430.277 278.471 405.282 309.802 377 327C303 372 254 342 220 377C197.333 400.334 178 426.667 162 456V427L161.079 425.218C146.026 396.406 130.333 382 114 382C88.9998 382 34.9998 389 34.9998 455C34.9998 499 61.6665 525.667 115 535C128.685 562.66 144.351 585.66 162 604C174.109 616.584 34.9998 554 16.9998 455C-1.00017 356 4.66119 287.698 34.9998 215C65.6511 141.553 100.063 93.4714 161.282 53.3314C205.919 24.0641 252.049 6.99596 290 6.99596Z" fill="black" stroke="black" stroke-width="12" stroke-linecap="round" stroke-linejoin="round"/>
</svg>
