<?xml version="1.0" encoding="UTF-8"?>
<svg width="737px" height="835px" viewBox="0 0 737 835" version="1.1" xmlns="http://www.w3.org/2000/svg" xmlns:xlink="http://www.w3.org/1999/xlink">
    <title>hair-28</title>
    <g id="All-customizable-items" stroke="none" stroke-width="1" fill="none" fill-rule="evenodd" stroke-linecap="round" stroke-linejoin="round">
        <g id="Hairstyle/-28" transform="translate(-178.000000, -147.000000)" fill="#000000" stroke="#000000" stroke-width="12">
            <path d="M425,196 C369.371405,197.394264 321.704738,213.394264 282,244 C234,281 212.790628,318.280161 191,432 C159,599 246.355671,701.134025 256,759 C263.333333,803 249.666667,844.666667 215,884 C229.168594,885.535908 239.501927,885.535908 246,884 C252.498073,882.464092 260.498073,878.130759 270,871 C279.337124,874.971593 286.670457,879.304927 292,884 C297.329543,888.695073 303.99621,896.695073 312,908 C321.175649,895.20358 326.842315,888.870246 329,889 C337.337025,889.501352 351.003692,899.834686 370,920 C372.666667,905.333333 375,884 377,856 C381.08731,798.777664 371.10908,800.583946 359,788 C341.351402,769.6593 325.684735,746.6593 312,719 C258.666667,709.666667 232,683 232,639 C232,573 284,566 304,566 C324,566 380,521 400,484 C420,447 426.047642,421.940121 464,397 C499,374 545.893005,372.833094 570,379 C585.301554,382.914351 623.756286,392.061921 649,407 C694.695468,434.040495 738.610985,482.855197 745,501 C770,572 782,625 768,674 C754,723 728,772 702,797 C676,822 648,828 649,832 C650,836 652.171627,854.998729 669,864 C675.031969,867.226419 687.031969,873.893086 705,884 C705.553593,876.867438 706.22026,872.534104 707,871 C710.402492,864.30575 714.895035,863.144676 717,864 C725.989227,867.652653 717.46465,880.184372 722,889 C725.60597,896.009138 733.272637,903.675805 745,912 C743.128399,898.233341 746.795066,893.900008 756,899 C759.869726,901.144021 772.852634,925.699856 775,928 C782.361496,935.885243 795.544616,945.023979 802,949 C806.904247,952.02064 819.23758,961.02064 839,976 C859.00923,950.338628 872.00923,929.671961 878,914 C920.364208,803.174485 915.950142,695.600312 878,612 C809,460 843,407 782,298 C745.277286,232.380724 684,170 570,156 C494,146.666667 445.666667,160 425,196 Z" id="hair-28"></path>
        </g>
    </g>
</svg>