<svg width="741" height="835" viewBox="0 0 741 835" fill="none" xmlns="http://www.w3.org/2000/svg">
<path fill-rule="evenodd" clip-rule="evenodd" d="M356.999 6.99991C266.999 6.99991 130.999 103 77.9994 230C24.9994 357 -17.0674 727.176 20.9994 784C89.9994 887 106.999 737 180.999 784C205.904 799.818 241.108 616.584 228.999 604C202.527 576.489 181.999 535 181.999 535C181.999 535 101.999 521 101.999 455C101.999 389 155.999 382 180.999 382C205.999 382 228.999 427 228.999 427C228.999 427 248.999 408 252.999 364C254.869 343.436 339.999 318 409.999 292C479.999 266 530.999 230 530.999 230C530.999 230 557.324 255.865 577.999 277C622.999 323 633.999 384 633.999 455C633.999 491.67 622.251 585.763 604.999 667C588.849 743.051 566.711 807.067 577.999 824C591.183 843.776 607.429 794.285 667.999 764C707.999 744 693.999 817 722.999 764C751.999 711 718.999 471 698.999 335C678.999 199 620.999 108 542.999 56.9999C464.999 5.99991 376.36 6.99991 356.999 6.99991Z" fill="black" stroke="black" stroke-width="12" stroke-linecap="round" stroke-linejoin="round"/>
</svg>
