<svg width="467" height="437" viewBox="0 0 467 437" fill="none" xmlns="http://www.w3.org/2000/svg">
<path fill-rule="evenodd" clip-rule="evenodd" d="M331 14.0003C375.824 25.8814 405.655 67.2408 430.256 136.881L431 139C434.664 149.502 442.997 162.502 456 178L431 198C416.827 194.397 397.105 177.882 377.257 162.408L381.113 166.676L382.98 168.721C393.235 179.922 401.588 188.387 408.038 194.118C415.648 200.88 447.55 214.841 461 222L458.772 221.836C422.581 219.081 396.086 212.863 379.285 203.18L377.627 202.218C352.482 187.529 327.764 168.762 308 164L307.067 163.782C303.394 162.944 298.622 162.117 293.065 161.408L294.454 163.862L299.488 172.883C308.977 189.799 320.776 209.285 339 221C357.667 233 376.667 240.334 396 243C354.864 237.487 323.743 220.117 302.637 190.89L302 190C294.977 180.101 287.193 170.102 278.647 160.003C270.125 159.41 260.708 159.153 251.075 159.464C256.563 171.453 262.871 182.631 270 193C279.922 207.432 292.588 218.432 308 226C292.314 222.104 278.98 213.771 268 201C258.82 190.324 249.394 176.692 239.721 160.104C222.662 161.492 205.757 164.916 192.704 171.633L189.959 173.071C156.61 190.405 182.51 208.908 173 230C157.737 263.852 113 274.408 113 292L112.995 292.738L112.98 293.531L112.957 294.382C112.513 308.298 108.679 349.294 101.453 417.372L100 431L62.1167 340.825H21.1458C5.7805 283.748 2.10619 244.653 10.1229 223.543C14.0741 213.137 24.4847 196.34 41.2597 178.225C38.179 165.659 37.2817 154.973 38.5688 146.166C40.7974 130.916 71.1684 70.8331 135 45.0003C162.459 33.8877 178.639 41.7544 204 32.0003C217 27.0003 248 -7.99971 331 14.0003Z" fill="black" stroke="black" stroke-width="12" stroke-linecap="round" stroke-linejoin="round"/>
</svg>
