<svg width="449" height="398" viewBox="0 0 449 398" fill="none" xmlns="http://www.w3.org/2000/svg">
<path fill-rule="evenodd" clip-rule="evenodd" d="M373 14.3077C401.43 23.4461 430 35 438 73C444.842 105.499 445 115 423 183C416.333 167.667 383.333 159 324 157C295.16 156.028 262.044 140.964 229 143C204.467 144.511 165.899 157.685 113.296 182.522L114.068 185.707C122.266 219.685 126.365 242.363 126.365 253.739C126.365 264.77 118.591 306.192 103.044 378.005L100 392L62.1167 301.825H21.1458C5.7805 244.747 2.10619 205.653 10.1229 184.542C18.1395 163.431 30.0986 148.251 46 139C65 104 204.357 65.3296 228.118 61.2382C229.772 60.9534 231.385 60.709 232.959 60.505L234.461 59.6243C242.552 54.8382 247.95 50.9855 253.924 47.1865C226.292 50.1584 185.984 63.1331 133.002 86.1105C180.763 54.8585 224.246 38.8283 263.453 38.02C265.82 37.9712 268.136 37.9732 270.402 38.0261C272.424 37.0545 274.611 36.049 277 35C282.899 32.4103 290.081 30.3794 298.106 28.9402C270.526 26.8385 226.546 34.6985 166.166 52.5213C217.379 27.3228 262.492 16.7114 301.505 20.6871C311.797 21.7361 321.013 23.6307 329.151 26.3712C352.568 26.3597 378.007 30.2633 398.64 38.5888C391.176 31.8443 382.63 26.7505 373 23.3077C347.258 14.1047 300.925 12.1047 234 17.3077C289.333 3.30769 335.667 2.30769 373 14.3077Z" fill="black" stroke="black" stroke-width="12" stroke-linecap="round" stroke-linejoin="round"/>
</svg>
