<svg width="693" height="780" viewBox="0 0 693 780" fill="none" xmlns="http://www.w3.org/2000/svg">
<path fill-rule="evenodd" clip-rule="evenodd" d="M290 6.00035C252.049 5.99329 205.919 23.0642 161.282 52.3315C100.063 92.4716 65.6511 140.553 34.9998 214C4.66119 286.699 -1.00017 355 16.9998 454C34.9998 553 174.109 615.584 162 603C135.527 575.489 115 534 115 534C115 534 34.9998 520 34.9998 454C34.9998 388 88.9998 381 114 381C139 381 162 426 162 426C162 426 182 407 186 363C187.869 342.436 263.693 332.615 328 292C347 280 386.852 249.505 403 237C406.93 233.957 292.739 348.181 296 345C299.133 341.944 336.04 331.971 391 292C413 276 447 229 447 229C447 229 490.325 254.866 511 276C556 322 567 383 567 454C567 490.671 561.252 537.764 544 619C531.048 679.99 687 774 687 774C687 774 650.84 597.829 650 553C648.177 455.781 663.688 438.08 650 345C630 209 554 107 476 56.0003C398 5.00035 309.36 6.00035 290 6.00035Z" fill="black" stroke="black" stroke-width="12" stroke-linecap="round" stroke-linejoin="round"/>
</svg>
