<svg width="627" height="568" viewBox="0 0 627 568" fill="none" xmlns="http://www.w3.org/2000/svg">
<path fill-rule="evenodd" clip-rule="evenodd" d="M396.002 7.00013C459.002 11.0001 490.359 33.2202 533.002 68.0001C546.098 62.6802 574.002 64.0001 606.002 95.0001C638.002 126 609.533 176.003 599.002 243C533.977 195.473 468.977 195.473 404.002 243C306.539 314.29 314.668 388 268.002 420L265.719 415.336L263.832 411.519C255.738 395.231 250.128 385.058 247.002 381C241.545 373.918 222.322 358.08 189.002 362C166.335 364.667 118.002 403 131.002 448C136.838 468.204 150.234 484.023 171.189 495.459C181.349 501.003 207.002 509 207.002 509C207.002 509 196.002 511 188.002 511C180.002 511 170.002 508 170.002 508C170.002 508 121.002 566 65.0017 561C9.00173 556 -3.99827 498 15.0017 461C34.0017 424 109.424 440.247 108.002 435C61.1223 441.624 51.8186 417.4 15.0017 412C56.9927 404.839 70.2653 422.383 108.002 412C107.549 409.903 65.9495 384.737 37.0017 381C69.091 375.029 73.3908 391.95 102.002 384C92.2156 322.783 86.7159 224.137 131.002 155C203.946 41.1235 333.002 3.00013 396.002 7.00013Z" fill="black" stroke="black" stroke-width="12" stroke-linecap="round" stroke-linejoin="round"/>
</svg>
