<svg width="794" height="659" viewBox="0 0 794 659" fill="none" xmlns="http://www.w3.org/2000/svg">
<path fill-rule="evenodd" clip-rule="evenodd" d="M381.002 15.9667C398.497 15.9667 417.058 5.15434 433.002 7.00033C540.999 19.5043 611.662 83.8546 650.002 145.498C667.105 172.998 701.173 213.301 717.002 241C741.892 284.558 750.079 329.611 750.002 396C749.969 424.018 751.695 438.737 750.002 456C748.919 467.04 727.002 498 727.002 498C727.002 498 740.575 495.91 750.002 491C759.428 486.091 775.002 473 775.002 473C775.002 473 761.002 520 750.002 528C739.002 536 722.002 537 732.002 551C742.002 565 761.002 569.588 787.002 565C748.596 598.833 716.929 618.833 692.002 625C667.074 631.168 640.407 634.128 612.002 633.881L613.738 628.642C632.255 572.488 644.343 526.69 650.002 491.247C656.194 452.465 637.616 404.941 633.002 384.633C625.002 349.427 580.002 311 538.002 275C510.002 251 462.002 232.743 394.002 220.228L317.002 231.188C321.668 255.063 307.335 340 290.002 396C264.002 480 205.002 479.291 226.002 509.182C247.002 539.074 203.002 539 203.002 572C203.002 594 228.668 608.667 280.002 616C246.002 638 216.335 647.334 191.002 644C146.766 638.18 119.089 611.816 107.002 616C89.6684 622 89.6684 634.334 107.002 653C73.6684 648.334 48.0017 636 30.0017 616C3.00171 586 5.32585 561.969 7.00171 541C8.67758 520.031 25.9252 524.032 39.0017 503.39C56.2209 476.208 8.71065 438.819 9.00171 413.528C9.29351 388.174 30.205 356.098 42.0017 317.875C50.2183 291.251 49.1598 256.229 54.0017 241.152C78.0017 166.422 121.198 131.332 161.002 103.649C185.916 86.3218 206.002 36.891 262.002 15.9667C318.002 -4.95762 341.946 15.9667 381.002 15.9667Z" fill="black" stroke="black" stroke-width="12" stroke-linecap="round" stroke-linejoin="round"/>
</svg>
