<svg width="487" height="420" viewBox="0 0 487 420" fill="none" xmlns="http://www.w3.org/2000/svg">
<path fill-rule="evenodd" clip-rule="evenodd" d="M353 22.0002C452 55.0002 481 146.139 481 178C481 204.483 430 196 430 196C430 196 370.089 155.832 320 147C252.631 135.121 215 181 193 183C171 185 156 196 147 222C138 248 165 299 165 299L130 414H114L76.1171 323.825H35.1462C13.1309 276.303 -6.9996 172 17.0004 138C41.0004 104 75.0004 104 75.0004 104C75.0004 104 84.0004 82.0002 121 49.0002C158 16.0002 254 -10.9998 353 22.0002Z" fill="black" stroke="black" stroke-width="12" stroke-linecap="round" stroke-linejoin="round"/>
</svg>
