<svg width="673" height="553" viewBox="0 0 673 553" fill="none" xmlns="http://www.w3.org/2000/svg">
<path fill-rule="evenodd" clip-rule="evenodd" d="M315.002 8.99995C392.002 1.99995 428.359 8.22 471.002 43C484.099 37.68 558.002 22 621.002 103C684.002 184 667.755 271.067 656.002 320C653.235 331.516 641.002 279 587.002 238C533.002 197 471.002 169 471.002 169C471.002 169 381.002 242 369.002 306C367.356 314.775 387.002 180 387.002 180C387.002 180 363.473 236.878 359.002 258C350.746 296.997 356.94 303.932 341.002 333C325.064 362.068 287.904 381.544 268.002 405L265.719 400.336L263.832 396.519C255.738 380.231 250.128 370.058 247.002 366C241.545 358.918 222.322 343.08 189.002 347C166.335 349.667 118.002 388 131.002 433C136.838 453.204 150.234 469.023 171.189 480.458C181.349 486.003 207.002 494 207.002 494C207.002 494 196.002 496 188.002 496C180.002 496 170.002 493 170.002 493C170.002 493 121.002 551 65.0017 546C9.00173 541 -3.99827 483 15.0017 446C34.0017 409 109.424 425.247 108.002 420C61.1223 426.624 51.8186 402.4 15.0017 397C56.9927 389.839 70.2653 407.383 108.002 397C107.549 394.903 65.9495 369.737 37.0017 366C69.091 360.029 73.3908 376.95 102.002 369C92.2156 307.783 100.515 242.93 131.002 169C171.002 72 238.002 16 315.002 8.99995Z" fill="black" stroke="black" stroke-width="12" stroke-linecap="round" stroke-linejoin="round"/>
</svg>
