<svg width="764" height="647" viewBox="0 0 764 647" fill="none" xmlns="http://www.w3.org/2000/svg">
<path fill-rule="evenodd" clip-rule="evenodd" d="M223.001 30.9999C270.761 1.34638 335.39 -1.59318 416.889 22.1813L418.14 21.6503C438.829 12.9486 471.441 3.05908 518.001 28.9999C588.001 67.9999 595.98 140.101 622.001 144C640.46 146.766 646.56 192.498 663.001 234C669.104 249.404 708.001 259 708.001 259L663.001 278C663.001 278 672.927 288.092 686.001 296C697.33 302.852 717.001 327 717.001 327C717.001 327 674.793 334.748 669.001 347C665.892 353.577 702.405 361.103 713.001 405C727.001 463 680.99 543.03 709.953 560.495C723.072 568.406 757.953 590.495 757.953 590.495C757.953 590.495 705.775 642.051 681.953 635.495C645.135 625.363 597.953 590.495 597.953 590.495C597.953 590.495 609.409 457.557 605.001 382C601.916 329.103 587.184 271.788 573.001 250C538.561 197.091 468.001 144 381.001 144C314.08 144 309.925 182.463 309.925 182.463C306.119 203.727 306.116 226.946 291.001 259C264.775 314.618 172.05 352.505 172.05 381.505C172.05 410.505 181.05 411.505 181.05 427.505C181.05 443.505 169.02 451.862 172.05 473.505C174.07 487.933 185.021 561.095 201.001 582C173.475 609.867 147.808 627.534 124.001 635C100.195 642.466 69.5279 642.466 32.0013 635C41.3071 626.655 47.9738 618.989 52.0013 612L52.393 611.308C56.3305 604.232 60.8666 592.462 66.0013 576C59.6984 582.705 53.365 587.371 47.0013 590C40.6375 592.628 31.6375 594.295 20.0013 595L22.0031 592.564C27.3626 586.017 31.5205 580.735 34.477 576.717L35.4337 575.408C40.2515 568.846 44.6276 563.7 42.0013 553C39.2966 541.981 4.57252 443.372 6.04971 410.505C7.03451 388.593 17.7012 356.259 38.0497 313.505C34.5862 317.378 30.5862 320.378 26.0497 322.505C21.5132 324.631 14.8465 326.631 6.04971 328.505L7.28974 327.4C18.1209 317.712 25.7075 309.746 30.0497 303.505C34.5558 297.027 37.2224 290.027 38.0497 282.505C31.855 284.314 26.855 284.98 23.0497 284.505C19.2445 284.029 13.5778 282.029 6.04971 278.505L7.34467 277.889C15.8635 273.82 22.0986 270.358 26.0497 267.505C30.1984 264.508 35.5318 259.508 42.0497 252.505L43.221 249.969C62.2757 208.815 77.5519 180.661 89.0497 165.505C121.199 123.126 155.722 97.4076 185.05 75.5045C201.26 63.3984 209.717 39.2479 223.001 30.9999Z" fill="black" stroke="black" stroke-width="12" stroke-linecap="round" stroke-linejoin="round"/>
</svg>
