<?xml version="1.0" encoding="UTF-8"?>
<svg width="424px" height="397px" viewBox="0 0 424 397" version="1.1" xmlns="http://www.w3.org/2000/svg" xmlns:xlink="http://www.w3.org/1999/xlink">
    <title>hair-14</title>
    <g id="All-customizable-items" stroke="none" stroke-width="1" fill="none" fill-rule="evenodd" stroke-linecap="round" stroke-linejoin="round">
        <g id="Hairstyle/-14" transform="translate(-266.000000, -264.000000)" fill="#000000" stroke="#000000" stroke-width="12">
            <path d="M680,270 L679.806266,273.160795 L679.609741,276.222241 C676.345951,325.933738 670.441789,361.331655 661.897254,382.415992 L665,379 C669.818582,386.792186 673.818582,395.125519 677,404 C680.036808,412.471095 682.300877,421.360277 683.792209,430.667546 L684,432 L647.608374,403.073582 L646.227511,404.133406 C623.904333,421.217179 612.675037,427.272787 580,434 C546,441 506.08243,434.920906 459.455985,426.268797 L451.257015,424.759716 L448.245051,424.21248 L445.41424,423.708943 C415.372753,418.440663 400.260881,418.526982 379.295767,445.522372 C355.591535,476.044745 392.364515,499.14665 392.364515,516.739062 C392.364515,528.232771 383.924355,572.72458 367.044035,650.214489 L366,655 L328.116663,564.824988 L287.145773,564.824988 C271.780496,507.747385 268.106191,468.653136 276.122857,447.542242 L276.870382,445.586062 L277.654986,443.563497 C290.903153,409.703973 325.666429,336.148175 426,325 L435.080765,323.995517 C514.214015,315.281244 517.115218,315.984459 542.209426,309.027564 L547.418732,306.77818 C558.682042,301.897336 567.859264,297.801723 574.951761,294.49076 L579.663186,292.275583 C592.167897,286.37506 607.613502,278.949866 626,270 L613.81,288.755 L680,270 Z" id="hair-14"></path>
        </g>
    </g>
</svg>