<svg width="461" height="369" viewBox="0 0 461 369" fill="none" xmlns="http://www.w3.org/2000/svg">
<path fill-rule="evenodd" clip-rule="evenodd" d="M231.312 9.25782C275.612 3.0319 313.175 9.73379 315.212 24.2269L315.171 23.9478C384.089 33.9048 416.601 61.6195 433 80.9999C447.667 98.3333 455 118 455 140L441.421 138.871C425.263 137.542 375.711 119.403 362.764 118.454C365.023 124.556 366.654 130.983 367.657 137.735L365.329 136.09C347.169 123.342 335.493 117.076 330.302 117.293L330.141 117.302C327.535 117.484 324.475 116.964 320.96 115.74L317.945 115.585C316.635 115.519 315.363 115.459 314.13 115.403L314.955 116.284C317.506 119.029 319.476 121.338 320.866 123.212C323.264 126.446 324.961 129.769 325.957 133.181C312.459 126.497 250 102 205 111C181.673 115.665 156.7 137.111 136.563 133.184C128.011 137.97 120.206 144.624 113.296 153.522C89.5915 184.045 113 206.408 113 224L112.995 224.737C112.83 237.316 108.669 281.806 100.512 358.209L100 363L62.1167 272.825H21.1458C5.7805 215.747 2.10619 176.653 10.1229 155.542C19.7905 130.084 68.1281 66.3542 153.743 38.7087C165.777 28.3127 200.044 13.6522 231.312 9.25782Z" fill="black" stroke="black" stroke-width="12" stroke-linecap="round" stroke-linejoin="round"/>
</svg>
