<svg width="618" height="535" viewBox="0 0 618 535" fill="none" xmlns="http://www.w3.org/2000/svg">
<path fill-rule="evenodd" clip-rule="evenodd" d="M99.3057 421.521C132.243 441.752 160.511 528.713 160.511 528.713C160.511 528.713 160.252 457.808 188 416C215.749 374.192 255 339 255 339C255 339 248 323 239.44 307.95C230.88 292.9 194.899 265.29 194.899 265.29C194.899 265.29 377.534 322.231 437.612 310.358C497.69 298.484 544.621 276.303 575.515 220.949C606.409 165.596 611.59 69.248 611.59 69.248C611.59 69.248 528.414 122.466 490.832 116.495C453.25 110.523 434.767 94.1804 414.952 63.9083C407.261 52.1589 388.16 18.4703 388.16 18.4703C388.16 18.4703 381.419 41.3661 381.817 48.0791C383.204 71.5016 388.615 75.0591 380.68 70.8931C364.218 62.2505 346.73 53.1412 328.324 43.4075C314.054 35.8615 292.629 6.78372 292.629 6.78372C292.629 6.78372 286.035 26.889 288.648 41.4553C290.292 50.6156 305.821 80.3077 305.821 80.3077C305.821 80.3077 280.652 55.471 237.094 54.9458C211.855 54.6415 175.948 66.8169 128.977 78.6058C121.905 80.3806 106.824 77.9083 106.824 77.9083L149.267 101.388C149.267 101.388 69.5343 127.192 50.7886 153.105C44.4001 161.936 35.4009 173.866 27.7819 190.906C20.4968 207.2 6.51605 256.337 6.51605 256.337C6.51605 256.337 14.7999 233.186 32.879 216.988C50.9581 200.79 90.5337 198.016 90.5337 198.016C90.5337 198.016 36.2167 230.824 27.1093 266.495C18.0019 302.165 46.3352 428.688 46.3352 428.688C46.3352 428.688 66.3681 401.29 99.3057 421.521Z" fill="black" stroke="black" stroke-width="12" stroke-linecap="round" stroke-linejoin="round"/>
</svg>
