<svg width="634" height="833" viewBox="0 0 634 833" fill="none" xmlns="http://www.w3.org/2000/svg">
<path fill-rule="evenodd" clip-rule="evenodd" d="M317 6.99512H322.802L324.51 7.00856C353.444 7.29145 432.561 10.9436 503 57.0002C581 108 628 239 628 377C628 515 601 574.334 551 689L554.371 672.476L557.478 657.174C581.826 536.961 594 469.57 594 455C594 384 583 323 538 277C525.022 263.734 505.35 249.069 478.985 233.006C457.277 278.471 432.282 309.802 404 327C330 372 281 342 247 377C241.432 382.732 236.066 388.644 230.9 394.738L231.07 399.058L231.244 403.26C234.124 471.641 239.526 527.553 247.449 571C258.75 632.968 286.934 715.301 332 818L326.701 814.514C301.556 797.937 272.274 769.379 252 755C252 755 261.121 784.937 266 797C268.93 804.244 277 827 277 827C277 827 183.876 738.968 159 696C134.124 653.032 92 613 92 613C86.0136 627.362 83.4286 640.778 72 663C60 686.334 28.6667 692 6 720L7.55424 717.082C32.4784 670.153 52.7335 647.008 58 625C58 625 70 575 58 515C46 455 33 439 29 395C25 351 31.6614 287.698 62 215C92.6513 141.553 127.063 93.4714 188.282 53.3314C232.919 24.0641 279.049 6.99512 317 6.99512Z" fill="black" stroke="black" stroke-width="12" stroke-linecap="round" stroke-linejoin="round"/>
</svg>
