<svg width="570" height="442" viewBox="0 0 570 442" fill="none" xmlns="http://www.w3.org/2000/svg">
<path fill-rule="evenodd" clip-rule="evenodd" d="M255 8.00009C334.026 2.97004 377 6.00009 465 65.0001C523.666 104.333 556.666 159 564 229L561.24 224.675C549.832 206.872 540.752 193.647 534 185C527.732 176.974 514.732 167.224 494.999 155.747C494.263 156.741 493.413 157.718 492.451 158.682C510.823 179.929 525.673 199.702 537 218C549.854 238.768 554.187 261.434 550 286C544.666 272 538 259.667 530 249C522 238.333 510.666 230 496 224L497.039 225.752C510.952 249.278 520.216 267.534 524.831 280.521L525 281C529.666 294.333 532.666 319 534 355C524.666 325 513 298 499 274C485 250 450 224.667 394 198C395.278 205.311 399.612 213.311 407 222C414.387 230.69 423.387 239.69 434 249C411.028 239.11 389.941 229.085 370.74 218.924L369 218C349.334 207.523 324.046 190.856 293.135 168L295.287 170.537C312.37 190.615 326.274 205.436 337 215C348.172 224.962 360.838 233.629 375 241C358.109 242.177 340.436 242.218 321.98 241.122L320 241C300.827 239.781 271.981 236.781 233.461 232L235.353 232.848C254.778 241.516 270.145 247.191 281.455 249.873L282 250C293.72 252.71 310.72 256.044 333 260C312.061 264.616 292.842 267.583 275.342 268.902L274 269C256.141 270.266 228.765 268.933 191.869 265L195.951 266.355C217.421 273.442 234.104 278.324 246 281L247.258 281.279C259.793 284.018 276.893 286.592 298.56 289L296.447 289.478C268.785 295.715 247.636 299.555 233 301C218.265 302.455 200.003 302.481 178.214 301.079L177 301L159 376L140.284 321.806L139.918 323.932C136.112 345.838 129.153 380.07 119.041 426.63L117 436L79.1162 345.825H38.1453C10.6981 295.053 0.982856 259.111 8.99952 238C12.5698 228.598 19.8559 219.579 30.8577 210.943C26.0953 173.483 51.8094 144.502 108 124C153.315 50.0201 202.315 11.3534 255 8.00009Z" fill="black" stroke="black" stroke-width="12" stroke-linecap="round" stroke-linejoin="round"/>
</svg>
