<svg width="483" height="268" viewBox="0 0 483 268" fill="none" xmlns="http://www.w3.org/2000/svg">
<path fill-rule="evenodd" clip-rule="evenodd" d="M270.999 8.99967C402.999 24.9997 483.424 111.219 475.999 128C469.933 141.707 469.933 156.707 475.999 173C458.499 186.392 406.365 126.548 334.549 100.064L332.751 101.165C327.113 104.606 322.005 107.616 317.427 110.198L315.999 111C300.805 119.476 290.864 123.483 286.177 123.02L285.999 123L301.037 90.7729C299 90.4012 296.95 90.0637 294.888 89.7623L293.609 90.9791C284.521 99.6034 277.117 106.172 271.395 110.688L270.999 111C262.811 117.414 250.58 125.452 234.307 135.112L233.447 135.622L261.202 88.1022C259.426 88.1401 257.674 88.1882 255.945 88.2465L254.493 89.6629C242.479 101.358 232.473 110.346 224.476 116.626L223.999 117C213.336 125.313 163.999 154 163.999 154L189.999 110C152.999 123 139.999 135 131.999 145C123.999 155 104.393 188.363 125.999 207L59.1156 261.825H18.1447C2.77941 204.747 -9.00108 102 68.9989 87.9997C115.666 24.6663 182.999 -1.667 270.999 8.99967Z" fill="black" stroke="black" stroke-width="12" stroke-linecap="round" stroke-linejoin="round"/>
</svg>
