<?xml version="1.0" encoding="UTF-8"?>
<svg width="401px" height="328px" viewBox="0 0 401 328" version="1.1" xmlns="http://www.w3.org/2000/svg" xmlns:xlink="http://www.w3.org/1999/xlink">
    <title>hair-13</title>
    <g id="All-customizable-items" stroke="none" stroke-width="1" fill="none" fill-rule="evenodd" stroke-linecap="round" stroke-linejoin="round">
        <g id="Hairstyle/-13" transform="translate(-260.000000, -334.000000)" stroke="#000000" stroke-width="12">
            <g id="hair-13" transform="translate(266.170240, 340.000000)">
                <path d="M20.9755327,224.824988 L61.9464226,224.824988 L99.82976,315 C117.406103,234.554316 126.194275,188.467337 126.194275,176.739062 C126.194275,159.14665 89.4212949,136.044745 113.125527,105.522372 C124.789561,90.5033682 139.00015,81.8765075 155.047131,77.8362154 C171.611628,73.6656236 192.82976,42 154.82976,25 C116.82976,8 8.82976,56 0.829760002,115 C-2.50467269,139.591441 4.21058488,176.19977 20.9755327,224.824988 Z" id="Path" fill="#000000"></path>
                <path d="M156.82976,10 C170.163093,11.3333333 180.163093,18.3333333 186.82976,31 C193.496427,43.6666667 193.496427,57 186.82976,71" id="Path"></path>
                <path d="M179.82976,4 C193.163093,5.33333333 203.163093,12.3333333 209.82976,25 C216.496427,37.6666667 216.496427,51 209.82976,65" id="Path"></path>
                <path d="M202.82976,0 C216.163093,1.33333333 226.163093,8.33333333 232.82976,21 C239.496427,33.6666667 239.496427,47 232.82976,61" id="Path"></path>
                <path d="M225.82976,0 C239.163093,1.33333333 249.163093,8.33333333 255.82976,21 C262.496427,33.6666667 262.496427,47 255.82976,61" id="Path"></path>
                <path d="M248.82976,0 C262.163093,1.33333333 272.163093,8.33333333 278.82976,21 C285.496427,33.6666667 285.496427,47 278.82976,61" id="Path"></path>
                <path d="M271.82976,0 C285.163093,1.33333333 295.163093,8.33333333 301.82976,21 C308.496427,33.6666667 308.496427,47 301.82976,61" id="Path"></path>
                <path d="M294.82976,4 C308.163093,5.33333333 318.163093,12.3333333 324.82976,25 C331.496427,37.6666667 331.496427,51 324.82976,65" id="Path"></path>
                <path d="M317.82976,6 C331.163093,7.33333333 341.163093,14.3333333 347.82976,27 C354.496427,39.6666667 354.496427,53 347.82976,67" id="Path"></path>
                <path d="M355.82976,51 L352.82976,22 C366.163093,23.3333333 376.163093,30.3333333 382.82976,43 C387.885083,52.6051144 389.106963,62.5935731 386.495398,72.9653763 L355.82976,51 Z" id="Path" fill="#000000"></path>
            </g>
        </g>
    </g>
</svg>