<svg width="526" height="469" viewBox="0 0 526 469" fill="none" xmlns="http://www.w3.org/2000/svg">
<path fill-rule="evenodd" clip-rule="evenodd" d="M60.9714 372.825C45.8728 375.272 26.5665 362.108 14.9373 340.237C1.58424 315.123 3.40936 288.039 19.0138 279.742C20.3054 279.055 21.6509 278.519 23.0402 278.126C11.3527 261.821 10.4714 237.447 22.565 216.5C28.5691 206.1 36.9042 198.048 46.2191 192.817C43.4398 177.838 45.6419 162.211 53.5973 148.432C61.9875 133.9 75.3574 123.882 90.7178 119.056C91.6669 110.497 94.3293 102.076 98.8473 94.25C111.211 72.836 134.387 61.2242 158.812 61.5829C166.178 36.269 187.208 18 212 18C222.193 18 231.75 21.0878 239.982 26.4835C252.406 13.8893 270.217 6 290 6C311.277 6 330.272 15.1256 342.741 29.4142C353.992 22.1792 367.274 18 381.5 18C422.093 18 455 52.0264 455 94L454.998 94.645V94.645C457.603 94.2198 460.277 94 463 94C491.167 94 514 117.505 514 146.5C514 155.535 511.783 164.037 507.878 171.461C529.167 201.857 521.207 229.37 484 254C462.607 268.162 372.369 273.353 318.694 268.999C279.12 265.789 196.105 238.958 180 236C172.393 234.603 183.06 244.603 212 266C177.921 293.157 160.711 312.618 160.37 324.385L160.365 324.739C160.365 336.233 151.925 380.725 135.044 458.214L134 463L96.1169 372.825L60.9714 372.825Z" fill="black" stroke="black" stroke-width="12" stroke-linecap="round" stroke-linejoin="round"/>
</svg>
