<svg width="415" height="317" viewBox="0 0 415 317" fill="none" xmlns="http://www.w3.org/2000/svg">
<path fill-rule="evenodd" clip-rule="evenodd" d="M44.1167 220.825L82 311C82 311 101.371 226.084 119 196C140.858 158.699 196 150 196 150C196 150 193.209 139.947 192 131C190.791 122.054 192 113 192 113L78 66L208 89.0001C208 89.0001 279.019 75.4579 332 75.0001C363.294 74.7296 409 82.0001 409 82.0001C409 82.0001 394 39.0001 308 15.0001C222 -8.99995 113 23.0001 62 82.0001C11 141 6 221 6 221L44.1167 220.825Z" fill="black" stroke="black" stroke-width="12" stroke-linecap="round" stroke-linejoin="round"/>
</svg>
