<svg width="543" height="382" viewBox="0 0 543 382" fill="none" xmlns="http://www.w3.org/2000/svg">
<path fill-rule="evenodd" clip-rule="evenodd" d="M221 19.0005C377.485 -30.1174 499 78.0005 503 78.0005C505.667 78.0005 505.333 68.0005 508 64.0005C508 64.0005 540 106 536 150C532 194 528.216 199.551 513 224C493.817 187.899 431.516 159.849 346.098 159.849C305.82 159.849 272.705 162.638 220 176C220 176 205.543 187.177 201 192C191.42 202.172 188.102 209.977 184 215C184 215 184.354 191.736 185.769 185.439C175.445 188.309 164.894 191.421 154.119 194.774C154.861 203.966 155.156 236.708 163 253L147 376L144.124 373.455C121.932 353.757 107.688 339.779 101.391 331.52L101 331C94.6611 322.473 81.9944 316.473 63 313L62.0686 309.564C53.5136 278.212 45.9453 256.053 42.8805 234.742C30.8069 239.592 18.513 244.679 6 250C45.0103 112.746 116.677 51.7457 221 19.0005Z" fill="black" stroke="black" stroke-width="12" stroke-linecap="round" stroke-linejoin="round"/>
</svg>
