<svg width="396" height="96" viewBox="0 0 396 96" fill="none" xmlns="http://www.w3.org/2000/svg">
<path d="M48 8C25.9086 8 8 25.9086 8 48H16C16 30.3269 30.3269 16 48 16V8ZM88 48C88 25.9086 70.0914 8 48 8V16C65.6731 16 80 30.3269 80 48H88ZM48 88C70.0914 88 88 70.0914 88 48H80C80 65.6731 65.6731 80 48 80V88ZM8 48C8 70.0914 25.9086 88 48 88V80C30.3269 80 16 65.6731 16 48H8ZM8 48C8 25.9086 25.9086 8 48 8V0C21.4903 0 0 21.4903 0 48H8ZM48 88C25.9086 88 8 70.0914 8 48H0C0 74.5097 21.4903 96 48 96V88ZM88 48C88 70.0914 70.0914 88 48 88V96C74.5097 96 96 74.5097 96 48H88ZM48 8C70.0914 8 88 25.9086 88 48H96C96 21.4903 74.5097 0 48 0V8ZM348 8C325.909 8 308 25.9086 308 48H316C316 30.3269 330.327 16 348 16V8ZM388 48C388 25.9086 370.091 8 348 8V16C365.673 16 380 30.3269 380 48H388ZM348 88C370.091 88 388 70.0914 388 48H380C380 65.6731 365.673 80 348 80V88ZM308 48C308 70.0914 325.909 88 348 88V80C330.327 80 316 65.6731 316 48H308ZM308 48C308 25.9086 325.909 8 348 8V0C321.49 0 300 21.4903 300 48H308ZM348 88C325.909 88 308 70.0914 308 48H300C300 74.5097 321.49 96 348 96V88ZM388 48C388 70.0914 370.091 88 348 88V96C374.51 96 396 74.5097 396 48H388ZM348 8C370.091 8 388 25.9086 388 48H396C396 21.4903 374.51 0 348 0V8Z" fill="black"/>
</svg>
