<svg width="1080" height="1080" viewBox="0 0 1080 1080" fill="none" xmlns="http://www.w3.org/2000/svg">
<ellipse cx="510" cy="305.166" rx="243" ry="54.8338" fill="black" stroke="white" stroke-width="12" stroke-linecap="round" stroke-linejoin="round"/>
<path fill-rule="evenodd" clip-rule="evenodd" d="M401 261.299C401 261.299 426.95 200.254 431.884 153.999C436.818 107.743 367 61.0004 367 61.0004C367 61.0004 406 40.0004 441.462 40.6566C494.909 41.6456 528.423 75.7444 549.822 99.6988C589.868 144.525 626 261.299 626 261.299C626 261.299 576.825 281.239 514.551 281.239C452.277 281.239 401 261.299 401 261.299Z" fill="black" stroke="white" stroke-width="12" stroke-linecap="round" stroke-linejoin="round"/>
<path fill-rule="evenodd" clip-rule="evenodd" d="M408.59 214.441C408.59 214.441 456.194 236.954 513.823 236.954C571.452 236.954 624.468 214.441 624.468 214.441C624.468 214.441 633 227.527 633 240.26C633 252.994 628.9 261.717 628.9 261.717C628.9 261.717 571.889 284.23 513.823 284.23C455.757 284.23 397.51 261.717 397.51 261.717C397.51 261.717 394.776 250.426 396.992 239.522C399.208 228.617 408.59 214.441 408.59 214.441Z" fill="black" stroke="white" stroke-width="12" stroke-linecap="round" stroke-linejoin="round"/>
<ellipse cx="517.5" cy="256.314" rx="44.5" ry="43.8671" fill="black" stroke="white" stroke-width="12" stroke-linecap="round" stroke-linejoin="round"/>
</svg>
