<svg width="1080" height="1080" viewBox="0 0 1080 1080" fill="none" xmlns="http://www.w3.org/2000/svg">
<path fill-rule="evenodd" clip-rule="evenodd" d="M664 761C664 761 667 774.333 667 785C667 795.667 664 816 664 816L643 766L664 761Z" stroke="black" stroke-width="12" stroke-linecap="round" stroke-linejoin="round"/>
<path fill-rule="evenodd" clip-rule="evenodd" d="M555 761C555 761 552 774.333 552 785C552 795.667 555 816 555 816L576 766L555 761Z" stroke="black" stroke-width="12" stroke-linecap="round" stroke-linejoin="round"/>
<path d="M549 759C549 759 589.996 769 619 769C648.004 769 669 759 669 759" stroke="black" stroke-width="16" stroke-linecap="round" stroke-linejoin="round"/>
<path fill-rule="evenodd" clip-rule="evenodd" d="M530 965C530 965 482.288 954.523 432 919C381.712 883.477 295 799 295 799C295 799 305.643 880.603 360 919C381.16 933.947 413 1040 413 1040L530 965Z" fill="black" stroke="black" stroke-width="12" stroke-linecap="round" stroke-linejoin="round"/>
<path fill-rule="evenodd" clip-rule="evenodd" d="M603 965C603 965 650.712 969.523 701 934C751.288 898.477 816 779 816 779C816 779 827.357 880.603 773 919C751.84 933.947 719 1040 719 1040L603 965Z" fill="black" stroke="black" stroke-width="12" stroke-linecap="round" stroke-linejoin="round"/>
<path fill-rule="evenodd" clip-rule="evenodd" d="M228.943 202.533C250.997 196.623 255.443 180.184 252.998 162.82C261.532 161.764 277.17 160.07 286.319 160.552C299.372 161.239 320.5 167.474 320.5 167.474C320.5 167.474 328.203 149.088 337.732 143.036C347.26 136.984 374.479 133.189 374.479 133.189L314.877 84.0878C314.877 84.0878 298.788 106.448 285.208 118.964C275.375 128.026 257.846 140.233 248.918 146.281C242.447 127.154 231.556 110.728 231.556 110.728C231.556 110.728 232.719 127.592 210.46 133.556C188.202 139.52 180.778 124.334 180.778 124.334C180.778 124.334 179.522 144.592 183.697 164.685C173.102 163.931 151.38 162.114 138.142 159.139C120.122 155.09 95.0093 143.77 95.0093 143.77L67.9429 216.095C67.9429 216.095 93.4127 205.771 104.69 206.248C115.968 206.725 131.833 218.796 131.833 218.796C131.833 218.796 147.013 202.832 157.973 195.711C165.835 190.603 180.719 184.071 188.507 180.786C195.127 196.731 207.169 208.367 228.943 202.533Z" fill="black"/>
<path d="M252.998 162.82L252.261 156.866C250.664 157.063 249.214 157.894 248.235 159.17C247.257 160.447 246.832 162.064 247.056 163.657L252.998 162.82ZM286.319 160.552L286.634 154.56L286.319 160.552ZM320.5 167.474L318.801 173.228C321.736 174.094 324.851 172.614 326.034 169.792L320.5 167.474ZM337.732 143.036L340.949 148.101L337.732 143.036ZM374.479 133.189L375.308 139.132C377.666 138.803 379.606 137.111 380.253 134.82C380.9 132.529 380.132 130.072 378.294 128.558L374.479 133.189ZM314.877 84.0878L318.692 79.4569C317.411 78.4018 315.751 77.9242 314.105 78.1376C312.459 78.3511 310.976 79.2365 310.007 80.5835L314.877 84.0878ZM285.208 118.964L289.274 123.376L289.274 123.376L285.208 118.964ZM248.918 146.281L243.235 148.204C243.835 149.978 245.229 151.37 247.005 151.968C248.78 152.565 250.733 152.299 252.283 151.248L248.918 146.281ZM231.556 110.728L236.556 107.413C235.051 105.143 232.206 104.171 229.627 105.047C227.048 105.922 225.382 108.424 225.57 111.141L231.556 110.728ZM210.46 133.556L212.013 139.352L210.46 133.556ZM180.778 124.334L186.168 121.699C184.972 119.252 182.278 117.918 179.607 118.45C176.936 118.981 174.958 121.245 174.789 123.963L180.778 124.334ZM183.697 164.685L183.271 170.67C185.146 170.804 186.976 170.051 188.214 168.635C189.452 167.22 189.954 165.306 189.572 163.465L183.697 164.685ZM138.142 159.139L139.457 153.285L138.142 159.139ZM95.0093 143.77L97.475 138.3C95.9622 137.618 94.2345 137.593 92.7026 138.231C91.1708 138.869 89.9715 140.113 89.3899 141.667L95.0093 143.77ZM67.9429 216.095L62.3235 213.992C61.4891 216.221 62.0519 218.734 63.7579 220.394C65.4639 222.055 67.9903 222.549 70.1967 221.655L67.9429 216.095ZM104.69 206.248L104.437 212.243L104.69 206.248ZM131.833 218.796L128.2 223.571C130.634 225.423 134.073 225.148 136.181 222.931L131.833 218.796ZM157.973 195.711L154.704 190.68L154.704 190.68L157.973 195.711ZM188.507 180.786L194.048 178.485C193.436 177.01 192.261 175.84 190.783 175.234C189.305 174.628 187.646 174.637 186.175 175.257L188.507 180.786ZM247.056 163.657C248.188 171.695 247.599 178.755 244.807 184.256C242.137 189.516 237.05 194.149 227.39 196.737L230.496 208.328C242.889 205.007 251.052 198.466 255.508 189.688C259.841 181.151 260.253 171.309 258.939 161.983L247.056 163.657ZM286.634 154.56C276.863 154.046 260.689 155.823 252.261 156.866L253.735 168.775C262.376 167.705 277.476 166.094 286.003 166.543L286.634 154.56ZM320.5 167.474C322.198 161.719 322.197 161.719 322.197 161.719C322.197 161.719 322.196 161.719 322.195 161.718C322.194 161.718 322.193 161.718 322.191 161.717C322.187 161.716 322.182 161.715 322.176 161.713C322.164 161.709 322.147 161.704 322.124 161.698C322.08 161.684 322.015 161.666 321.932 161.641C321.765 161.593 321.522 161.523 321.21 161.434C320.587 161.257 319.689 161.004 318.572 160.7C316.34 160.092 313.227 159.274 309.693 158.433C302.737 156.779 293.742 154.934 286.634 154.56L286.003 166.543C291.949 166.856 300.043 168.473 306.915 170.107C310.295 170.911 313.279 171.695 315.417 172.278C316.485 172.569 317.339 172.809 317.923 172.975C318.214 173.058 318.438 173.123 318.587 173.166C318.661 173.187 318.717 173.204 318.753 173.214C318.771 173.22 318.784 173.223 318.792 173.226C318.796 173.227 318.799 173.228 318.801 173.228C318.801 173.228 318.802 173.229 318.802 173.229C318.802 173.229 318.802 173.229 318.802 173.229C318.802 173.229 318.801 173.228 320.5 167.474ZM334.515 137.971C328.428 141.837 323.512 149.088 320.358 154.505C318.698 157.355 317.362 159.991 316.441 161.914C315.979 162.878 315.618 163.671 315.369 164.23C315.244 164.51 315.147 164.732 315.08 164.889C315.046 164.967 315.019 165.029 315 165.074C314.991 165.096 314.983 165.114 314.977 165.128C314.975 165.134 314.972 165.14 314.97 165.145C314.969 165.147 314.968 165.149 314.968 165.151C314.967 165.152 314.967 165.153 314.967 165.153C314.966 165.154 314.966 165.155 320.5 167.474C326.034 169.792 326.033 169.793 326.033 169.794C326.033 169.794 326.033 169.795 326.032 169.795C326.032 169.796 326.032 169.796 326.032 169.796C326.032 169.796 326.032 169.795 326.033 169.793C326.035 169.789 326.039 169.781 326.044 169.768C326.055 169.743 326.073 169.701 326.097 169.643C326.147 169.527 326.225 169.349 326.33 169.114C326.539 168.644 326.854 167.953 327.263 167.099C328.084 165.385 329.27 163.047 330.728 160.543C333.807 155.254 337.507 150.286 340.949 148.101L334.515 137.971ZM374.479 133.189C373.651 127.247 373.65 127.247 373.649 127.247C373.649 127.247 373.648 127.247 373.648 127.247C373.646 127.247 373.644 127.248 373.642 127.248C373.637 127.249 373.631 127.25 373.623 127.251C373.607 127.253 373.585 127.256 373.556 127.26C373.499 127.268 373.416 127.28 373.309 127.296C373.096 127.327 372.787 127.372 372.392 127.432C371.604 127.551 370.474 127.728 369.091 127.958C366.329 128.419 362.537 129.099 358.427 129.975C354.331 130.849 349.844 131.933 345.716 133.213C341.693 134.461 337.587 136.02 334.515 137.971L340.949 148.101C342.641 147.026 345.51 145.841 349.27 144.675C352.926 143.541 357.03 142.543 360.93 141.711C364.816 140.882 368.424 140.235 371.064 139.795C372.382 139.575 373.453 139.408 374.19 139.296C374.558 139.241 374.843 139.199 375.033 139.171C375.128 139.157 375.199 139.147 375.245 139.141C375.269 139.137 375.285 139.135 375.296 139.133C375.301 139.133 375.305 139.132 375.307 139.132C375.308 139.132 375.308 139.132 375.308 139.132C375.308 139.132 375.308 139.132 375.308 139.132C375.308 139.132 375.308 139.132 374.479 133.189ZM311.062 88.7187L370.664 137.82L378.294 128.558L318.692 79.4569L311.062 88.7187ZM289.274 123.376C296.411 116.798 304.058 107.788 309.822 100.579C312.727 96.944 315.201 93.7083 316.949 91.3793C317.824 90.2141 318.519 89.2739 318.997 88.622C319.236 88.296 319.421 88.0419 319.548 87.8676C319.611 87.7805 319.66 87.7133 319.693 87.6671C319.71 87.644 319.723 87.6261 319.732 87.6135C319.736 87.6073 319.74 87.6023 319.742 87.5988C319.744 87.597 319.745 87.5955 319.746 87.5944C319.746 87.5938 319.746 87.5933 319.747 87.593C319.747 87.5925 319.747 87.5921 314.877 84.0878C310.007 80.5835 310.007 80.5833 310.007 80.5831C310.007 80.5832 310.007 80.5831 310.007 80.5832C310.007 80.5835 310.006 80.5841 310.006 80.585C310.004 80.5868 310.002 80.59 309.999 80.5946C309.992 80.6036 309.982 80.618 309.968 80.6376C309.939 80.6767 309.896 80.7366 309.838 80.8163C309.722 80.9757 309.548 81.2142 309.321 81.5241C308.867 82.1438 308.198 83.0483 307.353 84.1749C305.66 86.4295 303.262 89.566 300.449 93.0856C294.772 100.186 287.585 108.613 281.141 114.552L289.274 123.376ZM252.283 151.248C261.155 145.238 279.059 132.79 289.274 123.376L281.141 114.552C271.691 123.261 254.536 135.228 245.553 141.314L252.283 151.248ZM231.556 110.728C226.555 114.044 226.555 114.043 226.554 114.043C226.554 114.043 226.554 114.042 226.554 114.042C226.554 114.042 226.553 114.042 226.554 114.042C226.554 114.042 226.555 114.043 226.556 114.046C226.559 114.05 226.565 114.059 226.573 114.071C226.589 114.095 226.615 114.136 226.651 114.191C226.723 114.301 226.833 114.472 226.978 114.699C227.269 115.154 227.698 115.836 228.237 116.719C229.315 118.486 230.828 121.05 232.539 124.198C235.974 130.518 240.147 139.078 243.235 148.204L254.602 144.358C251.218 134.357 246.709 125.14 243.082 118.467C241.261 115.117 239.646 112.379 238.48 110.468C237.897 109.512 237.425 108.762 237.094 108.244C236.929 107.985 236.799 107.784 236.708 107.644C236.663 107.574 236.627 107.52 236.601 107.481C236.589 107.462 236.578 107.446 236.571 107.435C236.567 107.429 236.564 107.424 236.562 107.421C236.56 107.419 236.559 107.417 236.558 107.416C236.558 107.415 236.557 107.414 236.557 107.414C236.557 107.413 236.556 107.413 231.556 110.728ZM212.013 139.352C224.726 135.945 231.425 129.155 234.717 122.598C236.31 119.427 237.019 116.485 237.33 114.303C237.486 113.209 237.544 112.292 237.56 111.612C237.569 111.272 237.567 110.989 237.561 110.771C237.559 110.662 237.555 110.569 237.551 110.493C237.55 110.454 237.548 110.421 237.546 110.391C237.545 110.376 237.544 110.362 237.544 110.35C237.543 110.344 237.543 110.337 237.542 110.332C237.542 110.329 237.542 110.325 237.542 110.323C237.542 110.319 237.541 110.315 231.556 110.728C225.57 111.141 225.57 111.138 225.569 111.134C225.569 111.133 225.569 111.129 225.569 111.126C225.568 111.122 225.568 111.117 225.568 111.113C225.567 111.104 225.567 111.097 225.567 111.09C225.566 111.077 225.565 111.067 225.565 111.061C225.564 111.049 225.565 111.052 225.565 111.067C225.566 111.099 225.567 111.184 225.564 111.317C225.557 111.583 225.532 112.029 225.45 112.61C225.283 113.777 224.892 115.423 223.993 117.213C222.303 120.58 218.454 125.203 208.908 127.761L212.013 139.352ZM180.778 124.334C175.387 126.969 175.389 126.973 175.391 126.977C175.392 126.978 175.393 126.982 175.395 126.984C175.397 126.989 175.4 126.995 175.403 127C175.408 127.012 175.414 127.024 175.421 127.037C175.434 127.064 175.45 127.094 175.467 127.128C175.502 127.196 175.546 127.278 175.598 127.374C175.702 127.566 175.842 127.812 176.02 128.102C176.374 128.682 176.883 129.448 177.565 130.317C178.925 132.051 181.01 134.244 183.975 136.195C190.104 140.226 199.301 142.758 212.013 139.352L208.908 127.761C199.362 130.318 193.717 128.239 190.569 126.169C188.896 125.068 187.734 123.838 187.006 122.91C186.644 122.449 186.399 122.075 186.261 121.848C186.192 121.735 186.15 121.661 186.135 121.633C186.128 121.619 186.127 121.617 186.132 121.627C186.135 121.633 186.139 121.641 186.145 121.653C186.148 121.659 186.152 121.666 186.155 121.673C186.157 121.677 186.159 121.681 186.161 121.686C186.163 121.688 186.164 121.691 186.165 121.692C186.166 121.696 186.168 121.699 180.778 124.334ZM189.572 163.465C187.582 153.888 186.872 144.182 186.669 136.81C186.569 133.14 186.595 130.083 186.645 127.956C186.67 126.893 186.702 126.064 186.726 125.509C186.738 125.231 186.749 125.022 186.756 124.886C186.76 124.819 186.762 124.769 186.764 124.739C186.765 124.724 186.766 124.713 186.766 124.708C186.766 124.705 186.766 124.703 186.766 124.703C186.766 124.703 186.766 124.703 186.766 124.703C186.766 124.703 186.766 124.704 186.766 124.704C186.766 124.705 186.766 124.705 180.778 124.334C174.789 123.963 174.789 123.964 174.789 123.965C174.789 123.965 174.789 123.966 174.789 123.967C174.789 123.969 174.789 123.971 174.789 123.973C174.788 123.977 174.788 123.983 174.788 123.99C174.787 124.004 174.786 124.023 174.784 124.047C174.781 124.095 174.778 124.161 174.773 124.247C174.764 124.418 174.752 124.664 174.738 124.979C174.71 125.61 174.676 126.521 174.648 127.671C174.594 129.97 174.567 133.234 174.674 137.14C174.887 144.92 175.637 155.39 177.823 165.906L189.572 163.465ZM184.123 158.701C173.458 157.941 152.185 156.145 139.457 153.285L136.826 164.993C150.576 168.083 172.747 169.921 183.271 170.67L184.123 158.701ZM139.457 153.285C130.907 151.364 120.469 147.659 112.003 144.349C107.807 142.707 104.162 141.19 101.569 140.084C100.273 139.531 99.2424 139.082 98.5388 138.772C98.187 138.617 97.9173 138.498 97.7373 138.418C97.6473 138.378 97.5798 138.347 97.5358 138.328C97.5137 138.318 97.4976 138.31 97.4874 138.306C97.4823 138.304 97.4787 138.302 97.4766 138.301C97.4756 138.301 97.4749 138.3 97.4747 138.3C97.4745 138.3 97.4746 138.3 97.4745 138.3C97.4747 138.3 97.475 138.3 95.0093 143.77C92.5436 149.24 92.5441 149.24 92.5446 149.241C92.545 149.241 92.5456 149.241 92.5462 149.241C92.5475 149.242 92.5491 149.243 92.5511 149.244C92.5551 149.245 92.5607 149.248 92.5677 149.251C92.5818 149.257 92.602 149.266 92.628 149.278C92.6801 149.301 92.7558 149.335 92.8541 149.379C93.0508 149.467 93.3382 149.594 93.7083 149.757C94.4484 150.082 95.5202 150.549 96.8603 151.121C99.539 152.264 103.299 153.829 107.633 155.524C116.228 158.886 127.356 162.865 136.826 164.993L139.457 153.285ZM89.3899 141.667L62.3235 213.992L73.5623 218.198L100.629 145.873L89.3899 141.667ZM67.9429 216.095C70.1967 221.655 70.1964 221.655 70.1961 221.655C70.1961 221.655 70.196 221.656 70.196 221.655C70.1962 221.655 70.1967 221.655 70.1977 221.655C70.1995 221.654 70.2029 221.653 70.2077 221.651C70.2175 221.647 70.2333 221.64 70.255 221.632C70.2983 221.614 70.3652 221.587 70.4543 221.552C70.6327 221.481 70.9002 221.375 71.2472 221.239C71.9414 220.967 72.9524 220.576 74.2033 220.108C76.7095 219.169 80.1577 217.926 83.9378 216.7C87.7307 215.471 91.7844 214.283 95.5173 213.437C99.3572 212.567 102.434 212.158 104.437 212.243L104.944 200.253C101.308 200.1 96.972 200.803 92.8644 201.734C88.6499 202.689 84.2216 203.993 80.2372 205.285C76.2403 206.581 72.6161 207.888 69.9942 208.87C68.6812 209.362 67.6143 209.774 66.8716 210.065C66.5001 210.211 66.2094 210.326 66.0091 210.406C65.909 210.446 65.8314 210.477 65.7777 210.498C65.7508 210.509 65.7299 210.517 65.7151 210.523C65.7077 210.526 65.7018 210.529 65.6975 210.531C65.6953 210.531 65.6935 210.532 65.6921 210.533C65.6914 210.533 65.6907 210.533 65.6903 210.533C65.6897 210.534 65.6891 210.534 67.9429 216.095ZM104.437 212.243C108.51 212.415 114.198 214.867 119.51 217.908C122.024 219.347 124.22 220.78 125.788 221.853C126.569 222.388 127.187 222.829 127.604 223.131C127.812 223.282 127.969 223.398 128.07 223.474C128.12 223.511 128.157 223.539 128.179 223.555C128.19 223.563 128.197 223.569 128.2 223.572C128.202 223.573 128.203 223.574 128.203 223.573C128.203 223.573 128.202 223.573 128.202 223.573C128.202 223.573 128.201 223.572 128.201 223.572C128.2 223.572 128.2 223.571 131.833 218.796C135.466 214.021 135.465 214.021 135.464 214.02C135.464 214.02 135.463 214.019 135.462 214.018C135.461 214.017 135.459 214.016 135.457 214.014C135.453 214.011 135.448 214.008 135.442 214.003C135.43 213.994 135.415 213.982 135.395 213.968C135.357 213.939 135.303 213.898 135.234 213.847C135.097 213.745 134.902 213.601 134.655 213.421C134.159 213.062 133.45 212.556 132.568 211.952C130.809 210.747 128.334 209.132 125.472 207.494C120.032 204.38 112.149 200.558 104.944 200.253L104.437 212.243ZM131.833 218.796C136.181 222.931 136.181 222.931 136.18 222.931C136.181 222.931 136.18 222.931 136.18 222.931C136.181 222.931 136.181 222.931 136.181 222.93C136.183 222.929 136.185 222.927 136.187 222.924C136.193 222.918 136.203 222.908 136.216 222.894C136.242 222.867 136.282 222.825 136.335 222.769C136.443 222.657 136.604 222.489 136.815 222.272C137.237 221.836 137.857 221.201 138.636 220.415C140.197 218.842 142.389 216.671 144.914 214.285C150.048 209.433 156.25 203.986 161.242 200.742L154.704 190.68C148.736 194.557 141.868 200.653 136.672 205.563C134.031 208.058 131.744 210.324 130.115 211.966C129.3 212.788 128.649 213.456 128.198 213.921C127.972 214.153 127.797 214.336 127.677 214.461C127.616 214.524 127.57 214.572 127.538 214.606C127.522 214.623 127.509 214.636 127.5 214.645C127.496 214.65 127.492 214.654 127.49 214.656C127.488 214.658 127.487 214.659 127.487 214.66C127.486 214.66 127.486 214.661 127.485 214.661C127.485 214.661 127.485 214.662 131.833 218.796ZM161.242 200.742C168.576 195.977 182.945 189.644 190.839 186.314L186.175 175.257C178.493 178.498 163.093 185.229 154.704 190.68L161.242 200.742ZM227.39 196.737C217.847 199.294 211.177 197.89 206.263 194.764C201.135 191.502 197.104 185.844 194.048 178.485L182.965 183.086C186.53 191.672 191.83 199.805 199.822 204.889C208.027 210.109 218.265 211.605 230.496 208.328L227.39 196.737Z" fill="black"/>
<path fill-rule="evenodd" clip-rule="evenodd" d="M885.484 504.676C900.313 513.237 911.328 506.686 919.143 496.085C924.177 499.998 933.231 507.259 937.771 512.269C944.263 519.432 952.111 533.672 952.111 533.672C952.111 533.672 965.703 528.198 973.845 530.044C981.988 531.89 998.241 544.129 998.241 544.129L992.468 487.69C992.468 487.69 972.413 490.841 958.787 490.219C948.901 489.767 933.318 486.915 925.509 485.383C931.991 472.119 934.823 458.106 934.823 458.106C934.823 458.106 926.62 467.52 911.857 458.997C897.095 450.474 901.146 438.663 901.146 438.663C901.146 438.663 889.866 448.617 881.547 461.322C876.337 455.352 866.009 443.215 860.651 434.842C853.299 423.353 846.001 404.409 846.001 404.409L794.237 427.629C794.237 427.629 812.963 435.585 818.632 441.714C824.302 447.843 826.358 462.35 826.358 462.35C826.358 462.35 842.614 462.027 852.063 464.067C858.779 465.518 869.837 469.842 875.674 472.223C870.824 483.997 871.061 496.349 885.484 504.676Z" fill="black"/>
<path d="M919.143 496.085L922.825 491.348C921.548 490.355 919.924 489.92 918.321 490.142C916.719 490.363 915.273 491.223 914.313 492.525L919.143 496.085ZM937.771 512.269L942.217 508.239L942.217 508.239L937.771 512.269ZM952.111 533.672L946.857 536.568C948.321 539.225 951.538 540.371 954.353 539.237L952.111 533.672ZM998.241 544.129L994.632 548.922C996.537 550.357 999.112 550.527 1001.19 549.355C1003.27 548.183 1004.45 545.891 1004.21 543.518L998.241 544.129ZM992.468 487.69L998.437 487.079C998.269 485.44 997.435 483.943 996.13 482.937C994.825 481.932 993.164 481.507 991.537 481.763L992.468 487.69ZM958.787 490.219L958.513 496.213L958.787 490.219ZM925.509 485.383L920.118 482.748C919.299 484.423 919.306 486.384 920.136 488.053C920.966 489.723 922.524 490.912 924.354 491.271L925.509 485.383ZM934.823 458.106L940.704 459.295C941.243 456.626 939.918 453.929 937.476 452.725C935.035 451.521 932.088 452.112 930.299 454.164L934.823 458.106ZM901.146 438.663L906.821 440.609C907.705 438.034 906.743 435.187 904.48 433.674C902.216 432.161 899.217 432.362 897.176 434.164L901.146 438.663ZM881.547 461.322L877.026 465.267C878.261 466.682 880.087 467.437 881.96 467.308C883.833 467.179 885.538 466.18 886.566 464.609L881.547 461.322ZM860.651 434.842L855.597 438.076L860.651 434.842ZM846.001 404.409L851.6 402.252C851.007 400.715 849.809 399.489 848.286 398.861C846.763 398.234 845.048 398.26 843.545 398.935L846.001 404.409ZM794.237 427.629L791.781 422.154C789.605 423.131 788.213 425.303 788.237 427.689C788.261 430.074 789.695 432.218 791.89 433.151L794.237 427.629ZM818.632 441.714L823.037 437.639L823.037 437.639L818.632 441.714ZM826.358 462.35L820.417 463.192C820.842 466.196 823.444 468.409 826.477 468.349L826.358 462.35ZM852.063 464.067L853.33 458.203L852.063 464.067ZM875.674 472.223L881.222 474.508C881.829 473.034 881.825 471.378 881.209 469.906C880.593 468.435 879.417 467.27 877.94 466.667L875.674 472.223ZM914.313 492.525C910.784 497.313 906.984 500.54 903.018 501.884C899.324 503.136 894.653 503.041 888.484 499.48L882.484 509.872C891.144 514.872 899.396 515.782 906.87 513.249C914.072 510.808 919.688 505.458 923.972 499.646L914.313 492.525ZM942.217 508.239C937.263 502.774 927.775 495.196 922.825 491.348L915.461 500.822C920.578 504.801 929.198 511.744 933.325 516.298L942.217 508.239ZM952.111 533.672C957.366 530.776 957.366 530.775 957.366 530.775C957.366 530.775 957.365 530.774 957.365 530.774C957.364 530.773 957.364 530.772 957.363 530.77C957.362 530.768 957.36 530.764 957.357 530.76C957.352 530.751 957.346 530.739 957.337 530.723C957.32 530.692 957.295 530.648 957.263 530.591C957.2 530.476 957.107 530.311 956.989 530.101C956.751 529.68 956.408 529.075 955.977 528.33C955.116 526.842 953.898 524.781 952.469 522.486C949.673 517.994 945.85 512.248 942.217 508.239L933.325 516.298C936.184 519.452 939.531 524.409 942.282 528.827C943.627 530.988 944.777 532.935 945.59 534.34C945.996 535.042 946.317 535.606 946.534 535.991C946.643 536.184 946.725 536.332 946.78 536.43C946.807 536.479 946.827 536.515 946.84 536.538C946.847 536.55 946.851 536.558 946.854 536.563C946.855 536.566 946.856 536.567 946.857 536.568C946.857 536.569 946.857 536.569 946.857 536.569C946.857 536.569 946.857 536.569 946.857 536.569C946.857 536.568 946.857 536.568 952.111 533.672ZM975.172 524.192C969.583 522.926 962.92 524.198 958.428 525.356C956.026 525.974 953.914 526.652 952.402 527.175C951.644 527.437 951.029 527.662 950.595 527.826C950.378 527.908 950.206 527.974 950.084 528.022C950.023 528.046 949.974 528.065 949.938 528.079C949.92 528.086 949.905 528.092 949.894 528.097C949.888 528.099 949.883 528.101 949.879 528.102C949.877 528.103 949.876 528.104 949.874 528.105C949.873 528.105 949.872 528.105 949.872 528.106C949.871 528.106 949.87 528.106 952.111 533.672C954.353 539.237 954.352 539.238 954.351 539.238C954.351 539.238 954.35 539.238 954.35 539.239C954.349 539.239 954.349 539.239 954.348 539.239C954.347 539.24 954.348 539.24 954.348 539.239C954.35 539.239 954.355 539.237 954.363 539.233C954.379 539.227 954.408 539.216 954.448 539.2C954.529 539.168 954.657 539.119 954.827 539.055C955.169 538.926 955.679 538.738 956.322 538.516C957.614 538.07 959.408 537.495 961.422 536.976C965.761 535.858 969.965 535.317 972.519 535.896L975.172 524.192ZM998.241 544.129C1001.85 539.336 1001.85 539.336 1001.85 539.335C1001.85 539.335 1001.85 539.335 1001.85 539.334C1001.85 539.333 1001.85 539.332 1001.84 539.331C1001.84 539.329 1001.84 539.326 1001.83 539.322C1001.82 539.315 1001.81 539.304 1001.79 539.291C1001.76 539.265 1001.7 539.227 1001.64 539.178C1001.51 539.081 1001.32 538.941 1001.08 538.765C1000.6 538.411 999.908 537.908 999.056 537.301C997.355 536.089 994.993 534.449 992.358 532.742C989.734 531.043 986.775 529.237 983.89 527.716C981.102 526.246 977.996 524.833 975.172 524.192L972.519 535.896C973.766 536.178 975.745 536.987 978.294 538.331C980.747 539.624 983.378 541.224 985.835 542.815C988.281 544.399 990.492 545.934 992.093 547.074C992.892 547.643 993.534 548.111 993.974 548.434C994.194 548.596 994.362 548.721 994.474 548.804C994.53 548.846 994.571 548.877 994.598 548.897C994.611 548.906 994.621 548.914 994.626 548.918C994.629 548.92 994.631 548.921 994.632 548.922C994.632 548.922 994.633 548.923 994.633 548.923C994.633 548.923 994.632 548.922 994.632 548.922C994.632 548.922 994.632 548.922 998.241 544.129ZM986.499 488.3L992.272 544.739L1004.21 543.518L998.437 487.079L986.499 488.3ZM958.513 496.213C965.795 496.545 974.582 495.872 981.368 495.155C984.8 494.792 987.794 494.409 989.933 494.117C991.004 493.971 991.862 493.847 992.457 493.76C992.754 493.716 992.986 493.681 993.145 493.656C993.225 493.644 993.286 493.635 993.329 493.628C993.35 493.625 993.367 493.622 993.379 493.62C993.384 493.619 993.389 493.619 993.393 493.618C993.394 493.618 993.396 493.618 993.397 493.617C993.398 493.617 993.398 493.617 993.398 493.617C993.399 493.617 993.399 493.617 992.468 487.69C991.537 481.763 991.537 481.763 991.537 481.762C991.537 481.762 991.537 481.762 991.537 481.762C991.537 481.762 991.537 481.763 991.536 481.763C991.535 481.763 991.532 481.763 991.528 481.764C991.521 481.765 991.508 481.767 991.491 481.77C991.457 481.775 991.405 481.783 991.334 481.794C991.193 481.815 990.98 481.847 990.703 481.888C990.147 481.971 989.333 482.088 988.31 482.228C986.263 482.507 983.392 482.874 980.107 483.221C973.459 483.924 965.406 484.515 959.061 484.225L958.513 496.213ZM924.354 491.271C932.097 492.79 948.111 495.738 958.513 496.213L959.061 484.225C949.69 483.797 934.539 481.04 926.664 479.495L924.354 491.271ZM934.823 458.106C928.942 456.917 928.942 456.917 928.942 456.916C928.942 456.916 928.942 456.915 928.942 456.915C928.942 456.914 928.943 456.914 928.943 456.914C928.943 456.914 928.942 456.914 928.942 456.915C928.942 456.918 928.94 456.924 928.938 456.934C928.935 456.952 928.928 456.984 928.919 457.029C928.9 457.117 928.87 457.257 928.829 457.443C928.747 457.816 928.62 458.377 928.446 459.096C928.099 460.536 927.568 462.605 926.84 465.077C925.378 470.047 923.161 476.522 920.118 482.748L930.9 488.017C934.339 480.979 936.778 473.816 938.353 468.464C939.144 465.774 939.725 463.512 940.112 461.909C940.305 461.108 940.45 460.47 940.548 460.025C940.597 459.802 940.634 459.628 940.66 459.505C940.673 459.443 940.683 459.395 940.691 459.36C940.694 459.342 940.697 459.328 940.699 459.317C940.701 459.312 940.701 459.307 940.702 459.303C940.703 459.301 940.703 459.3 940.703 459.298C940.703 459.298 940.704 459.297 940.704 459.296C940.704 459.296 940.704 459.295 934.823 458.106ZM908.857 464.193C917.656 469.273 925.169 469.293 930.759 467.444C933.441 466.558 935.499 465.302 936.909 464.245C937.617 463.714 938.173 463.225 938.577 462.841C938.779 462.649 938.944 462.482 939.072 462.348C939.136 462.28 939.191 462.221 939.237 462.171C939.259 462.146 939.28 462.123 939.298 462.102C939.308 462.092 939.316 462.082 939.324 462.073C939.328 462.069 939.332 462.064 939.336 462.06C939.338 462.058 939.34 462.055 939.341 462.054C939.344 462.051 939.346 462.048 934.823 458.106C930.299 454.164 930.302 454.161 930.304 454.158C930.305 454.158 930.308 454.155 930.309 454.153C930.313 454.149 930.316 454.146 930.319 454.142C930.325 454.135 930.33 454.129 930.335 454.123C930.346 454.112 930.354 454.102 930.361 454.095C930.375 454.079 930.382 454.072 930.382 454.072C930.383 454.071 930.358 454.098 930.307 454.146C930.204 454.244 930.004 454.424 929.712 454.643C929.122 455.085 928.207 455.649 926.993 456.051C924.791 456.779 920.822 457.244 914.857 453.801L908.857 464.193ZM901.146 438.663C895.471 436.716 895.469 436.72 895.468 436.724C895.468 436.725 895.466 436.729 895.465 436.731C895.463 436.737 895.462 436.742 895.46 436.748C895.456 436.76 895.452 436.772 895.447 436.785C895.439 436.811 895.429 436.84 895.419 436.873C895.398 436.937 895.374 437.015 895.348 437.104C895.296 437.282 895.234 437.508 895.168 437.78C895.038 438.321 894.892 439.047 894.787 439.925C894.576 441.675 894.517 444.085 895.091 446.851C896.285 452.617 900.059 459.113 908.857 464.193L914.857 453.801C908.893 450.357 907.311 446.687 906.841 444.416C906.582 443.164 906.613 442.089 906.701 441.357C906.744 440.995 906.8 440.732 906.833 440.594C906.85 440.526 906.86 440.49 906.86 440.491C906.86 440.492 906.857 440.501 906.851 440.521C906.848 440.531 906.844 440.543 906.839 440.558C906.836 440.565 906.834 440.573 906.831 440.582C906.829 440.586 906.828 440.59 906.826 440.595C906.826 440.597 906.824 440.601 906.824 440.602C906.823 440.606 906.821 440.609 901.146 438.663ZM886.566 464.609C890.462 458.66 895.104 453.281 898.823 449.353C900.672 447.401 902.268 445.832 903.393 444.76C903.955 444.224 904.398 443.814 904.695 443.542C904.843 443.407 904.955 443.306 905.026 443.242C905.062 443.21 905.087 443.187 905.102 443.173C905.11 443.167 905.115 443.162 905.117 443.16C905.118 443.159 905.119 443.159 905.119 443.159C905.119 443.159 905.118 443.159 905.118 443.16C905.118 443.16 905.117 443.16 905.117 443.161C905.117 443.161 905.116 443.161 901.146 438.663C897.176 434.164 897.175 434.164 897.175 434.165C897.174 434.165 897.174 434.166 897.173 434.166C897.172 434.167 897.171 434.169 897.169 434.17C897.166 434.172 897.163 434.176 897.158 434.18C897.15 434.187 897.138 434.197 897.124 434.21C897.096 434.235 897.058 434.269 897.009 434.313C896.911 434.401 896.772 434.527 896.595 434.688C896.243 435.011 895.739 435.477 895.114 436.073C893.864 437.264 892.12 438.979 890.109 441.103C886.108 445.328 880.951 451.279 876.527 458.035L886.566 464.609ZM886.067 457.377C880.812 451.355 870.783 439.545 865.705 431.608L855.597 438.076C861.234 446.885 871.861 459.349 877.026 465.267L886.067 457.377ZM865.705 431.608C862.282 426.258 858.767 418.988 856.052 412.88C854.71 409.861 853.592 407.191 852.81 405.279C852.42 404.323 852.114 403.559 851.908 403.037C851.804 402.776 851.726 402.576 851.674 402.443C851.648 402.377 851.629 402.327 851.616 402.295C851.61 402.279 851.606 402.267 851.603 402.26C851.601 402.256 851.6 402.254 851.6 402.253C851.6 402.252 851.6 402.252 851.6 402.251C851.599 402.251 851.6 402.252 851.6 402.252C851.6 402.252 851.6 402.252 846.001 404.409C840.402 406.566 840.402 406.566 840.402 406.567C840.402 406.567 840.403 406.568 840.403 406.568C840.403 406.569 840.404 406.571 840.404 406.572C840.406 406.576 840.407 406.58 840.41 406.586C840.414 406.597 840.42 406.613 840.428 406.633C840.443 406.673 840.466 406.731 840.495 406.806C840.554 406.956 840.639 407.174 840.75 407.454C840.971 408.013 841.293 408.818 841.702 409.818C842.519 411.817 843.685 414.601 845.086 417.754C847.858 423.99 851.668 431.936 855.597 438.076L865.705 431.608ZM843.545 398.935L791.781 422.154L796.692 433.103L848.457 409.883L843.545 398.935ZM794.237 427.629C791.89 433.151 791.89 433.151 791.89 433.151C791.89 433.151 791.889 433.151 791.889 433.151C791.889 433.151 791.89 433.151 791.89 433.151C791.891 433.152 791.893 433.152 791.897 433.154C791.903 433.157 791.914 433.161 791.929 433.168C791.96 433.181 792.008 433.201 792.072 433.229C792.199 433.284 792.392 433.368 792.642 433.477C793.141 433.696 793.868 434.019 794.76 434.426C796.549 435.243 798.983 436.389 801.578 437.716C804.184 439.048 806.885 440.527 809.231 442.005C811.67 443.54 813.36 444.85 814.228 445.788L823.037 437.639C821.07 435.513 818.293 433.53 815.626 431.85C812.867 430.113 809.823 428.453 807.039 427.031C804.244 425.602 801.642 424.376 799.742 423.509C798.79 423.075 798.01 422.728 797.463 422.488C797.19 422.368 796.974 422.275 796.825 422.211C796.75 422.178 796.692 422.153 796.652 422.136C796.631 422.127 796.615 422.121 796.604 422.116C796.598 422.113 796.593 422.111 796.59 422.11C796.588 422.109 796.587 422.108 796.586 422.108C796.585 422.108 796.584 422.107 796.584 422.107C796.583 422.107 796.583 422.107 794.237 427.629ZM814.228 445.788C816.006 447.711 817.64 451.622 818.841 455.939C819.398 457.942 819.798 459.784 820.057 461.126C820.186 461.793 820.279 462.329 820.338 462.689C820.367 462.869 820.389 463.005 820.402 463.09C820.408 463.133 820.413 463.164 820.415 463.181C820.417 463.189 820.417 463.194 820.418 463.196C820.418 463.197 820.418 463.197 820.418 463.197C820.418 463.196 820.417 463.196 820.417 463.195C820.417 463.194 820.417 463.194 820.417 463.193C820.417 463.192 820.417 463.192 826.358 462.35C832.298 461.508 832.298 461.507 832.298 461.506C832.298 461.506 832.298 461.505 832.298 461.504C832.297 461.502 832.297 461.5 832.297 461.498C832.296 461.494 832.295 461.489 832.295 461.483C832.293 461.47 832.291 461.455 832.288 461.436C832.282 461.398 832.274 461.346 832.265 461.281C832.245 461.151 832.216 460.969 832.179 460.74C832.103 460.283 831.991 459.637 831.839 458.849C831.536 457.279 831.067 455.111 830.402 452.722C829.158 448.252 826.928 441.846 823.037 437.639L814.228 445.788ZM826.358 462.35C826.477 468.349 826.477 468.349 826.476 468.349C826.476 468.349 826.476 468.349 826.476 468.349C826.476 468.349 826.476 468.349 826.477 468.349C826.478 468.349 826.479 468.349 826.482 468.349C826.488 468.349 826.497 468.348 826.511 468.348C826.537 468.348 826.579 468.347 826.635 468.346C826.747 468.344 826.916 468.342 827.137 468.34C827.58 468.335 828.229 468.331 829.04 468.331C830.663 468.333 832.924 468.356 835.468 468.44C840.67 468.613 846.636 469.034 850.797 469.932L853.33 458.203C848.041 457.06 841.154 456.622 835.866 456.447C833.164 456.357 830.771 456.333 829.051 456.331C828.19 456.331 827.495 456.335 827.012 456.34C826.77 456.343 826.581 456.346 826.45 456.348C826.385 456.349 826.334 456.349 826.298 456.35C826.281 456.35 826.267 456.351 826.257 456.351C826.252 456.351 826.248 456.351 826.244 456.351C826.243 456.351 826.242 456.351 826.241 456.351C826.24 456.351 826.24 456.351 826.239 456.351C826.239 456.351 826.238 456.351 826.358 462.35ZM850.797 469.932C856.906 471.251 867.468 475.355 873.408 477.778L877.94 466.667C872.206 464.328 860.651 459.784 853.33 458.203L850.797 469.932ZM888.484 499.48C882.473 496.009 880.036 492.129 879.206 488.429C878.322 484.485 879.051 479.778 881.222 474.508L870.126 469.937C867.447 476.441 865.87 483.798 867.497 491.055C869.179 498.556 874.072 505.015 882.484 509.872L888.484 499.48Z" fill="black"/>
</svg>
