<svg width="1080" height="1080" viewBox="0 0 1080 1080" fill="none" xmlns="http://www.w3.org/2000/svg">
<ellipse cx="577" cy="619" rx="211" ry="196" fill="white" stroke="black" stroke-width="24" stroke-linecap="round" stroke-linejoin="round"/>
<ellipse cx="707" cy="625.5" rx="42" ry="58.5" fill="black" stroke="black" stroke-width="8" stroke-linecap="round" stroke-linejoin="round"/>
<path fill-rule="evenodd" clip-rule="evenodd" d="M700 572.238C700 572.238 727.523 597.376 731.34 616.518C735.157 635.66 718.804 666.537 718.804 666.537C718.804 666.537 746.227 645.217 739.959 613.238C733.691 581.258 700 572.238 700 572.238Z" fill="white" stroke="white" stroke-width="2" stroke-linecap="round" stroke-linejoin="round"/>
<ellipse cx="531" cy="625.5" rx="42" ry="58.5" fill="black" stroke="black" stroke-width="8" stroke-linecap="round" stroke-linejoin="round"/>
<path fill-rule="evenodd" clip-rule="evenodd" d="M524 572.238C524 572.238 551.523 597.376 555.34 616.518C559.157 635.66 542.804 666.537 542.804 666.537C542.804 666.537 570.227 645.217 563.959 613.238C557.691 581.258 524 572.238 524 572.238Z" fill="white" stroke="white" stroke-width="2" stroke-linecap="round" stroke-linejoin="round"/>
<path fill-rule="evenodd" clip-rule="evenodd" d="M627.08 670L616.019 713.993C614.603 719.625 619.47 724.842 625.187 723.819L645.386 720.204C650.952 719.207 653.756 712.907 650.77 708.105L627.08 670Z" fill="black" stroke="black" stroke-width="8" stroke-linecap="round" stroke-linejoin="round"/>
<path d="M596 765L606 809" stroke="black" stroke-width="12" stroke-linecap="round" stroke-linejoin="round"/>
<path d="M638 752L649 799" stroke="black" stroke-width="12" stroke-linecap="round" stroke-linejoin="round"/>
<path d="M681 743L692 787" stroke="black" stroke-width="12" stroke-linecap="round" stroke-linejoin="round"/>
<path d="M366 624C366 624 339.189 605.338 304 592C268.811 578.662 242 577 242 577" stroke="black" stroke-width="24" stroke-linecap="round" stroke-linejoin="round"/>
</svg>
