<svg width="1080" height="1080" viewBox="0 0 1080 1080" fill="none" xmlns="http://www.w3.org/2000/svg">
<path fill-rule="evenodd" clip-rule="evenodd" d="M474 161C474 161 476.268 128.873 474 113C471.732 97.127 461 70 461 70L511 52C511 52 522.668 68.5871 531 94C539.332 119.413 551 174 551 174L474 161Z" fill="black" stroke="black" stroke-width="12" stroke-linecap="round" stroke-linejoin="round"/>
<path fill-rule="evenodd" clip-rule="evenodd" d="M371 358C371 358 330.485 289.551 325.26 263.327C314.434 208.986 338.014 177.544 356 169C396 150 438 182 438 182C438 182 470.846 141 509 141C547.154 141 588 182 588 182C588 182 641.785 152.386 668 176C679.794 186.624 701.352 218.617 692.674 271.98C688.492 297.692 653 364 653 364C653 364 612 323 509 323C406 323 371 358 371 358Z" fill="white" stroke="black" stroke-width="12" stroke-linecap="round" stroke-linejoin="round"/>
<path d="M438 182C438 182 435 219.056 435 254.96C435 290.864 438 326 438 326" stroke="black" stroke-width="6" stroke-linecap="round" stroke-linejoin="round"/>
<path d="M586 182C586 182 589 219.056 589 254.96C589 290.864 586 326 586 326" stroke="black" stroke-width="6" stroke-linecap="round" stroke-linejoin="round"/>
<path fill-rule="evenodd" clip-rule="evenodd" d="M573.121 194L559 238L598 232.5L573.121 194Z" fill="black" stroke="black" stroke-width="12" stroke-linecap="round" stroke-linejoin="round"/>
<path fill-rule="evenodd" clip-rule="evenodd" d="M449.879 194L464 238L425 232.5L449.879 194Z" fill="black" stroke="black" stroke-width="12" stroke-linecap="round" stroke-linejoin="round"/>
<path fill-rule="evenodd" clip-rule="evenodd" d="M421 255C421 255 444.107 264.561 458.083 268.5C472.058 272.439 483.092 272.5 483.092 272.5V291.5H511.55V272.5C511.55 272.5 536.568 273.906 555.532 270.5C574.496 267.094 609 255 609 255C609 255 562.431 299 499.477 299C436.523 299 421 255 421 255Z" fill="black" stroke="black" stroke-width="12" stroke-linecap="round" stroke-linejoin="round"/>
</svg>
