<svg width="183" height="90" viewBox="0 0 183 90" fill="none" xmlns="http://www.w3.org/2000/svg">
<path fill-rule="evenodd" clip-rule="evenodd" d="M165 19.0435C165 19.0435 121.693 22.6922 93.6188 21.3913C65.5442 20.0904 13 12 13 12C13 12 36.5138 84 90.2597 84C119.652 84 133.489 72.4405 148.204 50.3478C154.215 41.324 165 19.0435 165 19.0435Z" stroke="black" stroke-width="12" stroke-linecap="round" stroke-linejoin="round"/>
<path d="M177 16.4444C177 16.4444 129.212 24.2222 91.4848 21.1111C53.7576 18 11 11 11 11" stroke="black" stroke-width="12" stroke-linecap="round" stroke-linejoin="round"/>
<path d="M6 16C6 16 8.4375 11.3846 11.6875 9.07692C14.9375 6.76923 19 6 19 6" stroke="black" stroke-width="12" stroke-linecap="round" stroke-linejoin="round"/>
<path d="M38 59C38 59 57.3492 48 94.3651 48C131.381 48 144 57.4286 144 57.4286" stroke="black" stroke-width="12" stroke-linecap="round" stroke-linejoin="round"/>
</svg>
