<svg width="136" height="33" viewBox="0 0 136 33" fill="none" xmlns="http://www.w3.org/2000/svg">
<path fill-rule="evenodd" clip-rule="evenodd" d="M4 13.2745C4 13.2745 32.2388 13.788 46.6667 12.1451C61.0945 10.5022 76.872 4.90539 83.345 4.23951C89.818 3.57362 95.3216 7.06295 96.8187 7.06295C98.3158 7.06295 102.058 3.67482 109.544 4.23951C117.029 4.80419 132 13.2745 132 13.2745C132 13.2745 114.784 17.792 87.8363 17.792C37.6842 19.4861 4 13.2745 4 13.2745Z" stroke="black" stroke-width="8" stroke-linecap="round" stroke-linejoin="round"/>
<path d="M129 14C129 14 122.538 19.6073 119 22C113.765 25.5402 108.978 28.8944 98 29C89.5042 29.0817 71.0273 23.9841 60 22C47.1477 19.6876 10 14 10 14" stroke="black" stroke-width="8" stroke-linecap="round" stroke-linejoin="round"/>
</svg>
