<svg width="170" height="63" viewBox="0 0 170 63" fill="none" xmlns="http://www.w3.org/2000/svg">
<path fill-rule="evenodd" clip-rule="evenodd" d="M24 21.7884C24 21.7884 54.8862 22.6687 70.6667 19.8524C86.4471 17.036 103.704 7.44136 110.784 6.29985C117.863 5.15833 123.883 11.14 125.52 11.14C127.158 11.14 131.251 5.33181 139.439 6.29985C147.626 7.26788 164 21.7884 164 21.7884C164 21.7884 145.17 29.5327 115.696 29.5327C60.8421 32.4368 24 21.7884 24 21.7884Z" stroke="black" stroke-width="12" stroke-linecap="round" stroke-linejoin="round"/>
<path d="M160 25C160 25 145 57 116 57C87 57 34 23 34 23L6 20" stroke="black" stroke-width="12" stroke-linecap="round" stroke-linejoin="round"/>
</svg>
