<svg width="179" height="50" viewBox="0 0 179 50" fill="none" xmlns="http://www.w3.org/2000/svg">
<path fill-rule="evenodd" clip-rule="evenodd" d="M4 18.4316C4 18.4316 41.7253 19.2442 61 16.6443C80.2747 14.0444 101.352 5.18744 110 4.13368C118.648 3.07993 126 8.60177 128 8.60177C130 8.60177 135 3.24007 145 4.13368C155 5.0273 175 18.4316 175 18.4316C175 18.4316 152 25.5805 116 25.5805C49 28.2613 4 18.4316 4 18.4316Z" stroke="black" stroke-width="8" stroke-linecap="round" stroke-linejoin="round"/>
<path fill-rule="evenodd" clip-rule="evenodd" d="M162 22.5616C162 22.5616 153.163 37.2252 144.692 41.8625C136.22 46.4998 126.288 43.3191 119 43.3191C111.712 43.3191 97.8633 48.5036 78.1918 43.2411C58.5203 37.9786 29 21.8723 29 21.8723C29 21.8723 69.9936 25.7269 97.3219 26.0082C124.65 26.2896 162 22.5616 162 22.5616Z" stroke="black" stroke-width="8" stroke-linecap="round" stroke-linejoin="round"/>
</svg>
