<svg width="310" height="41" viewBox="0 0 310 41" fill="none" xmlns="http://www.w3.org/2000/svg">
<path fill-rule="evenodd" clip-rule="evenodd" d="M178.391 22.335C181.391 17.335 238.391 -0.664962 258.391 2.33504C278.391 5.33504 307.391 31.335 307.391 31.335C307.391 31.335 280.391 20.335 255.391 20.335C230.391 20.335 195.391 38.335 195.391 38.335C195.391 38.335 175.391 27.335 178.391 22.335Z" fill="black" stroke="black" stroke-width="4" stroke-linecap="round" stroke-linejoin="round"/>
<path fill-rule="evenodd" clip-rule="evenodd" d="M131 22.335C128 17.335 71.0003 -0.664962 51.0003 2.33504C31.0003 5.33504 2.00029 31.335 2.00029 31.335C2.00029 31.335 29.0003 20.335 54.0003 20.335C79.0003 20.335 114 38.335 114 38.335C114 38.335 134 27.335 131 22.335Z" fill="black" stroke="black" stroke-width="4" stroke-linecap="round" stroke-linejoin="round"/>
</svg>
