<svg width="309" height="37" viewBox="0 0 309 37" fill="none" xmlns="http://www.w3.org/2000/svg">
<path fill-rule="evenodd" clip-rule="evenodd" d="M177.91 9.62531C181.416 4.96629 198.95 0.77614 218.527 5.85028C238.104 10.9244 305.263 32.0602 305.263 32.0602C305.263 32.0602 274.746 25.8362 249.883 23.223C225.02 20.6098 184.579 23.023 184.579 23.023C184.579 23.023 174.404 14.2843 177.91 9.62531Z" fill="black" stroke="black" stroke-width="4" stroke-linecap="round" stroke-linejoin="round"/>
<path fill-rule="evenodd" clip-rule="evenodd" d="M129.481 9.62531C125.974 4.96629 108.44 0.77614 88.8636 5.85028C69.2867 10.9244 2.12812 32.0602 2.12812 32.0602C2.12812 32.0602 32.6447 25.8362 57.5078 23.223C82.3708 20.6098 122.812 23.023 122.812 23.023C122.812 23.023 132.987 14.2843 129.481 9.62531Z" fill="black" stroke="black" stroke-width="4" stroke-linecap="round" stroke-linejoin="round"/>
</svg>
