<?xml version="1.0" encoding="UTF-8"?>
<svg width="514px" height="109px" viewBox="0 0 514 109" version="1.1" xmlns="http://www.w3.org/2000/svg" xmlns:xlink="http://www.w3.org/1999/xlink">
    <title>glasses-5</title>
    <g id="All-customizable-items" stroke="none" stroke-width="1" fill="none" fill-rule="evenodd" stroke-linecap="round" stroke-linejoin="round">
        <g id="Glasses/-5" transform="translate(-287.000000, -498.000000)" stroke="#000000">
            <g id="glasses-5" transform="translate(289.000000, 500.000000)">
                <path d="M339.818182,40.2109589 C338.074175,42.9080712 336.862054,47.8943725 336.181818,55.169863 L327.454545,55.169863 C324.545455,28.1013699 305.393939,14.0922374 270,13.1424658 C240.424242,11.2429224 222.727273,23.1150685 216.909091,48.7589041 L205.272727,48.7589041 L190,33.8 L190,10.2931507 C222.484848,2.22009132 249.151515,-1.10410959 270,0.320547945 C285.225486,1.36096427 303.25963,5.13798521 324.62746,9.93254373 L332.545455,11.7178082 C336.214681,12.54746 342.032863,13.4972317 350,14.5671233 L352.073632,14.2846662 C358.984501,13.3293325 364.111473,12.4737132 367.454545,11.7178082 L376.341511,9.71531602 C397.286215,5.02415827 415.005203,1.34520038 430,0.320547945 C450.64,-1.08986301 476.9824,2.15408219 509.0272,10.0523836 L510,10.2931507 L510,33.8 L494.727273,48.7589041 L483.090909,48.7589041 C477.272727,23.1150685 459.575758,11.2429224 430,13.1424658 C394.96,14.0827397 375.8392,27.8224932 372.6376,54.361726 L372.545455,55.169863 L363.818182,55.169863 L363.730382,54.2723496 C363.036013,47.4828217 361.853158,42.7956915 360.181818,40.2109589 C358.482529,37.5830034 355.216835,35.4868176 350.384736,33.9224017 L350,33.8 C344.956128,35.3768603 341.562189,37.5138466 339.818182,40.2109589 Z" id="Path" stroke-width="4" fill="#000000"></path>
                <path d="M216.909091,48.4383562 C216.909091,85.4794521 234.606061,104 270,104 C305.393939,104 324.545455,87.6164384 327.454545,54.8493151" id="Path" stroke-width="6"></path>
                <path d="M372.545455,48.4383562 C372.545455,85.4794521 390.242424,104 425.636364,104 C461.030303,104 480.181818,87.6164384 483.090909,54.8493151" id="Path" stroke-width="6" transform="translate(427.818182, 76.219178) scale(-1, 1) translate(-427.818182, -76.219178) "></path>
                <polygon id="Path" stroke-width="4" fill="#000000" points="199 9 4 41 0 50 199 30"></polygon>
            </g>
        </g>
    </g>
</svg>