<?xml version="1.0" encoding="UTF-8"?>
<svg width="498px" height="332px" viewBox="0 0 498 332" version="1.1" xmlns="http://www.w3.org/2000/svg" xmlns:xlink="http://www.w3.org/1999/xlink">
    <title>Group</title>
    <g id="All-customizable-items" stroke="none" stroke-width="1" fill="none" fill-rule="evenodd" stroke-linecap="round" stroke-linejoin="round">
        <g id="Festival/-1" transform="translate(-261.000000, -34.000000)" fill="#000000" stroke="#FFFFFF" stroke-width="12">
            <g id="Group" transform="translate(510.000000, 200.000000) rotate(-360.000000) translate(-510.000000, -200.000000) translate(267.000000, 40.000000)">
                <ellipse id="Oval" cx="243" cy="265.166163" rx="243" ry="54.8338369"></ellipse>
                <path d="M134,221.299094 C151.300296,180.602442 161.595111,144.835557 164.884444,113.998441 C168.173778,83.1613241 146.54563,52.1618439 100,21 C126,7 150.820791,0.218745405 174.462372,0.656236214 C227.909214,1.6452776 261.42263,35.7440037 282.822222,59.6984699 C309.519232,89.5828068 334.911825,143.449681 359,221.299094 C326.216976,234.592145 289.067346,241.238671 247.551111,241.238671 C206.034876,241.238671 168.184506,234.592145 134,221.299094 Z" id="Path"></path>
                <path d="M141.589809,174.441088 C173.326124,189.449371 208.403985,196.953513 246.823391,196.953513 C285.242796,196.953513 322.124233,189.449371 357.467699,174.441088 C363.1559,183.164653 366,191.770965 366,200.260026 C366,208.749086 364.633257,215.901472 361.899771,221.717182 C323.892826,236.725465 285.534032,244.229607 246.823391,244.229607 C208.112749,244.229607 169.341496,236.725465 130.50963,221.717182 C128.687306,214.189589 128.514822,206.790974 129.99218,199.521337 C131.469537,192.251699 135.335413,183.891616 141.589809,174.441088 Z" id="Path"></path>
                <ellipse id="Oval" cx="250.5" cy="216.314199" rx="44.5" ry="43.8670695"></ellipse>
            </g>
        </g>
    </g>
</svg>