<?xml version="1.0" encoding="UTF-8"?>
<svg width="570px" height="416px" viewBox="0 0 570 416" version="1.1" xmlns="http://www.w3.org/2000/svg" xmlns:xlink="http://www.w3.org/1999/xlink">
    <title>编组</title>
    <g id="All-customizable-items" stroke="none" stroke-width="1" fill="none" fill-rule="evenodd" stroke-linecap="round" stroke-linejoin="round">
        <g id="Festival/-3" transform="translate(-230.000000, -411.000000)">
            <g id="编组" transform="translate(242.000000, 423.000000)">
                <g id="Group" transform="translate(124.000000, 0.000000)">
                    <path d="M214.516667,392 C254.164929,392 308.549174,373.472385 340.2375,350.35 C356.358303,338.586948 350.273262,309.112416 363.220501,297.865072 C399.62479,266.240449 422,223.295523 422,175.991667 C422,78.7941531 327.532082,0 211,0 C94.4679178,0 0,78.7941531 0,175.991667 C0,258.760477 68.5026639,328.184236 160.798909,346.971826 C176.888486,350.246979 197.2178,392 214.516667,392 Z" id="Oval" stroke="#000000" stroke-width="24" fill="#FFFFFF"></path>
                    <g transform="translate(299.000000, 144.000000)">
                        <ellipse id="Oval" stroke="#000000" stroke-width="8" fill="#000000" cx="42" cy="58.5" rx="42" ry="58.5"></ellipse>
                        <path d="M35,5.23880597 C53.3487678,21.997017 63.7955261,36.7567834 66.3402747,49.5181051 C68.8850233,62.2794269 64.70632,78.9524963 53.8041648,99.5373134 C72.0859917,85.3242051 79.1375535,67.5578196 74.9588502,46.238157 C70.780147,24.9184945 57.4605302,11.2520441 35,5.23880597 Z" id="Path" stroke="#FFFFFF" stroke-width="2" fill="#FFFFFF"></path>
                    </g>
                    <g transform="translate(123.000000, 144.000000)">
                        <ellipse id="Oval" stroke="#000000" stroke-width="8" fill="#000000" cx="42" cy="58.5" rx="42" ry="58.5"></ellipse>
                        <path d="M35,5.23880597 C53.3487678,21.997017 63.7955261,36.7567834 66.3402747,49.5181051 C68.8850233,62.2794269 64.70632,78.9524963 53.8041648,99.5373134 C72.0859917,85.3242051 79.1375535,67.5578196 74.9588502,46.238157 C70.780147,24.9184945 57.4605302,11.2520441 35,5.23880597 Z" id="Path" stroke="#FFFFFF" stroke-width="2" fill="#FFFFFF"></path>
                    </g>
                    <path d="M261.08,247 L250.018837,290.993261 C248.941487,295.278176 251.541732,299.625151 255.826648,300.702501 C256.925807,300.978861 258.071143,301.018517 259.186785,300.818843 L279.385775,297.203682 C283.734944,296.42528 286.629622,292.268562 285.85122,287.919393 C285.672566,286.9212 285.305765,285.966074 284.770353,285.104888 L261.08,247 L261.08,247 Z" id="Path" stroke="#000000" stroke-width="8" fill="#000000"></path>
                    <line x1="230" y1="342" x2="240" y2="386" id="Path" stroke="#000000" stroke-width="12"></line>
                    <line x1="272" y1="329" x2="283" y2="376" id="Path" stroke="#000000" stroke-width="12"></line>
                    <line x1="315" y1="320" x2="326" y2="364" id="Path" stroke="#000000" stroke-width="12"></line>
                </g>
                <path d="M124,201 C106.126083,188.558542 85.4594166,177.891876 62,169 C38.5405834,160.108124 17.8739167,155.108124 0,154" id="Path" stroke="#000000" stroke-width="24"></path>
            </g>
        </g>
    </g>
</svg>