<?xml version="1.0" encoding="UTF-8"?>
<svg width="986px" height="981px" viewBox="0 0 986 981" version="1.1" xmlns="http://www.w3.org/2000/svg" xmlns:xlink="http://www.w3.org/1999/xlink">
    <title>编组</title>
    <g id="All-customizable-items" stroke="none" stroke-width="1" fill="none" fill-rule="evenodd" stroke-linecap="round" stroke-linejoin="round">
        <g id="Festival/-2" transform="translate(-44.000000, -65.000000)" stroke="#000000">
            <g id="编组" transform="translate(51.482738, 72.476432)">
                <path d="M612.517262,688.523568 C614.517262,697.412457 615.517262,705.412457 615.517262,712.523568 C615.517262,719.63468 614.517262,729.968013 612.517262,743.523568 L591.517262,693.523568 L612.517262,688.523568 Z" id="Path" stroke-width="12"></path>
                <path d="M521.517262,688.523568 C523.517262,697.412457 524.517262,705.412457 524.517262,712.523568 C524.517262,719.63468 523.517262,729.968013 521.517262,743.523568 L500.517262,693.523568 L521.517262,688.523568 Z" id="Path" stroke-width="12" transform="translate(512.517262, 716.023568) scale(-1, 1) translate(-512.517262, -716.023568) "></path>
                <path d="M497.517262,686.523568 C524.847642,693.190235 548.180976,696.523568 567.517262,696.523568 C586.853549,696.523568 603.520215,693.190235 617.517262,686.523568" id="Path" stroke-width="16"></path>
                <path d="M478.517262,892.523568 C446.709265,885.538629 414.042598,870.205295 380.517262,846.523568 C346.991926,822.841842 301.325259,782.841842 243.517262,726.523568 C250.612672,780.925716 272.279339,820.925716 308.517262,846.523568 C322.624109,856.488405 340.290775,896.821738 361.517262,967.523568 L478.517262,892.523568 Z" id="Path" stroke-width="12" fill="#000000"></path>
                <path d="M766.479999,892.523568 C734.672002,895.538629 702.005335,885.205295 668.479999,861.523568 C634.954663,837.841842 596.621329,786.175175 553.479999,706.523568 C545.908742,774.25905 560.242076,820.925716 596.479999,846.523568 C610.586845,856.488405 628.586845,896.821738 650.479999,967.523568 L766.479999,892.523568 Z" id="Path" stroke-width="12" fill="#000000" transform="translate(658.998631, 837.023568) scale(-1, 1) translate(-658.998631, -837.023568) "></path>
                <path d="M279.20303,39.5235684 L324.066044,102.378194 C305.883509,100.125188 293.20223,100.125188 286.022208,102.378194 C278.842187,104.6312 271.185566,111.012991 263.052345,121.523568 C250.522692,113.862854 240.114473,108.685174 231.827688,105.990529 C224.981728,103.764402 214.97327,101.733756 201.802312,99.8985898 C199.991453,121.093812 187.904529,131.691193 165.541181,131.691193 C143.413825,131.691193 131.347152,121.316293 129.341161,100.566492 C115.8937,102.419307 105.698377,104.475863 98.7556183,106.733466 C90.4688334,109.428111 80.0606142,114.605791 67.5309608,122.266506 C59.3977405,111.755928 51.7411195,105.374137 44.5610977,103.121131 C37.381076,100.868126 24.6997975,100.868126 6.51726212,103.121131 L6.51726212,103.121131 L51.3802758,40.2665058 C65.5985312,51.8891459 78.160175,60.5587494 89.0652073,66.2753164 C98.6096349,71.2786357 112.172391,76.7915371 129.753474,82.8140206 C131.073879,71.6784127 134.242232,58.6366495 139.256623,43.6911931 C141.416998,54.7513024 150.178517,60.281357 165.541181,60.281357 C180.903845,60.281357 189.665364,54.7513024 191.825739,43.6911931 C196.708825,58.2452939 199.841287,70.9940949 201.223125,81.937596 C218.613014,75.9663895 232.044861,70.4983799 241.518099,65.532379 C252.423131,59.8158121 264.984775,51.1462085 279.20303,39.5235684 Z" id="Combined-Shape" stroke-width="12" fill="#000000" transform="translate(165.291653, 85.607381) rotate(-15.000000) translate(-165.291653, -85.607381) "></path>
                <path d="M935.221132,368.523568 L968.440311,414.514758 C954.976907,412.866217 945.586952,412.866217 940.270448,414.514758 C934.953943,416.163299 929.284537,420.832902 923.262228,428.523568 C913.984546,422.918167 906.277697,419.129621 900.14168,417.15793 C895.076096,415.530201 887.672105,414.045306 877.929705,412.703244 C876.750441,428.718642 867.795144,436.725819 851.063723,436.725819 C834.711109,436.725819 825.786494,429.077109 824.289879,413.77969 C814.418543,415.128939 806.926935,416.625866 801.815892,418.268202 C795.679876,420.239894 787.973027,424.02844 778.695344,429.633841 C772.673036,421.943175 767.00363,417.273571 761.687125,415.62503 C756.370621,413.97649 746.980666,413.97649 733.517262,415.62503 L733.517262,415.62503 L766.73644,369.633841 C777.264461,378.138212 786.565831,384.481824 794.64055,388.664678 C801.673963,392.308117 811.654359,396.320858 824.581737,400.702904 C825.552276,392.460247 827.899127,382.800638 831.620351,371.725819 C833.218437,379.895218 839.699561,383.979917 851.063723,383.979917 C862.427885,383.979917 868.909009,379.895218 870.507094,371.725819 C874.060944,382.302509 876.361273,391.588434 877.408083,399.583593 C890.319105,395.204196 900.289209,391.194943 907.317023,387.554405 C915.391741,383.371552 924.693111,377.027939 935.221132,368.523568 Z" id="Combined-Shape" stroke-width="12" fill="#000000" transform="translate(850.978786, 402.624694) rotate(-330.000000) translate(-850.978786, -402.624694) "></path>
            </g>
        </g>
    </g>
</svg>