<?xml version="1.0" encoding="UTF-8"?>
<svg width="385px" height="324px" viewBox="0 0 385 324" version="1.1" xmlns="http://www.w3.org/2000/svg" xmlns:xlink="http://www.w3.org/1999/xlink">
    <title>Group</title>
    <g id="All-customizable-items" stroke="none" stroke-width="1" fill="none" fill-rule="evenodd" stroke-linecap="round" stroke-linejoin="round">
        <g id="Festival/-4" transform="translate(-316.000000, -46.000000)" stroke="#000000">
            <g id="Group" transform="translate(322.000000, 52.000000)">
                <path d="M152,109 C153.511712,87.581983 153.511712,71.581983 152,61 C150.488288,50.418017 146.154955,36.0846836 139,18 L189,0 C196.778602,11.0580681 203.445268,25.0580681 209,42 C214.554732,58.9419319 221.221398,85.6085986 229,122 L152,109 Z" id="Path" stroke-width="12" fill="#000000"></path>
                <path d="M49,306 C21.9897985,260.367588 6.74310329,228.809816 3.25991434,211.326684 C-7.56649619,156.9858 16.0135324,125.543572 34,117 C60.6666667,104.333333 88,108.666667 116,130 C137.897239,102.666667 161.563905,89 187,89 C212.436095,89 238.769428,102.666667 266,130 C301.856452,110.257465 328.523118,108.257465 346,124 C357.794076,134.623671 379.352017,166.616932 370.673823,219.979782 C367.886181,237.121197 354.661574,267.794603 331,312 C303.666667,284.666667 255.666667,271 187,271 C118.333333,271 72.3333333,282.666667 49,306 Z" id="Path" stroke-width="12" fill="#FFFFFF"></path>
                <path d="M116,130 C114,154.703998 113,179.023998 113,202.96 C113,226.896002 114,250.576002 116,274" id="Path" stroke-width="6"></path>
                <path d="M267,130 C265,154.703998 264,179.023998 264,202.96 C264,226.896002 265,250.576002 267,274" id="Path" stroke-width="6" transform="translate(265.500000, 202.000000) scale(-1, 1) translate(-265.500000, -202.000000) "></path>
                <polygon id="Path" stroke-width="12" fill="#000000" points="251.12069 142 237 186 276 180.5"></polygon>
                <polygon id="Path" stroke-width="12" fill="#000000" transform="translate(122.500000, 164.000000) scale(-1, 1) translate(-122.500000, -164.000000) " points="117.12069 142 103 186 142 180.5"></polygon>
                <path d="M99,203 C114.404763,209.374101 126.765619,213.874101 136.082569,216.5 C145.399519,219.125899 153.73591,220.459232 161.091743,220.5 L161.091743,239.5 L189.550459,239.5 L189.550459,220.5 C206.228707,221.437072 220.889257,220.770405 233.53211,218.5 C246.174963,216.229595 263.997593,211.062928 287,203 C255.954128,232.333333 219.446483,247 177.477064,247 C135.507645,247 109.348624,232.333333 99,203 Z" id="Path" stroke-width="12" fill="#000000"></path>
            </g>
        </g>
    </g>
</svg>