<svg width="798" height="969" viewBox="0 0 798 969" fill="none" xmlns="http://www.w3.org/2000/svg">
<path fill-rule="evenodd" clip-rule="evenodd" d="M404 683C404 683 367 694 347 718C327 742 322 775.969 322 775.969H338.473C338.473 775.969 336.746 796.193 338.473 809.328C340.199 822.463 347.458 844.328 347.458 844.328L355.694 833.391C355.694 833.391 374.634 865.493 388.64 879.875C402.645 894.257 431.319 911.047 431.319 911.047V899.016C431.319 899.016 458.587 920.285 473.998 926.906C489.41 933.528 520.421 937.297 520.421 937.297V921.438C520.421 921.438 558.708 945.793 578.076 953.156C597.444 960.52 629.741 963 629.741 963C629.741 963 620.755 940.76 620.755 930.734C620.755 920.708 629.741 911.047 629.741 911.047C629.741 911.047 635.953 911.058 640.972 913.234C645.991 915.411 653.701 921.438 653.701 921.438C653.701 921.438 694.218 892.969 712.104 873.312C729.99 853.656 733.818 833.391 733.818 833.391L742.055 844.328C742.055 844.328 757.98 825.595 761.522 813.156C765.065 800.718 761.522 775.969 761.522 775.969H775C775 775.969 766.154 743.905 757.03 726.203C747.905 708.501 727.079 683 727.079 683H404Z" fill="white" stroke="black" stroke-width="12" stroke-linecap="round" stroke-linejoin="round"/>
<path fill-rule="evenodd" clip-rule="evenodd" d="M597.556 711.173C582.868 732.307 554.816 744.661 543.401 748.233C516.963 756.505 459.864 745.501 445.122 738.944C430.38 732.387 406.903 715.994 404.173 678.838C402.353 654.067 414.911 633.121 441.846 616C441.942 635.27 454.135 647.837 478.428 653.703C498.563 658.564 526.671 637.31 568.516 637.31C583.651 637.31 593.435 642.666 597.867 653.377L598 653.703C602.368 642.774 612.196 637.31 627.484 637.31C669.329 637.31 697.437 658.564 717.572 653.703C741.865 647.837 754.058 635.27 754.154 616C781.089 633.121 793.647 654.067 791.827 678.838C789.097 715.994 765.62 732.387 750.878 738.944C736.136 745.501 695.047 753.645 662.599 748.233C640.967 744.625 612.767 732.057 598 710.53L597.556 711.173Z" fill="white" stroke="black" stroke-width="12" stroke-linecap="round" stroke-linejoin="round"/>
<path fill-rule="evenodd" clip-rule="evenodd" d="M213.557 442C213.557 442 366.962 362.465 459.098 341.782C551.234 321.099 686.828 325.29 686.828 325.29C686.828 325.29 711 296.113 711 263.13C711 230.147 691.917 190.821 691.917 190.821C691.917 190.821 494.008 175.75 406.936 199.701C319.865 223.651 175.39 332.902 175.39 332.902C175.39 332.902 168.61 375.682 175.39 395.062C182.17 414.443 213.557 442 213.557 442Z" fill="white" stroke="black" stroke-width="12" stroke-linecap="round" stroke-linejoin="round"/>
<path fill-rule="evenodd" clip-rule="evenodd" d="M213.057 305C213.057 305 215.869 279.114 225.771 253.018C235.674 226.921 262.643 190.892 262.643 190.892C262.643 190.892 220.686 212.446 185.086 222.589C149.486 232.732 91 222.589 91 222.589C91 222.589 162.439 175.207 185.086 154.124C210.37 130.586 234.079 101.694 243.571 86.9274C275.357 37.4807 335.114 12.1234 377.071 7.05192C419.029 1.98046 440.44 14.535 502.943 60.3022C565.446 106.069 625 183.285 625 183.285C625 183.285 471.883 177.374 398.686 199.767C325.488 222.16 213.057 305 213.057 305Z" fill="white" stroke="black" stroke-width="12" stroke-linecap="round" stroke-linejoin="round"/>
<path d="M261 192C261 192 276.077 157.819 287.765 136.5C299.452 115.181 326 81 326 81" stroke="black" stroke-width="12" stroke-linecap="round" stroke-linejoin="round"/>
<path d="M262 192C262 192 301.423 138.157 326.812 115.057C352.202 91.9565 384 81 384 81" stroke="black" stroke-width="12" stroke-linecap="round" stroke-linejoin="round"/>
<ellipse cx="98" cy="222.5" rx="92" ry="91.5" fill="white" stroke="black" stroke-width="12" stroke-linecap="round" stroke-linejoin="round"/>
</svg>
