<svg width="632" height="703" viewBox="0 0 632 703" fill="none" xmlns="http://www.w3.org/2000/svg">
<path fill-rule="evenodd" clip-rule="evenodd" d="M139.207 365.461C139.207 365.461 227.359 305.762 315.51 305.762C403.662 305.762 491.814 365.461 491.814 365.461C491.814 365.461 403.662 271.391 315.51 271.391C227.359 271.391 139.207 365.461 139.207 365.461Z" fill="white" stroke="black" stroke-width="12" stroke-linecap="round" stroke-linejoin="round"/>
<path fill-rule="evenodd" clip-rule="evenodd" d="M391.908 288.577L450.676 172.799C450.676 172.799 410.518 104.959 422.272 91.3915C434.025 77.8237 475.163 134.809 475.163 134.809C475.163 134.809 552.54 -0.869792 574.089 6.36639C595.637 13.6026 522.177 125.763 522.177 125.763C522.177 125.763 628.938 83.2508 625.021 106.768C621.103 130.286 495.732 151.995 487.896 172.799C480.06 193.603 569.191 174.608 569.191 189.984C569.191 205.361 482.998 213.502 482.998 213.502L411.498 298.527L391.908 288.577Z" fill="white" stroke="black" stroke-width="12" stroke-linecap="round" stroke-linejoin="round"/>
<path fill-rule="evenodd" clip-rule="evenodd" d="M239.251 288.577L180.483 172.799C180.483 172.799 220.641 104.959 208.888 91.3915C197.134 77.8237 155.997 134.809 155.997 134.809C155.997 134.809 78.6191 -0.869792 57.0709 6.36639C35.5227 13.6026 108.982 125.763 108.982 125.763C108.982 125.763 2.22096 83.2508 6.13881 106.768C10.0567 130.286 135.428 151.995 143.264 172.799C151.099 193.603 61.9682 174.608 61.9682 189.984C61.9682 205.361 148.161 213.502 148.161 213.502L219.662 298.527L239.251 288.577Z" fill="white" stroke="black" stroke-width="12" stroke-linecap="round" stroke-linejoin="round"/>
<circle cx="435" cy="625" r="72" fill="white" stroke="black" stroke-width="12" stroke-linecap="round" stroke-linejoin="round"/>
<path d="M413 581C413 581 396.596 595.168 392 608C387.403 620.832 392 640 392 640" stroke="black" stroke-width="16" stroke-linecap="round" stroke-linejoin="round"/>
<circle cx="405" cy="661" r="8" fill="black"/>
</svg>
