<svg width="469" height="492" viewBox="0 0 469 492" fill="none" xmlns="http://www.w3.org/2000/svg">
<path fill-rule="evenodd" clip-rule="evenodd" d="M167.869 449.592C167.869 449.592 184.293 417.072 186.876 400.513C189.46 383.955 181.135 364.569 181.135 364.569C181.135 364.569 170.595 368.975 164.912 370.471C159.229 371.966 148.056 373.274 148.056 373.274C148.056 373.274 161.125 344.221 165.831 326.062C170.536 307.902 169.517 290.447 169.517 290.447C169.517 290.447 159.604 301.944 153.831 305.277C148.057 308.61 134.876 310.447 134.876 310.447C134.876 310.447 153.065 240.062 156.73 204.299C160.395 168.535 154.371 120.213 154.371 120.213C154.371 120.213 210.43 154.88 244.636 168.557C278.843 182.234 337.526 193.447 337.526 193.447C337.526 193.447 334.253 201.11 327.036 205.277C319.819 209.444 303.751 212.947 303.751 212.947C303.751 212.947 321.045 224.901 339.036 226.062C357.026 227.222 385.311 228.212 385.311 228.212C385.311 228.212 380.366 239.189 375.588 245.372C370.81 251.556 359.536 261.569 359.536 261.569C359.536 261.569 389.897 280.411 404.418 285.308C418.94 290.204 444.131 290.092 444.131 290.092C444.131 290.092 399.699 371.171 330.433 411.162C261.167 451.152 167.869 449.592 167.869 449.592Z" fill="white" stroke="black" stroke-width="12" stroke-linecap="round" stroke-linejoin="round"/>
<path fill-rule="evenodd" clip-rule="evenodd" d="M136.979 114.089L134.237 83.3398L158.63 101.589L180.28 89.0886L175.692 117.141L195.352 131.194L165.737 137.899L148.587 158.194L144.515 135.141L116.194 126.089L136.979 114.089Z" fill="white" stroke="black" stroke-width="12" stroke-linecap="round" stroke-linejoin="round"/>
<circle cx="184.113" cy="197.728" r="14" transform="rotate(-30 184.113 197.728)" fill="white" stroke="black" stroke-width="12" stroke-linecap="round" stroke-linejoin="round"/>
<circle cx="252.28" cy="213.796" r="14" transform="rotate(-30 252.28 213.796)" fill="white" stroke="black" stroke-width="12" stroke-linecap="round" stroke-linejoin="round"/>
<circle cx="204.534" cy="299.097" r="14" transform="rotate(-30 204.534 299.097)" fill="white" stroke="black" stroke-width="12" stroke-linecap="round" stroke-linejoin="round"/>
<circle cx="273.933" cy="313.3" r="14" transform="rotate(-30 273.933 313.3)" fill="white" stroke="black" stroke-width="12" stroke-linecap="round" stroke-linejoin="round"/>
<circle cx="234.383" cy="400.798" r="14" transform="rotate(-30 234.383 400.798)" fill="white" stroke="black" stroke-width="12" stroke-linecap="round" stroke-linejoin="round"/>
<circle cx="360.127" cy="338.593" r="14" transform="rotate(-30 360.127 338.593)" fill="white" stroke="black" stroke-width="12" stroke-linecap="round" stroke-linejoin="round"/>
<circle cx="332.751" cy="263.177" r="14" transform="rotate(-30 332.751 263.177)" fill="white" stroke="black" stroke-width="12" stroke-linecap="round" stroke-linejoin="round"/>
</svg>
