<svg width="707" height="1255" viewBox="0 0 707 1255" fill="none" xmlns="http://www.w3.org/2000/svg">
<path fill-rule="evenodd" clip-rule="evenodd" d="M158.658 423.975C158.658 423.975 263.318 313.823 326.717 283.993C390.115 254.162 522.428 252.81 522.428 252.81C522.428 252.81 512.958 188.172 452.776 155.264C392.595 122.356 192.34 96.0847 192.34 96.0847C192.34 96.0847 127.028 251.861 120.834 310.815C114.641 369.769 158.658 423.975 158.658 423.975Z" fill="white" stroke="black" stroke-width="12" stroke-linecap="round" stroke-linejoin="round"/>
<path fill-rule="evenodd" clip-rule="evenodd" d="M133.083 389.613C131.509 338.974 165.54 258.939 260.571 205.109C355.601 151.279 445.595 144.907 505.893 186.18C524.394 198.844 529.592 257.838 529.592 257.838C529.592 257.838 404.829 256.549 335.772 289.915C266.716 323.282 158.084 432.555 158.084 432.555C158.084 432.555 133.584 405.755 133.083 389.613Z" fill="white"/>
<mask id="mask0_2_1119" style="mask-type:alpha" maskUnits="userSpaceOnUse" x="133" y="159" width="397" height="274">
<path fill-rule="evenodd" clip-rule="evenodd" d="M133.083 389.613C131.509 338.974 165.54 258.939 260.571 205.109C355.601 151.279 445.595 144.907 505.893 186.18C524.394 198.844 529.592 257.838 529.592 257.838C529.592 257.838 404.829 256.549 335.772 289.915C266.716 323.282 158.084 432.555 158.084 432.555C158.084 432.555 133.584 405.755 133.083 389.613Z" fill="white"/>
</mask>
<g mask="url(#mask0_2_1119)">
<path fill-rule="evenodd" clip-rule="evenodd" d="M111 307.056L200.316 436L237 410.551L152.468 285L111 307.056Z" fill="black" stroke="black" stroke-linecap="round" stroke-linejoin="round"/>
<path fill-rule="evenodd" clip-rule="evenodd" d="M167 256.056L256.316 385L293 359.551L208.468 234L167 256.056Z" fill="black" stroke="black" stroke-linecap="round" stroke-linejoin="round"/>
<path fill-rule="evenodd" clip-rule="evenodd" d="M233 206.202L321.608 336L358 310.382L274.139 184L233 206.202Z" fill="black" stroke="black" stroke-linecap="round" stroke-linejoin="round"/>
<path fill-rule="evenodd" clip-rule="evenodd" d="M305 168.202L394.316 298L431 272.382L346.468 146L305 168.202Z" fill="black" stroke="black" stroke-linecap="round" stroke-linejoin="round"/>
<path fill-rule="evenodd" clip-rule="evenodd" d="M388 156.056L476.608 285L513 259.551L429.139 134L388 156.056Z" fill="black" stroke="black" stroke-linecap="round" stroke-linejoin="round"/>
</g>
<path fill-rule="evenodd" clip-rule="evenodd" d="M128.083 390.613C126.509 339.974 160.54 259.939 255.571 206.109C350.601 152.279 440.595 145.907 500.893 187.18C519.394 199.844 524.592 258.838 524.592 258.838C524.592 258.838 399.829 257.549 330.772 290.915C261.716 324.282 153.084 433.555 153.084 433.555C153.084 433.555 128.584 406.755 128.083 390.613Z" stroke="black" stroke-width="12" stroke-linecap="round" stroke-linejoin="round"/>
<path fill-rule="evenodd" clip-rule="evenodd" d="M152.648 52.7801C152.648 52.7801 152.592 30.1438 167.656 24.6917C182.72 19.2396 195.731 34.1575 195.731 34.1575C195.731 34.1575 218.455 6.83304 240.923 17.8011C263.392 28.7692 259.271 63.8502 259.271 63.8502C259.271 63.8502 283.627 84.507 281.442 96.1336C279.257 107.76 247.505 126.463 247.505 126.463C247.505 126.463 256.311 142.507 241.601 149.28C226.89 156.053 197.768 148.284 197.768 148.284C197.768 148.284 183.793 169.017 167.3 163.526C150.806 158.036 151.089 131.061 151.089 131.061C151.089 131.061 118.837 134.041 114.236 116.869C109.635 99.6979 140.118 90.1145 140.118 90.1145C140.118 90.1145 112.736 77.6314 118.315 64.811C123.893 51.9906 152.648 52.7801 152.648 52.7801Z" fill="white" stroke="black" stroke-width="12" stroke-linecap="round" stroke-linejoin="round"/>
<path fill-rule="evenodd" clip-rule="evenodd" d="M489.526 557C489.526 557 455 573.755 455 611.872C455 649.988 489.526 664 489.526 664C489.526 664 701 636.564 701 617.359C701 598.154 489.526 557 489.526 557Z" fill="white" stroke="black" stroke-width="12" stroke-linecap="round" stroke-linejoin="round"/>
<path d="M507 562C507 562 497.369 580.343 495.123 591.5C492.877 602.657 495.123 621 495.123 621" stroke="black" stroke-width="12" stroke-linecap="round" stroke-linejoin="round"/>
<path d="M544 570C544 570 537.332 585.855 535.777 595.5C534.223 605.145 535.777 621 535.777 621" stroke="black" stroke-width="12" stroke-linecap="round" stroke-linejoin="round"/>
<path d="M581 578C581 578 576.555 591.368 575.518 599.5C574.482 607.632 575.518 621 575.518 621" stroke="black" stroke-width="12" stroke-linecap="round" stroke-linejoin="round"/>
<path d="M615 586C615 586 612.777 596.57 612.259 603C611.741 609.43 612.259 620 612.259 620" stroke="black" stroke-width="12" stroke-linecap="round" stroke-linejoin="round"/>
<path d="M649 597C649 597 646.777 604.461 646.259 609C645.741 613.539 646.259 621 646.259 621" stroke="black" stroke-width="12" stroke-linecap="round" stroke-linejoin="round"/>
<path fill-rule="evenodd" clip-rule="evenodd" d="M154.353 831.85C162.395 820.92 219.207 829.138 228.914 835.659C238.622 842.18 289.563 889.217 271.869 976.386C254.174 1063.55 160.782 1224.6 140.291 1239.96C119.8 1255.32 15.7317 1219.99 7.4328 1188.55C-0.866104 1157.12 108.504 1054.92 139.036 980.798C169.567 906.671 146.31 842.779 154.353 831.85Z" fill="white"/>
<mask id="mask1_2_1119" style="mask-type:alpha" maskUnits="userSpaceOnUse" x="6" y="826" width="270" height="418">
<path fill-rule="evenodd" clip-rule="evenodd" d="M154.353 831.85C162.395 820.92 219.207 829.138 228.914 835.659C238.622 842.18 289.563 889.217 271.869 976.386C254.174 1063.55 160.782 1224.6 140.291 1239.96C119.8 1255.32 15.7317 1219.99 7.4328 1188.55C-0.866104 1157.12 108.504 1054.92 139.036 980.798C169.567 906.671 146.31 842.779 154.353 831.85Z" fill="white"/>
</mask>
<g mask="url(#mask1_2_1119)">
<path fill-rule="evenodd" clip-rule="evenodd" d="M297.433 984.614L129.641 944.413L115.128 991.633L276.369 1032.54L297.433 984.614Z" fill="black" stroke="black" stroke-linecap="round" stroke-linejoin="round"/>
<path fill-rule="evenodd" clip-rule="evenodd" d="M250.708 1070.1L82.9161 1029.9L68.4025 1077.12L229.644 1118.03L250.708 1070.1Z" fill="black" stroke="black" stroke-linecap="round" stroke-linejoin="round"/>
<path fill-rule="evenodd" clip-rule="evenodd" d="M193.708 1156.1L25.9161 1115.9L11.4025 1163.12L172.644 1204.03L193.708 1156.1Z" fill="black" stroke="black" stroke-linecap="round" stroke-linejoin="round"/>
</g>
<path fill-rule="evenodd" clip-rule="evenodd" d="M153.808 831.947C161.851 821.018 218.662 829.236 228.37 835.757C238.078 842.277 289.019 889.314 271.324 976.484C253.63 1063.65 160.238 1224.7 139.747 1240.06C119.256 1255.42 15.1873 1220.08 6.88837 1188.65C-1.41054 1157.22 107.96 1055.02 138.492 980.896C169.023 906.769 145.766 842.877 153.808 831.947Z" stroke="black" stroke-width="12" stroke-linecap="round" stroke-linejoin="round"/>
<path fill-rule="evenodd" clip-rule="evenodd" d="M596.017 817.375C610.672 821.504 617.647 870.51 613.056 880.072C608.466 889.635 569.886 942.79 466.301 948.367C362.715 953.943 153.966 913.924 130.738 900.505C107.51 887.085 117.653 792.605 150.804 778.424C183.955 764.244 330.767 831.178 423.287 839.272C515.807 847.366 581.361 813.247 596.017 817.375Z" fill="white"/>
<mask id="mask2_2_1119" style="mask-type:alpha" maskUnits="userSpaceOnUse" x="118" y="776" width="497" height="173">
<path fill-rule="evenodd" clip-rule="evenodd" d="M596.017 817.375C610.672 821.504 617.647 870.51 613.056 880.072C608.466 889.635 569.886 942.79 466.301 948.367C362.715 953.943 153.966 913.924 130.738 900.505C107.51 887.085 117.653 792.605 150.804 778.424C183.955 764.244 330.767 831.178 423.287 839.272C515.807 847.366 581.361 813.247 596.017 817.375Z" fill="white"/>
</mask>
<g mask="url(#mask2_2_1119)">
<path fill-rule="evenodd" clip-rule="evenodd" d="M184 780.002L164 912.002L202 920.002L223 793.002L184 780.002Z" fill="black" stroke="black" stroke-linecap="round" stroke-linejoin="round"/>
<path fill-rule="evenodd" clip-rule="evenodd" d="M276 804.002L256 936.002L294 944.002L315 817.002L276 804.002Z" fill="black" stroke="black" stroke-linecap="round" stroke-linejoin="round"/>
<path fill-rule="evenodd" clip-rule="evenodd" d="M369 822.002L349 954.002L387 962.002L408 835.002L369 822.002Z" fill="black" stroke="black" stroke-linecap="round" stroke-linejoin="round"/>
<path fill-rule="evenodd" clip-rule="evenodd" d="M461 826.002L441 958.002L479 966.002L500 839.002L461 826.002Z" fill="black" stroke="black" stroke-linecap="round" stroke-linejoin="round"/>
<path fill-rule="evenodd" clip-rule="evenodd" d="M553 799.002L533 931.002L571 939.002L592 812.002L553 799.002Z" fill="black" stroke="black" stroke-linecap="round" stroke-linejoin="round"/>
</g>
<path fill-rule="evenodd" clip-rule="evenodd" d="M596.228 815.192C610.883 819.321 617.858 868.327 613.267 877.889C608.677 887.451 570.097 940.606 466.512 946.183C362.926 951.76 154.177 911.74 130.949 898.321C107.721 884.902 117.864 790.421 151.015 776.241C184.166 762.06 330.978 828.994 423.498 837.088C516.018 845.183 581.572 811.063 596.228 815.192Z" stroke="black" stroke-width="12" stroke-linecap="round" stroke-linejoin="round"/>
</svg>
