<svg width="757" height="669" viewBox="0 0 757 669" fill="none" xmlns="http://www.w3.org/2000/svg">
<path fill-rule="evenodd" clip-rule="evenodd" d="M713.514 271.121C713.514 271.121 660.028 194.45 631.923 167.906C555.427 95.6604 492.796 69.463 470.522 58.7162C424.833 36.6731 320.539 72.9045 302.887 94.3479C295.513 103.307 251.79 151.761 205.754 258.491C178.332 322.069 90.2068 563.329 90.2068 563.329L132 580C132 580 161.544 533.479 173.434 518.043C186.498 501.082 200.018 491.276 204.706 485.754C210.598 478.813 211.521 461.373 212.99 441.656C213.753 431.409 216.236 410.815 216.236 410.815L713.514 271.121Z" fill="white" stroke="black" stroke-width="12" stroke-linecap="round" stroke-linejoin="round"/>
<path fill-rule="evenodd" clip-rule="evenodd" d="M253.557 513C253.557 513 406.962 433.465 499.098 412.782C591.234 392.099 726.828 396.29 726.828 396.29C726.828 396.29 751 367.113 751 334.13C751 301.147 731.917 261.821 731.917 261.821C731.917 261.821 534.008 246.75 446.936 270.701C359.865 294.651 215.39 403.902 215.39 403.902C215.39 403.902 208.61 446.682 215.39 466.062C222.17 485.443 253.557 513 253.557 513Z" fill="white" stroke="black" stroke-width="12" stroke-linecap="round" stroke-linejoin="round"/>
<circle cx="103" cy="583" r="80" fill="white" stroke="black" stroke-width="12" stroke-linecap="round" stroke-linejoin="round"/>
<path d="M213 423C213 423 218 368 239 339C260 310 274 303 274 303" stroke="black" stroke-width="12" stroke-linecap="round" stroke-linejoin="round"/>
</svg>
