<?xml version="1.0" encoding="UTF-8"?>
<svg width="1080px" height="1080px" viewBox="0 0 1080 1080" version="1.1" xmlns="http://www.w3.org/2000/svg" xmlns:xlink="http://www.w3.org/1999/xlink">
    <title>Hairstyle/ 10</title>
    <g id="Hairstyle/-10" stroke="none" stroke-width="1" fill="none" fill-rule="evenodd" stroke-linecap="round" stroke-linejoin="round">
        <path d="M372.389019,247.786108 C470.684335,198.180121 573.70651,196.436019 608.362378,256.461743 C610.594634,260.328124 612.477899,264.333125 614.022301,268.457607 C631.340767,263.485869 647,261 661,261 C682,261 743,269 760,290 C777,311 777,343 753,387 C737,416.333333 714,434 684,440 C625.671273,414 577.671273,401 540,401 C502.328727,401 464.662061,403.666667 427,409 C427.442658,419.124205 429.109325,429.457538 432,440 C434.890675,450.542462 438.890675,460.875795 444,471 C418.42303,487.163731 403.86212,499.704664 400.317272,508.622798 C395,522 390.731457,594.198681 386.316755,653.134075 L386.17725,655 L366.146153,655 L328.203914,564.824988 L287.169322,564.824988 C280.297784,539.338819 275.760795,517.438139 273.558355,499.122947 C267.794015,498.334154 260.905776,498.267484 252.894736,498.92407 L252,499 L242.594545,455.98087 L211.196591,446.233717 C244.398864,351.411239 298.129673,285.262036 372.389019,247.786108 Z" id="Path" stroke="#000000" stroke-width="12" fill="#000000"></path>
    </g>
</svg>