<?xml version="1.0" encoding="UTF-8"?>
<svg width="1080px" height="1080px" viewBox="0 0 1080 1080" version="1.1" xmlns="http://www.w3.org/2000/svg" xmlns:xlink="http://www.w3.org/1999/xlink">
    <title>Hairstyle/ 16</title>
    <g id="Hairstyle/-16" stroke="none" stroke-width="1" fill="none" fill-rule="evenodd" stroke-linecap="round" stroke-linejoin="round">
        <path d="M680,270 L679.806266,273.160795 L679.609741,276.222241 C676.345951,325.933738 670.441789,361.331655 661.897254,382.415992 L665,379 C669.818582,386.792186 673.818582,395.125519 677,404 C680.036808,412.471095 682.300877,421.360277 683.792209,430.667546 L684,432 L647.608374,403.073582 L646.227511,404.133406 C623.904333,421.217179 596,424 566,426 C536,428 482,398 432,417 L429.971262,417.77676 C397.704706,430.224906 374.714286,443.632653 361,458 C356.333333,428 357.666667,403.666667 365,385 C379.510786,348.063453 390,343 418,330 C438.058836,320.686969 480.244847,317.524486 511.786457,313.921997 L513.399437,313.238049 C525.910091,307.918682 535.498317,303.497614 542.163934,299.974359 C550.727737,295.447778 560.673092,289.122991 572,281 L565.694485,298.726128 L568.187462,297.600041 C570.620882,296.496371 572.875637,295.459949 574.951761,294.49076 L579.663186,292.275583 L586.160616,289.198266 C597.398123,283.857643 610.677918,277.458221 626,270 L613.81,288.755 L680,270 Z" id="Path" stroke="#000000" stroke-width="12" fill="#000000"></path>
    </g>
</svg>