<?xml version="1.0" encoding="UTF-8"?>
<svg width="1080px" height="1080px" viewBox="0 0 1080 1080" version="1.1" xmlns="http://www.w3.org/2000/svg" xmlns:xlink="http://www.w3.org/1999/xlink">
    <title>Hairstyle/ 19</title>
    <g id="Hairstyle/-19" stroke="none" stroke-width="1" fill="none" fill-rule="evenodd" stroke-linecap="round" stroke-linejoin="round">
        <path d="M715,783 C769.666667,772.333333 820.666667,743.333333 868,696 C915.333333,648.666667 953.666667,558.666667 983,426 C929.666667,426.666667 880,414.333333 834,389 C765,351 741,280 661,241 C581,202 461,201 358,253 C255,305 227,380 204,480 C181,580 212,651 253,711 C280.333333,751 326.566025,785.776632 391.698074,815.329897 C380.566025,808.443299 366,794.666667 348,774 C330,753.333333 318,735 312,719 C258.666667,708.333333 232,682 232,640 C232,598 256,573 304,565 C360.331388,536.962528 403.56408,514.405827 433.698074,497.329897 C463.832069,480.253967 510.832069,447.5873 574.698074,399.329897 C565.822413,415.742124 557.155746,428.408791 548.698074,437.329897 C540.240402,446.251003 522.907069,460.584336 496.698074,480.329897 C531.566025,468.776632 557.666667,456.666667 575,444 C592.333333,431.333333 610.333333,416.333333 629,399 C656.534617,398.780069 693.201284,425.780069 739,480 C780.27108,528.859778 794.612271,600.08834 772,683 C764,712.333333 745,745.666667 715,783 Z" id="Path" stroke="#000000" stroke-width="12" fill="#000000"></path>
    </g>
</svg>