<?xml version="1.0" encoding="UTF-8"?>
<svg width="1080px" height="1080px" viewBox="0 0 1080 1080" version="1.1" xmlns="http://www.w3.org/2000/svg" xmlns:xlink="http://www.w3.org/1999/xlink">
    <title>Hairstyle/ 2</title>
    <g id="Hairstyle/-2" stroke="none" stroke-width="1" fill="none" fill-rule="evenodd" stroke-linecap="round" stroke-linejoin="round">
        <path d="M636.531474,228.13477 C670.857169,243.665431 725.166891,296.973952 803.404132,362.491755 C816.410437,373.383557 842.942393,382.552972 883,390 C833,450 743,477.333333 613,472 C597.305444,471.356121 543.630254,458.087156 492.399654,439.221249 C490.674088,440.747431 489.403098,442.447013 488.585977,444.319039 C481.862828,459.721787 473.793564,504.295236 452,523 C430.206436,541.704764 398.15684,567.305201 392,580 C387.89544,588.463199 384.89544,616.463199 383,664 C365.62738,629.354885 351.294047,603.688218 340,587 C328.705953,570.311782 314.039287,563.645115 296,567 C252.289371,507.327044 242.173623,447.90566 265.652755,388.735849 C283.709479,343.23106 309.577414,319.996228 343.256562,319.031353 C343.002974,315.496838 343.314634,311.930931 344.17011,308.217487 C349.553099,284.851055 396,239 433,221 C470,203 527.562365,178.831697 636.531474,228.13477 Z" id="Combined-Shape" stroke="#000000" stroke-width="12" fill="#000000"></path>
    </g>
</svg>