<svg width="1080" height="1080" viewBox="0 0 1080 1080" fill="none" xmlns="http://www.w3.org/2000/svg">
<g id="Hairstyle/ 33">
<path id="Path" fill-rule="evenodd" clip-rule="evenodd" d="M504 227C583.026 221.97 626 225 714 284C772.666 323.333 805.666 378 813 448L810.24 443.675C798.832 425.872 789.752 412.647 783 404C776.732 395.974 763.732 386.224 743.999 374.747C743.263 375.741 742.413 376.718 741.451 377.682C759.823 398.929 774.673 418.702 786 437C798.854 457.768 803.188 480.434 799 505C793.666 491 787 478.667 779 468C771 457.333 759.666 449 745 443L746.039 444.752C759.952 468.278 769.216 486.534 773.831 499.521L774 500C778.666 513.333 781.666 538 783 574C773.666 544 762 517 748 493C734 469 699 443.667 643 417C644.279 424.311 648.612 432.311 656 441C663.387 449.69 672.387 458.69 683 468C660.028 458.11 638.941 448.085 619.74 437.924L618 437C598.334 426.523 573.046 409.856 542.135 387L544.287 389.537C561.37 409.615 575.274 424.436 586 434C597.172 443.962 609.838 452.629 624 460C607.109 461.177 589.436 461.218 570.98 460.122L569 460C549.827 458.781 520.981 455.781 482.461 451L484.353 451.848C503.778 460.516 519.145 466.191 530.455 468.873L531 469C542.72 471.71 559.72 475.044 582 479C561.061 483.616 541.842 486.583 524.342 487.902L523 488C505.141 489.266 477.765 487.933 440.869 484L444.951 485.355C466.421 492.442 483.104 497.324 495 500L496.258 500.279C508.793 503.018 525.893 505.592 547.56 508L545.447 508.478C517.785 514.715 496.636 518.555 482 520C467.265 521.455 449.003 521.481 427.214 520.079L426 520L408 595L389.284 540.806L388.918 542.932C385.112 564.838 378.153 599.07 368.041 645.63L366 655L328.116 564.825H287.145C259.698 514.053 249.983 478.111 258 457C261.57 447.598 268.856 438.579 279.858 429.943C275.095 392.483 300.809 363.502 357 343C402.315 269.02 451.315 230.353 504 227Z" fill="black" stroke="black" stroke-width="12" stroke-linecap="round" stroke-linejoin="round"/>
</g>
</svg>
