<svg width="1080" height="1080" viewBox="0 0 1080 1080" fill="none" xmlns="http://www.w3.org/2000/svg">
<g id="Hairstyle/ 34">
<g id="Shape">
<path fill-rule="evenodd" clip-rule="evenodd" d="M279.001 719L312.001 727L363.001 804L362.012 804.138C354.394 805.17 349.724 805.124 348.001 804C335.11 795.586 327.667 781.235 316.001 769C301.896 754.207 289.563 737.54 279.001 719ZM555.001 245C595.484 249.465 630.917 268.728 660.824 294.427L663.31 294.901C703.949 302.792 748.312 311.503 768.001 340C793.334 376.666 803.668 419.666 799.001 469C782.061 429.032 756.001 397 740.033 393.568C760.909 430.158 768.001 461.184 768.001 473C768.001 512 751.334 552.666 744.001 578C744.001 543.333 736.334 485.333 691.001 442C637.019 390.399 541.818 418 502.001 418C471.276 418 487.967 464.879 460.621 499.411C464.677 513 473.001 533 494.001 552C461.561 551.983 448.728 532.541 438.816 511.856L435.487 512.41C432.89 512.847 430.302 513.31 427.911 513.879C431.102 526.945 438.217 542.546 449.256 560.682C434.736 548.356 424.268 534.345 417.851 518.648C417.503 519.067 417.217 519.517 417.001 520C393.365 572.739 393.001 593 381.001 655H366.001L364.629 651.851C349.93 618.257 338.054 595.64 329.001 584L328.16 582.929C314.41 565.583 299.959 555.5 288.001 559L287.246 559.23L286.711 559.403C277.924 562.306 258.241 571.727 244.001 589C238.75 595.369 233.084 607.369 227.001 625L226.066 623.594L224.701 621.517C212.007 602.071 205.107 587.565 204.001 578C200.119 544.442 196.001 434 232.001 383C268.001 332 279.908 338.533 308.001 332C332.001 251.333 417.202 229.801 555.001 245Z" fill="black"/>
<path d="M279.001 719L280.414 713.169C278.088 712.605 275.648 713.478 274.208 715.391C272.768 717.303 272.602 719.889 273.787 721.97L279.001 719ZM312.001 727L317.003 723.687C316.167 722.425 314.885 721.525 313.414 721.169L312.001 727ZM363.001 804L363.829 809.942C365.87 809.658 367.623 808.346 368.47 806.467C369.318 804.588 369.141 802.405 368.003 800.687L363.001 804ZM362.012 804.138L362.818 810.083C362.826 810.082 362.833 810.081 362.84 810.08L362.012 804.138ZM348.001 804L351.28 798.975L348.001 804ZM316.001 769L311.658 773.14L316.001 769ZM555.001 245L554.343 250.964L555.001 245ZM660.824 294.427L656.914 298.977C657.709 299.661 658.669 300.124 659.699 300.32L660.824 294.427ZM663.31 294.901L664.453 289.011C664.447 289.01 664.441 289.009 664.435 289.008L663.31 294.901ZM768.001 340L763.064 343.41L768.001 340ZM799.001 469L793.477 471.341C794.549 473.871 797.202 475.349 799.917 474.929C802.632 474.51 804.715 472.3 804.974 469.565L799.001 469ZM740.033 393.568L741.294 387.702C738.98 387.205 736.59 388.114 735.192 390.024C733.794 391.933 733.649 394.486 734.821 396.542L740.033 393.568ZM744.001 578H738.001C738.001 580.988 740.2 583.521 743.158 583.94C746.117 584.36 748.933 582.539 749.764 579.668L744.001 578ZM691.001 442L686.855 446.337L691.001 442ZM460.621 499.411L455.918 495.686C454.702 497.22 454.312 499.251 454.872 501.127L460.621 499.411ZM494.001 552L493.998 558C496.48 558.001 498.706 556.474 499.599 554.158C500.492 551.842 499.867 549.216 498.026 547.551L494.001 552ZM438.816 511.856L444.227 509.263C443.073 506.854 440.465 505.499 437.83 505.937L438.816 511.856ZM435.487 512.41L434.501 506.492L434.491 506.493L435.487 512.41ZM427.911 513.879L426.521 508.042C424.967 508.412 423.625 509.386 422.792 510.749C421.959 512.112 421.703 513.751 422.082 515.302L427.911 513.879ZM449.256 560.682L445.373 565.256C447.617 567.162 450.913 567.157 453.152 565.245C455.391 563.333 455.912 560.078 454.381 557.563L449.256 560.682ZM417.851 518.648L423.405 516.377C422.607 514.427 420.845 513.038 418.763 512.718C416.68 512.397 414.582 513.193 413.235 514.814L417.851 518.648ZM417.001 520L411.526 517.546L417.001 520ZM381.001 655V661C383.875 661 386.345 658.962 386.892 656.14L381.001 655ZM366.001 655L360.5 657.397C361.454 659.585 363.614 661 366.001 661V655ZM364.629 651.851L370.129 649.455L370.126 649.446L364.629 651.851ZM329.001 584L333.737 580.316C333.731 580.309 333.726 580.302 333.72 580.295L329.001 584ZM328.16 582.929L332.879 579.223C332.873 579.216 332.868 579.209 332.862 579.202L328.16 582.929ZM288.001 559L286.316 553.241C286.294 553.248 286.273 553.254 286.251 553.26L288.001 559ZM287.246 559.23L285.497 553.49C285.465 553.5 285.432 553.51 285.4 553.521L287.246 559.23ZM286.711 559.403L284.865 553.694C284.853 553.698 284.841 553.702 284.829 553.706L286.711 559.403ZM244.001 589L239.371 585.183L244.001 589ZM227.001 625L222.004 628.322C223.268 630.222 225.499 631.241 227.762 630.951C230.026 630.662 231.929 629.113 232.673 626.957L227.001 625ZM226.066 623.594L221.053 626.89C221.058 626.899 221.064 626.908 221.07 626.916L226.066 623.594ZM224.701 621.517L219.676 624.796C219.68 624.802 219.683 624.807 219.687 624.813L224.701 621.517ZM204.001 578L209.961 577.31L204.001 578ZM308.001 332L309.36 337.844C311.46 337.355 313.137 335.778 313.752 333.711L308.001 332ZM277.587 724.831L310.587 732.831L313.414 721.169L280.414 713.169L277.587 724.831ZM306.999 730.313L357.999 807.313L368.003 800.687L317.003 723.687L306.999 730.313ZM362.173 798.057L361.185 798.195L362.84 810.08L363.829 809.942L362.173 798.057ZM361.206 798.192C357.526 798.691 354.776 798.897 352.855 798.878C351.895 798.869 351.278 798.803 350.926 798.739C350.508 798.662 350.77 798.642 351.28 798.975L344.721 809.024C346.094 809.92 347.585 810.327 348.765 810.543C350.012 810.771 351.361 810.864 352.737 810.877C355.486 810.904 358.88 810.617 362.818 810.083L361.206 798.192ZM351.28 798.975C345.669 795.313 341.073 790.248 336.229 784.187C331.547 778.33 326.417 771.23 320.343 764.859L311.658 773.14C317.251 779.006 321.676 785.199 326.855 791.679C331.871 797.956 337.442 804.273 344.721 809.024L351.28 798.975ZM320.343 764.859C306.59 750.435 294.545 734.165 284.214 716.03L273.787 721.97C284.58 740.916 297.202 757.979 311.658 773.14L320.343 764.859ZM554.343 250.964C593.293 255.26 627.633 273.817 656.914 298.977L664.735 289.876C634.201 263.638 597.675 243.67 555.659 239.036L554.343 250.964ZM659.699 300.32L662.185 300.795L664.435 289.008L661.949 288.533L659.699 300.32ZM662.166 300.791C682.581 304.755 703.359 308.827 721.474 315.367C739.612 321.914 754.253 330.658 763.064 343.41L772.937 336.589C762.059 320.845 744.675 310.984 725.549 304.08C706.401 297.167 684.677 292.938 664.453 289.011L662.166 300.791ZM763.064 343.41C787.504 378.784 797.577 420.339 793.028 468.435L804.974 469.565C809.758 418.994 799.164 374.549 772.937 336.589L763.064 343.41ZM804.525 466.658C795.865 446.224 784.849 427.751 773.858 413.86C768.364 406.917 762.794 401.013 757.432 396.564C752.172 392.2 746.662 388.856 741.294 387.702L738.772 399.435C741.387 399.996 745.123 401.944 749.77 405.799C754.315 409.571 759.312 414.816 764.447 421.306C774.713 434.28 785.198 451.807 793.477 471.341L804.525 466.658ZM734.821 396.542C755.396 432.603 762.001 462.589 762.001 473H774.001C774.001 459.78 766.422 427.714 745.244 390.595L734.821 396.542ZM762.001 473C762.001 491.707 757.995 511.019 752.972 529.011C750.466 537.988 747.728 546.565 745.138 554.537C742.566 562.455 740.106 569.878 738.237 576.331L749.764 579.668C751.563 573.455 753.936 566.294 756.551 558.244C759.149 550.247 761.953 541.47 764.53 532.238C769.674 513.814 774.001 493.293 774.001 473H762.001ZM750.001 578C750.001 542.675 742.223 482.662 695.147 437.663L686.855 446.337C730.445 488.004 738.001 543.992 738.001 578H750.001ZM695.147 437.663C666.431 410.214 627.142 404.194 591.113 404.65C573.018 404.879 555.434 406.75 540.048 408.533C524.45 410.341 511.51 412 502.001 412V424C512.401 424 526.292 422.208 541.43 420.454C556.779 418.674 573.835 416.87 591.265 416.649C626.286 416.205 661.589 422.185 686.855 446.337L695.147 437.663ZM502.001 412C497.387 412 493.279 412.884 489.706 414.784C486.116 416.693 483.424 419.437 481.377 422.612C477.47 428.667 475.667 436.747 474.152 444.622C470.968 461.163 468.483 479.818 455.918 495.686L465.325 503.136C480.105 484.471 482.947 462.421 485.935 446.89C487.506 438.728 489 432.93 491.46 429.117C492.596 427.357 493.855 426.169 495.34 425.379C496.842 424.58 498.933 424 502.001 424V412ZM454.872 501.127C459.137 515.415 467.926 536.5 489.975 556.449L498.026 547.551C478.075 529.5 470.218 510.585 466.371 497.695L454.872 501.127ZM494.004 546C479.135 545.992 469.248 541.59 461.914 535.166C454.373 528.559 449.115 519.463 444.227 509.263L433.405 514.449C438.43 524.935 444.544 535.902 454.007 544.192C463.678 552.664 476.427 557.991 493.998 558L494.004 546ZM437.83 505.937L434.501 506.492L436.473 518.329L439.802 517.774L437.83 505.937ZM434.491 506.493C431.879 506.933 429.122 507.423 426.521 508.042L429.301 519.716C431.483 519.196 433.901 518.762 436.483 518.327L434.491 506.493ZM422.082 515.302C425.479 529.209 432.934 545.407 444.13 563.802L454.381 557.563C443.5 539.686 436.725 524.681 433.74 512.455L422.082 515.302ZM453.139 556.108C439.261 544.327 429.414 531.079 423.405 516.377L412.297 520.918C419.121 537.611 430.211 552.385 445.373 565.256L453.139 556.108ZM413.235 514.814C412.565 515.621 411.981 516.531 411.526 517.546L422.476 522.454C422.466 522.477 422.457 522.492 422.453 522.498C422.449 522.505 422.452 522.499 422.466 522.482L413.235 514.814ZM411.526 517.546C387.534 571.08 387.043 592.207 375.11 653.86L386.892 656.14C398.959 593.792 399.197 574.397 422.476 522.454L411.526 517.546ZM381.001 649H366.001V661H381.001V649ZM371.501 652.603L370.129 649.455L359.128 654.248L360.5 657.397L371.501 652.603ZM370.126 649.446C355.436 615.872 343.303 592.616 333.737 580.316L324.265 587.683C332.805 598.664 344.424 620.642 359.132 654.256L370.126 649.446ZM333.72 580.295L332.879 579.223L323.441 586.634L324.282 587.705L333.72 580.295ZM332.862 579.202C325.755 570.236 318.21 562.806 310.58 558.054C302.978 553.319 294.567 550.827 286.316 553.241L289.686 564.758C293.393 563.674 298.187 564.473 304.237 568.24C310.26 571.992 316.815 578.275 323.458 586.656L332.862 579.202ZM286.251 553.26L285.497 553.49L288.996 564.969L289.75 564.739L286.251 553.26ZM285.4 553.521L284.865 553.694L288.558 565.112L289.093 564.939L285.4 553.521ZM284.829 553.706C275.318 556.848 254.535 566.79 239.371 585.183L248.63 592.816C261.947 576.664 280.531 567.764 288.594 565.1L284.829 553.706ZM239.371 585.183C233.375 592.457 227.425 605.373 221.329 623.043L232.673 626.957C238.742 609.365 244.126 598.28 248.63 592.816L239.371 585.183ZM231.997 621.678L231.063 620.272L221.07 626.916L222.004 628.322L231.997 621.678ZM231.08 620.298L229.714 618.221L219.687 624.813L221.053 626.89L231.08 620.298ZM229.725 618.237C223.467 608.649 218.72 600.405 215.424 593.476C212.094 586.476 210.405 581.146 209.961 577.31L198.041 578.689C198.703 584.419 201.017 591.124 204.587 598.63C208.191 606.206 213.241 614.938 219.676 624.796L229.725 618.237ZM209.961 577.31C208.06 560.877 206.075 525.266 209.027 487.508C212.001 449.473 219.904 410.542 236.903 386.46L227.099 379.54C208.098 406.458 200.06 448.247 197.063 486.573C194.045 525.175 196.06 561.565 198.041 578.689L209.961 577.31ZM236.903 386.46C254.756 361.167 266.036 351.054 275.674 346.179C280.473 343.751 285.118 342.494 290.49 341.441C295.621 340.435 302.274 339.492 309.36 337.844L306.642 326.156C299.681 327.775 294.31 328.464 288.183 329.665C282.296 330.818 276.447 332.34 270.258 335.471C257.919 341.712 245.245 353.832 227.099 379.54L236.903 386.46ZM313.752 333.711C325.12 295.501 350.791 271.289 390.69 258.254C430.99 245.087 485.718 243.395 554.343 250.964L555.659 239.036C486.484 231.406 429.712 232.881 386.963 246.847C343.812 260.945 314.882 287.832 302.25 330.289L313.752 333.711Z" fill="black"/>
</g>
</g>
</svg>
