<svg width="1080" height="1080" viewBox="0 0 1080 1080" fill="none" xmlns="http://www.w3.org/2000/svg">
<g id="Hairstyle/ 35">
<path id="Path" fill-rule="evenodd" clip-rule="evenodd" d="M445 265C601.485 215.883 723 324 727 324C729.667 324 729.333 314 732 310C732 310 764 352 760 396C756 440 752.216 445.551 737 470C717.816 433.899 655.516 405.849 570.098 405.849C529.82 405.849 496.705 408.638 444 422C444 422 429.543 433.177 425 438C415.42 448.172 412.102 455.977 408 461C408 461 408.354 437.736 409.769 431.439C399.445 434.309 388.894 437.421 378.119 440.774C378.861 449.966 379.156 482.708 387 499L371 622L368.124 619.455C345.932 599.757 331.688 585.779 325.391 577.52L325 577C318.661 568.473 305.994 562.473 287 559L286.069 555.564C277.514 524.212 269.945 502.053 266.881 480.742C254.807 485.592 242.513 490.679 230 496C269.01 358.746 340.677 297.746 445 265Z" fill="black" stroke="black" stroke-width="12" stroke-linecap="round" stroke-linejoin="round"/>
</g>
</svg>
