<svg width="1080" height="1080" viewBox="0 0 1080 1080" fill="none" xmlns="http://www.w3.org/2000/svg">
<g id="Hairstyle/ 36">
<path id="Path" fill-rule="evenodd" clip-rule="evenodd" d="M539.999 312C671.999 328 752.424 414.219 744.999 431C738.933 444.707 738.933 459.707 744.999 476C727.499 489.392 675.365 429.548 603.549 403.064L601.751 404.165C596.113 407.606 591.005 410.616 586.427 413.198L584.999 414C569.805 422.476 559.864 426.483 555.177 426.02L554.999 426L570.037 393.773C568 393.401 565.95 393.064 563.888 392.762L562.609 393.979C553.521 402.603 546.117 409.172 540.395 413.688L539.999 414C531.811 420.414 519.58 428.452 503.307 438.112L502.447 438.622L530.202 391.102C528.426 391.14 526.674 391.188 524.945 391.246L523.493 392.663C511.479 404.358 501.473 413.346 493.476 419.626L492.999 420C482.336 428.313 432.999 457 432.999 457L458.999 413C421.999 426 408.999 438 400.999 448C392.999 458 373.393 491.363 394.999 510L328.116 564.825H287.145C271.779 507.747 259.999 405 337.999 391C384.666 327.666 451.999 301.333 539.999 312Z" fill="black" stroke="black" stroke-width="12" stroke-linecap="round" stroke-linejoin="round"/>
</g>
</svg>
