<svg width="1080" height="1080" viewBox="0 0 1080 1080" fill="none" xmlns="http://www.w3.org/2000/svg">
<g id="Hairstyle/ 38">
<path id="Path" fill-rule="evenodd" clip-rule="evenodd" d="M605 263C704 296 733 387.139 733 419C733 445.483 682 437 682 437C682 437 622.089 396.832 572 388C504.631 376.121 467 422 445 424C423 426 408 437 399 463C390 489 417 540 417 540L382 655H366L328.117 564.825H287.146C265.131 517.303 245 413 269 379C293 345 327 345 327 345C327 345 336 323 373 290C410 257 506 230 605 263Z" fill="black" stroke="black" stroke-width="12" stroke-linecap="round" stroke-linejoin="round"/>
</g>
</svg>
