<svg width="1080" height="1080" viewBox="0 0 1080 1080" fill="none" xmlns="http://www.w3.org/2000/svg">
<g id="Hairstyle/ 40">
<path id="Path" fill-rule="evenodd" clip-rule="evenodd" d="M639 277.308C667.43 286.446 696 298 704 336C710.842 368.499 711 378 689 446C682.333 430.667 649.333 422 590 420C561.16 419.028 528.044 403.964 495 406C470.467 407.511 431.899 420.685 379.296 445.522L380.068 448.707C388.266 482.685 392.365 505.363 392.365 516.739C392.365 527.77 384.591 569.192 369.044 641.005L366 655L328.117 564.825H287.146C271.78 507.747 268.106 468.653 276.123 447.542C284.14 426.431 296.099 411.251 312 402C331 367 470.357 328.33 494.118 324.238C495.772 323.953 497.385 323.709 498.959 323.505L500.461 322.624C508.552 317.838 513.95 313.985 519.924 310.186C492.292 313.158 451.984 326.133 399.002 349.111C446.763 317.858 490.246 301.828 529.453 301.02C531.82 300.971 534.136 300.973 536.402 301.026C538.424 300.055 540.611 299.049 543 298C548.899 295.41 556.081 293.379 564.106 291.94C536.526 289.839 492.546 297.699 432.166 315.521C483.379 290.323 528.492 279.711 567.505 283.687C577.797 284.736 587.013 286.631 595.151 289.371C618.568 289.36 644.007 293.263 664.64 301.589C657.176 294.844 648.63 289.751 639 286.308C613.258 277.105 566.925 275.105 500 280.308C555.333 266.308 601.667 265.308 639 277.308Z" fill="black" stroke="black" stroke-width="12" stroke-linecap="round" stroke-linejoin="round"/>
</g>
</svg>
