<svg width="1080" height="1080" viewBox="0 0 1080 1080" fill="none" xmlns="http://www.w3.org/2000/svg">
<g id="Hairstyle/ 43">
<path id="Path" fill-rule="evenodd" clip-rule="evenodd" d="M544 253L528.944 271.167C568.315 256.389 601 263 643 291C706 333 701 361 720 386C732.667 402.667 746.667 415.333 762 424C762 424 708.001 418.452 694.769 415.145L694.288 415.024C680.115 411.421 663.105 401.882 643.257 386.407L647.113 390.676C658.226 402.896 667.201 412.043 674.038 418.118C681.648 424.88 713.55 438.841 727 446C727 446 671 442 645.285 427.18C619.571 412.36 594.198 392.866 574 388C570.218 387.089 565.105 386.179 559.065 385.407L560.454 387.861C570.848 406.356 583.419 431.126 605 445C623.667 457 642.667 464.333 662 467C620.448 461.431 589.115 443.765 568 414C560.977 404.101 553.193 394.101 544.647 384.002C517.805 382.135 482.078 383.605 458.704 395.632L455.959 397.071C422.61 414.405 388.806 424.43 379.296 445.522C364.032 479.374 379 498.408 379 516L378.995 516.737L378.98 517.53L378.957 518.382C378.513 532.298 374.679 573.294 367.453 641.371L366 655L328.117 564.825H287.146C271.78 507.747 268.106 468.653 276.123 447.542C280.074 437.137 290.485 420.339 307.26 402.225C304.179 389.659 303.282 378.973 304.569 370.165C306.797 354.915 317.598 331.455 336.97 299.784V326.08C365.15 298.583 393.771 280.278 422.832 271.167C451.892 262.056 492.282 256 544 253Z" fill="black" stroke="black" stroke-width="12" stroke-linecap="round" stroke-linejoin="round"/>
</g>
</svg>
