<svg width="1080" height="1080" viewBox="0 0 1080 1080" fill="none" xmlns="http://www.w3.org/2000/svg">
<g id="Hairstyle/ 44">
<path id="Path" fill-rule="evenodd" clip-rule="evenodd" d="M597 238C641.824 249.881 671.655 291.241 696.256 360.881L697 363C700.664 373.502 708.997 386.502 722 402L697 422C682.827 418.397 663.105 401.882 643.257 386.408L647.113 390.676L648.98 392.721C659.235 403.922 667.588 412.387 674.038 418.118C681.648 424.88 713.55 438.841 727 446L724.772 445.836C688.581 443.081 662.086 436.863 645.285 427.18L643.627 426.218C618.482 411.529 593.764 392.762 574 388L573.067 387.782C569.394 386.944 564.622 386.117 559.065 385.408L560.454 387.862L565.488 396.883C574.977 413.799 586.776 433.285 605 445C623.667 457 642.667 464.334 662 467C620.864 461.487 589.743 444.117 568.637 414.89L568 414C560.977 404.101 553.193 394.102 544.647 384.003C536.125 383.41 526.708 383.153 517.075 383.464C522.563 395.453 528.871 406.631 536 417C545.922 431.432 558.588 442.432 574 450C558.314 446.104 544.98 437.771 534 425C524.82 414.324 515.394 400.692 505.721 384.104C488.662 385.492 471.757 388.916 458.704 395.633L455.959 397.071C422.61 414.405 448.51 432.908 439 454C423.737 487.852 379 498.408 379 516L378.995 516.738L378.98 517.531L378.957 518.382C378.513 532.298 374.679 573.294 367.453 641.372L366 655L328.117 564.825H287.146C271.78 507.748 268.106 468.653 276.123 447.543C280.074 437.137 290.485 420.34 307.26 402.225C304.179 389.659 303.282 378.973 304.569 370.166C306.797 354.916 337.168 294.833 401 269C428.459 257.888 444.639 265.754 470 256C483 251 514 216 597 238Z" fill="black" stroke="black" stroke-width="12" stroke-linecap="round" stroke-linejoin="round"/>
</g>
</svg>
