<svg width="1080" height="1080" viewBox="0 0 1080 1080" fill="none" xmlns="http://www.w3.org/2000/svg">
<g id="Hairstyle/ 45">
<path id="Path" fill-rule="evenodd" clip-rule="evenodd" d="M292.971 564.825C277.873 567.272 258.567 554.108 246.937 532.237C233.584 507.123 235.409 480.039 251.014 471.742C252.305 471.055 253.651 470.519 255.04 470.126C243.353 453.821 242.471 429.447 254.565 408.5C260.569 398.1 268.904 390.048 278.219 384.817C275.44 369.838 277.642 354.211 285.597 340.432C293.987 325.9 307.357 315.882 322.718 311.056C323.667 302.497 326.329 294.076 330.847 286.25C343.211 264.836 366.387 253.224 390.812 253.583C398.178 228.269 419.208 210 444 210C454.193 210 463.75 213.088 471.982 218.483C484.406 205.889 502.217 198 522 198C543.277 198 562.272 207.126 574.741 221.414C585.992 214.179 599.274 210 613.5 210C654.093 210 687 244.026 687 286L686.998 286.645C689.603 286.22 692.277 286 695 286C723.167 286 746 309.505 746 338.5C746 347.535 743.783 356.037 739.878 363.461C761.167 393.857 753.207 421.37 716 446C694.607 460.162 604.369 465.353 550.694 460.999C511.12 457.789 428.105 430.958 412 428C404.393 426.603 415.06 436.603 444 458C409.921 485.157 392.711 504.618 392.37 516.385L392.365 516.739C392.365 528.233 383.925 572.725 367.044 650.214L366 655L328.117 564.825L292.971 564.825Z" fill="black" stroke="black" stroke-width="12" stroke-linecap="round" stroke-linejoin="round"/>
</g>
</svg>
