<svg width="1080" height="1080" viewBox="0 0 1080 1080" fill="none" xmlns="http://www.w3.org/2000/svg">
<g id="Hairstyle/ 48">
<path id="Path" fill-rule="evenodd" clip-rule="evenodd" d="M328.117 564.825L366 655C366 655 385.371 570.084 403 540C424.858 502.699 480 494 480 494C480 494 477.209 483.947 476 475C474.791 466.054 476 457 476 457L362 410L492 433C492 433 563.019 419.458 616 419C647.294 418.73 693 426 693 426C693 426 678 383 592 359C506 335 397 367 346 426C295 485 290 565 290 565L328.117 564.825Z" fill="black" stroke="black" stroke-width="12" stroke-linecap="round" stroke-linejoin="round"/>
</g>
</svg>
