<svg width="1080" height="1080" viewBox="0 0 1080 1080" fill="none" xmlns="http://www.w3.org/2000/svg">
<g id="Hairstyle/ 51">
<path id="Path" fill-rule="evenodd" clip-rule="evenodd" d="M382.001 274C429.761 244.346 494.39 241.407 575.889 265.181L577.14 264.65C597.829 255.949 630.441 246.059 677.001 272C747.001 311 754.98 383.101 781.001 387C799.46 389.766 805.56 435.498 822.001 477C828.104 492.404 867.001 502 867.001 502L822.001 521C822.001 521 831.927 531.092 845.001 539C856.33 545.852 876.001 570 876.001 570C876.001 570 833.793 577.748 828.001 590C824.892 596.577 861.406 604.103 872.001 648C886.001 706 839.99 786.03 868.953 803.495C882.072 811.406 916.953 833.495 916.953 833.495C916.953 833.495 864.775 885.051 840.953 878.495C804.135 868.363 756.953 833.495 756.953 833.495C756.953 833.495 768.409 700.557 764.001 625C760.916 572.103 746.184 514.788 732.001 493C697.561 440.091 627.001 387 540.001 387C473.08 387 468.925 425.463 468.925 425.463C465.119 446.727 465.116 469.946 450.001 502C423.775 557.618 331.05 595.505 331.05 624.505C331.05 653.505 340.05 654.505 340.05 670.505C340.05 686.505 328.02 694.862 331.05 716.505C333.07 730.933 344.021 804.095 360.001 825C332.475 852.867 306.808 870.534 283.001 878C259.195 885.466 228.528 885.466 191.001 878C200.307 869.655 206.974 861.989 211.001 855L211.393 854.308C215.33 847.232 219.867 835.462 225.001 819C218.698 825.705 212.365 830.371 206.001 833C199.637 835.628 190.637 837.295 179.001 838L181.003 835.564C186.363 829.017 190.521 823.735 193.477 819.717L194.434 818.408C199.252 811.846 203.628 806.7 201.001 796C198.297 784.981 163.573 686.372 165.05 653.505C166.035 631.593 176.701 599.259 197.05 556.505C193.586 560.378 189.586 563.378 185.05 565.505C180.513 567.631 173.847 569.631 165.05 571.505L166.29 570.4C177.121 560.712 184.708 552.746 189.05 546.505C193.556 540.027 196.222 533.027 197.05 525.505C190.855 527.314 185.855 527.98 182.05 527.505C178.244 527.029 172.578 525.029 165.05 521.505L166.345 520.889C174.864 516.82 181.099 513.358 185.05 510.505C189.198 507.508 194.532 502.508 201.05 495.505L202.221 492.969C221.276 451.815 236.552 423.661 248.05 408.505C280.199 366.126 314.722 340.408 344.05 318.505C360.26 306.398 368.717 282.248 382.001 274Z" fill="black" stroke="black" stroke-width="12" stroke-linecap="round" stroke-linejoin="round"/>
</g>
</svg>
