<svg width="1080" height="1080" viewBox="0 0 1080 1080" fill="none" xmlns="http://www.w3.org/2000/svg">
<g id="Hairstyle/ 53">
<path id="Path" fill-rule="evenodd" clip-rule="evenodd" d="M613.5 244C654.093 244 687 274.026 687 316L686.997 316.645C689.603 316.22 692.277 316 695 316C723.167 316 748 330 770 373C792 416 781 435 792 448C803 461 820 467 828 493C836 519 815.241 509.298 816 550C816.54 578.966 832 566 832 617C832 635.647 819.419 660.857 821 689C823.742 737.831 843 729 832 770C821 811 720 812 720 812C720 812 772.427 660.662 768 621C763.573 581.338 746 498 746 498C746 498 729 468 702 468C675 468 688.707 428 659 428C637 428 615 461 615 461C615 461 598 428 573 428C548 428 533 434 510 461C487 488 450.813 483.582 443 498C433.328 515.849 463 540 443 556C423 572 396 533 388 547C380 561 364 604 364 604C364 604 361 585 347 570C333 555 238 566 238 634C238 702 328 713 328 713C336.734 731.3 356.173 756.65 388 790C407.189 810.107 459 841 459 841C459 841 452.439 895.974 450 915C447.857 931.712 419.356 966.144 377 979C361.306 983.763 334.64 977.763 295 973C295 973 282 983 282 992C282 1001 294.5 1015.13 311 1014C295.75 1022.85 280.417 1027.51 265 1028C249.874 1028.48 233.545 1025.6 216.013 1019.36L215 1019L214.986 1018.93C193.84 1014.34 178 995.521 178 973C178 953.068 190.407 936.034 207.92 929.2C209.175 926.563 209.868 923.83 210 921C210.144 917.911 209.623 914.604 208.438 911.078C194.977 902.812 186 887.954 186 871C186 854.808 194.188 840.529 206.649 832.076C206.968 829.645 164 798 164 770C164 742 181.927 736.836 182 725C182.155 699.814 167.923 696.541 171 675C174 654 193.652 643.114 196 632C201.615 605.424 194.409 567.818 196 556C203 504 246.225 477.707 245 477C221.564 463.469 238 428 249 416C260 404 286.64 394.956 298 390C296.038 369.821 297 336 316 317C335 298 356.303 292.454 388.365 297.864C392.538 265.434 432.419 240 481 240C512.538 240 540.41 250.719 557.226 267.112C570.706 250.535 590.913 244 613.5 244Z" fill="black" stroke="black" stroke-width="12" stroke-linecap="round" stroke-linejoin="round"/>
</g>
</svg>
