<svg width="1080" height="1080" viewBox="0 0 1080 1080" fill="none" xmlns="http://www.w3.org/2000/svg">
<g id="Hairstyle/ 55">
<path id="Path" fill-rule="evenodd" clip-rule="evenodd" d="M487 191C449.049 190.993 402.919 208.064 358.282 237.332C297.063 277.472 262.651 325.553 232 399C201.661 471.699 196 540 214 639C232 738 371.109 800.584 359 788C332.527 760.489 312 719 312 719C312 719 232 705 232 639C232 573 286 566 311 566C336 566 359 611 359 611C359 611 379 592 383 548C384.869 527.436 460.693 517.615 525 477C544 465 583.852 434.505 600 422C603.93 418.957 489.739 533.181 493 530C496.133 526.944 533.04 516.971 588 477C610 461 644 414 644 414C644 414 687.325 439.866 708 461C753 507 764 568 764 639C764 675.671 758.252 722.764 741 804C728.048 864.99 884 959 884 959C884 959 847.84 782.829 847 738C845.177 640.781 860.688 623.08 847 530C827 394 751 292 673 241C595 190 506.36 191 487 191Z" fill="black" stroke="black" stroke-width="12" stroke-linecap="round" stroke-linejoin="round"/>
</g>
</svg>
