<svg width="1080" height="1080" viewBox="0 0 1080 1080" fill="none" xmlns="http://www.w3.org/2000/svg">
<g id="Hairstyle/ 58">
<path id="Path" fill-rule="evenodd" clip-rule="evenodd" d="M487 190.995H492.802L494.51 191.009C523.444 191.291 602.561 194.944 673 241C751 292 798 423 798 561C798 699 771 758.334 721 873L724.371 856.476L727.478 841.174C751.826 720.961 764 653.57 764 639C764 568 753 507 708 461C695.022 447.734 675.35 433.069 648.985 417.006C627.277 462.471 602.282 493.802 574 511C500 556 451 526 417 561C411.432 566.732 406.066 572.644 400.9 578.738L401.07 583.058L401.244 587.26C404.124 655.641 409.526 711.553 417.449 755C428.75 816.968 456.934 899.301 502 1002L496.701 998.514C471.556 981.937 442.273 953.379 422 939C422 939 431.121 968.937 436 981C438.93 988.244 447 1011 447 1011C447 1011 353.876 922.968 329 880C304.124 837.032 262 797 262 797C256.014 811.362 253.429 824.778 242 847C230 870.334 198.667 876 176 904L177.554 901.082C202.478 854.153 222.733 831.008 228 809C228 809 240 759 228 699C216 639 203 623 199 579C195 535 201.661 471.698 232 399C262.651 325.553 297.063 277.471 358.282 237.331C402.919 208.064 449.049 190.995 487 190.995Z" fill="black" stroke="black" stroke-width="12" stroke-linecap="round" stroke-linejoin="round"/>
</g>
</svg>
