<?xml version="1.0" encoding="UTF-8"?>
<svg width="1080px" height="1080px" viewBox="0 0 1080 1080" version="1.1" xmlns="http://www.w3.org/2000/svg" xmlns:xlink="http://www.w3.org/1999/xlink">
    <title>Hairstyle/ 7</title>
    <g id="Hairstyle/-7" stroke="none" stroke-width="1" fill="none" fill-rule="evenodd" stroke-linecap="round" stroke-linejoin="round">
        <path d="M429,249 C452,238 567.078089,210.731301 629,239 C751.666667,295 808,414 798,596 C706.666667,504.666667 636.333333,456.666667 587,452 C583.849456,451.701976 580.427025,451.181996 576.732706,450.440062 L578.623143,452.186178 C595.446627,467.677375 615.572664,484.948764 639,504 C565.154464,479.561802 512.897321,455.171558 482.228571,430.829268 C471.250239,422.115586 460.817679,411.645571 450.930891,399.419222 C448.886906,440.886337 443.90983,479.746614 436,516 C428.08,552.3 405.1318,598.0743 367.1554,653.3229 L366,655 L328.116663,564.824988 L287.145773,564.824988 C261.048591,494.941663 255,439.333333 269,398 C283,356.666667 311.333333,337.666667 354,341 C365.105394,298.268435 390.105394,267.601768 429,249 Z" id="Path" stroke="#000000" stroke-width="12" fill="#000000"></path>
    </g>
</svg>