<?xml version="1.0" encoding="UTF-8"?>
<svg width="1080px" height="1080px" viewBox="0 0 1080 1080" version="1.1" xmlns="http://www.w3.org/2000/svg" xmlns:xlink="http://www.w3.org/1999/xlink">
    <title>Hairstyle/ 9</title>
    <g id="Hairstyle/-9" stroke="none" stroke-width="1" fill="none" fill-rule="evenodd" stroke-linecap="round" stroke-linejoin="round">
        <path d="M600.328004,173.378628 C706.51335,164.088614 796.476165,200.935719 801.265577,255.678942 C803.695286,283.450641 783.737843,310.49297 749.618561,331.611505 C765.063752,338.699548 774.521929,348.01487 775.46916,358.841774 C776.714595,373.077161 763.016568,387.294038 739.738901,398.89906 L740.480755,402.50703 C740.650616,403.32637 740.823745,404.157384 741,405 C746.333333,406.333333 749,411.666667 749,421 C749,430.333333 737,447 713,471 C701.666667,455.666667 690,445.333333 678,440 C666.920655,435.075847 654.532414,432.679571 640.835277,432.811173 C637.222979,442.406663 631.069509,450.272246 622.5,455.219854 C608.589242,463.251234 591.202794,461.924641 575.013121,453.322279 C570.690288,458.087969 565.680763,462.179157 560,465.458947 C538.447788,477.902122 511.612082,476.138657 486.418588,463.265159 L485.395785,464.617496 C480.437333,471.120347 474.397833,478.222483 465,486 C445.666667,502 416.333333,512 377,516 L391,672 L371,672 L325,562 L289,568 C273.634723,510.922397 239,431 256,379 C266.31189,347.457747 308.818577,301.919892 356,277 C356.84754,276.552353 357.701097,276.115198 358.559964,275.688267 C352.18227,272.103338 343.995473,268.20694 334,264 C351.648204,258 368.981537,255 386,255 C397.257459,255 408.50684,256.312688 419.748142,258.938063 L421.437432,258.728011 C421.992551,258.660372 422.539594,258.595072 423.078261,258.531995 C444.228158,216.299002 514.42929,180.893791 600.328004,173.378628 Z" id="Path" stroke="#000000" stroke-width="12" fill="#000000"></path>
    </g>
</svg>