<?xml version="1.0" encoding="UTF-8"?>
<svg width="178px" height="64px" viewBox="0 0 178 64" version="1.1" xmlns="http://www.w3.org/2000/svg" xmlns:xlink="http://www.w3.org/1999/xlink">
    <title>eyes-9</title>
    <g id="All-customizable-items" stroke="none" stroke-width="1" fill="none" fill-rule="evenodd">
        <g id="Eyes/-9" transform="translate(-550.000000, -507.000000)" fill="#000000">
            <path d="M570,507 C575.854822,507 581.122051,511.025253 584.779642,517.440484 L578,531 L589.369946,531.000208 C589.781247,533.557105 590,536.237678 590,539 C590,556.673112 581.045695,571 570,571 C558.954305,571 550,556.673112 550,539 C550,521.326888 558.954305,507 570,507 Z M708,507 C713.854822,507 719.122051,511.025253 722.779642,517.440484 L716,531 L727.369946,531.000208 C727.781247,533.557105 728,536.237678 728,539 C728,556.673112 719.045695,571 708,571 C696.954305,571 688,556.673112 688,539 C688,521.326888 696.954305,507 708,507 Z" id="eyes-9"></path>
        </g>
    </g>
</svg>