<svg width="217" height="34" viewBox="0 0 217 34" fill="none" xmlns="http://www.w3.org/2000/svg">
<path fill-rule="evenodd" clip-rule="evenodd" d="M3 7.53133C3 7.53133 31.5687 22.1323 55.1689 19.6149C78.7692 17.0975 68.8322 3 68.8322 3C68.8322 3 83.7377 17.601 62.6217 22.1323C41.5057 26.6636 3 7.53133 3 7.53133Z" fill="black" stroke="black" stroke-width="6" stroke-linecap="round" stroke-linejoin="round"/>
<path d="M9 12L5 20" stroke="black" stroke-width="4" stroke-linecap="round" stroke-linejoin="round"/>
<path d="M23 17L20 26" stroke="black" stroke-width="4" stroke-linecap="round" stroke-linejoin="round"/>
<path d="M37 20L35 30" stroke="black" stroke-width="4" stroke-linecap="round" stroke-linejoin="round"/>
<path d="M51 22L50 32" stroke="black" stroke-width="4" stroke-linecap="round" stroke-linejoin="round"/>
<path d="M63 21L65 30" stroke="black" stroke-width="4" stroke-linecap="round" stroke-linejoin="round"/>
<path d="M73 17L77 23" stroke="black" stroke-width="4" stroke-linecap="round" stroke-linejoin="round"/>
<path fill-rule="evenodd" clip-rule="evenodd" d="M141 7.53133C141 7.53133 169.569 22.1323 193.169 19.6149C216.769 17.0975 206.832 3 206.832 3C206.832 3 221.738 17.601 200.622 22.1323C179.506 26.6636 141 7.53133 141 7.53133Z" fill="black" stroke="black" stroke-width="6" stroke-linecap="round" stroke-linejoin="round"/>
<path d="M147 12L143 20" stroke="black" stroke-width="4" stroke-linecap="round" stroke-linejoin="round"/>
<path d="M161 17L158 26" stroke="black" stroke-width="4" stroke-linecap="round" stroke-linejoin="round"/>
<path d="M175 20L173 30" stroke="black" stroke-width="4" stroke-linecap="round" stroke-linejoin="round"/>
<path d="M189 22L188 32" stroke="black" stroke-width="4" stroke-linecap="round" stroke-linejoin="round"/>
<path d="M201 21L203 30" stroke="black" stroke-width="4" stroke-linecap="round" stroke-linejoin="round"/>
<path d="M211 17L215 23" stroke="black" stroke-width="4" stroke-linecap="round" stroke-linejoin="round"/>
</svg>
